<svg width="56" height="54" viewBox="0 0 56 54" fill="none" xmlns="http://www.w3.org/2000/svg">
<path d="M36.3245 9.98093C37.5363 11.3206 36.5045 13.3189 34.6981 13.3189H2.25364C0.690812 13.3189 -0.396742 11.7658 0.137716 10.2972L3.34495 1.4843C3.66844 0.595403 4.51042 0.00346571 5.45635 0.00278804C8.3968 0.000681493 14.4514 -0.0028074 14.6602 0.00400299C23.2501 0.234957 30.9485 4.03756 36.3245 9.98093Z" fill="url(#paint0_linear_635_4146)"/>
<path d="M44.1542 30.3191C44.1542 33.9833 43.5042 37.496 42.3138 40.7474L38.2986 51.782C37.9749 52.6716 37.1293 53.2637 36.1827 53.2637H27.6602C26.0973 53.2637 25.0098 51.7106 25.5443 50.242L37.4602 17.5015C38.089 15.7738 40.3691 15.5206 41.1668 17.177C43.0816 21.153 44.1542 25.6114 44.1542 30.3191Z" fill="url(#paint1_linear_635_4146)"/>
<path d="M41.1335 4.43691L40.226 10.0469C40.1166 10.7232 40.8794 11.1941 41.4349 10.7933C41.5198 10.732 41.5913 10.6541 41.645 10.5643L43.0022 8.29397C43.241 7.89452 43.6387 7.61575 44.0957 7.52751C45.4625 7.26354 46.5033 8.73687 45.8218 9.95081C45.6007 10.3447 45.2255 10.6339 44.7876 10.7445L42.2292 11.3909C42.1356 11.4146 42.0474 11.4557 41.9691 11.5122C41.4141 11.9126 41.6245 12.7846 42.301 12.888L47.8428 13.7347C48.7651 13.8756 49.6788 13.4331 50.1401 12.6221L55.0616 3.97017C56.0153 2.29346 54.5569 0.272029 52.665 0.648475L42.9169 2.58811C41.9948 2.7716 41.2837 3.50875 41.1335 4.43691Z" fill="url(#paint2_linear_635_4146)"/>
<defs>
<linearGradient id="paint0_linear_635_4146" x1="27.681" y1="0" x2="27.681" y2="53.2637" gradientUnits="userSpaceOnUse">
<stop stop-color="#F4F5F9"/>
<stop offset="1" stop-color="#ACA5DA"/>
</linearGradient>
<linearGradient id="paint1_linear_635_4146" x1="27.681" y1="0" x2="27.681" y2="53.2637" gradientUnits="userSpaceOnUse">
<stop stop-color="#F4F5F9"/>
<stop offset="1" stop-color="#ACA5DA"/>
</linearGradient>
<linearGradient id="paint2_linear_635_4146" x1="27.681" y1="0" x2="27.681" y2="53.2637" gradientUnits="userSpaceOnUse">
<stop stop-color="#F4F5F9"/>
<stop offset="1" stop-color="#ACA5DA"/>
</linearGradient>
</defs>
</svg>
