<svg width="161" height="126" viewBox="0 0 161 126" fill="none" xmlns="http://www.w3.org/2000/svg">
<g style="mix-blend-mode:lighten" opacity="0.5" filter="url(#filter0_f_612_5007)">
<ellipse cx="86.7206" cy="39.2689" rx="29.9198" ry="29.8686" fill="url(#paint0_radial_612_5007)" fill-opacity="0.2"/>
</g>
<g filter="url(#filter1_dddd_612_5007)">
<path d="M84.3934 29.8925C85.7155 31.3516 84.5898 33.5281 82.6189 33.5281H47.2205C45.5154 33.5281 44.3289 31.8365 44.912 30.237L48.4112 20.6381C48.7641 19.67 49.6828 19.0253 50.7148 19.0245C53.923 19.0222 60.5288 19.0184 60.7567 19.0258C70.1287 19.2774 78.528 23.4191 84.3934 29.8925Z" fill="url(#paint1_radial_612_5007)"/>
<path d="M92.936 52.0443C92.936 56.0353 92.2268 59.8612 90.928 63.4026L86.5472 75.4212C86.1941 76.3901 85.2715 77.035 84.2386 77.035H74.9402C73.2351 77.035 72.0485 75.3434 72.6317 73.7438L85.6325 38.0837C86.3185 36.2019 88.8062 35.9261 89.6766 37.7303C91.7657 42.0609 92.936 46.9168 92.936 52.0443Z" fill="url(#paint2_radial_612_5007)"/>
<path d="M89.6403 23.8541L88.6501 29.9643C88.5307 30.7009 89.363 31.2138 89.9691 30.7773C90.0617 30.7106 90.1397 30.6257 90.1983 30.5278L91.6791 28.0551C91.9396 27.62 92.3735 27.3164 92.8721 27.2203C94.3634 26.9328 95.4989 28.5375 94.7554 29.8597C94.5141 30.2886 94.1048 30.6036 93.627 30.7241L90.8357 31.4282C90.7336 31.4539 90.6373 31.4987 90.552 31.5602C89.9464 31.9964 90.1759 32.9462 90.914 33.0587L96.9604 33.981C97.9667 34.1344 98.9635 33.6525 99.4668 32.7692L104.836 23.3457C105.877 21.5195 104.286 19.3178 102.222 19.7278L91.586 21.8404C90.5799 22.0402 89.8041 22.8431 89.6403 23.8541Z" fill="url(#paint3_radial_612_5007)"/>
</g>
<path d="M149.533 118.383V100.936H154.163L154.327 106.014L153.968 105.916C154.25 104.158 154.75 102.889 155.468 102.107C156.185 101.326 157.174 100.936 158.435 100.936H160.033V104.972H158.435C157.522 104.972 156.772 105.091 156.185 105.33C155.598 105.569 155.153 105.949 154.848 106.469C154.566 106.99 154.424 107.695 154.424 108.585V118.383H149.533Z" fill="#CD4739"/>
<path d="M139.271 118.774C137.489 118.774 135.934 118.405 134.608 117.667C133.304 116.908 132.282 115.844 131.543 114.477C130.826 113.11 130.467 111.504 130.467 109.659C130.467 107.815 130.826 106.22 131.543 104.874C132.282 103.507 133.304 102.444 134.608 101.684C135.913 100.925 137.456 100.545 139.239 100.545C140.978 100.545 142.489 100.925 143.771 101.684C145.054 102.444 146.043 103.529 146.738 104.939C147.456 106.35 147.815 108.032 147.815 109.985V110.961H135.521C135.587 112.35 135.956 113.381 136.63 114.054C137.326 114.727 138.239 115.063 139.369 115.063C140.195 115.063 140.88 114.889 141.423 114.542C141.989 114.195 142.391 113.663 142.63 112.947L147.554 113.24C147.097 114.976 146.13 116.333 144.652 117.309C143.173 118.286 141.38 118.774 139.271 118.774ZM135.521 107.967H142.793C142.728 106.686 142.369 105.731 141.717 105.102C141.086 104.473 140.26 104.158 139.239 104.158C138.217 104.158 137.369 104.495 136.695 105.167C136.043 105.818 135.652 106.751 135.521 107.967Z" fill="#CD4739"/>
<path d="M120.195 123.657C118.521 123.657 117.119 123.45 115.989 123.038C114.88 122.626 113.989 122.051 113.315 121.313C112.663 120.575 112.206 119.729 111.946 118.774L116.967 118.416C117.141 118.98 117.467 119.425 117.945 119.75C118.445 120.076 119.195 120.239 120.195 120.239C121.369 120.239 122.26 119.957 122.869 119.392C123.5 118.85 123.815 117.971 123.815 116.756V114.9C123.402 115.703 122.739 116.354 121.826 116.853C120.913 117.331 119.891 117.569 118.761 117.569C117.326 117.569 116.054 117.222 114.945 116.528C113.837 115.812 112.967 114.824 112.337 113.566C111.728 112.285 111.424 110.788 111.424 109.073C111.424 107.402 111.728 105.927 112.337 104.646C112.967 103.366 113.826 102.368 114.913 101.652C116.022 100.914 117.282 100.545 118.695 100.545C119.978 100.545 121.054 100.827 121.923 101.391C122.815 101.955 123.489 102.704 123.945 103.637V100.936H128.738V116.658C128.738 118.221 128.38 119.512 127.662 120.532C126.945 121.573 125.945 122.355 124.663 122.875C123.38 123.396 121.891 123.657 120.195 123.657ZM120.163 113.956C121.293 113.956 122.184 113.522 122.836 112.654C123.51 111.786 123.847 110.582 123.847 109.041C123.847 108.021 123.695 107.142 123.391 106.404C123.108 105.666 122.684 105.102 122.119 104.712C121.576 104.321 120.924 104.126 120.163 104.126C118.989 104.126 118.076 104.57 117.424 105.46C116.771 106.35 116.445 107.544 116.445 109.041C116.445 110.56 116.782 111.764 117.456 112.654C118.13 113.522 119.032 113.956 120.163 113.956Z" fill="#CD4739"/>
<path d="M101.152 123.657C99.478 123.657 98.0758 123.45 96.9454 123.038C95.8368 122.626 94.9455 122.051 94.2716 121.313C93.6195 120.575 93.163 119.729 92.9021 118.774L97.9237 118.416C98.0976 118.98 98.4236 119.425 98.9019 119.75C99.4019 120.076 100.152 120.239 101.152 120.239C102.326 120.239 103.217 119.957 103.826 119.392C104.456 118.85 104.771 117.971 104.771 116.756V114.9C104.358 115.703 103.695 116.354 102.782 116.853C101.869 117.331 100.847 117.569 99.7171 117.569C98.2824 117.569 97.0107 117.222 95.902 116.528C94.7933 115.812 93.9238 114.824 93.2934 113.566C92.6847 112.285 92.3804 110.788 92.3804 109.073C92.3804 107.402 92.6847 105.927 93.2934 104.646C93.9238 103.366 94.7825 102.368 95.8694 101.652C96.978 100.914 98.2389 100.545 99.6519 100.545C100.934 100.545 102.01 100.827 102.88 101.391C103.771 101.955 104.445 102.704 104.902 103.637V100.936H109.695V116.658C109.695 118.221 109.336 119.512 108.619 120.532C107.902 121.573 106.902 122.355 105.619 122.875C104.336 123.396 102.847 123.657 101.152 123.657ZM101.119 113.956C102.25 113.956 103.141 113.522 103.793 112.654C104.467 111.786 104.804 110.582 104.804 109.041C104.804 108.021 104.652 107.142 104.347 106.404C104.065 105.666 103.641 105.102 103.076 104.712C102.532 104.321 101.88 104.126 101.119 104.126C99.9453 104.126 99.0323 104.57 98.3802 105.46C97.728 106.35 97.4019 107.544 97.4019 109.041C97.4019 110.56 97.7389 111.764 98.4128 112.654C99.0867 113.522 99.9888 113.956 101.119 113.956Z" fill="#CD4739"/>
<path d="M80.7723 118.774C78.968 118.774 77.4898 118.362 76.3377 117.537C75.2073 116.691 74.6421 115.519 74.6421 114.021C74.6421 112.481 75.1203 111.298 76.0768 110.473C77.0551 109.627 78.4898 109.008 80.381 108.618L86.0221 107.511C86.0221 106.383 85.7613 105.536 85.2396 104.972C84.7396 104.386 84.0113 104.093 83.0549 104.093C82.1201 104.093 81.3919 104.31 80.8701 104.744C80.3484 105.156 80.0115 105.775 79.8593 106.6L74.9356 106.372C75.2616 104.462 76.1203 103.019 77.5116 102.042C78.9246 101.044 80.7723 100.545 83.0549 100.545C85.6635 100.545 87.6199 101.163 88.9242 102.4C90.2503 103.637 90.9133 105.449 90.9133 107.837V113.793C90.9133 114.293 90.9894 114.629 91.1415 114.803C91.3154 114.954 91.5654 115.03 91.8915 115.03H92.3806V118.383C92.2285 118.427 91.9785 118.47 91.6307 118.513C91.3046 118.557 90.9785 118.579 90.6524 118.579C89.9568 118.579 89.3046 118.459 88.696 118.221C88.109 117.982 87.6308 117.58 87.2612 117.016C86.8917 116.43 86.7069 115.606 86.7069 114.542L87.1308 114.868C86.9134 115.649 86.5221 116.333 85.9569 116.918C85.4135 117.504 84.6961 117.96 83.8048 118.286C82.9353 118.611 81.9245 118.774 80.7723 118.774ZM81.9462 115.421C82.7505 115.421 83.457 115.269 84.0657 114.965C84.6744 114.64 85.1526 114.173 85.5004 113.566C85.8482 112.958 86.0221 112.242 86.0221 111.417V110.571L82.044 111.417C81.2614 111.569 80.6636 111.83 80.2506 112.198C79.8593 112.546 79.6637 113.001 79.6637 113.566C79.6637 114.152 79.8593 114.607 80.2506 114.933C80.6419 115.258 81.2071 115.421 81.9462 115.421Z" fill="#CD4739"/>
<path d="M64.7844 118.383V99.4381H57.8716V95.2715H76.7188V99.4381H69.7734V118.383H64.7844Z" fill="#CD4739"/>
<path d="M44.2214 123.266V119.62H46.5366C47.1017 119.62 47.5148 119.533 47.7756 119.36C48.0582 119.208 48.2756 118.926 48.4278 118.513L48.7865 117.504H47.4496L41.3193 100.936H46.3083L50.319 112.947L54.0689 100.936H59.0579L52.3407 120.043C51.9494 121.194 51.3842 122.018 50.6451 122.517C49.906 123.016 48.8734 123.266 47.5474 123.266H44.2214Z" fill="#FCFCFC"/>
<path d="M30.6603 118.774C28.856 118.774 27.443 118.199 26.4213 117.049C25.4214 115.877 24.9214 114.249 24.9214 112.166V100.936H29.8125V111.027C29.8125 112.372 30.019 113.359 30.4321 113.989C30.8451 114.596 31.4973 114.9 32.3885 114.9C33.3885 114.9 34.1602 114.564 34.7037 113.891C35.2689 113.197 35.5515 112.166 35.5515 110.799V100.936H40.4426V118.383H35.9754L35.8449 113.37L36.4645 113.501C36.2036 115.237 35.5841 116.55 34.6058 117.439C33.6276 118.329 32.3124 118.774 30.6603 118.774Z" fill="#FCFCFC"/>
<path d="M12.0644 118.904C9.82538 118.904 7.9124 118.394 6.3255 117.374C4.73859 116.354 3.51037 114.944 2.64084 113.143C1.79304 111.32 1.36914 109.226 1.36914 106.86C1.36914 104.538 1.80391 102.466 2.67344 100.643C3.54298 98.8199 4.79294 97.3877 6.42332 96.346C8.07544 95.2827 10.0536 94.751 12.3579 94.751C14.3578 94.751 16.0426 95.0873 17.4121 95.7601C18.8033 96.4111 19.912 97.3443 20.7381 98.5595C21.5641 99.7748 22.1402 101.207 22.4663 102.856L17.3469 103.084C17.1077 101.804 16.5969 100.795 15.8143 100.057C15.0535 99.2974 13.9122 98.9176 12.3905 98.9176C11.0645 98.9176 9.95581 99.2648 9.06453 99.9593C8.195 100.654 7.54284 101.598 7.10808 102.791C6.69505 103.985 6.48853 105.341 6.48853 106.86C6.48853 108.401 6.69505 109.768 7.10808 110.962C7.54284 112.134 8.195 113.056 9.06453 113.729C9.95581 114.401 11.0971 114.738 12.4883 114.738C13.51 114.738 14.3904 114.532 15.1295 114.119C15.8904 113.707 16.4773 113.143 16.8904 112.427C17.3251 111.71 17.586 110.897 17.6729 109.985H12.3905V106.372H22.5315V118.384H19.4664L19.2055 113.436L19.7924 113.696C19.575 114.716 19.0968 115.617 18.3577 116.398C17.6186 117.179 16.7056 117.798 15.6187 118.253C14.5535 118.687 13.3687 118.904 12.0644 118.904Z" fill="#FCFCFC"/>
<defs>
<filter id="filter0_f_612_5007" x="47.4008" y="0.000391006" width="78.6398" height="78.5373" filterUnits="userSpaceOnUse" color-interpolation-filters="sRGB">
<feFlood flood-opacity="0" result="BackgroundImageFix"/>
<feBlend mode="normal" in="SourceGraphic" in2="BackgroundImageFix" result="shape"/>
<feGaussianBlur stdDeviation="4.7" result="effect1_foregroundBlur_612_5007"/>
</filter>
<filter id="filter1_dddd_612_5007" x="26.7617" y="17.0215" width="81.4023" height="89.0137" filterUnits="userSpaceOnUse" color-interpolation-filters="sRGB">
<feFlood flood-opacity="0" result="BackgroundImageFix"/>
<feColorMatrix in="SourceAlpha" type="matrix" values="0 0 0 0 0 0 0 0 0 0 0 0 0 0 0 0 0 0 127 0" result="hardAlpha"/>
<feOffset dx="-1" dy="1"/>
<feGaussianBlur stdDeviation="1.5"/>
<feColorMatrix type="matrix" values="0 0 0 0 0 0 0 0 0 0 0 0 0 0 0 0 0 0 0.08 0"/>
<feBlend mode="normal" in2="BackgroundImageFix" result="effect1_dropShadow_612_5007"/>
<feColorMatrix in="SourceAlpha" type="matrix" values="0 0 0 0 0 0 0 0 0 0 0 0 0 0 0 0 0 0 127 0" result="hardAlpha"/>
<feOffset dx="-2" dy="5"/>
<feGaussianBlur stdDeviation="2.5"/>
<feColorMatrix type="matrix" values="0 0 0 0 0 0 0 0 0 0 0 0 0 0 0 0 0 0 0.07 0"/>
<feBlend mode="normal" in2="effect1_dropShadow_612_5007" result="effect2_dropShadow_612_5007"/>
<feColorMatrix in="SourceAlpha" type="matrix" values="0 0 0 0 0 0 0 0 0 0 0 0 0 0 0 0 0 0 127 0" result="hardAlpha"/>
<feOffset dx="-5" dy="11"/>
<feGaussianBlur stdDeviation="3.5"/>
<feColorMatrix type="matrix" values="0 0 0 0 0 0 0 0 0 0 0 0 0 0 0 0 0 0 0.04 0"/>
<feBlend mode="normal" in2="effect2_dropShadow_612_5007" result="effect3_dropShadow_612_5007"/>
<feColorMatrix in="SourceAlpha" type="matrix" values="0 0 0 0 0 0 0 0 0 0 0 0 0 0 0 0 0 0 127 0" result="hardAlpha"/>
<feOffset dx="-9" dy="20"/>
<feGaussianBlur stdDeviation="4.5"/>
<feColorMatrix type="matrix" values="0 0 0 0 0 0 0 0 0 0 0 0 0 0 0 0 0 0 0.01 0"/>
<feBlend mode="normal" in2="effect3_dropShadow_612_5007" result="effect4_dropShadow_612_5007"/>
<feBlend mode="normal" in="SourceGraphic" in2="effect4_dropShadow_612_5007" result="shape"/>
</filter>
<radialGradient id="paint0_radial_612_5007" cx="0" cy="0" r="1" gradientUnits="userSpaceOnUse" gradientTransform="translate(86.7206 39.2689) rotate(90) scale(29.8686 29.9198)">
<stop stop-color="#D9D9D9"/>
<stop offset="1" stop-color="#D9D9D9" stop-opacity="0"/>
</radialGradient>
<radialGradient id="paint1_radial_612_5007" cx="0" cy="0" r="1" gradientTransform="matrix(-33.6223 30.0376 -34.5157 -38.5025 86.3619 33.905)" gradientUnits="userSpaceOnUse">
<stop stop-color="#EA624A"/>
<stop offset="0.530078" stop-color="#961416"/>
</radialGradient>
<radialGradient id="paint2_radial_612_5007" cx="0" cy="0" r="1" gradientTransform="matrix(-33.6223 30.0376 -34.5157 -38.5025 86.3619 33.905)" gradientUnits="userSpaceOnUse">
<stop stop-color="#EA624A"/>
<stop offset="0.530078" stop-color="#961416"/>
</radialGradient>
<radialGradient id="paint3_radial_612_5007" cx="0" cy="0" r="1" gradientTransform="matrix(-33.6223 30.0376 -34.5157 -38.5025 86.3619 33.905)" gradientUnits="userSpaceOnUse">
<stop stop-color="#EA624A"/>
<stop offset="0.530078" stop-color="#961416"/>
</radialGradient>
</defs>
</svg>
