<?xml version="1.0" encoding="UTF-8"?>
<svg xmlns="http://www.w3.org/2000/svg" xmlns:xlink="http://www.w3.org/1999/xlink" viewBox="0 0 126.34 30.01">
  <defs>
    <style>
      .cls-1 {
        mix-blend-mode: lighten;
      }

      .cls-2 {
        fill: #fcfcfc;
      }

      .cls-3 {
        isolation: isolate;
      }

      .cls-4 {
        fill: url(#radial-gradient);
        fill-opacity: .2;
      }

      .cls-5 {
        fill: none;
        stroke: rgba(177, 177, 177, .05);
        stroke-width: .5px;
      }

      .cls-6 {
        fill: #cd4739;
      }

      .cls-7 {
        fill: url(#linear-gradient);
      }
    </style>
    <radialGradient id="radial-gradient" cx="-218.13" cy="446.71" fx="-218.13" fy="446.71" r="1" gradientTransform="translate(-5133.72 2529.14) rotate(90) scale(11.53 -11.53)" gradientUnits="userSpaceOnUse">
      <stop offset="0" stop-color="#d9d9d9"/>
      <stop offset="1" stop-color="#d9d9d9" stop-opacity="0"/>
    </radialGradient>
    <linearGradient id="linear-gradient" x1="30.61" y1="65.6" x2="-16.96" y2="19.27" gradientTransform="translate(0 61.16) scale(1 -1)" gradientUnits="userSpaceOnUse">
      <stop offset="0" stop-color="#ea624a"/>
      <stop offset=".53" stop-color="#961416"/>
    </linearGradient>
  </defs>
  <g class="cls-3">
    <g id="Layer_1" data-name="Layer 1">
      <circle class="cls-5" cx="15" cy="15" r="14.75"/>
      <g class="cls-1">
        <circle class="cls-4" cx="15" cy="15.01" r="11.53"/>
      </g>
      <path class="cls-7" d="M10.55,20.18c.98-.37,2.21-.12,2.73.95.04.09.08.18.11.27.05.15.07.31.07.47,0,.51.13,1.84,1.41,1.84,1.28,0,1.53-1.29,1.59-1.82.02-.18.07-.35.15-.51.08-.15.16-.29.25-.42.61-.86,1.54-1.09,2.33-.86,1.07.3,1.9,1.44,1.37,3-.03.1-.08.19-.13.28l-.07.05c-2.25,3.74-3.57,6.58-5.42,6.58-2.14,0-3.03-2.47-5.62-7.07-.14-.25-.16-.61-.16-.9.01-.93.62-1.58,1.37-1.87ZM18.4,4.52c1.16-1.44,2.08-1.11,2.1-1.1h6.1c1.15,0,2.24.57,2.84,1.55.45.74.52,1.57-.02,2.52,0,0-2.16,4.02-4.79,8.67h0c.47-.85.56-1.9.33-2.84-.8-3.29-5.6-3.79-6.77.21-.05.19-.09.38-.11.57-.1.75-.61,3.26-3.12,3.26-2.51,0-3-2.51-3.09-3.26-.02-.21-.06-.41-.12-.61-1.24-4.08-6.24-3.39-6.74.19-.11.81.02,1.64.41,2.36C2.73,11.33.32,7.13.32,7.13c-.26-1.03-.11-1.97.67-2.75.64-.63,1.52-.97,2.42-.97h6.31s1.39.52,1.8,1.13c1.18,1.76,2.45,5.04,3.35,5.04,1.31,0,2.23-3.45,3.53-5.07Z"/>
      <path class="cls-2" d="M44.66,20.87c-1.24,0-2.29-.28-3.17-.85-.88-.56-1.55-1.34-2.03-2.34-.47-1.01-.7-2.17-.7-3.47s.24-2.43.72-3.44c.48-1.01,1.17-1.8,2.07-2.38.91-.59,2-.88,3.28-.88,1.1,0,2.03.19,2.79.56.77.36,1.38.88,1.84,1.55.46.67.77,1.46.95,2.38l-2.83.13c-.13-.71-.41-1.27-.85-1.67-.42-.42-1.05-.63-1.89-.63-.73,0-1.34.19-1.84.58-.48.38-.84.91-1.08,1.57-.23.66-.34,1.41-.34,2.25s.11,1.61.34,2.27c.24.65.6,1.16,1.08,1.53.49.37,1.12.56,1.89.56.56,0,1.05-.11,1.46-.34.42-.23.74-.54.97-.94.24-.4.38-.85.43-1.35h-2.92v-2h5.6v6.64h-1.69l-.14-2.74.32.14c-.12.56-.38,1.06-.79,1.49-.41.43-.91.77-1.51,1.03-.59.24-1.24.36-1.96.36ZM54.93,20.8c-1,0-1.78-.32-2.34-.95-.55-.65-.83-1.55-.83-2.7v-6.21h2.7v5.58c0,.74.11,1.29.34,1.64.23.34.59.5,1.08.5.55,0,.98-.19,1.28-.56.31-.38.47-.95.47-1.71v-5.45h2.7v9.65h-2.47l-.07-2.77.34.07c-.14.96-.49,1.69-1.03,2.18-.54.49-1.27.74-2.18.74ZM62.41,23.28v-2.02h1.28c.31,0,.54-.05.68-.14.16-.08.28-.24.36-.47l.2-.56h-.74l-3.38-9.16h2.75l2.21,6.64,2.07-6.64h2.75l-3.71,10.57c-.22.64-.53,1.09-.94,1.37-.41.28-.98.41-1.71.41h-1.84Z"/>
      <path class="cls-6" d="M73.76,20.58v-10.48h-3.82v-2.3h10.4v2.3h-3.83v10.48h-2.75ZM82.59,20.8c-1,0-1.81-.23-2.45-.68-.62-.47-.94-1.12-.94-1.94s.26-1.51.79-1.96c.54-.47,1.33-.81,2.38-1.03l3.11-.61c0-.62-.14-1.09-.43-1.4-.28-.32-.68-.49-1.21-.49s-.92.12-1.21.36c-.29.23-.47.57-.56,1.03l-2.72-.13c.18-1.06.65-1.85,1.42-2.39.78-.55,1.8-.83,3.06-.83,1.44,0,2.52.34,3.24,1.03.73.68,1.1,1.69,1.1,3.01v3.29c0,.28.04.46.13.56.1.08.23.13.41.13h.27v1.85c-.08.02-.22.05-.41.07-.18.02-.36.04-.54.04-.38,0-.74-.07-1.08-.2-.32-.13-.59-.35-.79-.67-.2-.32-.31-.78-.31-1.37l.23.18c-.12.43-.34.81-.65,1.13-.3.32-.7.58-1.19.76-.48.18-1.04.27-1.67.27ZM83.24,18.94c.44,0,.83-.08,1.17-.25.34-.18.6-.44.79-.77.19-.34.29-.73.29-1.19v-.47l-2.2.47c-.43.08-.76.23-.99.43-.22.19-.32.44-.32.76s.11.58.32.76c.22.18.53.27.94.27ZM93.84,23.5c-.92,0-1.7-.11-2.32-.34-.61-.23-1.1-.55-1.48-.95-.36-.41-.61-.88-.76-1.4l2.77-.2c.1.31.28.56.54.74.28.18.69.27,1.24.27.65,0,1.14-.16,1.48-.47.35-.3.52-.79.52-1.46v-1.03c-.23.44-.59.8-1.1,1.08-.5.26-1.07.4-1.69.4-.79,0-1.49-.19-2.11-.58-.61-.4-1.09-.94-1.44-1.64-.34-.71-.5-1.54-.5-2.48s.17-1.74.5-2.45c.35-.71.82-1.26,1.42-1.66.61-.41,1.31-.61,2.09-.61.71,0,1.3.16,1.78.47.49.31.86.73,1.12,1.24v-1.49h2.65v8.69c0,.86-.2,1.58-.59,2.14-.4.58-.95,1.01-1.66,1.3s-1.53.43-2.47.43ZM93.82,18.13c.62,0,1.12-.24,1.48-.72.37-.48.56-1.15.56-2,0-.56-.08-1.05-.25-1.46-.16-.41-.39-.72-.7-.94-.3-.22-.66-.32-1.08-.32-.65,0-1.15.25-1.51.74-.36.49-.54,1.15-.54,1.98s.19,1.51.56,2c.37.48.87.72,1.49.72ZM104.35,23.5c-.92,0-1.7-.11-2.32-.34-.61-.23-1.1-.55-1.48-.95-.36-.41-.61-.88-.76-1.4l2.77-.2c.1.31.28.56.54.74.28.18.69.27,1.24.27.65,0,1.14-.16,1.48-.47.35-.3.52-.79.52-1.46v-1.03c-.23.44-.59.8-1.1,1.08-.5.26-1.07.4-1.69.4-.79,0-1.49-.19-2.11-.58-.61-.4-1.09-.94-1.44-1.64-.34-.71-.5-1.54-.5-2.48s.17-1.74.5-2.45c.35-.71.82-1.26,1.42-1.66.61-.41,1.31-.61,2.09-.61.71,0,1.3.16,1.78.47.49.31.86.73,1.12,1.24v-1.49h2.65v8.69c0,.86-.2,1.58-.59,2.14-.4.58-.95,1.01-1.66,1.3s-1.53.43-2.47.43ZM104.33,18.13c.62,0,1.12-.24,1.48-.72.37-.48.56-1.15.56-2,0-.56-.08-1.05-.25-1.46-.16-.41-.39-.72-.7-.94-.3-.22-.66-.32-1.08-.32-.65,0-1.15.25-1.51.74s-.54,1.15-.54,1.98.19,1.51.56,2c.37.48.87.72,1.49.72ZM114.88,20.8c-.98,0-1.84-.2-2.57-.61-.72-.42-1.28-1.01-1.69-1.76-.4-.76-.59-1.64-.59-2.66s.2-1.9.59-2.65c.41-.76.97-1.34,1.69-1.76s1.57-.63,2.56-.63,1.79.21,2.5.63c.71.42,1.25,1.02,1.64,1.8.4.78.59,1.71.59,2.79v.54h-6.79c.04.77.24,1.34.61,1.71.38.37.89.56,1.51.56.46,0,.83-.1,1.13-.29.31-.19.53-.49.67-.88l2.72.16c-.25.96-.79,1.71-1.6,2.25-.82.54-1.81.81-2.97.81ZM112.81,14.82h4.01c-.04-.71-.23-1.24-.59-1.58-.35-.35-.8-.52-1.37-.52s-1.03.19-1.4.56c-.36.36-.58.88-.65,1.55ZM120.55,20.58v-9.65h2.56l.09,2.81-.2-.05c.16-.97.43-1.67.83-2.11.4-.43.94-.65,1.64-.65h.88v2.23h-.88c-.5,0-.92.07-1.24.2s-.57.34-.74.63c-.16.29-.23.68-.23,1.17v5.42h-2.7Z"/>
    </g>
  </g>
</svg>