<svg width="125" height="34" viewBox="0 0 125 34" fill="none" xmlns="http://www.w3.org/2000/svg">
<g clip-path="url(#clip0_635_4133)">
<g style="mix-blend-mode:lighten" opacity="0.5" filter="url(#filter0_f_635_4133)">
<circle cx="21.7419" cy="15.4919" r="15.4919" fill="url(#paint0_radial_635_4133)" fill-opacity="0.2"/>
</g>
<path d="M19.4466 10.0397C20.0953 10.7569 19.543 11.8267 18.5759 11.8267H1.2065C0.369831 11.8267 -0.212399 10.9952 0.0737271 10.209L1.79074 5.49092C1.96392 5.01504 2.41469 4.69814 2.9211 4.69778C4.49529 4.69665 7.73664 4.69479 7.84845 4.69843C12.4471 4.82207 16.5685 6.85782 19.4466 10.0397Z" fill="url(#paint1_radial_635_4133)"/>
<path d="M23.6383 20.9279C23.6383 22.8895 23.2903 24.77 22.653 26.5107L20.5035 32.4182C20.3302 32.8944 19.8775 33.2114 19.3707 33.2114H14.8081C13.9714 33.2114 13.3892 32.3799 13.6753 31.5937L20.0546 14.0658C20.3912 13.1409 21.6119 13.0054 22.039 13.8921C23.0641 16.0207 23.6383 18.4075 23.6383 20.9279Z" fill="url(#paint2_radial_635_4133)"/>
<path d="M22.0212 7.07162L21.5353 10.075C21.4767 10.437 21.8851 10.6891 22.1825 10.4746C22.2279 10.4418 22.2662 10.4 22.295 10.3519L23.0216 9.13653C23.1494 8.92268 23.3623 8.77344 23.6069 8.7262C24.3387 8.58488 24.8959 9.37364 24.531 10.0235C24.4127 10.2344 24.2118 10.3892 23.9774 10.4484L22.6077 10.7945C22.5576 10.8072 22.5104 10.8292 22.4685 10.8594C22.1714 11.0738 22.284 11.5406 22.6462 11.596L25.613 12.0492C26.1068 12.1247 26.5959 11.8878 26.8429 11.4536L29.4776 6.82175C29.9882 5.92411 29.2074 4.84192 28.1946 5.04345L22.9759 6.08185C22.4822 6.18009 22.1015 6.57472 22.0212 7.07162Z" fill="url(#paint3_radial_635_4133)"/>
<path d="M43.1379 21.9693C41.9019 21.9693 40.8459 21.6873 39.9699 21.1233C39.0939 20.5593 38.4159 19.7793 37.9359 18.7833C37.4679 17.7753 37.2339 16.6173 37.2339 15.3093C37.2339 14.0253 37.4739 12.8793 37.9539 11.8713C38.4339 10.8633 39.1239 10.0713 40.0239 9.49528C40.9359 8.90728 42.0279 8.61328 43.2999 8.61328C44.4039 8.61328 45.3339 8.79928 46.0899 9.17128C46.8579 9.53128 47.4699 10.0473 47.9259 10.7193C48.3819 11.3913 48.6999 12.1833 48.8799 13.0953L46.0539 13.2213C45.9219 12.5133 45.6399 11.9553 45.2079 11.5473C44.7879 11.1273 44.1579 10.9173 43.3179 10.9173C42.5859 10.9173 41.9739 11.1093 41.4819 11.4933C41.0019 11.8773 40.6419 12.3993 40.4019 13.0593C40.1739 13.7193 40.0599 14.4693 40.0599 15.3093C40.0599 16.1613 40.1739 16.9173 40.4019 17.5773C40.6419 18.2253 41.0019 18.7353 41.4819 19.1073C41.9739 19.4793 42.6039 19.6653 43.3719 19.6653C43.9359 19.6653 44.4219 19.5513 44.8299 19.3233C45.2499 19.0953 45.5739 18.7833 45.8019 18.3873C46.0419 17.9913 46.1859 17.5413 46.2339 17.0373H43.3179V15.0393H48.9159V21.6813H47.2239L47.0799 18.9453L47.4039 19.0893C47.2839 19.6533 47.0199 20.1513 46.6119 20.5833C46.2039 21.0153 45.6999 21.3573 45.0999 21.6093C44.5119 21.8493 43.8579 21.9693 43.1379 21.9693Z" fill="#FCFCFC"/>
<path d="M53.4029 21.8973C52.4069 21.8973 51.6269 21.5793 51.0629 20.9433C50.5109 20.2953 50.2349 19.3953 50.2349 18.2433V12.0333H52.9349V17.6133C52.9349 18.3573 53.0489 18.9033 53.2769 19.2513C53.5049 19.5873 53.8649 19.7553 54.3569 19.7553C54.9089 19.7553 55.3349 19.5693 55.6349 19.1973C55.9469 18.8133 56.1029 18.2433 56.1029 17.4873V12.0333H58.8029V21.6813H56.337L56.2649 18.9093L56.6069 18.9813C56.4629 19.9413 56.1209 20.6673 55.5809 21.1593C55.0409 21.6513 54.3149 21.8973 53.4029 21.8973Z" fill="#FCFCFC"/>
<path d="M60.889 24.3813V22.3653H62.167C62.479 22.3653 62.707 22.3173 62.851 22.2213C63.007 22.1373 63.127 21.9813 63.211 21.7533L63.409 21.1953H62.671L59.287 12.0333H62.041L64.255 18.6753L66.325 12.0333H69.079L65.371 22.5993C65.155 23.2353 64.843 23.6913 64.435 23.9673C64.027 24.2433 63.457 24.3813 62.725 24.3813H60.889Z" fill="#FCFCFC"/>
<path d="M72.2401 21.6813V11.2053H68.4241V8.90128H78.8281V11.2053H74.9941V21.6813H72.2401Z" fill="#CD4739"/>
<path d="M81.0659 21.8973C80.0699 21.8973 79.2539 21.6693 78.6179 21.2133C77.9939 20.7453 77.6819 20.0973 77.6819 19.2693C77.6819 18.4173 77.9459 17.7633 78.4739 17.3073C79.0139 16.8393 79.8059 16.4973 80.8499 16.2813L83.9639 15.6693C83.9639 15.0453 83.8199 14.5773 83.5319 14.2653C83.2559 13.9413 82.8539 13.7793 82.3259 13.7793C81.8099 13.7793 81.4079 13.8993 81.1199 14.1393C80.8319 14.3673 80.6459 14.7093 80.5619 15.1653L77.8439 15.0393C78.0239 13.9833 78.4979 13.1853 79.2659 12.6453C80.0459 12.0933 81.0659 11.8173 82.3259 11.8173C83.7659 11.8173 84.8459 12.1593 85.5659 12.8433C86.2979 13.5273 86.6639 14.5293 86.6639 15.8493V19.1433C86.6639 19.4193 86.7059 19.6053 86.7899 19.7013C86.8859 19.7853 87.0239 19.8273 87.2039 19.8273H87.4739V21.6813C87.3899 21.7053 87.2519 21.7293 87.0599 21.7533C86.8799 21.7773 86.6999 21.7893 86.5199 21.7893C86.1359 21.7893 85.7759 21.7233 85.4399 21.5913C85.1159 21.4593 84.8519 21.2373 84.6479 20.9253C84.4439 20.6013 84.3419 20.1453 84.3419 19.5573L84.5759 19.7373C84.4559 20.1693 84.2399 20.5473 83.9279 20.8713C83.6279 21.1953 83.2319 21.4473 82.7399 21.6273C82.2599 21.8073 81.7019 21.8973 81.0659 21.8973ZM81.7139 20.0433C82.1579 20.0433 82.5479 19.9593 82.8839 19.7913C83.2199 19.6113 83.4839 19.3533 83.6759 19.0173C83.8679 18.6813 83.9639 18.2853 83.9639 17.8293V17.3613L81.7679 17.8293C81.3359 17.9133 81.0059 18.0573 80.7779 18.2613C80.5619 18.4533 80.4539 18.7053 80.4539 19.0173C80.4539 19.3413 80.5619 19.5933 80.7779 19.7733C80.9939 19.9533 81.3059 20.0433 81.7139 20.0433Z" fill="#CD4739"/>
<path d="M92.3156 24.5973C91.3916 24.5973 90.6176 24.4833 89.9936 24.2553C89.3816 24.0273 88.8896 23.7093 88.5176 23.3013C88.1576 22.8933 87.9056 22.4253 87.7616 21.8973L90.5336 21.6993C90.6296 22.0113 90.8096 22.2573 91.0736 22.4373C91.3496 22.6173 91.7636 22.7073 92.3156 22.7073C92.9636 22.7073 93.4556 22.5513 93.7916 22.2393C94.1396 21.9393 94.3136 21.4533 94.3136 20.7813V19.7553C94.0856 20.1993 93.7196 20.5593 93.2156 20.8353C92.7116 21.0993 92.1476 21.2313 91.5236 21.2313C90.7316 21.2313 90.0296 21.0393 89.4176 20.6553C88.8056 20.2593 88.3256 19.7133 87.9776 19.0173C87.6416 18.3093 87.4736 17.4813 87.4736 16.5333C87.4736 15.6093 87.6416 14.7933 87.9776 14.0853C88.3256 13.3773 88.7996 12.8253 89.3996 12.4293C90.0116 12.0213 90.7076 11.8173 91.4876 11.8173C92.1956 11.8173 92.7896 11.9733 93.2696 12.2853C93.7616 12.5973 94.1336 13.0113 94.3856 13.5273V12.0333H97.0316V20.7273C97.0316 21.5913 96.8336 22.3053 96.4376 22.8693C96.0416 23.4453 95.4896 23.8773 94.7816 24.1653C94.0736 24.4533 93.2516 24.5973 92.3156 24.5973ZM92.2976 19.2333C92.9216 19.2333 93.4136 18.9933 93.7736 18.5133C94.1456 18.0333 94.3316 17.3673 94.3316 16.5153C94.3316 15.9513 94.2476 15.4653 94.0796 15.0573C93.9236 14.6493 93.6896 14.3373 93.3776 14.1213C93.0776 13.9053 92.7176 13.7973 92.2976 13.7973C91.6496 13.7973 91.1456 14.0433 90.7856 14.5353C90.4256 15.0273 90.2456 15.6873 90.2456 16.5153C90.2456 17.3553 90.4316 18.0213 90.8036 18.5133C91.1756 18.9933 91.6736 19.2333 92.2976 19.2333Z" fill="#CD4739"/>
<path d="M102.828 24.5973C101.904 24.5973 101.13 24.4833 100.506 24.2553C99.894 24.0273 99.402 23.7093 99.03 23.3013C98.67 22.8933 98.418 22.4253 98.274 21.8973L101.046 21.6993C101.142 22.0113 101.322 22.2573 101.586 22.4373C101.862 22.6173 102.276 22.7073 102.828 22.7073C103.476 22.7073 103.968 22.5513 104.304 22.2393C104.652 21.9393 104.826 21.4533 104.826 20.7813V19.7553C104.598 20.1993 104.232 20.5593 103.728 20.8353C103.224 21.0993 102.66 21.2313 102.036 21.2313C101.244 21.2313 100.542 21.0393 99.93 20.6553C99.318 20.2593 98.838 19.7133 98.49 19.0173C98.154 18.3093 97.986 17.4813 97.986 16.5333C97.986 15.6093 98.154 14.7933 98.49 14.0853C98.838 13.3773 99.312 12.8253 99.912 12.4293C100.524 12.0213 101.22 11.8173 102 11.8173C102.708 11.8173 103.302 11.9733 103.782 12.2853C104.274 12.5973 104.646 13.0113 104.898 13.5273V12.0333H107.544V20.7273C107.544 21.5913 107.346 22.3053 106.95 22.8693C106.554 23.4453 106.002 23.8773 105.294 24.1653C104.586 24.4533 103.764 24.5973 102.828 24.5973ZM102.81 19.2333C103.434 19.2333 103.926 18.9933 104.286 18.5133C104.658 18.0333 104.844 17.3673 104.844 16.5153C104.844 15.9513 104.76 15.4653 104.592 15.0573C104.436 14.6493 104.202 14.3373 103.89 14.1213C103.59 13.9053 103.23 13.7973 102.81 13.7973C102.162 13.7973 101.658 14.0433 101.298 14.5353C100.938 15.0273 100.758 15.6873 100.758 16.5153C100.758 17.3553 100.944 18.0213 101.316 18.5133C101.688 18.9933 102.186 19.2333 102.81 19.2333Z" fill="#CD4739"/>
<path d="M113.358 21.8973C112.374 21.8973 111.516 21.6933 110.784 21.2853C110.064 20.8653 109.5 20.2773 109.092 19.5213C108.696 18.7653 108.498 17.8773 108.498 16.8573C108.498 15.8373 108.696 14.9553 109.092 14.2113C109.5 13.4553 110.064 12.8673 110.784 12.4473C111.504 12.0273 112.356 11.8173 113.34 11.8173C114.3 11.8173 115.134 12.0273 115.842 12.4473C116.55 12.8673 117.096 13.4673 117.48 14.2473C117.876 15.0273 118.074 15.9573 118.074 17.0373V17.5773H111.288C111.324 18.3453 111.528 18.9153 111.9 19.2873C112.284 19.6593 112.788 19.8453 113.412 19.8453C113.868 19.8453 114.246 19.7493 114.546 19.5573C114.858 19.3653 115.08 19.0713 115.212 18.6753L117.93 18.8373C117.678 19.7973 117.144 20.5473 116.328 21.0873C115.512 21.6273 114.522 21.8973 113.358 21.8973ZM111.288 15.9213H115.302C115.266 15.2133 115.068 14.6853 114.708 14.3373C114.36 13.9893 113.904 13.8153 113.34 13.8153C112.776 13.8153 112.308 14.0013 111.936 14.3733C111.576 14.7333 111.36 15.2493 111.288 15.9213Z" fill="#CD4739"/>
<path d="M119.023 21.6813V12.0333H121.579L121.669 14.8413L121.471 14.7873C121.627 13.8153 121.903 13.1133 122.299 12.6813C122.695 12.2493 123.241 12.0333 123.937 12.0333H124.819V14.2653H123.937C123.433 14.2653 123.019 14.3313 122.695 14.4633C122.371 14.5953 122.125 14.8053 121.957 15.0933C121.801 15.3813 121.723 15.7713 121.723 16.2633V21.6813H119.023Z" fill="#CD4739"/>
</g>
<defs>
<filter id="filter0_f_635_4133" x="-3.15" y="-9.4" width="49.7839" height="49.7834" filterUnits="userSpaceOnUse" color-interpolation-filters="sRGB">
<feFlood flood-opacity="0" result="BackgroundImageFix"/>
<feBlend mode="normal" in="SourceGraphic" in2="BackgroundImageFix" result="shape"/>
<feGaussianBlur stdDeviation="4.7" result="effect1_foregroundBlur_635_4133"/>
</filter>
<radialGradient id="paint0_radial_635_4133" cx="0" cy="0" r="1" gradientUnits="userSpaceOnUse" gradientTransform="translate(21.7419 15.4919) rotate(90) scale(15.4919)">
<stop stop-color="#D9D9D9"/>
<stop offset="1" stop-color="#D9D9D9" stop-opacity="0"/>
</radialGradient>
<radialGradient id="paint1_radial_635_4133" cx="0" cy="0" r="1" gradientUnits="userSpaceOnUse" gradientTransform="translate(20.4125 12.0119) rotate(138.174) scale(22.1396 25.3967)">
<stop stop-color="#EA624A"/>
<stop offset="0.530078" stop-color="#961416"/>
</radialGradient>
<radialGradient id="paint2_radial_635_4133" cx="0" cy="0" r="1" gradientUnits="userSpaceOnUse" gradientTransform="translate(20.4125 12.0119) rotate(138.174) scale(22.1396 25.3967)">
<stop stop-color="#EA624A"/>
<stop offset="0.530078" stop-color="#961416"/>
</radialGradient>
<radialGradient id="paint3_radial_635_4133" cx="0" cy="0" r="1" gradientUnits="userSpaceOnUse" gradientTransform="translate(20.4125 12.0119) rotate(138.174) scale(22.1396 25.3967)">
<stop stop-color="#EA624A"/>
<stop offset="0.530078" stop-color="#961416"/>
</radialGradient>
<clipPath id="clip0_635_4133">
<rect width="124.819" height="33.2114" fill="white"/>
</clipPath>
</defs>
</svg>
