<svg width="63" height="72" viewBox="0 0 63 72" fill="none" xmlns="http://www.w3.org/2000/svg">
<g style="mix-blend-mode:lighten" opacity="0.5" filter="url(#filter0_f_612_5060)">
<ellipse cx="38.5884" cy="24.0815" rx="14.6812" ry="14.6812" fill="url(#paint0_radial_612_5060)" fill-opacity="0.2"/>
</g>
<g filter="url(#filter1_dddd_612_5060)">
<path d="M37.4466 19.4732C38.0953 20.1905 37.543 21.2603 36.5759 21.2603H19.2065C18.3698 21.2603 17.7876 20.4288 18.0737 19.6426L19.7907 14.9245C19.9639 14.4486 20.4147 14.1317 20.9211 14.1314C22.4953 14.1302 25.7366 14.1284 25.8485 14.132C30.4471 14.2557 34.5685 16.2914 37.4466 19.4732Z" fill="url(#paint1_radial_612_5060)"/>
<path d="M41.6383 30.3614C41.6383 32.3231 41.2903 34.2036 40.653 35.9443L38.5035 41.8518C38.3302 42.328 37.8775 42.645 37.3707 42.645H32.8081C31.9714 42.645 31.3892 41.8135 31.6753 41.0273L38.0546 23.4994C38.3912 22.5745 39.6119 22.4389 40.039 23.3257C41.0641 25.4543 41.6383 27.8411 41.6383 30.3614Z" fill="url(#paint2_radial_612_5060)"/>
<path d="M40.0212 16.5052L39.5353 19.5086C39.4767 19.8706 39.8851 20.1227 40.1825 19.9081C40.2279 19.8754 40.2662 19.8336 40.295 19.7855L41.0216 18.5701C41.1494 18.3563 41.3623 18.207 41.6069 18.1598C42.3387 18.0185 42.8959 18.8072 42.531 19.4571C42.4127 19.668 42.2118 19.8228 41.9774 19.882L40.6077 20.2281C40.5576 20.2408 40.5104 20.2628 40.4685 20.293C40.1714 20.5074 40.284 20.9742 40.6462 21.0295L43.613 21.4828C44.1068 21.5583 44.5959 21.3214 44.8429 20.8872L47.4776 16.2553C47.9882 15.3577 47.2074 14.2755 46.1946 14.477L40.9759 15.5154C40.4822 15.6137 40.1015 16.0083 40.0212 16.5052Z" fill="url(#paint3_radial_612_5060)"/>
</g>
<defs>
<filter id="filter0_f_612_5060" x="14.5072" y="0.000391006" width="48.1623" height="48.1623" filterUnits="userSpaceOnUse" color-interpolation-filters="sRGB">
<feFlood flood-opacity="0" result="BackgroundImageFix"/>
<feBlend mode="normal" in="SourceGraphic" in2="BackgroundImageFix" result="shape"/>
<feGaussianBlur stdDeviation="4.7" result="effect1_foregroundBlur_612_5060"/>
</filter>
<filter id="filter1_dddd_612_5060" x="0" y="12.1299" width="50.6382" height="59.5156" filterUnits="userSpaceOnUse" color-interpolation-filters="sRGB">
<feFlood flood-opacity="0" result="BackgroundImageFix"/>
<feColorMatrix in="SourceAlpha" type="matrix" values="0 0 0 0 0 0 0 0 0 0 0 0 0 0 0 0 0 0 127 0" result="hardAlpha"/>
<feOffset dx="-1" dy="1"/>
<feGaussianBlur stdDeviation="1.5"/>
<feColorMatrix type="matrix" values="0 0 0 0 0 0 0 0 0 0 0 0 0 0 0 0 0 0 0.08 0"/>
<feBlend mode="normal" in2="BackgroundImageFix" result="effect1_dropShadow_612_5060"/>
<feColorMatrix in="SourceAlpha" type="matrix" values="0 0 0 0 0 0 0 0 0 0 0 0 0 0 0 0 0 0 127 0" result="hardAlpha"/>
<feOffset dx="-2" dy="5"/>
<feGaussianBlur stdDeviation="2.5"/>
<feColorMatrix type="matrix" values="0 0 0 0 0 0 0 0 0 0 0 0 0 0 0 0 0 0 0.07 0"/>
<feBlend mode="normal" in2="effect1_dropShadow_612_5060" result="effect2_dropShadow_612_5060"/>
<feColorMatrix in="SourceAlpha" type="matrix" values="0 0 0 0 0 0 0 0 0 0 0 0 0 0 0 0 0 0 127 0" result="hardAlpha"/>
<feOffset dx="-5" dy="11"/>
<feGaussianBlur stdDeviation="3.5"/>
<feColorMatrix type="matrix" values="0 0 0 0 0 0 0 0 0 0 0 0 0 0 0 0 0 0 0.04 0"/>
<feBlend mode="normal" in2="effect2_dropShadow_612_5060" result="effect3_dropShadow_612_5060"/>
<feColorMatrix in="SourceAlpha" type="matrix" values="0 0 0 0 0 0 0 0 0 0 0 0 0 0 0 0 0 0 127 0" result="hardAlpha"/>
<feOffset dx="-9" dy="20"/>
<feGaussianBlur stdDeviation="4.5"/>
<feColorMatrix type="matrix" values="0 0 0 0 0 0 0 0 0 0 0 0 0 0 0 0 0 0 0.01 0"/>
<feBlend mode="normal" in2="effect3_dropShadow_612_5060" result="effect4_dropShadow_612_5060"/>
<feBlend mode="normal" in="SourceGraphic" in2="effect4_dropShadow_612_5060" result="shape"/>
</filter>
<radialGradient id="paint0_radial_612_5060" cx="0" cy="0" r="1" gradientUnits="userSpaceOnUse" gradientTransform="translate(38.5884 24.0815) rotate(90) scale(14.6812)">
<stop stop-color="#D9D9D9"/>
<stop offset="1" stop-color="#D9D9D9" stop-opacity="0"/>
</radialGradient>
<radialGradient id="paint1_radial_612_5060" cx="0" cy="0" r="1" gradientUnits="userSpaceOnUse" gradientTransform="translate(38.4125 21.4455) rotate(138.174) scale(22.1396 25.3967)">
<stop stop-color="#EA624A"/>
<stop offset="0.530078" stop-color="#961416"/>
</radialGradient>
<radialGradient id="paint2_radial_612_5060" cx="0" cy="0" r="1" gradientUnits="userSpaceOnUse" gradientTransform="translate(38.4125 21.4455) rotate(138.174) scale(22.1396 25.3967)">
<stop stop-color="#EA624A"/>
<stop offset="0.530078" stop-color="#961416"/>
</radialGradient>
<radialGradient id="paint3_radial_612_5060" cx="0" cy="0" r="1" gradientUnits="userSpaceOnUse" gradientTransform="translate(38.4125 21.4455) rotate(138.174) scale(22.1396 25.3967)">
<stop stop-color="#EA624A"/>
<stop offset="0.530078" stop-color="#961416"/>
</radialGradient>
</defs>
</svg>
