<svg width="62" height="56" viewBox="0 0 62 56" fill="none" xmlns="http://www.w3.org/2000/svg">
<path d="M21.5097 34.7663C23.5369 33.9994 26.0872 34.5168 27.1581 36.739C27.2447 36.9187 27.3233 37.107 27.3876 37.3064C27.491 37.6237 27.5274 37.9554 27.5302 38.2868C27.5358 39.3378 27.8017 42.0935 30.455 42.0935C33.1085 42.0934 33.6318 39.421 33.7548 38.3366C33.7968 37.966 33.8916 37.6035 34.0565 37.2722C34.2131 36.9548 34.3868 36.6682 34.5741 36.4069C35.8464 34.6345 37.7586 34.1573 39.3915 34.6208C41.606 35.2473 43.3146 37.6071 42.2353 40.8181C42.0983 41.0455 41.9612 41.2702 41.8271 41.4948C37.1771 49.2343 34.4423 55.108 30.62 55.1081C26.1881 55.1081 24.3424 50.0008 18.9989 40.4802C18.7139 39.969 18.6664 39.2166 18.6747 38.6296C18.6999 36.7081 19.9523 35.3563 21.5097 34.7663ZM30.8261 40.821C30.759 41.0204 30.6667 41.2117 30.5605 41.3942L30.4179 41.4978C30.552 41.2731 30.6891 41.0484 30.8261 40.821ZM37.6522 2.35909C40.0558 -0.633637 41.976 0.0689334 41.9999 0.0778359H54.622C56.9959 0.0778359 59.258 1.25778 60.4911 3.2917C61.4222 4.82837 61.5734 6.53067 60.455 8.50557C60.438 8.53719 55.9767 16.8507 50.5429 26.4401H50.5399C51.5046 24.6901 51.7057 22.5016 51.2333 20.5661C49.578 13.762 39.6403 12.7194 37.2216 20.9899C37.1097 21.3776 37.0366 21.7767 36.9862 22.1784C36.7848 23.735 35.728 28.9206 30.5302 28.9206C25.3323 28.9205 24.328 23.7349 24.1435 22.1784C24.0931 21.7487 24.0124 21.3217 23.8866 20.9089C21.3282 12.4728 10.9822 13.8992 9.93057 21.2985C9.69289 22.9729 9.98158 24.7011 10.7841 26.1872C5.24958 16.483 0.278457 7.81679 0.245023 7.7585C-0.297419 5.6207 0.0152398 3.69021 1.64248 2.07491C2.96504 0.763006 4.78294 0.077872 6.63955 0.0778359H19.6923C19.7085 0.0838986 22.5696 1.15162 23.4228 2.42061C25.8638 6.05306 28.4863 12.8454 30.3485 12.8454C33.0524 12.8454 34.954 5.71062 37.6522 2.35909Z" fill="url(#paint0_linear_429_3732)"/>
<defs>
<linearGradient id="paint0_linear_429_3732" x1="30.6211" y1="0" x2="30.6211" y2="55.1081" gradientUnits="userSpaceOnUse">
<stop stop-color="#F4F5F9"/>
<stop offset="1" stop-color="#ACA5DA"/>
</linearGradient>
</defs>
</svg>
