<svg width="161" height="150" viewBox="0 0 161 150" fill="none" xmlns="http://www.w3.org/2000/svg">
<circle cx="80.5004" cy="51.9536" r="28.0854" stroke="#B1B1B1" stroke-opacity="0.05" stroke-width="0.5"/>
<g style="mix-blend-mode:lighten">
<ellipse cx="80.5003" cy="52.1729" rx="21.7728" ry="21.8497" fill="url(#paint0_radial_236_3161)" fill-opacity="0.2"/>
</g>
<g filter="url(#filter0_dddd_236_3161)">
<path d="M72.1016 61.9717C73.952 61.2692 76.2793 61.7427 77.2568 63.7783C77.3359 63.943 77.4081 64.1152 77.4668 64.2979C77.5612 64.5886 77.5941 64.8927 77.5967 65.1963C77.6018 66.1589 77.8443 68.6836 80.2666 68.6836C82.6884 68.6835 83.166 66.2368 83.2783 65.2432C83.3166 64.9035 83.4032 64.5712 83.5537 64.2676C83.6966 63.9767 83.8554 63.714 84.0264 63.4746C85.1877 61.8507 86.9333 61.4133 88.4238 61.8379C90.4454 62.4118 92.0048 64.5738 91.0195 67.5156L90.9697 67.6514C90.9156 67.7855 90.8501 67.9156 90.7773 68.041L90.6475 68.1357C86.4028 75.2266 83.9062 80.6084 80.417 80.6084C76.3715 80.6084 74.6871 75.9293 69.8096 67.207C69.5493 66.7387 69.5051 66.0486 69.5127 65.5107C69.5357 63.7503 70.6799 62.5122 72.1016 61.9717ZM86.918 32.2803C89.1258 29.5212 90.8877 30.1904 90.8877 30.1904H102.409C104.576 30.1904 106.641 31.2713 107.767 33.1348C108.616 34.5425 108.754 36.1019 107.733 37.9111C107.733 37.9111 103.655 45.5404 98.6855 54.3428H98.6826C99.5632 52.7393 99.7468 50.7343 99.3154 48.9609C97.8044 42.7272 88.7332 41.7724 86.5254 49.3496C86.4233 49.7048 86.3565 50.0704 86.3105 50.4385C86.1267 51.8647 85.1617 56.6152 80.417 56.6152C75.6726 56.615 74.7564 51.8646 74.5879 50.4385C74.542 50.0448 74.4673 49.6536 74.3525 49.2754C72.0171 41.5463 62.573 42.8534 61.6133 49.6328C61.3964 51.1667 61.6601 52.7498 62.3926 54.1113C57.3235 45.1905 52.7725 37.2266 52.7725 37.2266C52.2774 35.2682 52.5627 33.5003 54.0479 32.0205C55.2551 30.8186 56.9146 30.1904 58.6094 30.1904H70.5244C70.5552 30.202 73.1522 31.1779 73.9287 32.3369C76.157 35.6648 78.552 41.8877 80.252 41.8877C82.7198 41.8869 84.4552 35.3508 86.918 32.2803Z" fill="url(#paint1_linear_236_3161)"/>
</g>
<path d="M147.664 120.441V103.121H152.236L152.397 108.162L152.043 108.065C152.322 106.32 152.816 105.06 153.524 104.284C154.233 103.509 155.21 103.121 156.455 103.121H158.032V107.128H156.455C155.553 107.128 154.812 107.246 154.233 107.483C153.653 107.72 153.213 108.097 152.913 108.614C152.634 109.131 152.494 109.832 152.494 110.715V120.441H147.664Z" fill="#CD4739"/>
<path d="M137.531 120.829C135.771 120.829 134.236 120.463 132.926 119.73C131.638 118.976 130.629 117.921 129.9 116.564C129.191 115.206 128.837 113.612 128.837 111.781C128.837 109.95 129.191 108.367 129.9 107.031C130.629 105.674 131.638 104.618 132.926 103.864C134.214 103.11 135.738 102.733 137.499 102.733C139.216 102.733 140.708 103.11 141.975 103.864C143.241 104.618 144.218 105.695 144.905 107.096C145.613 108.496 145.967 110.166 145.967 112.104V113.074H133.828C133.892 114.453 134.257 115.476 134.923 116.144C135.61 116.811 136.511 117.145 137.628 117.145C138.443 117.145 139.119 116.973 139.656 116.628C140.214 116.284 140.611 115.756 140.848 115.045L145.71 115.336C145.259 117.059 144.304 118.406 142.844 119.375C141.384 120.344 139.613 120.829 137.531 120.829ZM133.828 110.101H141.009C140.944 108.83 140.59 107.882 139.946 107.257C139.323 106.633 138.508 106.32 137.499 106.32C136.49 106.32 135.653 106.654 134.987 107.322C134.343 107.968 133.957 108.895 133.828 110.101Z" fill="#CD4739"/>
<path d="M118.693 125.676C117.04 125.676 115.656 125.471 114.539 125.062C113.444 124.653 112.564 124.082 111.899 123.35C111.255 122.617 110.804 121.777 110.546 120.829L115.505 120.474C115.677 121.034 115.999 121.475 116.471 121.798C116.965 122.122 117.706 122.283 118.693 122.283C119.852 122.283 120.732 122.003 121.333 121.443C121.956 120.904 122.267 120.032 122.267 118.826V116.984C121.859 117.781 121.205 118.427 120.303 118.923C119.401 119.397 118.393 119.633 117.276 119.633C115.859 119.633 114.604 119.289 113.509 118.599C112.414 117.889 111.555 116.908 110.933 115.659C110.332 114.388 110.031 112.901 110.031 111.2C110.031 109.541 110.332 108.076 110.933 106.805C111.555 105.534 112.403 104.543 113.477 103.832C114.571 103.1 115.817 102.733 117.212 102.733C118.478 102.733 119.541 103.013 120.4 103.574C121.28 104.134 121.945 104.877 122.396 105.803V103.121H127.129V118.729C127.129 120.28 126.775 121.562 126.067 122.574C125.358 123.608 124.371 124.384 123.104 124.901C121.838 125.418 120.367 125.676 118.693 125.676ZM118.661 116.047C119.777 116.047 120.657 115.616 121.301 114.754C121.967 113.892 122.299 112.697 122.299 111.167C122.299 110.155 122.149 109.282 121.849 108.55C121.57 107.817 121.151 107.257 120.593 106.87C120.056 106.482 119.412 106.288 118.661 106.288C117.502 106.288 116.6 106.73 115.956 107.613C115.312 108.496 114.99 109.681 114.99 111.167C114.99 112.675 115.323 113.871 115.988 114.754C116.654 115.616 117.545 116.047 118.661 116.047Z" fill="#CD4739"/>
<path d="M99.8874 125.676C98.2345 125.676 96.8499 125.471 95.7336 125.062C94.6388 124.653 93.7587 124.082 93.0932 123.35C92.4492 122.617 91.9984 121.777 91.7408 120.829L96.6996 120.474C96.8713 121.034 97.1933 121.475 97.6656 121.798C98.1593 122.122 98.8999 122.283 99.8874 122.283C101.047 122.283 101.927 122.003 102.528 121.443C103.15 120.904 103.462 120.032 103.462 118.826V116.984C103.054 117.781 102.399 118.427 101.497 118.923C100.596 119.397 99.5869 119.633 98.4706 119.633C97.0538 119.633 95.798 119.289 94.7032 118.599C93.6084 117.889 92.7497 116.908 92.1272 115.659C91.5261 114.388 91.2256 112.901 91.2256 111.2C91.2256 109.541 91.5261 108.076 92.1272 106.805C92.7497 105.534 93.5977 104.543 94.671 103.832C95.7658 103.1 97.0109 102.733 98.4062 102.733C99.6727 102.733 100.735 103.013 101.594 103.574C102.474 104.134 103.14 104.877 103.59 105.803V103.121H108.324V118.729C108.324 120.28 107.97 121.562 107.261 122.574C106.553 123.608 105.565 124.384 104.299 124.901C103.032 125.418 101.562 125.676 99.8874 125.676ZM99.8552 116.047C100.971 116.047 101.852 115.616 102.496 114.754C103.161 113.892 103.494 112.697 103.494 111.167C103.494 110.155 103.344 109.282 103.043 108.55C102.764 107.817 102.345 107.257 101.787 106.87C101.251 106.482 100.607 106.288 99.8552 106.288C98.696 106.288 97.7944 106.73 97.1504 107.613C96.5064 108.496 96.1844 109.681 96.1844 111.167C96.1844 112.675 96.5171 113.871 97.1826 114.754C97.8481 115.616 98.7389 116.047 99.8552 116.047Z" fill="#CD4739"/>
<path d="M79.7626 120.829C77.9808 120.829 76.5211 120.42 75.3834 119.601C74.2671 118.761 73.709 117.598 73.709 116.111C73.709 114.582 74.1813 113.408 75.1258 112.589C76.0918 111.749 77.5086 111.135 79.3762 110.747L84.9468 109.649C84.9468 108.528 84.6892 107.688 84.174 107.128C83.6802 106.546 82.9611 106.256 82.0166 106.256C81.0935 106.256 80.3744 106.471 79.8592 106.902C79.344 107.311 79.0113 107.925 78.861 108.744L73.9988 108.518C74.3208 106.622 75.1687 105.189 76.5426 104.22C77.9379 103.229 79.7626 102.733 82.0166 102.733C84.5926 102.733 86.5246 103.347 87.8126 104.575C89.1221 105.803 89.7768 107.602 89.7768 109.972V115.885C89.7768 116.381 89.8519 116.714 90.0022 116.887C90.1739 117.038 90.4208 117.113 90.7428 117.113H91.2258V120.441C91.0755 120.484 90.8286 120.527 90.4852 120.571C90.1632 120.614 89.8412 120.635 89.5192 120.635C88.8323 120.635 88.1882 120.517 87.5872 120.28C87.0076 120.043 86.5353 119.644 86.1704 119.084C85.8054 118.502 85.623 117.684 85.623 116.628L86.0416 116.951C85.8269 117.727 85.4405 118.406 84.8824 118.987C84.3457 119.569 83.6373 120.021 82.7572 120.344C81.8985 120.668 80.9003 120.829 79.7626 120.829ZM80.9218 117.501C81.716 117.501 82.4137 117.35 83.0148 117.048C83.6158 116.725 84.0881 116.262 84.4316 115.659C84.7751 115.056 84.9468 114.345 84.9468 113.526V112.686L81.0184 113.526C80.2456 113.677 79.6553 113.935 79.2474 114.302C78.861 114.646 78.6678 115.099 78.6678 115.659C78.6678 116.241 78.861 116.693 79.2474 117.016C79.6338 117.339 80.1919 117.501 80.9218 117.501Z" fill="#CD4739"/>
<path d="M63.9748 120.442V101.635H57.1484V97.499H75.76V101.635H68.9014V120.442H63.9748Z" fill="#CD4739"/>
<path d="M43.6685 125.288V121.669H45.9547C46.5129 121.669 46.9207 121.583 47.1783 121.411C47.4574 121.26 47.6721 120.98 47.8223 120.571L48.1765 119.569H46.8563L40.8027 103.121H45.7293L49.6899 115.045L53.3929 103.121H58.3195L51.6863 122.089C51.2999 123.231 50.7418 124.05 50.0119 124.545C49.2821 125.041 48.2624 125.288 46.9529 125.288H43.6685Z" fill="#FCFCFC"/>
<path d="M30.2776 120.829C28.4958 120.829 27.1005 120.258 26.0916 119.116C25.1041 117.953 24.6104 116.337 24.6104 114.269V103.121H29.4404V113.138C29.4404 114.474 29.6443 115.454 30.0522 116.079C30.46 116.682 31.104 116.984 31.9842 116.984C32.9716 116.984 33.7337 116.65 34.2704 115.982C34.8285 115.293 35.1076 114.269 35.1076 112.912V103.121H39.9376V120.441H35.5262L35.3974 115.465L36.0092 115.594C35.7516 117.318 35.1398 118.621 34.1737 119.504C33.2078 120.387 31.909 120.829 30.2776 120.829Z" fill="#FCFCFC"/>
<path d="M11.9141 120.958C9.70307 120.958 7.81401 120.452 6.24694 119.439C4.67987 118.427 3.46701 117.027 2.60834 115.239C1.77114 113.429 1.35254 111.35 1.35254 109.002C1.35254 106.697 1.78187 104.64 2.64054 102.83C3.49921 101.021 4.73354 99.5989 6.34354 98.5648C7.97501 97.5092 9.92847 96.9814 12.2039 96.9814C14.1789 96.9814 15.8425 97.3154 17.1949 97.9832C18.5688 98.6294 19.6636 99.5558 20.4793 100.762C21.2951 101.969 21.8639 103.39 22.1859 105.028L17.1305 105.254C16.8944 103.983 16.3899 102.981 15.6171 102.249C14.8658 101.495 13.7388 101.118 12.2361 101.118C10.9267 101.118 9.83187 101.462 8.95174 102.152C8.09307 102.841 7.44907 103.778 7.01974 104.963C6.61187 106.148 6.40794 107.494 6.40794 109.002C6.40794 110.532 6.61187 111.889 7.01974 113.074C7.44907 114.237 8.09307 115.153 8.95174 115.82C9.83187 116.488 10.9589 116.822 12.3327 116.822C13.3417 116.822 14.2111 116.617 14.9409 116.208C15.6923 115.799 16.2719 115.239 16.6797 114.528C17.1091 113.817 17.3667 113.009 17.4525 112.104H12.2361V108.517H22.2503V120.441H19.2235L18.9659 115.53L19.5455 115.788C19.3309 116.801 18.8586 117.695 18.1287 118.47C17.3989 119.246 16.4973 119.86 15.4239 120.312C14.3721 120.743 13.2021 120.958 11.9141 120.958Z" fill="#FCFCFC"/>
<defs>
<filter id="filter0_dddd_236_3161" x="34.5488" y="28.1191" width="76.9033" height="81.4893" filterUnits="userSpaceOnUse" color-interpolation-filters="sRGB">
<feFlood flood-opacity="0" result="BackgroundImageFix"/>
<feColorMatrix in="SourceAlpha" type="matrix" values="0 0 0 0 0 0 0 0 0 0 0 0 0 0 0 0 0 0 127 0" result="hardAlpha"/>
<feOffset dx="-1" dy="1"/>
<feGaussianBlur stdDeviation="1.5"/>
<feColorMatrix type="matrix" values="0 0 0 0 0 0 0 0 0 0 0 0 0 0 0 0 0 0 0.08 0"/>
<feBlend mode="normal" in2="BackgroundImageFix" result="effect1_dropShadow_236_3161"/>
<feColorMatrix in="SourceAlpha" type="matrix" values="0 0 0 0 0 0 0 0 0 0 0 0 0 0 0 0 0 0 127 0" result="hardAlpha"/>
<feOffset dx="-2" dy="5"/>
<feGaussianBlur stdDeviation="2.5"/>
<feColorMatrix type="matrix" values="0 0 0 0 0 0 0 0 0 0 0 0 0 0 0 0 0 0 0.07 0"/>
<feBlend mode="normal" in2="effect1_dropShadow_236_3161" result="effect2_dropShadow_236_3161"/>
<feColorMatrix in="SourceAlpha" type="matrix" values="0 0 0 0 0 0 0 0 0 0 0 0 0 0 0 0 0 0 127 0" result="hardAlpha"/>
<feOffset dx="-5" dy="11"/>
<feGaussianBlur stdDeviation="3.5"/>
<feColorMatrix type="matrix" values="0 0 0 0 0 0 0 0 0 0 0 0 0 0 0 0 0 0 0.04 0"/>
<feBlend mode="normal" in2="effect2_dropShadow_236_3161" result="effect3_dropShadow_236_3161"/>
<feColorMatrix in="SourceAlpha" type="matrix" values="0 0 0 0 0 0 0 0 0 0 0 0 0 0 0 0 0 0 127 0" result="hardAlpha"/>
<feOffset dx="-9" dy="20"/>
<feGaussianBlur stdDeviation="4.5"/>
<feColorMatrix type="matrix" values="0 0 0 0 0 0 0 0 0 0 0 0 0 0 0 0 0 0 0.01 0"/>
<feBlend mode="normal" in2="effect3_dropShadow_236_3161" result="effect4_dropShadow_236_3161"/>
<feBlend mode="normal" in="SourceGraphic" in2="effect4_dropShadow_236_3161" result="shape"/>
</filter>
<radialGradient id="paint0_radial_236_3161" cx="0" cy="0" r="1" gradientUnits="userSpaceOnUse" gradientTransform="translate(80.5003 52.1729) rotate(90) scale(21.8497 21.7728)">
<stop stop-color="#D9D9D9"/>
<stop offset="1" stop-color="#D9D9D9" stop-opacity="0"/>
</radialGradient>
<linearGradient id="paint1_linear_236_3161" x1="114.878" y1="20.326" x2="24.6929" y2="107.827" gradientUnits="userSpaceOnUse">
<stop stop-color="#EA624A"/>
<stop offset="0.530078" stop-color="#961416"/>
</linearGradient>
</defs>
</svg>
