<svg width="66" height="75" viewBox="0 0 66 75" fill="none" xmlns="http://www.w3.org/2000/svg">
<g clip-path="url(#clip0_391_3820)">
<path d="M57.103 60.9593C56.8788 60.9593 56.6547 60.8735 56.484 60.7028L54.1471 58.3651C51.8905 56.1077 51.4005 52.6007 52.9563 49.8382C54.155 47.7098 55.7651 44.3657 55.9019 39.9256C56.2732 27.8154 46.7779 17.3497 34.735 16.5959C34.2198 16.5676 33.7085 16.5534 33.1768 16.5534H33.1328C32.6915 16.5534 32.2353 16.5684 31.7941 16.5826C29.2747 16.7195 26.8081 17.2883 24.4634 18.2735C22.1918 19.2279 20.0839 20.5506 18.1969 22.2053C14.4191 25.5186 11.7401 30.0288 10.6523 34.904C10.3172 36.4234 9.44021 37.7949 8.18252 38.7634C6.9492 39.7139 5.4052 40.2372 3.83445 40.2372H0.875434C0.391704 40.2372 0 39.8453 0 39.3614C0 38.8775 0.391704 38.4857 0.875434 38.4857H3.83445C6.2885 38.4857 8.43657 36.82 8.94233 34.5256C10.1111 29.2884 12.9868 24.4462 17.0423 20.8889C19.0708 19.1099 21.3392 17.6865 23.7846 16.6589C26.3181 15.5943 28.9845 14.9806 31.7083 14.8334C31.7146 14.8334 31.7209 14.8334 31.7272 14.8326C32.185 14.8177 32.6585 14.8027 33.1312 14.8027H33.1753C33.7392 14.8027 34.2827 14.8177 34.8365 14.8484C47.8193 15.6612 58.0508 26.935 57.6512 39.9807C57.5018 44.8071 55.7698 48.4093 54.4806 50.699C53.3087 52.7794 53.6799 55.4231 55.3836 57.1274L57.7204 59.4651C58.0626 59.8074 58.0626 60.3621 57.7204 60.7036C57.5498 60.8743 57.3256 60.9601 57.1014 60.9601L57.103 60.9593Z" fill="white"/>
<path d="M47.2939 62.4399C47.0194 62.4399 46.7496 62.3117 46.5789 62.0709C43.8842 58.2713 43.7513 53.2583 46.2399 49.2998C48.8701 45.1154 49.2327 42.5613 49.2327 40.4258C49.2327 31.6621 42.4471 24.4389 33.7848 23.9818C33.449 23.9644 33.1241 23.9558 32.7898 23.9558C32.4202 23.9558 32.0914 23.9644 31.7547 23.9818C24.6852 24.3547 18.3542 30.2583 16.7001 38.0197C16.0929 40.8751 14.493 43.2978 12.0736 45.0249C9.67933 46.7347 6.64795 47.6388 3.30824 47.6388H0.875434C0.391704 47.6388 0 47.2469 0 46.763C0 46.2791 0.391704 45.8873 0.875434 45.8873H3.30824C6.28142 45.8873 8.96042 45.0965 11.0566 43.5999C13.1142 42.1309 14.4734 40.0757 14.9878 37.6554C16.8039 29.1332 23.8168 22.6473 31.6627 22.2334C32.0308 22.2137 32.3887 22.2051 32.7898 22.2051C33.154 22.2051 33.5095 22.2145 33.8761 22.2334C43.4689 22.7401 50.9828 30.732 50.9828 40.4274C50.9828 44.4859 49.4152 47.5388 47.721 50.2337C45.6107 53.5904 45.7224 57.8393 48.0057 61.059C48.2857 61.4532 48.1929 62.0001 47.7981 62.2802C47.6439 62.3896 47.4677 62.4415 47.2923 62.4415L47.2939 62.4399Z" fill="white"/>
<path d="M3.8521 16.5534C3.66884 16.5534 3.484 16.496 3.32669 16.3772C2.94049 16.0861 2.86262 15.5369 3.15364 15.1505C6.61291 10.5515 11.1403 6.74003 16.2474 4.12774C21.603 1.38876 27.3842 0 33.4289 0C39.4735 0 45.2547 1.38876 50.6104 4.12853C55.7174 6.74003 60.2448 10.5523 63.7041 15.1513C63.9951 15.5376 63.9173 16.0869 63.5311 16.378C63.1449 16.6691 62.5959 16.5912 62.3048 16.2049C59.0044 11.8167 54.6855 8.18073 49.8136 5.68882C44.7065 3.07653 39.1935 1.75228 33.4289 1.75228C27.6642 1.75228 22.1513 3.07653 17.0442 5.68882C12.1723 8.18073 7.8533 11.8167 4.55292 16.2049C4.38067 16.4338 4.11796 16.5542 3.85289 16.5542L3.8521 16.5534Z" fill="white"/>
<path d="M63.0214 29.8758C62.6501 29.8758 62.3056 29.6381 62.1868 29.2652C61.276 26.4011 59.8854 23.6991 58.0527 21.2347C56.2429 18.801 54.0468 16.6577 51.5259 14.8637C46.2764 11.1278 40.0186 9.15365 33.4281 9.15365C26.8376 9.15365 20.5805 11.1278 15.3303 14.8637C12.8086 16.6577 10.6125 18.8018 8.80346 21.2347C6.97079 23.6991 5.58017 26.4011 4.66934 29.2652C4.52304 29.7263 4.03066 29.9812 3.56974 29.8348C3.10882 29.6885 2.85397 29.1959 3.00027 28.7348C3.97009 25.6851 5.4496 22.81 7.39789 20.189C9.31708 17.6082 11.6445 15.3366 14.3148 13.4356C19.8624 9.48806 26.4718 7.40137 33.4273 7.40137C40.3828 7.40137 46.9922 9.48806 52.5398 13.4356C55.2109 15.3366 57.5383 17.6082 59.4567 20.189C61.4058 22.81 62.8853 25.6851 63.8543 28.7348C64.0006 29.1959 63.7458 29.6885 63.2849 29.8348C63.1968 29.8632 63.1071 29.8765 63.019 29.8765L63.0214 29.8758Z" fill="white"/>
<path d="M62.0624 53.5586C61.9255 53.5586 61.7871 53.5264 61.6581 53.4587C61.2294 53.2345 61.0635 52.7057 61.2868 52.2769C62.8277 49.3239 64.4858 44.1898 63.6308 36.4969C63.5773 36.0161 63.9234 35.5826 64.404 35.5299C64.8845 35.4764 65.3179 35.8226 65.3706 36.3033C66.2736 44.4345 64.492 49.9187 62.8387 53.0873C62.6822 53.3871 62.3778 53.5578 62.0616 53.5578L62.0624 53.5586Z" fill="white"/>
<path d="M14.1919 68.3612C13.7869 68.3612 13.4227 68.078 13.3362 67.6657C13.2363 67.192 13.5391 66.7278 14.0126 66.6278C14.0999 66.609 21.0232 65.1108 27.8363 60.976C31.8052 58.5667 34.9609 55.7459 37.2167 52.5915C40.0129 48.6817 41.4311 44.2306 41.4311 39.3616C41.4311 34.9475 37.8413 31.3564 33.4287 31.3564C29.0161 31.3564 25.4263 34.9475 25.4263 39.3616C25.4263 43.7758 23.5433 47.5825 20.1241 50.4954C16.6845 53.4255 11.9503 55.0401 6.79441 55.0401H3.83539C3.35166 55.0401 2.95996 54.6483 2.95996 54.1644C2.95996 53.6805 3.35166 53.2886 3.83539 53.2886H6.79441C11.535 53.2886 15.8649 51.8235 18.9891 49.1625C22.0111 46.5879 23.6754 43.1078 23.6754 39.3632C23.6754 33.9828 28.051 29.6064 33.4287 29.6064C38.8064 29.6064 43.1819 33.9836 43.1819 39.3632C43.1819 44.7428 41.649 49.4158 38.6254 53.6348C36.2241 56.9852 32.886 59.9681 28.7031 62.5009C21.6288 66.7844 14.6662 68.2826 14.3736 68.3447C14.3131 68.3573 14.2525 68.3636 14.1927 68.3636L14.1919 68.3612Z" fill="white"/>
<path d="M27.5102 53.8843C27.2899 53.8843 27.0697 53.8016 26.8998 53.6364C26.5529 53.2989 26.5459 52.7449 26.8825 52.3979C30.6454 48.5283 32.5528 43.6444 32.5528 37.8816C32.5528 37.3977 32.9445 37.0059 33.4282 37.0059C33.9119 37.0059 34.3036 37.3977 34.3036 37.8816C34.3036 44.1165 32.2287 49.4119 28.1371 53.6199C27.9656 53.7961 27.7375 53.8851 27.5094 53.8851L27.5102 53.8843Z" fill="white"/>
<path d="M9.75232 62.4405C9.31735 62.4405 8.93981 62.1163 8.88475 61.6733C8.82497 61.1933 9.16476 60.7559 9.64535 60.6953C9.73108 60.6842 15.911 59.8675 21.7819 56.3716C22.1972 56.1237 22.7352 56.2607 22.9821 56.6761C23.2291 57.0916 23.0931 57.6298 22.6778 57.8768C16.4679 61.5742 10.1291 62.4003 9.86244 62.4334C9.82547 62.4381 9.78929 62.4405 9.75232 62.4405Z" fill="white"/>
<path d="M21.5902 72.8015C21.1906 72.8015 20.8296 72.5261 20.7368 72.1193C20.6298 71.6472 20.9247 71.1783 21.3967 71.0713C21.4989 71.0477 30.1565 69.031 35.4068 64.3611C36.8076 63.1156 38.9203 63.0865 40.4313 64.2935C41.9422 65.5005 43.568 66.3597 45.2631 66.8483C47.5913 67.5195 49.9887 67.4542 52.3877 66.654C52.8462 66.5013 53.3425 66.7492 53.4951 67.2079C53.6477 67.6666 53.4 68.1631 52.9414 68.3158C50.2003 69.2301 47.4536 69.3025 44.7778 68.5314C42.8601 67.979 41.0306 67.0136 39.3387 65.6626C38.4963 64.9898 37.3322 64.993 36.5709 65.6704C30.9745 70.6479 22.1581 72.6945 21.7852 72.7795C21.7199 72.7944 21.6547 72.8015 21.5902 72.8015Z" fill="white"/>
<path d="M33.4296 74.2812C33.1283 74.2812 32.835 74.1254 32.6721 73.8461C32.4283 73.4283 32.5699 72.8917 32.9876 72.6477C33.0442 72.6147 34.3986 71.8318 36.2596 71.4376C38.8018 70.8978 41.0788 71.3392 42.8446 72.7131C43.2261 73.0097 43.2953 73.5605 42.998 73.9421C42.7015 74.3237 42.1509 74.393 41.7694 74.0955C38.4698 71.5289 33.9157 74.1341 33.8701 74.1608C33.7316 74.2419 33.5798 74.2804 33.4296 74.2804V74.2812Z" fill="white"/>
</g>
<defs>
<clipPath id="clip0_391_3820">
<rect width="65.6151" height="74.2812" fill="white"/>
</clipPath>
</defs>
</svg>
