<svg width="146" height="53" viewBox="0 0 146 53" fill="none" xmlns="http://www.w3.org/2000/svg">
<circle cx="32.7969" cy="15.4203" r="14.75" stroke="#B1B1B1" stroke-opacity="0.05" stroke-width="0.5"/>
<g style="mix-blend-mode:lighten">
<ellipse cx="32.7974" cy="15.4354" rx="11.5259" ry="11.5259" fill="url(#paint0_radial_216_3215)" fill-opacity="0.2"/>
</g>
<g filter="url(#filter0_dddd_216_3215)">
<path d="M28.3516 20.6042C29.3311 20.2337 30.5626 20.4835 31.0801 21.5574C31.1219 21.6441 31.1604 21.7346 31.1914 21.8308C31.2414 21.9842 31.2584 22.1452 31.2598 22.3054C31.2625 22.8134 31.3918 24.1453 32.6738 24.1453C33.9556 24.1451 34.2081 22.8541 34.2676 22.3298C34.2878 22.1507 34.3344 21.9754 34.4141 21.8152C34.4897 21.6618 34.5736 21.5234 34.6641 21.3972C35.2789 20.5405 36.2031 20.3089 36.9922 20.533C38.0622 20.8358 38.8875 21.9764 38.3662 23.5281C38.3338 23.6244 38.2886 23.7172 38.2373 23.8054L38.1689 23.8552C35.9219 27.5957 34.6 30.4353 32.7529 30.4353C30.6116 30.435 29.7195 27.9667 27.1377 23.366C26.9999 23.1189 26.9774 22.7542 26.9814 22.4705C26.9937 21.5419 27.599 20.8893 28.3516 20.6042ZM36.1953 4.94116C37.3531 3.49958 38.2787 3.83229 38.2959 3.83862H44.3955C45.5426 3.83868 46.6356 4.4094 47.2314 5.39233C47.6813 6.13494 47.7543 6.9575 47.2139 7.91187C47.2139 7.91187 45.0546 11.9365 42.4238 16.5798H42.4229C42.889 15.7341 42.9861 14.6763 42.7578 13.741C41.9579 10.4526 37.1561 9.94896 35.9873 13.946C35.9333 14.1333 35.8974 14.3262 35.873 14.5203C35.7757 15.2728 35.265 17.7778 32.7539 17.7781C30.2423 17.7781 29.7563 15.2728 29.667 14.5203C29.6427 14.3125 29.6038 14.1056 29.543 13.906C28.3065 9.82912 23.3069 10.5193 22.7988 14.0955C22.6841 14.9045 22.8232 15.7397 23.2109 16.4578C20.5275 11.752 18.1191 7.55054 18.1191 7.55054C17.8571 6.51755 18.0079 5.585 18.7939 4.80444C19.4331 4.17039 20.3118 3.83862 21.209 3.83862H27.5166C27.5348 3.84542 28.9076 4.36049 29.3184 4.97144C30.4979 6.72695 31.7661 10.0095 32.666 10.0095C33.9724 10.0089 34.8915 6.56076 36.1953 4.94116Z" fill="url(#paint1_linear_216_3215)"/>
</g>
<path d="M62.4569 21.288C61.2209 21.288 60.1649 21.006 59.2889 20.442C58.4129 19.878 57.7349 19.098 57.2549 18.102C56.7869 17.094 56.5529 15.936 56.5529 14.628C56.5529 13.344 56.7929 12.198 57.2729 11.19C57.7529 10.182 58.4429 9.39 59.3429 8.814C60.2549 8.226 61.3469 7.932 62.6189 7.932C63.7229 7.932 64.6529 8.118 65.4089 8.49C66.1769 8.85 66.7889 9.366 67.2449 10.038C67.7009 10.71 68.0189 11.502 68.1989 12.414L65.3729 12.54C65.2409 11.832 64.9589 11.274 64.5269 10.866C64.1069 10.446 63.4769 10.236 62.6369 10.236C61.9049 10.236 61.2929 10.428 60.8009 10.812C60.3209 11.196 59.9609 11.718 59.7209 12.378C59.4929 13.038 59.3789 13.788 59.3789 14.628C59.3789 15.48 59.4929 16.236 59.7209 16.896C59.9609 17.544 60.3209 18.054 60.8009 18.426C61.2929 18.798 61.9229 18.984 62.6909 18.984C63.2549 18.984 63.7409 18.87 64.1489 18.642C64.5689 18.414 64.8929 18.102 65.1209 17.706C65.3609 17.31 65.5049 16.86 65.5529 16.356H62.6369V14.358H68.2349V21H66.5429L66.3989 18.264L66.7229 18.408C66.6029 18.972 66.3389 19.47 65.9309 19.902C65.5229 20.334 65.0189 20.676 64.4189 20.928C63.8309 21.168 63.1769 21.288 62.4569 21.288ZM72.7219 21.216C71.7259 21.216 70.9459 20.898 70.3819 20.262C69.8299 19.614 69.5539 18.714 69.5539 17.562V11.352H72.2539V16.932C72.2539 17.676 72.3679 18.222 72.5959 18.57C72.8239 18.906 73.1839 19.074 73.6759 19.074C74.2279 19.074 74.6539 18.888 74.9539 18.516C75.2659 18.132 75.4219 17.562 75.4219 16.806V11.352H78.1219V21H75.6559L75.5839 18.228L75.9259 18.3C75.7819 19.26 75.4399 19.986 74.8999 20.478C74.3599 20.97 73.6339 21.216 72.7219 21.216ZM80.208 23.7V21.684H81.486C81.798 21.684 82.026 21.636 82.17 21.54C82.326 21.456 82.446 21.3 82.53 21.072L82.728 20.514H81.99L78.606 11.352H81.36L83.574 17.994L85.644 11.352H88.398L84.69 21.918C84.474 22.554 84.162 23.01 83.754 23.286C83.346 23.562 82.776 23.7 82.044 23.7H80.208Z" fill="#FCFCFC"/>
<path d="M91.5591 21V10.524H87.7431V8.22H98.1471V10.524H94.3131V21H91.5591ZM100.385 21.216C99.3888 21.216 98.5728 20.988 97.9368 20.532C97.3128 20.064 97.0008 19.416 97.0008 18.588C97.0008 17.736 97.2648 17.082 97.7928 16.626C98.3328 16.158 99.1248 15.816 100.169 15.6L103.283 14.988C103.283 14.364 103.139 13.896 102.851 13.584C102.575 13.26 102.173 13.098 101.645 13.098C101.129 13.098 100.727 13.218 100.439 13.458C100.151 13.686 99.9648 14.028 99.8808 14.484L97.1628 14.358C97.3428 13.302 97.8168 12.504 98.5848 11.964C99.3648 11.412 100.385 11.136 101.645 11.136C103.085 11.136 104.165 11.478 104.885 12.162C105.617 12.846 105.983 13.848 105.983 15.168V18.462C105.983 18.738 106.025 18.924 106.109 19.02C106.205 19.104 106.343 19.146 106.523 19.146H106.793V21C106.709 21.024 106.571 21.048 106.379 21.072C106.199 21.096 106.019 21.108 105.839 21.108C105.455 21.108 105.095 21.042 104.759 20.91C104.435 20.778 104.171 20.556 103.967 20.244C103.763 19.92 103.661 19.464 103.661 18.876L103.895 19.056C103.775 19.488 103.559 19.866 103.247 20.19C102.947 20.514 102.551 20.766 102.059 20.946C101.579 21.126 101.021 21.216 100.385 21.216ZM101.033 19.362C101.477 19.362 101.867 19.278 102.203 19.11C102.539 18.93 102.803 18.672 102.995 18.336C103.187 18 103.283 17.604 103.283 17.148V16.68L101.087 17.148C100.655 17.232 100.325 17.376 100.097 17.58C99.8808 17.772 99.7728 18.024 99.7728 18.336C99.7728 18.66 99.8808 18.912 100.097 19.092C100.313 19.272 100.625 19.362 101.033 19.362ZM111.635 23.916C110.711 23.916 109.937 23.802 109.313 23.574C108.701 23.346 108.209 23.028 107.837 22.62C107.477 22.212 107.225 21.744 107.081 21.216L109.853 21.018C109.949 21.33 110.129 21.576 110.393 21.756C110.669 21.936 111.083 22.026 111.635 22.026C112.283 22.026 112.775 21.87 113.111 21.558C113.459 21.258 113.633 20.772 113.633 20.1V19.074C113.405 19.518 113.039 19.878 112.535 20.154C112.031 20.418 111.467 20.55 110.843 20.55C110.051 20.55 109.349 20.358 108.737 19.974C108.125 19.578 107.645 19.032 107.297 18.336C106.961 17.628 106.793 16.8 106.793 15.852C106.793 14.928 106.961 14.112 107.297 13.404C107.645 12.696 108.119 12.144 108.719 11.748C109.331 11.34 110.027 11.136 110.807 11.136C111.515 11.136 112.109 11.292 112.589 11.604C113.081 11.916 113.453 12.33 113.705 12.846V11.352H116.351V20.046C116.351 20.91 116.153 21.624 115.757 22.188C115.361 22.764 114.809 23.196 114.101 23.484C113.393 23.772 112.571 23.916 111.635 23.916ZM111.617 18.552C112.241 18.552 112.733 18.312 113.093 17.832C113.465 17.352 113.651 16.686 113.651 15.834C113.651 15.27 113.567 14.784 113.399 14.376C113.243 13.968 113.009 13.656 112.697 13.44C112.397 13.224 112.037 13.116 111.617 13.116C110.969 13.116 110.465 13.362 110.105 13.854C109.745 14.346 109.565 15.006 109.565 15.834C109.565 16.674 109.751 17.34 110.123 17.832C110.495 18.312 110.993 18.552 111.617 18.552ZM122.147 23.916C121.223 23.916 120.449 23.802 119.825 23.574C119.213 23.346 118.721 23.028 118.349 22.62C117.989 22.212 117.737 21.744 117.593 21.216L120.365 21.018C120.461 21.33 120.641 21.576 120.905 21.756C121.181 21.936 121.595 22.026 122.147 22.026C122.795 22.026 123.287 21.87 123.623 21.558C123.971 21.258 124.145 20.772 124.145 20.1V19.074C123.917 19.518 123.551 19.878 123.047 20.154C122.543 20.418 121.979 20.55 121.355 20.55C120.563 20.55 119.861 20.358 119.249 19.974C118.637 19.578 118.157 19.032 117.809 18.336C117.473 17.628 117.305 16.8 117.305 15.852C117.305 14.928 117.473 14.112 117.809 13.404C118.157 12.696 118.631 12.144 119.231 11.748C119.843 11.34 120.539 11.136 121.319 11.136C122.027 11.136 122.621 11.292 123.101 11.604C123.593 11.916 123.965 12.33 124.217 12.846V11.352H126.863V20.046C126.863 20.91 126.665 21.624 126.269 22.188C125.873 22.764 125.321 23.196 124.613 23.484C123.905 23.772 123.083 23.916 122.147 23.916ZM122.129 18.552C122.753 18.552 123.245 18.312 123.605 17.832C123.977 17.352 124.163 16.686 124.163 15.834C124.163 15.27 124.079 14.784 123.911 14.376C123.755 13.968 123.521 13.656 123.209 13.44C122.909 13.224 122.549 13.116 122.129 13.116C121.481 13.116 120.977 13.362 120.617 13.854C120.257 14.346 120.077 15.006 120.077 15.834C120.077 16.674 120.263 17.34 120.635 17.832C121.007 18.312 121.505 18.552 122.129 18.552ZM132.677 21.216C131.693 21.216 130.835 21.012 130.103 20.604C129.383 20.184 128.819 19.596 128.411 18.84C128.015 18.084 127.817 17.196 127.817 16.176C127.817 15.156 128.015 14.274 128.411 13.53C128.819 12.774 129.383 12.186 130.103 11.766C130.823 11.346 131.675 11.136 132.659 11.136C133.619 11.136 134.453 11.346 135.161 11.766C135.869 12.186 136.415 12.786 136.799 13.566C137.195 14.346 137.393 15.276 137.393 16.356V16.896H130.607C130.643 17.664 130.847 18.234 131.219 18.606C131.603 18.978 132.107 19.164 132.731 19.164C133.187 19.164 133.565 19.068 133.865 18.876C134.177 18.684 134.399 18.39 134.531 17.994L137.249 18.156C136.997 19.116 136.463 19.866 135.647 20.406C134.831 20.946 133.841 21.216 132.677 21.216ZM130.607 15.24H134.621C134.585 14.532 134.387 14.004 134.027 13.656C133.679 13.308 133.223 13.134 132.659 13.134C132.095 13.134 131.627 13.32 131.255 13.692C130.895 14.052 130.679 14.568 130.607 15.24ZM138.342 21V11.352H140.898L140.988 14.16L140.79 14.106C140.946 13.134 141.222 12.432 141.618 12C142.014 11.568 142.56 11.352 143.256 11.352H144.138V13.584H143.256C142.752 13.584 142.338 13.65 142.014 13.782C141.69 13.914 141.444 14.124 141.276 14.412C141.12 14.7 141.042 15.09 141.042 15.582V21H138.342Z" fill="#CD4739"/>
<defs>
<filter id="filter0_dddd_216_3215" x="0" y="1.80115" width="50.5938" height="57.6342" filterUnits="userSpaceOnUse" color-interpolation-filters="sRGB">
<feFlood flood-opacity="0" result="BackgroundImageFix"/>
<feColorMatrix in="SourceAlpha" type="matrix" values="0 0 0 0 0 0 0 0 0 0 0 0 0 0 0 0 0 0 127 0" result="hardAlpha"/>
<feOffset dx="-1" dy="1"/>
<feGaussianBlur stdDeviation="1.5"/>
<feColorMatrix type="matrix" values="0 0 0 0 0 0 0 0 0 0 0 0 0 0 0 0 0 0 0.08 0"/>
<feBlend mode="normal" in2="BackgroundImageFix" result="effect1_dropShadow_216_3215"/>
<feColorMatrix in="SourceAlpha" type="matrix" values="0 0 0 0 0 0 0 0 0 0 0 0 0 0 0 0 0 0 127 0" result="hardAlpha"/>
<feOffset dx="-2" dy="5"/>
<feGaussianBlur stdDeviation="2.5"/>
<feColorMatrix type="matrix" values="0 0 0 0 0 0 0 0 0 0 0 0 0 0 0 0 0 0 0.07 0"/>
<feBlend mode="normal" in2="effect1_dropShadow_216_3215" result="effect2_dropShadow_216_3215"/>
<feColorMatrix in="SourceAlpha" type="matrix" values="0 0 0 0 0 0 0 0 0 0 0 0 0 0 0 0 0 0 127 0" result="hardAlpha"/>
<feOffset dx="-5" dy="11"/>
<feGaussianBlur stdDeviation="3.5"/>
<feColorMatrix type="matrix" values="0 0 0 0 0 0 0 0 0 0 0 0 0 0 0 0 0 0 0.04 0"/>
<feBlend mode="normal" in2="effect2_dropShadow_216_3215" result="effect3_dropShadow_216_3215"/>
<feColorMatrix in="SourceAlpha" type="matrix" values="0 0 0 0 0 0 0 0 0 0 0 0 0 0 0 0 0 0 127 0" result="hardAlpha"/>
<feOffset dx="-9" dy="20"/>
<feGaussianBlur stdDeviation="4.5"/>
<feColorMatrix type="matrix" values="0 0 0 0 0 0 0 0 0 0 0 0 0 0 0 0 0 0 0.01 0"/>
<feBlend mode="normal" in2="effect3_dropShadow_216_3215" result="effect4_dropShadow_216_3215"/>
<feBlend mode="normal" in="SourceGraphic" in2="effect4_dropShadow_216_3215" result="shape"/>
</filter>
<radialGradient id="paint0_radial_216_3215" cx="0" cy="0" r="1" gradientUnits="userSpaceOnUse" gradientTransform="translate(32.7974 15.4354) rotate(90) scale(11.5259)">
<stop stop-color="#D9D9D9"/>
<stop offset="1" stop-color="#D9D9D9" stop-opacity="0"/>
</radialGradient>
<linearGradient id="paint1_linear_216_3215" x1="50.9963" y1="-1.36441" x2="3.41853" y2="44.9624" gradientUnits="userSpaceOnUse">
<stop stop-color="#EA624A"/>
<stop offset="0.530078" stop-color="#961416"/>
</linearGradient>
</defs>
</svg>
