<svg width="20" height="20" viewBox="0 0 20 20" fill="none" xmlns="http://www.w3.org/2000/svg">
<path d="M9.99998 1.66669C7.69998 1.66669 5.83331 3.53335 5.83331 5.83335C5.83331 8.13335 7.69998 10 9.99998 10C12.3 10 14.1666 8.13335 14.1666 5.83335C14.1666 3.53335 12.3 1.66669 9.99998 1.66669ZM11.8083 5.42502L9.55831 7.67502C9.47498 7.75835 9.29998 7.84169 9.18331 7.86669L8.32498 7.98335C8.00831 8.02502 7.79165 7.80835 7.84165 7.50002L7.96665 6.64169C7.98331 6.52502 8.06665 6.35002 8.15831 6.26669L10.4083 4.01669C10.7916 3.63335 11.25 3.45002 11.8166 4.01669C12.375 4.59169 12.1916 5.04169 11.8083 5.42502Z" fill="#FCFCFC"/>
<path d="M9.99999 11.6667C5.82499 11.6667 2.42499 14.4667 2.42499 17.9167C2.42499 18.15 2.60832 18.3334 2.84165 18.3334H17.1583C17.3917 18.3334 17.575 18.15 17.575 17.9167C17.575 14.4667 14.175 11.6667 9.99999 11.6667Z" fill="#FCFCFC"/>
</svg>
