<svg width="20" height="20" viewBox="0 0 20 20" fill="none" xmlns="http://www.w3.org/2000/svg">
<path d="M16.4417 13.4167C16.4417 13.3917 16.4584 13.3667 16.4584 13.3334V5.41669C16.4584 4.15002 15.4334 3.12502 14.1667 3.12502H10.8917L12.0667 2.15002C12.3334 1.92502 12.3667 1.53336 12.1501 1.26669C11.9251 1.00002 11.5334 0.966691 11.2667 1.18336L8.76675 3.26669C8.62508 3.38336 8.54175 3.55836 8.54175 3.75002C8.54175 3.94169 8.62508 4.10836 8.76675 4.23336L11.2667 6.31669C11.3834 6.41669 11.5251 6.45836 11.6667 6.45836C11.8417 6.45836 12.0251 6.38336 12.1501 6.23336C12.3751 5.96669 12.3334 5.57502 12.0667 5.35002L10.8917 4.37502H14.1667C14.7417 4.37502 15.2084 4.84169 15.2084 5.41669V13.3334C15.2084 13.3667 15.2251 13.3917 15.2251 13.4167C14.1417 13.6917 13.3334 14.6667 13.3334 15.8334C13.3334 17.2167 14.4501 18.3334 15.8334 18.3334C17.2167 18.3334 18.3334 17.2167 18.3334 15.8334C18.3334 14.6667 17.5251 13.6917 16.4417 13.4167Z" fill="#FCFCFC"/>
<path d="M11.2334 15.7667L8.73341 13.6834C8.46675 13.4584 8.07508 13.5 7.85008 13.7667C7.62508 14.0334 7.66675 14.425 7.93342 14.65L9.10842 15.625H5.83341C5.25841 15.625 4.79175 15.1584 4.79175 14.5834V6.66669C4.79175 6.63335 4.77508 6.60835 4.77508 6.58335C5.85841 6.30835 6.66675 5.33335 6.66675 4.16669C6.66675 2.78335 5.55008 1.66669 4.16675 1.66669C2.78341 1.66669 1.66675 2.78335 1.66675 4.16669C1.66675 5.33335 2.47508 6.30835 3.55841 6.58335C3.55841 6.60835 3.54175 6.63335 3.54175 6.66669V14.5834C3.54175 15.85 4.56675 16.875 5.83341 16.875H9.10842L7.93342 17.85C7.66675 18.075 7.63342 18.4667 7.85008 18.7334C7.97508 18.8834 8.15008 18.9584 8.33342 18.9584C8.47508 18.9584 8.61675 18.9084 8.73341 18.8167L11.2334 16.7334C11.3751 16.6167 11.4584 16.4417 11.4584 16.25C11.4584 16.0584 11.3751 15.8917 11.2334 15.7667Z" fill="#FCFCFC"/>
</svg>
