<svg width="20" height="20" viewBox="0 0 20 20" fill="none" xmlns="http://www.w3.org/2000/svg">
<path d="M12.4998 18.9583C12.2748 18.9583 12.0665 18.8333 11.9582 18.6417C11.8498 18.45 11.8498 18.2083 11.9665 18.0167L12.8415 16.5583C13.0165 16.2583 13.3998 16.1667 13.6998 16.3417C13.9998 16.5167 14.0915 16.9 13.9165 17.2L13.6915 17.575C15.9915 17.0333 17.7165 14.9667 17.7165 12.5C17.7165 12.1583 17.9998 11.875 18.3415 11.875C18.6832 11.875 18.9665 12.1583 18.9665 12.5C18.9582 16.0583 16.0582 18.9583 12.4998 18.9583Z" fill="#FCFCFC"/>
<path d="M1.6665 8.12502C1.32484 8.12502 1.0415 7.84169 1.0415 7.50002C1.0415 3.94169 3.9415 1.04169 7.49984 1.04169C7.72484 1.04169 7.93317 1.16669 8.0415 1.35835C8.14984 1.55002 8.14984 1.79169 8.03317 1.98335L7.15817 3.45002C6.98317 3.74169 6.59984 3.84169 6.29984 3.65835C6.00817 3.48335 5.90817 3.10002 6.0915 2.80002L6.3165 2.42502C4.00817 2.96669 2.2915 5.03335 2.2915 7.50002C2.2915 7.84169 2.00817 8.12502 1.6665 8.12502Z" fill="#FCFCFC"/>
<path d="M8.8918 11.5416L6.27513 10.1333C6.00013 9.98331 5.6668 9.98331 5.3918 10.1333L2.77513 11.5416C2.58346 11.6416 2.4668 11.85 2.4668 12.075C2.4668 12.3 2.58346 12.5083 2.77513 12.6083L5.3918 14.0166C5.53346 14.0916 5.68346 14.125 5.83346 14.125C5.98346 14.125 6.13346 14.0916 6.27513 14.0166L8.8918 12.6083C9.08346 12.5083 9.20013 12.3 9.20013 12.075C9.20013 11.85 9.07513 11.65 8.8918 11.5416Z" fill="#FCFCFC"/>
<path d="M4.95817 14.5083L2.52484 13.2917C2.3415 13.2 2.12484 13.2083 1.9415 13.3167C1.77484 13.425 1.6665 13.6167 1.6665 13.825V16.125C1.6665 16.525 1.88317 16.8833 2.2415 17.0583L4.67484 18.275C4.75817 18.3083 4.84984 18.3333 4.9415 18.3333C5.04984 18.3333 5.15817 18.3 5.25817 18.2417C5.43317 18.1333 5.5415 17.9417 5.5415 17.7333V15.4333C5.5415 15.0417 5.3165 14.6833 4.95817 14.5083Z" fill="#FCFCFC"/>
<path d="M9.71667 13.3167C9.54167 13.2083 9.325 13.2 9.13333 13.2917L6.7 14.5083C6.34167 14.6833 6.125 15.0417 6.125 15.4417V17.7417C6.125 17.95 6.23333 18.1417 6.40833 18.25C6.50833 18.3 6.61667 18.3333 6.725 18.3333C6.81667 18.3333 6.90833 18.3083 6.99167 18.2667L9.425 17.05C9.78333 16.875 10 16.5167 10 16.1167V13.8167C10 13.6167 9.89167 13.425 9.71667 13.3167Z" fill="#FCFCFC"/>
<path d="M17.2248 3.19167L14.6081 1.78334C14.3331 1.63334 13.9998 1.63334 13.7248 1.78334L11.1081 3.19167C10.9165 3.29167 10.7998 3.5 10.7998 3.725C10.7998 3.95 10.9165 4.15834 11.1081 4.25834L13.7248 5.66667C13.8665 5.74167 14.0165 5.775 14.1665 5.775C14.3165 5.775 14.4665 5.74167 14.6081 5.66667L17.2248 4.25834C17.4165 4.15834 17.5331 3.95 17.5331 3.725C17.5331 3.49167 17.4081 3.29167 17.2248 3.19167Z" fill="#FCFCFC"/>
<path d="M13.2917 6.14999L10.8583 4.93332C10.675 4.84165 10.4583 4.84999 10.275 4.95832C10.1083 5.06665 10 5.25832 10 5.46665V7.76665C10 8.16665 10.2167 8.52499 10.575 8.69999L13.0083 9.91665C13.0917 9.95832 13.1833 9.98332 13.275 9.98332C13.3833 9.98332 13.4917 9.94999 13.5917 9.89165C13.7667 9.78332 13.875 9.59165 13.875 9.38332V7.08332C13.875 6.68332 13.65 6.32499 13.2917 6.14999Z" fill="#FCFCFC"/>
<path d="M18.0502 4.95832C17.8752 4.84999 17.6585 4.84165 17.4668 4.93332L15.0335 6.14999C14.6752 6.32499 14.4585 6.68332 14.4585 7.08332V9.38332C14.4585 9.59165 14.5668 9.78332 14.7418 9.89165C14.8418 9.94999 14.9502 9.98332 15.0585 9.98332C15.1502 9.98332 15.2418 9.95832 15.3252 9.91665L17.7585 8.69999C18.1168 8.51665 18.3335 8.15832 18.3335 7.76665V5.46665C18.3335 5.25832 18.2252 5.06665 18.0502 4.95832Z" fill="#FCFCFC"/>
</svg>
