<svg width="45" height="45" viewBox="0 0 45 45" fill="none" xmlns="http://www.w3.org/2000/svg">
<path d="M41.25 9.09365V31.3874C41.25 33.2062 39.7687 34.8749 37.95 35.0999L37.3688 35.1749C34.2938 35.5874 29.9625 36.8624 26.475 38.3249C25.2562 38.8312 23.9062 37.9124 23.9062 36.5812V10.4999C23.9062 9.80615 24.3 9.16865 24.9187 8.83115C28.35 6.9749 33.5438 5.3249 37.0688 5.0249H37.1812C39.4312 5.0249 41.25 6.84365 41.25 9.09365Z" fill="#FCFCFC"/>
<path d="M20.0812 8.83115C16.65 6.9749 11.4562 5.3249 7.9312 5.0249H7.79995C5.54995 5.0249 3.7312 6.84365 3.7312 9.09365V31.3874C3.7312 33.2062 5.21245 34.8749 7.0312 35.0999L7.61245 35.1749C10.6875 35.5874 15.0187 36.8624 18.5062 38.3249C19.725 38.8312 21.075 37.9124 21.075 36.5812V10.4999C21.075 9.7874 20.7 9.16865 20.0812 8.83115ZM9.37495 14.5124H13.5937C14.3625 14.5124 15 15.1499 15 15.9187C15 16.7062 14.3625 17.3249 13.5937 17.3249H9.37495C8.6062 17.3249 7.9687 16.7062 7.9687 15.9187C7.9687 15.1499 8.6062 14.5124 9.37495 14.5124ZM15 22.9499H9.37495C8.6062 22.9499 7.9687 22.3312 7.9687 21.5437C7.9687 20.7749 8.6062 20.1374 9.37495 20.1374H15C15.7687 20.1374 16.4062 20.7749 16.4062 21.5437C16.4062 22.3312 15.7687 22.9499 15 22.9499Z" fill="#FCFCFC"/>
</svg>
