<svg width="20" height="20" viewBox="0 0 20 20" fill="none" xmlns="http://www.w3.org/2000/svg">
<path d="M4.44176 16.1833C4.3501 16.1833 4.2501 16.1583 4.16676 16.1167L2.31676 15.1917C2.10843 15.0833 1.9751 14.8667 1.9751 14.6333V12.3167C1.9751 11.975 2.25843 11.6917 2.6001 11.6917C2.94176 11.6917 3.2251 11.975 3.2251 12.3167V14.2417L4.7251 15C5.03343 15.15 5.15843 15.525 5.0001 15.8333C4.89176 16.05 4.6751 16.1833 4.44176 16.1833Z" fill="#FCFCFC"/>
<path d="M10 18.9584C9.95005 18.9584 9.90005 18.9501 9.85838 18.9417C9.80838 18.9334 9.75838 18.9084 9.70838 18.8834L7.86672 17.9667C7.55838 17.8084 7.43338 17.4334 7.58338 17.1251C7.74172 16.8167 8.11672 16.6917 8.42505 16.8417L9.37505 17.3167V16.0167C9.37505 15.6751 9.65838 15.3917 10 15.3917C10.3417 15.3917 10.625 15.6751 10.625 16.0167V17.3167L11.575 16.8417C11.8834 16.6917 12.2584 16.8167 12.4167 17.1251C12.575 17.4334 12.45 17.8084 12.1334 17.9667L10.2917 18.8834C10.2417 18.9084 10.1917 18.9251 10.1417 18.9417C10.0917 18.9501 10.05 18.9584 10 18.9584Z" fill="#FCFCFC"/>
<path d="M15.5585 16.1833C15.3335 16.1833 15.1085 16.0583 15.0001 15.8416C14.8418 15.5333 14.9668 15.1583 15.2835 15L16.7918 14.25V12.325C16.7918 11.9833 17.0751 11.7 17.4168 11.7C17.7585 11.7 18.0418 11.9833 18.0418 12.325V14.6416C18.0418 14.875 17.9085 15.0916 17.7001 15.2L15.8335 16.1166C15.7418 16.1583 15.6501 16.1833 15.5585 16.1833Z" fill="#FCFCFC"/>
<path d="M10 12.0167C9.65838 12.0167 9.37505 11.7334 9.37505 11.3917V9.4667L7.86672 8.7167C7.55838 8.55837 7.43338 8.18337 7.58338 7.87504C7.74172 7.5667 8.11672 7.4417 8.42505 7.5917L10 8.37504L11.575 7.5917C11.8834 7.4417 12.2584 7.55837 12.4167 7.87504C12.575 8.18337 12.45 8.55837 12.1334 8.7167L10.625 9.4667V11.3917C10.625 11.7334 10.3417 12.0167 10 12.0167Z" fill="#FCFCFC"/>
<path d="M2.5918 8.30831C2.25013 8.30831 1.9668 8.02498 1.9668 7.68331V5.38331V5.37498C1.9668 5.32498 1.97513 5.27498 1.98346 5.23331C2.00013 5.15831 2.02513 5.09998 2.05846 5.04164C2.08346 4.99998 2.1168 4.96664 2.15013 4.93331C2.18346 4.89998 2.22513 4.86664 2.2668 4.84164C2.28346 4.83331 2.30846 4.81664 2.32513 4.80831L4.1668 3.88331C4.47513 3.73331 4.85013 3.85831 5.00013 4.16664C5.15846 4.47498 5.03346 4.84998 4.72513 4.99998L3.9918 5.36664L4.72513 5.73331C5.03346 5.89164 5.15846 6.26664 5.00013 6.57498C4.85013 6.88331 4.47513 7.00831 4.1668 6.85831L3.2168 6.38331V7.68331C3.2168 8.03331 2.9418 8.30831 2.5918 8.30831Z" fill="#FCFCFC"/>
<path d="M11.85 3.21663C11.7583 3.21663 11.6583 3.19163 11.575 3.14997L10 2.36663L8.425 3.14997C8.11667 3.3083 7.74167 3.1833 7.59167 2.87497C7.43334 2.56663 7.55834 2.19163 7.86667 2.0333L9.71667 1.1083C9.89167 1.01663 10.1 1.01663 10.275 1.1083L12.125 2.0333C12.4333 2.19163 12.5583 2.56663 12.4083 2.87497C12.3 3.09163 12.0833 3.21663 11.85 3.21663Z" fill="#FCFCFC"/>
<path d="M17.4082 8.30831C17.0665 8.30831 16.7832 8.02498 16.7832 7.68331V6.38331L15.8332 6.85831C15.5249 7.00831 15.1499 6.88331 14.9999 6.57498C14.8415 6.26664 14.9665 5.89164 15.2832 5.73331L16.0165 5.36664L15.2749 4.99998C14.9665 4.84998 14.8415 4.47498 14.9999 4.16664C15.1582 3.85831 15.5249 3.73331 15.8332 3.88331L17.6749 4.79998C17.6915 4.80831 17.7165 4.81664 17.7332 4.83331C17.7832 4.85831 17.8249 4.89998 17.8665 4.94164C17.8915 4.97498 17.9165 5.00831 17.9415 5.04164C17.9749 5.09998 17.9999 5.15831 18.0165 5.22498C18.0249 5.27498 18.0332 5.32498 18.0332 5.36664V5.37498V7.67498C18.0332 8.03331 17.7499 8.30831 17.4082 8.30831Z" fill="#FCFCFC"/>
</svg>
