<svg width="20" height="20" viewBox="0 0 20 20" fill="none" xmlns="http://www.w3.org/2000/svg">
<path d="M14.6667 4.42498L9.9584 1.89165C9.4584 1.62498 8.86673 1.62498 8.36673 1.89165L3.66673 4.42498C3.32507 4.61665 3.1084 4.98332 3.1084 5.38332C3.1084 5.79165 3.31673 6.15832 3.66673 6.34165L8.37507 8.87498C8.62507 9.00832 8.90007 9.07498 9.16673 9.07498C9.4334 9.07498 9.71673 9.00832 9.9584 8.87498L14.6667 6.34165C15.0084 6.15832 15.2251 5.79165 15.2251 5.38332C15.2251 4.98332 15.0084 4.61665 14.6667 4.42498Z" fill="#FCFCFC"/>
<path d="M7.60008 9.75835L3.22508 7.57501C2.88341 7.40001 2.50008 7.42501 2.17508 7.61668C1.85841 7.81668 1.66675 8.15835 1.66675 8.53335V12.6667C1.66675 13.3833 2.06675 14.025 2.70841 14.35L7.08341 16.5333C7.23341 16.6083 7.40008 16.65 7.56675 16.65C7.75841 16.65 7.95841 16.5917 8.13341 16.4917C8.45008 16.2917 8.64175 15.95 8.64175 15.575V11.4417C8.63341 10.725 8.23341 10.0833 7.60008 9.75835Z" fill="#FCFCFC"/>
<path d="M16.6669 8.53335V10.5833C16.2669 10.4667 15.8419 10.4167 15.4169 10.4167C14.2835 10.4167 13.1752 10.8083 12.3002 11.5083C11.1002 12.45 10.4169 13.875 10.4169 15.4167C10.4169 15.825 10.4669 16.2333 10.5752 16.625C10.4502 16.6083 10.3252 16.5583 10.2085 16.4833C9.89186 16.2917 9.7002 15.95 9.7002 15.575V11.4417C9.7002 10.725 10.1002 10.0833 10.7335 9.75835L15.1085 7.57501C15.4502 7.40001 15.8335 7.42501 16.1585 7.61668C16.4752 7.81668 16.6669 8.15835 16.6669 8.53335Z" fill="#FCFCFC"/>
<path d="M18.8167 17.9167L18.1167 17.2167C18.4834 16.6667 18.7001 16 18.7001 15.2917C18.7001 13.35 17.1251 11.775 15.1834 11.775C13.2417 11.775 11.6667 13.35 11.6667 15.2917C11.6667 17.2334 13.2417 18.8084 15.1834 18.8084C15.8917 18.8084 16.5584 18.5917 17.1084 18.225L17.8084 18.925C17.9501 19.0667 18.1251 19.1334 18.3084 19.1334C18.4917 19.1334 18.6751 19.0667 18.8084 18.925C19.0917 18.6417 19.0917 18.1917 18.8167 17.9167Z" fill="#FCFCFC"/>
</svg>
