<svg width="20" height="20" viewBox="0 0 20 20" fill="none" xmlns="http://www.w3.org/2000/svg">
<path d="M17.4083 10.8335V11.6668H16.6833C16.0667 11.6668 15.5667 12.1668 15.5667 12.7918V13.0418C15.5667 13.6668 15.0667 14.1668 14.4417 14.1668C13.825 14.1668 13.325 13.6668 13.325 13.0418V12.7918C13.325 12.1668 12.8167 11.6668 12.2 11.6668C11.5833 11.6668 11.0833 12.1668 11.0833 12.7918V13.0418C11.0833 13.6668 10.575 14.1668 9.95833 14.1668C9.34167 14.1668 8.83333 13.6668 8.83333 13.0418V12.7918C8.83333 12.1668 8.33333 11.6668 7.71667 11.6668C7.1 11.6668 6.59167 12.1668 6.59167 12.7918V13.0418C6.59167 13.6668 6.09167 14.1668 5.475 14.1668C4.85 14.1668 4.35 13.6668 4.35 13.0418V12.7752C4.35 12.1585 3.85833 11.6585 3.25 11.6502H2.59167V10.8335C2.59167 9.6835 3.45833 8.7085 4.63333 8.42516C4.86667 8.36683 5.10833 8.3335 5.36667 8.3335H14.6333C14.8917 8.3335 15.1333 8.36683 15.3667 8.42516C16.5417 8.7085 17.4083 9.6835 17.4083 10.8335Z" fill="#FCFCFC"/>
<path d="M15.3667 5.97484V7.14984C15.125 7.09984 14.8833 7.08317 14.6333 7.08317H5.36666C5.11666 7.08317 4.875 7.10817 4.63333 7.15817V5.97484C4.63333 4.97484 5.53333 4.1665 6.65 4.1665H13.35C14.4667 4.1665 15.3667 4.97484 15.3667 5.97484Z" fill="#FCFCFC"/>
<path d="M7.29166 2.95817V4.17484H6.65C6.43333 4.17484 6.23333 4.19984 6.04166 4.24984V2.95817C6.04166 2.6665 6.325 2.4165 6.66666 2.4165C7.00833 2.4165 7.29166 2.6665 7.29166 2.95817Z" fill="#FCFCFC"/>
<path d="M13.9583 2.7749V4.2499C13.7667 4.19157 13.5667 4.16657 13.35 4.16657H12.7083V2.7749C12.7083 2.43324 12.9917 2.1499 13.3333 2.1499C13.675 2.1499 13.9583 2.43324 13.9583 2.7749Z" fill="#FCFCFC"/>
<path d="M10.625 2.34984V4.1665H9.375V2.34984C9.375 1.97484 9.65833 1.6665 10 1.6665C10.3417 1.6665 10.625 1.97484 10.625 2.34984Z" fill="#FCFCFC"/>
<path d="M18.3333 17.7082C18.3333 18.0499 18.05 18.3332 17.7083 18.3332H2.29166C1.95 18.3332 1.66666 18.0499 1.66666 17.7082C1.66666 17.3666 1.95 17.0832 2.29166 17.0832H2.59166V12.8999H3.1V12.9582C3.1 14.0749 3.83333 15.1082 4.925 15.3499C5.775 15.5499 6.58333 15.2749 7.13333 14.7332C7.45 14.4166 7.96666 14.4082 8.28333 14.7249C8.71666 15.1499 9.30833 15.4166 9.95833 15.4166C10.6083 15.4166 11.2 15.1582 11.6333 14.7249C11.95 14.4166 12.4583 14.4166 12.7833 14.7332C13.325 15.2749 14.1333 15.5499 14.9917 15.3499C16.0833 15.1082 16.8167 14.0749 16.8167 12.9582V12.9166H17.4083V17.0832H17.7083C18.05 17.0832 18.3333 17.3666 18.3333 17.7082Z" fill="#FCFCFC"/>
</svg>
