<svg width="25" height="25" viewBox="0 0 25 25" fill="none" xmlns="http://www.w3.org/2000/svg">
<path d="M17.448 3.70801V2.08301C17.448 1.65592 17.0938 1.30176 16.6667 1.30176C16.2397 1.30176 15.8855 1.65592 15.8855 2.08301V3.64551H9.11466V2.08301C9.11466 1.65592 8.76049 1.30176 8.33341 1.30176C7.90633 1.30176 7.55216 1.65592 7.55216 2.08301V3.70801C4.73966 3.96842 3.37508 5.64551 3.16674 8.13509C3.14591 8.43717 3.39591 8.68718 3.68758 8.68718H21.3126C21.6147 8.68718 21.8647 8.42676 21.8334 8.13509C21.6251 5.64551 20.2605 3.96842 17.448 3.70801Z" fill="#FCFCFC"/>
<path d="M20.8333 10.25H4.16667C3.59375 10.25 3.125 10.7187 3.125 11.2917V17.7083C3.125 20.8333 4.6875 22.9167 8.33333 22.9167H13.4687C14.1875 22.9167 14.6875 22.2187 14.4583 21.5417C14.25 20.9375 14.0729 20.2708 14.0729 19.7917C14.0729 16.6354 16.6458 14.0625 19.8021 14.0625C20.1042 14.0625 20.4063 14.0833 20.6979 14.1354C21.3229 14.2292 21.8854 13.7396 21.8854 13.1146V11.3021C21.875 10.7188 21.4062 10.25 20.8333 10.25ZM9.59375 18.4479C9.48958 18.5417 9.375 18.6146 9.25 18.6667C9.125 18.7187 8.98958 18.75 8.85417 18.75C8.71875 18.75 8.58333 18.7187 8.45833 18.6667C8.33333 18.6146 8.21875 18.5417 8.11458 18.4479C7.92708 18.25 7.8125 17.9792 7.8125 17.7083C7.8125 17.6458 7.82292 17.5729 7.83333 17.5104C7.84375 17.4375 7.86458 17.375 7.89583 17.3125C7.91667 17.25 7.94792 17.1875 7.98958 17.125C8.02083 17.0729 8.07292 17.0208 8.11458 16.9688C8.21875 16.875 8.33333 16.8021 8.45833 16.75C8.70833 16.6458 9 16.6458 9.25 16.75C9.375 16.8021 9.48958 16.875 9.59375 16.9688C9.63542 17.0208 9.6875 17.0729 9.71875 17.125C9.76042 17.1875 9.79167 17.25 9.8125 17.3125C9.84375 17.375 9.86458 17.4375 9.875 17.5104C9.88542 17.5729 9.89583 17.6458 9.89583 17.7083C9.89583 17.9792 9.78125 18.25 9.59375 18.4479ZM9.59375 14.8021C9.48958 14.8958 9.375 14.9687 9.25 15.0208C9.125 15.0729 8.98958 15.1042 8.85417 15.1042C8.71875 15.1042 8.58333 15.0729 8.45833 15.0208C8.32292 14.9687 8.21875 14.8958 8.11458 14.8021C7.92708 14.6042 7.8125 14.3333 7.8125 14.0625C7.8125 13.7917 7.92708 13.5208 8.11458 13.3229C8.21875 13.2292 8.33333 13.1562 8.45833 13.1042C8.70833 13 9 13 9.25 13.1042C9.375 13.1562 9.48958 13.2292 9.59375 13.3229C9.63542 13.375 9.6875 13.4271 9.71875 13.4792C9.76042 13.5417 9.79167 13.6042 9.8125 13.6667C9.84375 13.7292 9.86458 13.7917 9.875 13.8542C9.88542 13.9271 9.89583 14 9.89583 14.0625C9.89583 14.3333 9.78125 14.6042 9.59375 14.8021ZM13.2396 14.8021C13.0417 14.9896 12.7812 15.1042 12.5 15.1042C12.3646 15.1042 12.2292 15.0729 12.1042 15.0208C11.9687 14.9687 11.8646 14.8958 11.7604 14.8021C11.5729 14.6042 11.4583 14.3333 11.4583 14.0625C11.4583 14 11.4688 13.9271 11.4792 13.8542C11.4896 13.7917 11.5104 13.7292 11.5417 13.6667C11.5625 13.6042 11.5937 13.5417 11.6354 13.4792C11.6771 13.4271 11.7187 13.375 11.7604 13.3229C12.1458 12.9375 12.8437 12.9375 13.2396 13.3229C13.2812 13.375 13.3229 13.4271 13.3646 13.4792C13.4062 13.5417 13.4375 13.6042 13.4583 13.6667C13.4896 13.7292 13.5104 13.7917 13.5208 13.8542C13.5312 13.9271 13.5417 14 13.5417 14.0625C13.5417 14.3333 13.4271 14.6042 13.2396 14.8021Z" fill="#FCFCFC"/>
<path d="M22.7396 16.8437C21.1146 15.2188 18.4687 15.2188 16.8437 16.8437C15.2188 18.4687 15.2188 21.1146 16.8437 22.7396C18.4687 24.3646 21.1146 24.3646 22.7396 22.7396C24.3646 21.1146 24.3646 18.4687 22.7396 16.8437ZM21.9479 20.375C21.8125 20.5208 21.6146 20.6042 21.3958 20.6042H20.625V21.4167C20.625 21.6354 20.5417 21.8229 20.3958 21.9687C20.25 22.1146 20.0625 22.1979 19.8437 22.1979C19.4167 22.1979 19.0625 21.8437 19.0625 21.4167V20.6042H18.2812C17.8542 20.6042 17.5 20.2604 17.5 19.8229C17.5 19.3958 17.8542 19.0417 18.2812 19.0417H19.0625V18.3021C19.0625 17.875 19.4062 17.5208 19.8437 17.5208C20.2708 17.5208 20.625 17.875 20.625 18.3021V19.0417H21.3958C21.8333 19.0417 22.1771 19.3958 22.1771 19.8229C22.1771 20.0417 22.0937 20.2396 21.9479 20.375Z" fill="#FCFCFC"/>
</svg>
