<svg width="45" height="45" viewBox="0 0 45 45" fill="none" xmlns="http://www.w3.org/2000/svg">
<path d="M31.4067 6.675V3.75C31.4067 2.98125 30.7692 2.34375 30.0004 2.34375C29.2317 2.34375 28.5942 2.98125 28.5942 3.75V6.5625H16.4067V3.75C16.4067 2.98125 15.7692 2.34375 15.0004 2.34375C14.2317 2.34375 13.5942 2.98125 13.5942 3.75V6.675C8.53168 7.14375 6.07543 10.1625 5.70043 14.6438C5.66293 15.1875 6.11293 15.6375 6.63793 15.6375H38.3629C38.9067 15.6375 39.3567 15.1688 39.3004 14.6438C38.9254 10.1625 36.4692 7.14375 31.4067 6.675Z" fill="#FCFCFC"/>
<path d="M37.5 18.4502H7.5C6.46875 18.4502 5.625 19.2939 5.625 20.3252V31.8752C5.625 37.5002 8.4375 41.2502 15 41.2502H30C36.5625 41.2502 39.375 37.5002 39.375 31.8752V20.3252C39.375 19.2939 38.5312 18.4502 37.5 18.4502ZM17.2688 34.1439C17.175 34.2189 17.0813 34.3127 16.9875 34.3689C16.875 34.4439 16.7625 34.5002 16.65 34.5377C16.5375 34.5939 16.425 34.6314 16.3125 34.6502C16.1812 34.6689 16.0688 34.6877 15.9375 34.6877C15.6938 34.6877 15.45 34.6314 15.225 34.5377C14.9812 34.4439 14.7937 34.3127 14.6062 34.1439C14.2688 33.7877 14.0625 33.3002 14.0625 32.8127C14.0625 32.3252 14.2688 31.8377 14.6062 31.4814C14.7937 31.3127 14.9812 31.1814 15.225 31.0877C15.5625 30.9377 15.9375 30.9002 16.3125 30.9752C16.425 30.9939 16.5375 31.0314 16.65 31.0877C16.7625 31.1252 16.875 31.1814 16.9875 31.2564C17.0813 31.3314 17.175 31.4064 17.2688 31.4814C17.6062 31.8377 17.8125 32.3252 17.8125 32.8127C17.8125 33.3002 17.6062 33.7877 17.2688 34.1439ZM17.2688 27.5814C16.9125 27.9189 16.425 28.1252 15.9375 28.1252C15.45 28.1252 14.9625 27.9189 14.6062 27.5814C14.2688 27.2252 14.0625 26.7377 14.0625 26.2502C14.0625 25.7627 14.2688 25.2752 14.6062 24.9189C15.1313 24.3939 15.9563 24.2252 16.65 24.5252C16.8938 24.6189 17.1 24.7502 17.2688 24.9189C17.6062 25.2752 17.8125 25.7627 17.8125 26.2502C17.8125 26.7377 17.6062 27.2252 17.2688 27.5814ZM23.8312 34.1439C23.475 34.4814 22.9875 34.6877 22.5 34.6877C22.0125 34.6877 21.525 34.4814 21.1687 34.1439C20.8313 33.7877 20.625 33.3002 20.625 32.8127C20.625 32.3252 20.8313 31.8377 21.1687 31.4814C21.8625 30.7877 23.1375 30.7877 23.8312 31.4814C24.1688 31.8377 24.375 32.3252 24.375 32.8127C24.375 33.3002 24.1688 33.7877 23.8312 34.1439ZM23.8312 27.5814C23.7375 27.6564 23.6438 27.7314 23.55 27.8064C23.4375 27.8814 23.325 27.9377 23.2125 27.9752C23.1 28.0314 22.9875 28.0689 22.875 28.0877C22.7437 28.1064 22.6313 28.1252 22.5 28.1252C22.0125 28.1252 21.525 27.9189 21.1687 27.5814C20.8313 27.2252 20.625 26.7377 20.625 26.2502C20.625 25.7627 20.8313 25.2752 21.1687 24.9189C21.3375 24.7502 21.5437 24.6189 21.7875 24.5252C22.4812 24.2252 23.3062 24.3939 23.8312 24.9189C24.1688 25.2752 24.375 25.7627 24.375 26.2502C24.375 26.7377 24.1688 27.2252 23.8312 27.5814ZM30.3937 34.1439C30.0375 34.4814 29.55 34.6877 29.0625 34.6877C28.575 34.6877 28.0875 34.4814 27.7313 34.1439C27.3937 33.7877 27.1875 33.3002 27.1875 32.8127C27.1875 32.3252 27.3937 31.8377 27.7313 31.4814C28.425 30.7877 29.7 30.7877 30.3937 31.4814C30.7312 31.8377 30.9375 32.3252 30.9375 32.8127C30.9375 33.3002 30.7312 33.7877 30.3937 34.1439ZM30.3937 27.5814C30.3 27.6564 30.2062 27.7314 30.1125 27.8064C30 27.8814 29.8875 27.9377 29.775 27.9752C29.6625 28.0314 29.55 28.0689 29.4375 28.0877C29.3062 28.1064 29.175 28.1252 29.0625 28.1252C28.575 28.1252 28.0875 27.9189 27.7313 27.5814C27.3937 27.2252 27.1875 26.7377 27.1875 26.2502C27.1875 25.7627 27.3937 25.2752 27.7313 24.9189C27.9188 24.7502 28.1062 24.6189 28.35 24.5252C28.6875 24.3752 29.0625 24.3377 29.4375 24.4127C29.55 24.4314 29.6625 24.4689 29.775 24.5252C29.8875 24.5627 30 24.6189 30.1125 24.6939C30.2062 24.7689 30.3 24.8439 30.3937 24.9189C30.7312 25.2752 30.9375 25.7627 30.9375 26.2502C30.9375 26.7377 30.7312 27.2252 30.3937 27.5814Z" fill="#FCFCFC"/>
</svg>
