<svg width="45" height="45" viewBox="0 0 45 45" fill="none" xmlns="http://www.w3.org/2000/svg">
<path d="M22.5 3.75C12.15 3.75 3.75 12.15 3.75 22.5C3.75 32.85 12.15 41.25 22.5 41.25C32.85 41.25 41.25 32.85 41.25 22.5C41.25 12.15 32.85 3.75 22.5 3.75ZM12.8437 17.7C13.6312 15.8812 15.1125 14.475 17.1562 13.8375V12.3375C17.1562 11.5687 17.7937 10.9312 18.5625 10.9312C19.3312 10.9312 19.9687 11.5687 19.9687 12.3375V13.4438H25.05V12.3375C25.05 11.5687 25.6875 10.9312 26.4562 10.9312C27.225 10.9312 27.8625 11.5687 27.8625 12.3375V13.8187C29.9062 14.4562 31.3875 15.8625 32.175 17.6813C32.4375 18.3 31.9875 19.0125 31.3125 19.0125H13.7062C13.0312 19.0125 12.5812 18.3187 12.8437 17.7ZM32.8125 26.5688C32.8125 30.6938 30 34.0688 25.3125 34.0688H19.6875C15 34.0688 12.1875 30.6938 12.1875 26.5688V21.825C12.1875 21.3 12.6 20.8875 13.125 20.8875H31.875C32.4 20.8875 32.8125 21.3 32.8125 21.825V26.5688Z" fill="#FCFCFC"/>
</svg>
