<svg width="45" height="45" viewBox="0 0 45 45" fill="none" xmlns="http://www.w3.org/2000/svg">
<path d="M31.4067 6.675V3.75C31.4067 2.98125 30.7692 2.34375 30.0004 2.34375C29.2317 2.34375 28.5942 2.98125 28.5942 3.75V6.5625H16.4067V3.75C16.4067 2.98125 15.7692 2.34375 15.0004 2.34375C14.2317 2.34375 13.5942 2.98125 13.5942 3.75V6.675C8.53168 7.14375 6.07543 10.1625 5.70043 14.6438C5.66293 15.1875 6.11293 15.6375 6.63793 15.6375H38.3629C38.9067 15.6375 39.3567 15.1688 39.3004 14.6438C38.9254 10.1625 36.4692 7.14375 31.4067 6.675Z" fill="#FCFCFC"/>
<path d="M35.625 28.125C31.4812 28.125 28.125 31.4812 28.125 35.625C28.125 37.0312 28.5187 38.3625 29.2125 39.4875C30.5062 41.6625 32.8875 43.125 35.625 43.125C38.3625 43.125 40.7438 41.6625 42.0375 39.4875C42.7312 38.3625 43.125 37.0312 43.125 35.625C43.125 31.4812 39.7688 28.125 35.625 28.125ZM39.5062 34.8187L35.5125 38.5125C35.25 38.7563 34.8938 38.8875 34.5563 38.8875C34.2 38.8875 33.8437 38.7563 33.5625 38.475L31.7062 36.6188C31.1625 36.075 31.1625 35.175 31.7062 34.6312C32.25 34.0875 33.15 34.0875 33.6937 34.6312L34.5938 35.5313L37.5937 32.7562C38.1562 32.2312 39.0563 32.2688 39.5813 32.8313C40.1063 33.3938 40.0687 34.275 39.5062 34.8187Z" fill="#FCFCFC"/>
<path d="M37.5 18.45H7.5C6.46875 18.45 5.625 19.2937 5.625 20.325V31.875C5.625 37.5 8.4375 41.25 15 41.25H24.2437C25.5375 41.25 26.4375 39.9937 26.025 38.775C25.65 37.6875 25.3312 36.4875 25.3312 35.625C25.3312 29.9437 29.9625 25.3125 35.6437 25.3125C36.1875 25.3125 36.7312 25.35 37.2563 25.4437C38.3812 25.6125 39.3937 24.7312 39.3937 23.6062V20.3437C39.375 19.2937 38.5312 18.45 37.5 18.45ZM17.2687 34.1437C16.9125 34.4812 16.425 34.6875 15.9375 34.6875C15.45 34.6875 14.9625 34.4812 14.6062 34.1437C14.2687 33.7874 14.0625 33.3 14.0625 32.8125C14.0625 32.325 14.2687 31.8375 14.6062 31.4812C14.7937 31.3125 14.9812 31.1812 15.225 31.0875C15.9187 30.7875 16.7437 30.9562 17.2687 31.4812C17.6062 31.8375 17.8125 32.325 17.8125 32.8125C17.8125 33.3 17.6062 33.7874 17.2687 34.1437ZM17.2687 27.5812C17.175 27.6562 17.0813 27.7312 16.9875 27.8062C16.875 27.8812 16.7625 27.9375 16.65 27.975C16.5375 28.0312 16.425 28.0687 16.3125 28.0875C16.1812 28.1062 16.05 28.125 15.9375 28.125C15.45 28.125 14.9625 27.9187 14.6062 27.5812C14.2687 27.225 14.0625 26.7375 14.0625 26.25C14.0625 25.7625 14.2687 25.275 14.6062 24.9187C15.0375 24.4875 15.6937 24.2812 16.3125 24.4125C16.425 24.4312 16.5375 24.4687 16.65 24.525C16.7625 24.5625 16.875 24.6187 16.9875 24.6937C17.0813 24.7687 17.175 24.8437 17.2687 24.9187C17.6062 25.275 17.8125 25.7625 17.8125 26.25C17.8125 26.7375 17.6062 27.225 17.2687 27.5812ZM23.8312 27.5812C23.475 27.9187 22.9875 28.125 22.5 28.125C22.0125 28.125 21.525 27.9187 21.1687 27.5812C20.8312 27.225 20.625 26.7375 20.625 26.25C20.625 25.7625 20.8312 25.275 21.1687 24.9187C21.8812 24.225 23.1375 24.225 23.8312 24.9187C24.1687 25.275 24.375 25.7625 24.375 26.25C24.375 26.7375 24.1687 27.225 23.8312 27.5812Z" fill="#FCFCFC"/>
</svg>
