<svg width="45" height="45" viewBox="0 0 45 45" fill="none" xmlns="http://www.w3.org/2000/svg">
<path d="M26.9061 3.75H18.0936C16.1436 3.75 14.5498 5.325 14.5498 7.275V9.0375C14.5498 10.9875 16.1248 12.5625 18.0748 12.5625H26.9061C28.8561 12.5625 30.4311 10.9875 30.4311 9.0375V7.275C30.4498 5.325 28.8561 3.75 26.9061 3.75Z" fill="#FCFCFC"/>
<path d="M32.3252 9.03752C32.3252 12.0188 29.8877 14.4563 26.9064 14.4563H18.0939C15.1127 14.4563 12.6752 12.0188 12.6752 9.03752C12.6752 7.98752 11.5502 7.33127 10.6127 7.81877C7.96895 9.22502 6.16895 12.0188 6.16895 15.225V32.8688C6.16895 37.4813 9.9377 41.25 14.5502 41.25H30.4502C35.0627 41.25 38.8314 37.4813 38.8314 32.8688V15.225C38.8314 12.0188 37.0314 9.22502 34.3877 7.81877C33.4502 7.33127 32.3252 7.98752 32.3252 9.03752ZM23.2127 31.7813H15.0002C14.2314 31.7813 13.5939 31.1438 13.5939 30.375C13.5939 29.6063 14.2314 28.9688 15.0002 28.9688H23.2127C23.9814 28.9688 24.6189 29.6063 24.6189 30.375C24.6189 31.1438 23.9814 31.7813 23.2127 31.7813ZM28.1252 24.2813H15.0002C14.2314 24.2813 13.5939 23.6438 13.5939 22.875C13.5939 22.1063 14.2314 21.4688 15.0002 21.4688H28.1252C28.8939 21.4688 29.5314 22.1063 29.5314 22.875C29.5314 23.6438 28.8939 24.2813 28.1252 24.2813Z" fill="#FCFCFC"/>
</svg>
