<svg width="20" height="20" viewBox="0 0 20 20" fill="none" xmlns="http://www.w3.org/2000/svg">
<path d="M16 12.3167C15.2834 12.975 14.3334 13.3417 13.3584 13.3333H5.30835C1.91668 13.0917 1.90835 8.16666 5.30835 7.92499H5.34168C3.01668 1.45832 12.8417 -1.11668 13.9667 5.66666C17.1084 6.06666 18.3834 10.2417 16 12.3167Z" fill="#FCFCFC"/>
<path d="M15.625 17.5C15.625 17.8416 15.3417 18.125 15 18.125H11.6667C11.625 18.125 11.5917 18.125 11.55 18.1083C11.3083 18.725 10.7 19.1666 10 19.1666C9.3 19.1666 8.69167 18.725 8.45 18.1083C8.40833 18.125 8.375 18.125 8.33333 18.125H5C4.65833 18.125 4.375 17.8416 4.375 17.5C4.375 17.1583 4.65833 16.875 5 16.875H8.33333C8.375 16.875 8.40833 16.875 8.45 16.8916C8.61667 16.4583 8.95833 16.1166 9.39167 15.95C9.375 15.9083 9.375 15.875 9.375 15.8333V13.3333H10.625V15.8333C10.625 15.875 10.625 15.9083 10.6083 15.95C11.0417 16.1166 11.3833 16.4583 11.55 16.8916C11.5917 16.875 11.625 16.875 11.6667 16.875H15C15.3417 16.875 15.625 17.1583 15.625 17.5Z" fill="#FCFCFC"/>
</svg>
