<svg width="20" height="20" viewBox="0 0 20 20" fill="none" xmlns="http://www.w3.org/2000/svg">
<path d="M17.7084 10.625C18.0584 10.625 18.3334 10.3417 18.3334 10C18.3334 9.65002 18.0584 9.37502 17.7084 9.37502H16.6667V7.54169H17.7084C18.0584 7.54169 18.3334 7.26669 18.3334 6.91669C18.3334 6.57502 18.0584 6.29169 17.7084 6.29169H16.4751C16.0751 4.96669 15.0334 3.92502 13.7084 3.52502V2.29169C13.7084 1.95002 13.4251 1.66669 13.0834 1.66669C12.7417 1.66669 12.4584 1.95002 12.4584 2.29169V3.33335H10.6251V2.29169C10.6251 1.95002 10.3417 1.66669 10.0001 1.66669C9.65841 1.66669 9.37508 1.95002 9.37508 2.29169V3.33335H7.55008V2.29169C7.55008 1.95002 7.26675 1.66669 6.92508 1.66669C6.57508 1.66669 6.30008 1.95002 6.30008 2.29169V3.52502C4.96675 3.92502 3.92508 4.96669 3.52508 6.29169H2.29175C1.95008 6.29169 1.66675 6.57502 1.66675 6.91669C1.66675 7.26669 1.95008 7.54169 2.29175 7.54169H3.33341V9.37502H2.29175C1.95008 9.37502 1.66675 9.65002 1.66675 10C1.66675 10.3417 1.95008 10.625 2.29175 10.625H3.33341V12.4584H2.29175C1.95008 12.4584 1.66675 12.7334 1.66675 13.0834C1.66675 13.425 1.95008 13.7084 2.29175 13.7084H3.52508C3.91675 15.0334 4.96675 16.075 6.30008 16.475V17.7084C6.30008 18.05 6.57508 18.3334 6.92508 18.3334C7.26675 18.3334 7.55008 18.05 7.55008 17.7084V16.6667H9.38341V17.7084C9.38341 18.05 9.65841 18.3334 10.0084 18.3334C10.3501 18.3334 10.6334 18.05 10.6334 17.7084V16.6667H12.4584V17.7084C12.4584 18.05 12.7417 18.3334 13.0834 18.3334C13.4251 18.3334 13.7084 18.05 13.7084 17.7084V16.475C15.0334 16.075 16.0751 15.0334 16.4751 13.7084H17.7084C18.0584 13.7084 18.3334 13.425 18.3334 13.0834C18.3334 12.7334 18.0584 12.4584 17.7084 12.4584H16.6667V10.625H17.7084ZM14.3834 11.8834C14.3834 13.2584 13.2584 14.3834 11.8834 14.3834H8.11675C6.74175 14.3834 5.61675 13.2584 5.61675 11.8834V8.11669C5.61675 6.74169 6.74175 5.61669 8.11675 5.61669H11.8834C13.2584 5.61669 14.3834 6.74169 14.3834 8.11669V11.8834V11.8834Z" fill="#FCFCFC"/>
<path d="M8.34992 13.5417H11.6583C12.6999 13.5417 13.5499 12.7 13.5499 11.65V8.34168C13.5499 7.30001 12.7083 6.45001 11.6583 6.45001H8.34992C7.30825 6.45001 6.45825 7.29168 6.45825 8.34168V11.65C6.45825 12.7 7.29992 13.5417 8.34992 13.5417Z" fill="#FCFCFC"/>
</svg>
