<svg width="20" height="20" viewBox="0 0 20 20" fill="none" xmlns="http://www.w3.org/2000/svg">
<g clip-path="url(#clip0_160_5539)">
<path d="M7.4 3.83335C6.73333 0.950017 2.39166 0.941684 1.725 3.83335C1.33333 5.52502 2.40833 6.95835 3.34166 7.85002C4.025 8.49168 5.1 8.49168 5.78333 7.85002C6.71666 6.95835 7.78333 5.52502 7.4 3.83335ZM4.59166 5.16668C4.13333 5.16668 3.75833 4.79168 3.75833 4.33335C3.75833 3.87502 4.125 3.50002 4.58333 3.50002H4.59166C5.05833 3.50002 5.425 3.87502 5.425 4.33335C5.425 4.79168 5.05833 5.16668 4.59166 5.16668Z" fill="#FCFCFC"/>
<path d="M18.2583 13.8334C17.5917 10.95 13.2333 10.9417 12.5583 13.8334C12.1667 15.525 13.2417 16.9584 14.1833 17.85C14.8667 18.4917 15.95 18.4917 16.6333 17.85C17.575 16.9584 18.65 15.525 18.2583 13.8334ZM15.4417 15.1667C14.9833 15.1667 14.6083 14.7917 14.6083 14.3334C14.6083 13.875 14.975 13.5 15.4333 13.5H15.4417C15.9 13.5 16.275 13.875 16.275 14.3334C16.275 14.7917 15.9 15.1667 15.4417 15.1667Z" fill="#FCFCFC"/>
<path d="M9.99996 16.4584H7.76662C6.79996 16.4584 5.95829 15.875 5.62496 14.975C5.28329 14.075 5.53329 13.0834 6.25829 12.4417L12.9166 6.61669C13.3166 6.26669 13.325 5.79169 13.2083 5.46669C13.0833 5.14169 12.7666 4.79169 12.2333 4.79169H9.99996C9.65829 4.79169 9.37496 4.50835 9.37496 4.16669C9.37496 3.82502 9.65829 3.54169 9.99996 3.54169H12.2333C13.2 3.54169 14.0416 4.12502 14.375 5.02502C14.7166 5.92502 14.4666 6.91669 13.7416 7.55835L7.08329 13.3834C6.68329 13.7334 6.67496 14.2084 6.79162 14.5334C6.91662 14.8584 7.23329 15.2084 7.76662 15.2084H9.99996C10.3416 15.2084 10.625 15.4917 10.625 15.8334C10.625 16.175 10.3416 16.4584 9.99996 16.4584Z" fill="#FCFCFC"/>
</g>
<defs>
<clipPath id="clip0_160_5539">
<rect width="20" height="20" fill="white"/>
</clipPath>
</defs>
</svg>
