<svg width="20" height="20" viewBox="0 0 20 20" fill="none" xmlns="http://www.w3.org/2000/svg">
<path d="M10 1.66669C5.40002 1.66669 1.66669 5.40002 1.66669 10C1.66669 14.6 5.40002 18.3334 10 18.3334C14.6 18.3334 18.3334 14.6 18.3334 10C18.3334 5.40002 14.6 1.66669 10 1.66669ZM7.10835 11.225C7.35002 11.4667 7.35002 11.8667 7.10835 12.1084C6.98335 12.2334 6.82502 12.2917 6.66669 12.2917C6.50835 12.2917 6.35002 12.2334 6.22502 12.1084L4.55835 10.4417C4.31669 10.2 4.31669 9.80002 4.55835 9.55835L6.22502 7.89169C6.46669 7.65002 6.86669 7.65002 7.10835 7.89169C7.35002 8.13335 7.35002 8.53335 7.10835 8.77502L5.88335 10L7.10835 11.225ZM11.4084 8.30002L9.74169 12.1917C9.64169 12.425 9.40835 12.5667 9.16669 12.5667C9.08335 12.5667 9.00002 12.55 8.92502 12.5167C8.60835 12.3834 8.45835 12.0167 8.60002 11.6917L10.2667 7.80002C10.4 7.48335 10.7667 7.33335 11.0834 7.47502C11.4 7.61669 11.5417 7.98335 11.4084 8.30002ZM15.4417 10.4417L13.775 12.1084C13.65 12.2334 13.4917 12.2917 13.3334 12.2917C13.175 12.2917 13.0167 12.2334 12.8917 12.1084C12.65 11.8667 12.65 11.4667 12.8917 11.225L14.1167 10L12.8917 8.77502C12.65 8.53335 12.65 8.13335 12.8917 7.89169C13.1334 7.65002 13.5334 7.65002 13.775 7.89169L15.4417 9.55835C15.6834 9.80002 15.6834 10.2 15.4417 10.4417Z" fill="#FCFCFC"/>
</svg>
