<svg width="45" height="45" viewBox="0 0 45 45" fill="none" xmlns="http://www.w3.org/2000/svg">
<path d="M41.25 42.6562H9.375C5.49375 42.6562 2.34375 39.5062 2.34375 35.625V3.75C2.34375 2.98125 2.98125 2.34375 3.75 2.34375C4.51875 2.34375 5.15625 2.98125 5.15625 3.75V35.625C5.15625 37.95 7.05 39.8438 9.375 39.8438H41.25C42.0187 39.8438 42.6562 40.4813 42.6562 41.25C42.6562 42.0187 42.0187 42.6562 41.25 42.6562Z" fill="#FCFCFC"/>
<path d="M9.37491 33.2809C9.05616 33.2809 8.71866 33.1684 8.45616 32.9434C7.87491 32.4372 7.79991 31.5559 8.30616 30.9559L16.9124 20.9059C17.8499 19.8184 19.1999 19.1622 20.6249 19.1059C22.0499 19.0684 23.4562 19.5934 24.4687 20.6059L26.2499 22.3872C26.7187 22.8559 27.3187 23.0809 27.9937 23.0809C28.6499 23.0622 29.2499 22.7622 29.6812 22.2559L38.2874 12.2059C38.7937 11.6247 39.6749 11.5497 40.2749 12.0559C40.8562 12.5622 40.9312 13.4434 40.4249 14.0434L31.8187 24.0934C30.8812 25.1809 29.5312 25.8372 28.1062 25.8934C26.6624 25.9309 25.2749 25.4059 24.2624 24.3934L22.4999 22.6122C22.0312 22.1434 21.4124 21.8997 20.7562 21.9184C20.0999 21.9372 19.4999 22.2372 19.0687 22.7434L10.4624 32.7934C10.1624 33.1122 9.76866 33.2809 9.37491 33.2809Z" fill="#FCFCFC"/>
</svg>
