<svg width="45" height="45" viewBox="0 0 45 45" fill="none" xmlns="http://www.w3.org/2000/svg">
<path d="M38.4375 19.1062H33.0188C28.575 19.1062 24.9563 15.4875 24.9563 11.0437V5.625C24.9563 4.59375 24.1125 3.75 23.0813 3.75H15.1312C9.35625 3.75 4.6875 7.5 4.6875 14.1938V30.8063C4.6875 37.5 9.35625 41.25 15.1312 41.25H29.8688C35.6438 41.25 40.3125 37.5 40.3125 30.8063V20.9812C40.3125 19.95 39.4688 19.1062 38.4375 19.1062Z" fill="#FCFCFC"/>
<path d="M29.625 4.14465C28.8562 3.3759 27.525 3.9009 27.525 4.96965V11.5134C27.525 14.2509 29.85 16.5197 32.6812 16.5197C34.4625 16.5384 36.9375 16.5384 39.0562 16.5384C40.125 16.5384 40.6875 15.2822 39.9375 14.5322C37.2375 11.8134 32.4 6.91965 29.625 4.14465Z" fill="#FCFCFC"/>
</svg>
