<svg width="45" height="45" viewBox="0 0 45 45" fill="none" xmlns="http://www.w3.org/2000/svg">
<path d="M39.8438 17.1562C35.5125 10.3499 29.175 6.43115 22.5 6.43115C19.1625 6.43115 15.9187 7.40615 12.9562 9.2249C9.99375 11.0624 7.33125 13.7437 5.15625 17.1562C3.28125 20.0999 3.28125 24.8812 5.15625 27.8249C9.4875 34.6499 15.825 38.5499 22.5 38.5499C25.8375 38.5499 29.0813 37.5749 32.0438 35.7562C35.0063 33.9187 37.6688 31.2374 39.8438 27.8249C41.7188 24.8999 41.7188 20.0999 39.8438 17.1562ZM22.5 30.0749C18.3 30.0749 14.925 26.6812 14.925 22.4999C14.925 18.3187 18.3 14.9249 22.5 14.9249C26.7 14.9249 30.075 18.3187 30.075 22.4999C30.075 26.6812 26.7 30.0749 22.5 30.0749Z" fill="#FCFCFC"/>
<path d="M22.5 17.1377C19.5563 17.1377 17.1562 19.5377 17.1562 22.5002C17.1562 25.4439 19.5563 27.8439 22.5 27.8439C25.4438 27.8439 27.8625 25.4439 27.8625 22.5002C27.8625 19.5564 25.4438 17.1377 22.5 17.1377Z" fill="#FCFCFC"/>
</svg>
