<svg width="20" height="20" viewBox="0 0 20 20" fill="none" xmlns="http://www.w3.org/2000/svg">
<path d="M13.492 1.66669H6.50866C3.47533 1.66669 1.66699 3.47502 1.66699 6.50835V13.4834C1.66699 16.525 3.47533 18.3334 6.50866 18.3334H13.4837C16.517 18.3334 18.3253 16.525 18.3253 13.4917V6.50835C18.3337 3.47502 16.5253 1.66669 13.492 1.66669ZM5.39199 6.43335C5.63366 6.19169 6.03366 6.19169 6.27533 6.43335C6.86699 7.02502 7.83366 7.02502 8.42533 6.43335C8.66699 6.19169 9.06699 6.19169 9.30866 6.43335C9.55033 6.67502 9.55033 7.07502 9.30866 7.31669C8.76699 7.85835 8.05866 8.12502 7.35033 8.12502C6.64199 8.12502 5.93366 7.85835 5.39199 7.31669C5.15033 7.06669 5.15033 6.67502 5.39199 6.43335ZM10.0003 15.65C7.75866 15.65 5.93366 13.825 5.93366 11.5834C5.93366 11 6.40866 10.5167 6.99199 10.5167H12.992C13.5753 10.5167 14.0503 10.9917 14.0503 11.5834C14.067 13.825 12.242 15.65 10.0003 15.65ZM14.6087 7.31669C14.067 7.85835 13.3587 8.12502 12.6503 8.12502C11.942 8.12502 11.2337 7.85835 10.692 7.31669C10.4503 7.07502 10.4503 6.67502 10.692 6.43335C10.9337 6.19169 11.3337 6.19169 11.5753 6.43335C12.167 7.02502 13.1337 7.02502 13.7253 6.43335C13.967 6.19169 14.367 6.19169 14.6087 6.43335C14.8503 6.67502 14.8503 7.06669 14.6087 7.31669Z" fill="#FCFCFC"/>
</svg>
