<svg width="20" height="20" viewBox="0 0 20 20" fill="none" xmlns="http://www.w3.org/2000/svg">
<path d="M9.99999 1.66669H7.22498C5.69164 1.66669 4.45001 2.90834 4.45001 4.44168C4.45001 5.97501 5.69164 7.21669 7.22498 7.21669H9.99999V1.66669Z" stroke="#FCFCFC" stroke-width="1.5" stroke-miterlimit="10"/>
<path d="M7.22498 12.775H9.99999V7.21667H7.22498C5.69164 7.21667 4.45001 8.45833 4.45001 9.99166" stroke="#FCFCFC" stroke-width="1.5" stroke-miterlimit="10" stroke-linecap="round" stroke-linejoin="round"/>
<path d="M9.99999 12.775H7.22498C5.69164 12.775 4.45001 14.0166 4.45001 15.55C4.45001 17.0833 5.69164 18.325 7.22498 18.325C8.75831 18.325 9.99999 17.0833 9.99999 15.55V12.775Z" stroke="#FCFCFC" stroke-width="1.5" stroke-miterlimit="10"/>
<path d="M10 1.66669H12.775C14.3083 1.66669 15.55 2.90834 15.55 4.44168C15.55 5.97501 14.3083 7.21669 12.775 7.21669H10V1.66669Z" stroke="#FCFCFC" stroke-width="1.5" stroke-miterlimit="10"/>
<path d="M12.775 7.22504C14.3083 7.22504 15.55 8.46669 15.55 10C15.55 11.5334 14.3083 12.775 12.775 12.775C11.2417 12.775 10 11.5334 10 10C10 8.46669 11.2417 7.22504 12.775 7.22504Z" stroke="#FCFCFC" stroke-width="1.5" stroke-miterlimit="10"/>
</svg>
