<svg width="45" height="45" viewBox="0 0 45 45" fill="none" xmlns="http://www.w3.org/2000/svg">
<path d="M17.4749 24.8998H23.2686V38.3998C23.2686 40.3873 25.7436 41.3248 27.0561 39.8248L41.2499 23.6998C42.4874 22.2935 41.4936 20.0998 39.6186 20.0998H33.8249V6.59976C33.8249 4.61226 31.3499 3.67476 30.0374 5.17476L15.8436 21.2998C14.6249 22.706 15.6186 24.8998 17.4749 24.8998Z" fill="#FCFCFC"/>
<path d="M15.9375 8.90625H2.8125C2.04375 8.90625 1.40625 8.26875 1.40625 7.5C1.40625 6.73125 2.04375 6.09375 2.8125 6.09375H15.9375C16.7062 6.09375 17.3438 6.73125 17.3438 7.5C17.3438 8.26875 16.7062 8.90625 15.9375 8.90625Z" fill="#FCFCFC"/>
<path d="M14.0625 38.9062H2.8125C2.04375 38.9062 1.40625 38.2687 1.40625 37.5C1.40625 36.7313 2.04375 36.0938 2.8125 36.0938H14.0625C14.8312 36.0938 15.4688 36.7313 15.4688 37.5C15.4688 38.2687 14.8312 38.9062 14.0625 38.9062Z" fill="#FCFCFC"/>
<path d="M8.4375 23.9062H2.8125C2.04375 23.9062 1.40625 23.2687 1.40625 22.5C1.40625 21.7313 2.04375 21.0938 2.8125 21.0938H8.4375C9.20625 21.0938 9.84375 21.7313 9.84375 22.5C9.84375 23.2687 9.20625 23.9062 8.4375 23.9062Z" fill="#FCFCFC"/>
</svg>
