<svg width="20" height="20" viewBox="0 0 20 20" fill="none" xmlns="http://www.w3.org/2000/svg">
<path d="M14.1667 1.66669H5.83333C4 1.66669 2.5 3.16669 2.5 5.00002V15C2.5 16.8334 4 18.3334 5.83333 18.3334H14.1667C16 18.3334 17.5 16.8334 17.5 15V5.00002C17.5 3.16669 16 1.66669 14.1667 1.66669ZM9.05 15.1167C8.925 15.2417 8.76667 15.3 8.60833 15.3C8.45 15.3 8.29167 15.2417 8.16667 15.1167L7.625 14.575L7.10833 15.0917C6.98333 15.2167 6.825 15.275 6.66667 15.275C6.50833 15.275 6.35 15.2167 6.225 15.0917C5.98333 14.85 5.98333 14.45 6.225 14.2084L6.74167 13.6917L6.25 13.2C6.00833 12.9584 6.00833 12.5584 6.25 12.3167C6.49167 12.075 6.89167 12.075 7.13333 12.3167L7.625 12.8084L8.14167 12.2917C8.38333 12.05 8.78333 12.05 9.025 12.2917C9.26667 12.5334 9.26667 12.9334 9.025 13.175L8.50833 13.6917L9.05 14.2334C9.29167 14.475 9.29167 14.875 9.05 15.1167ZM12.075 15.4084C11.6167 15.4084 11.2417 15.0417 11.2417 14.5834V14.5667C11.2417 14.1084 11.6167 13.7334 12.075 13.7334C12.5333 13.7334 12.9083 14.1084 12.9083 14.5667C12.9083 15.025 12.5333 15.4084 12.075 15.4084ZM13.7583 13.6084C13.3 13.6084 12.9167 13.2334 12.9167 12.775C12.9167 12.3167 13.2833 11.9417 13.7417 11.9417H13.7583C14.2167 11.9417 14.5917 12.3167 14.5917 12.775C14.5917 13.2334 14.2167 13.6084 13.7583 13.6084ZM15 7.70835C15 8.50835 14.3417 9.16669 13.5417 9.16669H6.45833C5.65833 9.16669 5 8.50835 5 7.70835V5.62502C5 4.82502 5.65833 4.16669 6.45833 4.16669H13.5417C14.3417 4.16669 15 4.82502 15 5.62502V7.70835Z" fill="#FCFCFC"/>
</svg>
