<svg width="45" height="45" viewBox="0 0 45 45" fill="none" xmlns="http://www.w3.org/2000/svg">
<path d="M37.6875 17.2877C34.2938 17.2877 32.9063 14.8877 34.5938 11.9439C35.5688 10.2377 34.9875 8.06269 33.2812 7.08769L30.0375 5.23144C28.5563 4.35019 26.6437 4.87519 25.7625 6.35644L25.5563 6.71269C23.8688 9.65644 21.0938 9.65644 19.3875 6.71269L19.1812 6.35644C18.3375 4.87519 16.425 4.35019 14.9437 5.23144L11.7 7.08769C9.99375 8.06269 9.4125 10.2564 10.3875 11.9627C12.0937 14.8877 10.7063 17.2877 7.3125 17.2877C5.3625 17.2877 3.75 18.8814 3.75 20.8502V24.1502C3.75 26.1002 5.34375 27.7127 7.3125 27.7127C10.7063 27.7127 12.0937 30.1127 10.3875 33.0564C9.4125 34.7627 9.99375 36.9377 11.7 37.9127L14.9437 39.7689C16.425 40.6502 18.3375 40.1252 19.2188 38.6439L19.425 38.2877C21.1125 35.3439 23.8875 35.3439 25.5937 38.2877L25.8 38.6439C26.6813 40.1252 28.5938 40.6502 30.075 39.7689L33.3188 37.9127C35.025 36.9377 35.6062 34.7439 34.6312 33.0564C32.925 30.1127 34.3125 27.7127 37.7063 27.7127C39.6563 27.7127 41.2688 26.1189 41.2688 24.1502V20.8502C41.25 18.9002 39.6563 17.2877 37.6875 17.2877ZM22.5 28.5939C19.1438 28.5939 16.4062 25.8564 16.4062 22.5002C16.4062 19.1439 19.1438 16.4064 22.5 16.4064C25.8562 16.4064 28.5938 19.1439 28.5938 22.5002C28.5938 25.8564 25.8562 28.5939 22.5 28.5939Z" fill="#FCFCFC"/>
</svg>
