<svg width="20" height="20" viewBox="0 0 20 20" fill="none" xmlns="http://www.w3.org/2000/svg">
<path d="M15.625 18.3334C17.1208 18.3334 18.3333 17.1208 18.3333 15.625C18.3333 14.1292 17.1208 12.9167 15.625 12.9167C14.1292 12.9167 12.9167 14.1292 12.9167 15.625C12.9167 17.1208 14.1292 18.3334 15.625 18.3334Z" fill="#FCFCFC"/>
<path d="M15.8333 6.66669C17.2141 6.66669 18.3333 5.5474 18.3333 4.16669C18.3333 2.78598 17.2141 1.66669 15.8333 1.66669C14.4526 1.66669 13.3333 2.78598 13.3333 4.16669C13.3333 5.5474 14.4526 6.66669 15.8333 6.66669Z" fill="#FCFCFC"/>
<path d="M4.16666 6.66669C5.54737 6.66669 6.66666 5.5474 6.66666 4.16669C6.66666 2.78598 5.54737 1.66669 4.16666 1.66669C2.78594 1.66669 1.66666 2.78598 1.66666 4.16669C1.66666 5.5474 2.78594 6.66669 4.16666 6.66669Z" fill="#FCFCFC"/>
<path d="M4.02501 6.68335C4.83334 9.00002 7.01668 10.5584 9.47501 10.5584C9.48334 10.5584 9.49167 10.5584 9.50001 10.5584L12.4417 10.55C13.7083 10.5334 14.8417 11.3917 15.1833 12.625V14.1667C15.1833 14.5167 15.4667 14.8 15.825 14.8C16.175 14.8 16.4583 14.5167 16.4583 14.1667V4.80002C16.4583 4.45002 16.175 4.16669 15.825 4.16669C15.475 4.16669 15.1833 4.45002 15.1833 4.80002V10.3167C14.45 9.66669 13.4917 9.26669 12.45 9.26669C12.4417 9.26669 12.4417 9.26669 12.4333 9.26669L9.49168 9.27502C9.48334 9.27502 9.48334 9.27502 9.47501 9.27502C7.56668 9.27502 5.85834 8.06669 5.23334 6.25835C5.13334 6.00002 4.89168 5.83335 4.62501 5.83335C4.55834 5.83335 4.48334 5.85002 4.41668 5.86669C4.08334 5.98335 3.90834 6.35002 4.02501 6.68335Z" fill="#FCFCFC"/>
</svg>
