<svg width="18" height="18" viewBox="0 0 18 18" fill="none" xmlns="http://www.w3.org/2000/svg">
<g clip-path="url(#clip0_848_4095)">
<mask id="mask0_848_4095" style="mask-type:luminance" maskUnits="userSpaceOnUse" x="0" y="0" width="18" height="18">
<path d="M0 0H18V18H0V0Z" fill="white"/>
</mask>
<g mask="url(#mask0_848_4095)">
<path d="M8.99886 0.208985C6.85599 0.207983 4.78307 0.971598 3.15295 2.36249C1.52282 3.75338 0.442453 5.68027 0.106166 7.79659C-0.230121 9.91291 0.199737 12.0798 1.31843 13.9075C2.43712 15.7351 4.17123 17.1037 6.20886 17.767H6.42586C6.53206 17.7736 6.63845 17.7575 6.73797 17.7198C6.83748 17.6821 6.92783 17.6237 7.00303 17.5484C7.07822 17.4731 7.13653 17.3827 7.17409 17.2831C7.21165 17.1836 7.22759 17.0772 7.22086 16.971V15.996C7.20534 15.8971 7.15144 15.8084 7.07086 15.749C7.02712 15.7141 6.9762 15.6892 6.92175 15.6763C6.86729 15.6633 6.81065 15.6625 6.75586 15.674C4.74586 16.109 4.31886 14.849 4.28886 14.767C4.03613 14.1008 3.58608 13.5276 2.99886 13.124C2.96318 13.0937 2.92542 13.066 2.88586 13.041C2.97302 12.9941 3.07275 12.9759 3.17086 12.989C3.35953 13.0149 3.53825 13.0893 3.68953 13.205C3.8408 13.3207 3.95945 13.4737 4.03386 13.649C4.324 14.1542 4.79877 14.5271 5.35829 14.6894C5.91781 14.8517 6.51846 14.7906 7.03386 14.519C7.08884 14.4944 7.13719 14.4571 7.17491 14.4101C7.21264 14.3632 7.23867 14.308 7.25086 14.249C7.27946 13.9019 7.42795 13.5756 7.67086 13.326C7.72459 13.2781 7.76342 13.2158 7.78271 13.1465C7.80199 13.0771 7.80092 13.0037 7.77963 12.935C7.75833 12.8663 7.71771 12.8051 7.6626 12.7588C7.6075 12.7125 7.54024 12.6831 7.46886 12.674C5.69086 12.472 3.87586 11.849 3.87586 8.78099C3.86101 8.01058 4.14317 7.264 4.66386 6.69599C4.71109 6.64273 4.74241 6.57728 4.75426 6.50709C4.7661 6.4369 4.758 6.36479 4.73086 6.29899C4.52258 5.71657 4.52541 5.07952 4.73886 4.49899C5.43186 4.62199 6.08186 4.91899 6.62886 5.36099C6.67407 5.39279 6.72584 5.41406 6.78035 5.42323C6.83486 5.4324 6.89073 5.42924 6.94386 5.41399C7.6139 5.23255 8.3047 5.1391 8.99886 5.13599C9.69586 5.13699 10.3889 5.22999 11.0609 5.41399C11.113 5.42816 11.1675 5.43076 11.2207 5.4216C11.2739 5.41245 11.3245 5.39176 11.3689 5.36099C11.9167 4.91993 12.5666 4.62353 13.2589 4.49899C13.4628 5.0765 13.4628 5.70647 13.2589 6.28399C13.2305 6.34956 13.2217 6.42195 13.2336 6.4924C13.2455 6.56284 13.2776 6.62835 13.3259 6.68099C13.8413 7.24344 14.1231 7.98114 14.1139 8.74399C14.1139 11.812 12.2909 12.427 10.5059 12.629C10.4324 12.6363 10.3628 12.6651 10.3057 12.7118C10.2486 12.7586 10.2067 12.8212 10.1851 12.8917C10.1635 12.9623 10.1632 13.0376 10.1844 13.1083C10.2055 13.179 10.2471 13.2419 10.3039 13.289C10.4699 13.4605 10.5968 13.666 10.6757 13.8913C10.7546 14.1166 10.7836 14.3564 10.7609 14.594V16.979C10.7574 17.0963 10.7798 17.2129 10.8265 17.3206C10.8731 17.4282 10.9429 17.5243 11.0309 17.602C11.1432 17.6859 11.2735 17.7425 11.4115 17.7672C11.5496 17.7918 11.6914 17.7839 11.8259 17.744C13.8493 17.0671 15.5665 15.6932 16.6709 13.8677C17.7754 12.0421 18.1954 9.88345 17.8559 7.77694C17.5164 5.67044 16.4395 3.75306 14.8174 2.36689C13.1953 0.980725 11.1335 0.215941 8.99986 0.208985" fill="#141313" fill-opacity="0.6"/>
</g>
</g>
<defs>
<clipPath id="clip0_848_4095">
<rect width="18" height="18" fill="white"/>
</clipPath>
</defs>
</svg>
