<svg width="45" height="45" viewBox="0 0 45 45" fill="none" xmlns="http://www.w3.org/2000/svg">
<path d="M16.875 3.75C11.9625 3.75 7.96875 7.74375 7.96875 12.6562C7.96875 17.475 11.7375 21.375 16.65 21.5437C16.8 21.525 16.95 21.525 17.0625 21.5437C17.1 21.5437 17.1187 21.5437 17.1562 21.5437C17.175 21.5437 17.175 21.5437 17.1938 21.5437C21.9938 21.375 25.7625 17.475 25.7812 12.6562C25.7812 7.74375 21.7875 3.75 16.875 3.75Z" fill="#FCFCFC"/>
<path d="M26.4 26.5312C21.1688 23.0437 12.6375 23.0437 7.36875 26.5312C4.9875 28.1249 3.675 30.2812 3.675 32.5874C3.675 34.8937 4.9875 37.0312 7.35 38.6062C9.975 40.3687 13.425 41.2499 16.875 41.2499C20.325 41.2499 23.775 40.3687 26.4 38.6062C28.7625 37.0124 30.075 34.8749 30.075 32.5499C30.0563 30.2437 28.7625 28.1062 26.4 26.5312Z" fill="#FCFCFC"/>
<path d="M37.4813 13.7624C37.7813 17.3999 35.1938 20.5874 31.6125 21.0187C31.5938 21.0187 31.5938 21.0187 31.575 21.0187H31.5188C31.4063 21.0187 31.2938 21.0187 31.2 21.0562C29.3813 21.1499 27.7125 20.5687 26.4563 19.4999C28.3875 17.7749 29.4938 15.1874 29.2688 12.3749C29.1375 10.8562 28.6125 9.46869 27.825 8.28744C28.5375 7.93119 29.3625 7.70619 30.2063 7.63119C33.8813 7.31244 37.1625 10.0499 37.4813 13.7624Z" fill="#FCFCFC"/>
<path d="M41.2312 31.106C41.0812 32.9248 39.9187 34.4998 37.9687 35.5685C36.0937 36.5998 33.7312 37.0873 31.3875 37.031C32.7375 35.8123 33.525 34.2935 33.675 32.681C33.8625 30.356 32.7562 28.1248 30.5437 26.3435C29.2875 25.3498 27.825 24.5623 26.2312 23.981C30.375 22.781 35.5875 23.5873 38.7937 26.1748C40.5187 27.5623 41.4 29.306 41.2312 31.106Z" fill="#FCFCFC"/>
</svg>
