<svg width="20" height="20" viewBox="0 0 20 20" fill="none" xmlns="http://www.w3.org/2000/svg">
<path d="M13.4917 1.6665H6.50833C3.475 1.6665 1.66666 3.47484 1.66666 6.50817V13.4832C1.66666 16.5248 3.475 18.3332 6.50833 18.3332H13.4833C16.5167 18.3332 18.325 16.5248 18.325 13.4915V6.50817C18.3333 3.47484 16.525 1.6665 13.4917 1.6665ZM7.08333 5.3165C7.94166 5.3165 8.65 6.0165 8.65 6.88317C8.65 7.74984 7.95 8.44984 7.08333 8.44984C6.21666 8.44984 5.51666 7.73317 5.51666 6.87484C5.51666 6.0165 6.225 5.3165 7.08333 5.3165ZM10 15.8998C7.75833 15.8998 5.93333 14.0748 5.93333 11.8332C5.93333 11.2498 6.40833 10.7665 6.99166 10.7665H12.9917C13.575 10.7665 14.05 11.2415 14.05 11.8332C14.0667 14.0748 12.2417 15.8998 10 15.8998ZM12.9167 8.43317C12.0583 8.43317 11.35 7.73317 11.35 6.8665C11.35 5.99984 12.05 5.29984 12.9167 5.29984C13.7833 5.29984 14.4833 5.99984 14.4833 6.8665C14.4833 7.73317 13.775 8.43317 12.9167 8.43317Z" fill="#FCFCFC"/>
</svg>
