<svg width="20" height="20" viewBox="0 0 20 20" fill="none" xmlns="http://www.w3.org/2000/svg">
<path d="M13.4917 1.66669H6.50834C3.475 1.66669 1.66667 3.47502 1.66667 6.50835V13.4833C1.66667 16.5167 3.475 18.325 6.50834 18.325H13.4833C16.5167 18.325 18.325 16.5167 18.325 13.4833V6.50835C18.3333 3.47502 16.525 1.66669 13.4917 1.66669ZM10.8833 13.9C10.8167 13.925 10.75 13.9334 10.6833 13.9334C10.425 13.9334 10.175 13.7667 10.0917 13.5083L9.5 11.7333H6.93334L6.11667 13.5667C5.97501 13.8834 5.60834 14.025 5.29167 13.8834C4.975 13.7417 4.83334 13.375 4.975 13.0584L7.91667 6.45001C8.025 6.21668 8.25001 6.05834 8.51667 6.08334C8.77501 6.09168 9 6.26668 9.08334 6.50835L11.2833 13.1167C11.3833 13.4333 11.2083 13.7917 10.8833 13.9ZM14.25 13.3084C14.25 13.65 13.9667 13.9334 13.625 13.9334C13.2833 13.9334 13 13.65 13 13.3084V8.90001C13 8.55835 13.2833 8.27501 13.625 8.27501C13.9667 8.27501 14.25 8.55835 14.25 8.90001V13.3084ZM14.3917 7.0167C14.35 7.1167 14.2917 7.20835 14.2083 7.28335C14.1333 7.35835 14.0417 7.42501 13.9417 7.46668C13.8417 7.50835 13.7333 7.52502 13.625 7.52502C13.4 7.52502 13.1917 7.44168 13.0333 7.28335C12.9583 7.20835 12.8917 7.1167 12.85 7.0167C12.8083 6.90836 12.7917 6.80835 12.7917 6.69169C12.7917 6.58335 12.8083 6.47502 12.85 6.37502C12.9 6.27502 12.9583 6.18334 13.0333 6.10834C13.1083 6.02501 13.2 5.96667 13.3 5.92501C13.6083 5.80001 13.9833 5.87501 14.2083 6.10834C14.2917 6.18334 14.35 6.27502 14.3917 6.37502C14.4333 6.47502 14.4583 6.58335 14.4583 6.69169C14.4583 6.80835 14.4333 6.9167 14.3917 7.0167Z" fill="#FCFCFC"/>
<path d="M7.48334 10.475H9.08334L8.4 8.42499L7.48334 10.475Z" fill="#FCFCFC"/>
</svg>
