<svg width="20" height="20" viewBox="0 0 20 20" fill="none" xmlns="http://www.w3.org/2000/svg">
<path d="M14.1668 18.9583H5.8335C5.49183 18.9583 5.2085 18.675 5.2085 18.3333C5.2085 17.9916 5.49183 17.7083 5.8335 17.7083H14.1668C14.5085 17.7083 14.7918 17.9916 14.7918 18.3333C14.7918 18.675 14.5085 18.9583 14.1668 18.9583Z" fill="#FCFCFC"/>
<path d="M14.9998 1.66669H4.99984C3.15817 1.66669 1.6665 3.15835 1.6665 5.00002V12.5C1.6665 14.3417 3.15817 15.8334 4.99984 15.8334H14.9998C16.8415 15.8334 18.3332 14.3417 18.3332 12.5V5.00002C18.3332 3.15835 16.8415 1.66669 14.9998 1.66669ZM8.32484 6.10002C8.7915 6.10002 9.1665 6.47502 9.1665 6.93335C9.1665 7.39169 8.7915 7.76669 8.33317 7.76669C7.87484 7.76669 7.49984 7.39169 7.49984 6.93335C7.49984 6.47502 7.8665 6.10002 8.32484 6.10002ZM5.69984 6.10002C6.1665 6.10002 6.5415 6.47502 6.5415 6.93335C6.5415 7.39169 6.1665 7.76669 5.70817 7.76669C5.24984 7.76669 4.87484 7.39169 4.87484 6.93335C4.87484 6.47502 5.23317 6.10002 5.69984 6.10002ZM14.3832 12.3834H5.63317C5.28317 12.3834 4.99984 12.1 4.99984 11.7584C4.99984 11.4167 5.27484 11.1334 5.6165 11.1334H14.3915C14.7332 11.1334 15.0165 11.4167 15.0165 11.7584C15.0165 12.1 14.7332 12.3834 14.3832 12.3834ZM14.3832 7.55835H11.3165C10.9748 7.55835 10.6915 7.27502 10.6915 6.93335C10.6915 6.59169 10.9748 6.30835 11.3165 6.30835H14.3832C14.7248 6.30835 15.0082 6.59169 15.0082 6.93335C15.0082 7.27502 14.7332 7.55835 14.3832 7.55835Z" fill="#FCFCFC"/>
</svg>
