<svg width="45" height="45" viewBox="0 0 45 45" fill="none" xmlns="http://www.w3.org/2000/svg">
<path d="M36.0188 11.9251C34.0688 7.98758 30.3001 5.08133 25.9313 4.12508C21.3563 3.11258 16.6688 4.20008 13.0876 7.08758C9.4876 9.95633 7.44385 14.2501 7.44385 18.8438C7.44385 23.7001 10.3501 28.7813 14.7376 31.7251V33.2813C14.7188 33.8063 14.7001 34.6126 15.3376 35.2688C15.9938 35.9438 16.9688 36.0188 17.7376 36.0188H27.3563C28.3688 36.0188 29.1376 35.7376 29.6626 35.2126C30.3751 34.4813 30.3563 33.5438 30.3376 33.0376V31.7251C36.1501 27.8063 39.8063 19.5376 36.0188 11.9251Z" fill="#FCFCFC"/>
<path d="M28.6124 41.25C28.4999 41.25 28.3687 41.2313 28.2562 41.1938C24.4874 40.125 20.5312 40.125 16.7624 41.1938C16.0687 41.3813 15.3374 40.9875 15.1499 40.2938C14.9437 39.6 15.3562 38.8687 16.0499 38.6812C20.2874 37.4813 24.7499 37.4813 28.9874 38.6812C29.6812 38.8875 30.0937 39.6 29.8874 40.2938C29.6999 40.875 29.1749 41.25 28.6124 41.25Z" fill="#FCFCFC"/>
</svg>
