<svg width="45" height="45" viewBox="0 0 45 45" fill="none" xmlns="http://www.w3.org/2000/svg">
<path d="M33.75 3.75H11.25C8.1375 3.75 5.625 6.24375 5.625 9.31875V29.775C5.625 32.85 8.1375 35.3438 11.25 35.3438H12.675C14.175 35.3438 15.6 35.925 16.65 36.975L19.8563 40.1438C21.3188 41.5875 23.7 41.5875 25.1625 40.1438L28.3687 36.975C29.4188 35.925 30.8625 35.3438 32.3438 35.3438H33.75C36.8625 35.3438 39.375 32.85 39.375 29.775V9.31875C39.375 6.24375 36.8625 3.75 33.75 3.75ZM31.275 19.6875L29.0813 26.3625C28.8 27.4688 27.6187 28.3688 26.4188 28.3688H22.95C22.35 28.3688 21.5063 28.1625 21.1313 27.7875L18.375 25.6313C18.3188 26.8313 17.775 27.3375 16.4438 27.3375H15.5437C14.1562 27.3375 13.5938 26.7938 13.5938 25.4813V16.5375C13.5938 15.225 14.1562 14.6813 15.5437 14.6813H16.4625C17.85 14.6813 18.4125 15.225 18.4125 16.5375V17.2125L22.05 11.8125C22.425 11.2313 23.3812 10.8188 24.1875 11.1375C25.0687 11.4375 25.6313 12.4125 25.4437 13.275L24.9937 16.2C24.9375 16.4438 24.9937 16.7063 25.1625 16.875C25.3125 17.0438 25.5375 17.1562 25.7812 17.1562H29.4375C30.15 17.1562 30.75 17.4375 31.1063 17.9438C31.4438 18.4313 31.5 19.05 31.275 19.6875Z" fill="#FCFCFC"/>
</svg>
