<svg width="45" height="45" viewBox="0 0 45 45" fill="none" xmlns="http://www.w3.org/2000/svg">
<path d="M40.4254 20.1373L37.8754 17.1748C37.3879 16.6123 36.9941 15.5623 36.9941 14.8123V11.6248C36.9941 9.6373 35.3629 8.00605 33.3754 8.00605H30.1879C29.4566 8.00605 28.3879 7.6123 27.8254 7.1248L24.8629 4.5748C23.5691 3.46855 21.4504 3.46855 20.1379 4.5748L17.1941 7.14355C16.6316 7.6123 15.5629 8.00605 14.8316 8.00605H11.5879C9.60039 8.00605 7.96914 9.6373 7.96914 11.6248V14.8311C7.96914 15.5623 7.57539 16.6123 7.10664 17.1748L4.57539 20.1561C3.48789 21.4498 3.48789 23.5498 4.57539 24.8436L7.10664 27.8248C7.57539 28.3873 7.96914 29.4373 7.96914 30.1686V33.3748C7.96914 35.3623 9.60039 36.9936 11.5879 36.9936H14.8316C15.5629 36.9936 16.6316 37.3873 17.1941 37.8748L20.1566 40.4248C21.4504 41.5311 23.5691 41.5311 24.8816 40.4248L27.8441 37.8748C28.4066 37.3873 29.4566 36.9936 30.2066 36.9936H33.3941C35.3816 36.9936 37.0129 35.3623 37.0129 33.3748V30.1873C37.0129 29.4561 37.4066 28.3873 37.8941 27.8248L40.4441 24.8623C41.5316 23.5686 41.5316 21.4311 40.4254 20.1373ZM31.2754 22.4998L29.0816 29.1748C28.8004 30.2811 27.6191 31.1811 26.4191 31.1811H22.9504C22.3504 31.1811 21.5066 30.9748 21.1316 30.5998L18.3754 28.4436C18.3191 29.6436 17.7754 30.1498 16.4441 30.1498H15.5441C14.1566 30.1498 13.5941 29.6061 13.5941 28.2936V19.3311C13.5941 18.0186 14.1566 17.4748 15.5441 17.4748H16.4629C17.8504 17.4748 18.4129 18.0186 18.4129 19.3311V20.0061L22.0504 14.6061C22.4254 14.0248 23.3816 13.6123 24.1879 13.9311C25.0691 14.2311 25.6316 15.2061 25.4441 16.0686L24.9941 18.9936C24.9566 19.2561 25.0129 19.4998 25.1816 19.6873C25.3316 19.8561 25.5566 19.9686 25.8004 19.9686H29.4566C30.1691 19.9686 30.7691 20.2498 31.1254 20.7561C31.4441 21.2436 31.5004 21.8623 31.2754 22.4998Z" fill="#FCFCFC"/>
</svg>
