<svg width="18" height="18" viewBox="0 0 18 18" fill="none" xmlns="http://www.w3.org/2000/svg">
<g clip-path="url(#clip0_848_4089)">
<mask id="mask0_848_4089" style="mask-type:luminance" maskUnits="userSpaceOnUse" x="0" y="0" width="18" height="18">
<path d="M0 0H18V18H0V0Z" fill="white"/>
</mask>
<g mask="url(#mask0_848_4089)">
<path d="M16.4249 0.900391H1.5749C1.1699 0.900391 0.899902 1.17039 0.899902 1.57539V16.4254C0.899902 16.8304 1.1699 17.1004 1.5749 17.1004H16.4249C16.8299 17.1004 17.0999 16.8304 17.0999 16.4254V1.57539C17.0999 1.17039 16.8299 0.900391 16.4249 0.900391ZM5.6929 14.7374H3.3299V6.97539H5.7599V14.7374H5.6929ZM4.4779 5.89539C4.10247 5.89329 3.74302 5.74322 3.47755 5.47775C3.21207 5.21227 3.062 4.85282 3.0599 4.47739C3.0599 3.73539 3.6679 3.06039 4.4779 3.06039C5.2199 3.06039 5.8949 3.66739 5.8949 4.47739C5.8949 5.28739 5.2879 5.89539 4.4779 5.89539ZM14.7379 14.7374H12.3079V10.9574C12.3079 10.0804 12.3079 8.93239 11.0929 8.93239C9.8099 8.93239 9.6749 9.87739 9.6749 10.8904V14.7374H7.2449V6.97539H9.5399V8.05539C9.8779 7.44739 10.6199 6.84039 11.8349 6.84039C14.2649 6.84039 14.7379 8.46039 14.7379 10.5524V14.7374Z" fill="#141313" fill-opacity="0.6"/>
</g>
</g>
<defs>
<clipPath id="clip0_848_4089">
<rect width="18" height="18" fill="white"/>
</clipPath>
</defs>
</svg>
