<svg width="45" height="45" viewBox="0 0 45 45" fill="none" xmlns="http://www.w3.org/2000/svg">
<path d="M30.3563 3.75H14.6438C7.81875 3.75 3.75 7.81875 3.75 14.6438V30.3375C3.75 37.1813 7.81875 41.25 14.6438 41.25H30.3375C37.1625 41.25 41.2313 37.1813 41.2313 30.3563V14.6438C41.25 7.81875 37.1813 3.75 30.3563 3.75ZM35.1563 26.25C35.1563 27.0187 34.5188 27.6562 33.75 27.6562C32.9813 27.6562 32.3438 27.0187 32.3438 26.25V23.9062H23.9063V32.3438H26.25C27.0188 32.3438 27.6563 32.9813 27.6563 33.75C27.6563 34.5187 27.0188 35.1562 26.25 35.1562H18.75C17.9813 35.1562 17.3438 34.5187 17.3438 33.75C17.3438 32.9813 17.9813 32.3438 18.75 32.3438H21.0938V23.9062H12.6563V26.25C12.6563 27.0187 12.0188 27.6562 11.25 27.6562C10.4813 27.6562 9.84375 27.0187 9.84375 26.25V18.75C9.84375 17.9812 10.4813 17.3438 11.25 17.3438C12.0188 17.3438 12.6563 17.9812 12.6563 18.75V21.0938H21.0938V12.6562H18.75C17.9813 12.6562 17.3438 12.0188 17.3438 11.25C17.3438 10.4812 17.9813 9.84375 18.75 9.84375H26.25C27.0188 9.84375 27.6563 10.4812 27.6563 11.25C27.6563 12.0188 27.0188 12.6562 26.25 12.6562H23.9063V21.0938H32.3438V18.75C32.3438 17.9812 32.9813 17.3438 33.75 17.3438C34.5188 17.3438 35.1563 17.9812 35.1563 18.75V26.25Z" fill="#FCFCFC"/>
</svg>
