<svg width="45" height="45" viewBox="0 0 45 45" fill="none" xmlns="http://www.w3.org/2000/svg">
<path d="M35.85 17.0998C35.1188 17.0998 34.5375 17.6811 34.5375 18.4123V21.3748C34.5375 28.0123 29.1375 33.4123 22.5 33.4123C15.8625 33.4123 10.4625 28.0123 10.4625 21.3748V18.3936C10.4625 17.6623 9.88127 17.0811 9.15002 17.0811C8.41877 17.0811 7.83752 17.6623 7.83752 18.3936V21.3561C7.83752 28.9873 13.7063 35.2686 21.1875 35.9436V39.9373C21.1875 40.6686 21.7688 41.2498 22.5 41.2498C23.2313 41.2498 23.8125 40.6686 23.8125 39.9373V35.9436C31.275 35.2873 37.1625 28.9873 37.1625 21.3561V18.3936C37.1438 17.6811 36.5625 17.0998 35.85 17.0998Z" fill="#FCFCFC"/>
<path d="M22.5 3.75C17.925 3.75 14.2125 7.4625 14.2125 12.0375V21.6375C14.2125 26.2125 17.925 29.925 22.5 29.925C27.075 29.925 30.7875 26.2125 30.7875 21.6375V12.0375C30.7875 7.4625 27.075 3.75 22.5 3.75ZM24.9563 16.7812C24.825 17.2687 24.3938 17.5875 23.9063 17.5875C23.8125 17.5875 23.7188 17.5687 23.625 17.55C22.8938 17.3437 22.125 17.3437 21.3938 17.55C20.7938 17.7187 20.2125 17.3625 20.0625 16.7812C19.8938 16.2 20.25 15.6 20.8313 15.45C21.9375 15.15 23.1 15.15 24.2063 15.45C24.7688 15.6 25.1063 16.2 24.9563 16.7812ZM25.95 13.1438C25.7813 13.5938 25.3688 13.8562 24.9188 13.8562C24.7875 13.8562 24.675 13.8375 24.5438 13.8C23.2313 13.3125 21.7688 13.3125 20.4563 13.8C19.8938 14.0062 19.2563 13.7063 19.05 13.1438C18.8438 12.5813 19.1438 11.9437 19.7063 11.7562C21.5063 11.1 23.4938 11.1 25.2938 11.7562C25.8563 11.9625 26.1563 12.5813 25.95 13.1438Z" fill="#FCFCFC"/>
</svg>
