<svg width="45" height="45" viewBox="0 0 45 45" fill="none" xmlns="http://www.w3.org/2000/svg">
<path d="M39.2996 33.4499L36.2434 34.4812C35.3996 34.7624 34.7247 35.4187 34.4434 36.2812L33.4121 39.3374C32.5309 41.9812 28.8184 41.9249 27.9934 39.2812L24.5246 28.1249C23.8496 25.9124 25.8934 23.8499 28.0871 24.5437L39.2622 28.0124C41.8872 28.8374 41.9246 32.5687 39.2996 33.4499Z" fill="#FCFCFC"/>
<path d="M39.3754 21.5624C39.3754 22.3686 39.3191 23.1749 39.2254 23.9624C39.1504 24.5249 38.5691 24.8624 38.0254 24.6936L28.9316 21.8624C26.9066 21.2436 24.7504 21.7686 23.2504 23.2499C21.7504 24.7499 21.2066 26.9436 21.8441 28.9686L24.6566 38.0249C24.8254 38.5686 24.4691 39.1499 23.9066 39.2249C23.1191 39.3186 22.3504 39.3749 21.5629 39.3749C11.5504 39.3749 3.48787 31.1436 3.75037 21.0561C4.01287 11.7561 11.7566 4.01239 21.0566 3.74989C31.1441 3.48739 39.3754 11.5499 39.3754 21.5624Z" fill="#FCFCFC"/>
</svg>
