<svg width="45" height="45" viewBox="0 0 45 45" fill="none" xmlns="http://www.w3.org/2000/svg">
<path d="M24.4555 3.89136C24.1624 3.85018 23.9062 4.08206 23.9062 4.37798V10.5113C23.9062 10.7096 24.0252 10.8864 24.1986 10.9828C25.2775 11.5827 26.0062 12.7356 26.0062 14.0627V17.8127C26.0062 19.7439 24.4312 21.3377 22.5 21.3377C20.55 21.3377 18.975 19.7439 18.975 17.8127V14.0627C18.975 12.7355 19.7197 11.5826 20.8013 10.9827C20.9748 10.8864 21.0938 10.7096 21.0938 10.5113V4.37862C21.0938 4.08248 20.8375 3.85049 20.5443 3.8919C17.4463 4.32945 14.6699 5.7678 12.5625 7.8752C10.0125 10.4252 8.4375 13.9502 8.4375 17.8127V27.1877C8.4375 34.9314 14.7562 41.2502 22.5 41.2502C30.2438 41.2502 36.5625 34.9314 36.5625 27.1877V17.8127C36.5625 10.7267 31.2793 4.85029 24.4555 3.89136Z" fill="#FCFCFC"/>
</svg>
