<svg width="45" height="45" viewBox="0 0 45 45" fill="none" xmlns="http://www.w3.org/2000/svg">
<path d="M39.1687 9.71257V30.9001C39.1687 34.6126 36.15 37.6313 32.4375 37.6313C28.7437 37.6313 25.7062 34.6126 25.7062 30.9001C25.7062 27.2063 28.7437 24.1876 32.4375 24.1876C34.0125 24.1876 35.4187 24.7313 36.5625 25.6313V14.4751L19.2937 19.3876V34.5188C19.2937 38.2313 16.2562 41.2501 12.5625 41.2501C8.84999 41.2501 5.83124 38.2313 5.83124 34.5188C5.83124 30.8251 8.84999 27.8063 12.5625 27.8063C14.1187 27.8063 15.525 28.3501 16.6687 29.2313V12.6563C16.6687 9.90007 18.3375 7.76257 20.9812 7.05007L31.8187 4.08757C34.0125 3.48757 35.8687 3.69382 37.1812 4.70632C38.5125 5.70007 39.1687 7.38757 39.1687 9.71257Z" fill="#FCFCFC"/>
</svg>
