<svg width="20" height="20" viewBox="0 0 20 20" fill="none" xmlns="http://www.w3.org/2000/svg">
<path d="M9.975 1.66669C5.375 1.66669 1.64166 5.40002 1.64166 10C1.64166 14.6 5.375 18.3334 9.975 18.3334C14.575 18.3334 18.3083 14.6 18.3083 10C18.3083 5.40002 14.5833 1.66669 9.975 1.66669ZM12.475 11.8584L10.0583 13.25C9.75833 13.425 9.425 13.5084 9.1 13.5084C8.76666 13.5084 8.44166 13.425 8.14166 13.25C7.54166 12.9 7.18333 12.2834 7.18333 11.5834V8.79169C7.18333 8.10002 7.54166 7.47502 8.14166 7.12502C8.74166 6.77502 9.45833 6.77502 10.0667 7.12502L12.4833 8.51669C13.0833 8.86669 13.4417 9.48335 13.4417 10.1834C13.4417 10.8834 13.0833 11.5084 12.475 11.8584Z" fill="#FCFCFC"/>
</svg>
