<svg width="45" height="45" viewBox="0 0 45 45" fill="none" xmlns="http://www.w3.org/2000/svg">
<path d="M40.725 11.7752V13.9689C40.725 15.8064 39.9938 17.3814 38.7 18.3002C37.8938 18.9002 36.9 19.1814 35.8688 19.1814C35.2313 19.1814 34.5938 19.0877 33.9375 18.8627L23.85 15.5064V33.7502C23.85 38.6627 19.8563 42.6564 14.9438 42.6564C10.0313 42.6564 6.03751 38.6627 6.03751 33.7502C6.03751 28.8377 10.0313 24.8439 14.9438 24.8439C17.3063 24.8439 19.4438 25.7814 21.0375 27.2814V7.50017C21.0375 5.68142 21.7875 4.10642 23.0813 3.16892C24.375 2.25017 26.1 2.04392 27.825 2.60642L36.1125 5.38142C38.6625 6.22517 40.725 9.09392 40.725 11.7752Z" fill="#FCFCFC"/>
</svg>
