<svg width="20" height="20" viewBox="0 0 20 20" fill="none" xmlns="http://www.w3.org/2000/svg">
<path d="M14.6084 6.47502C14.55 6.46669 14.4917 6.46669 14.4334 6.47502C13.1417 6.43335 12.1167 5.37502 12.1167 4.07502C12.1167 2.75002 13.1917 1.66669 14.525 1.66669C15.85 1.66669 16.9334 2.74169 16.9334 4.07502C16.925 5.37502 15.9 6.43335 14.6084 6.47502Z" fill="#FCFCFC"/>
<path d="M17.3252 12.25C16.3918 12.875 15.0835 13.1083 13.8752 12.95C14.1918 12.2666 14.3585 11.5083 14.3668 10.7083C14.3668 9.87497 14.1835 9.0833 13.8335 8.39164C15.0668 8.22497 16.3752 8.4583 17.3168 9.0833C18.6335 9.94997 18.6335 11.375 17.3252 12.25Z" fill="#FCFCFC"/>
<path d="M5.36647 6.47502C5.4248 6.46669 5.48314 6.46669 5.54147 6.47502C6.83314 6.43335 7.85814 5.37502 7.85814 4.07502C7.85814 2.74169 6.78314 1.66669 5.4498 1.66669C4.1248 1.66669 3.0498 2.74169 3.0498 4.07502C3.0498 5.37502 4.0748 6.43335 5.36647 6.47502Z" fill="#FCFCFC"/>
<path d="M5.45843 10.7083C5.45843 11.5167 5.63343 12.2833 5.9501 12.975C4.7751 13.1 3.5501 12.85 2.6501 12.2583C1.33343 11.3833 1.33343 9.95834 2.6501 9.08334C3.54176 8.48334 4.8001 8.24167 5.98343 8.37501C5.64176 9.07501 5.45843 9.86667 5.45843 10.7083Z" fill="#FCFCFC"/>
<path d="M10.1 13.225C10.0333 13.2167 9.95833 13.2167 9.88333 13.225C8.35 13.175 7.125 11.9167 7.125 10.3667C7.13333 8.78333 8.40833 7.5 10 7.5C11.5833 7.5 12.8667 8.78333 12.8667 10.3667C12.8583 11.9167 11.6417 13.175 10.1 13.225Z" fill="#FCFCFC"/>
<path d="M7.3915 14.95C6.13317 15.7917 6.13317 17.175 7.3915 18.0083C8.82484 18.9667 11.1748 18.9667 12.6082 18.0083C13.8665 17.1667 13.8665 15.7833 12.6082 14.95C11.1832 13.9917 8.83317 13.9917 7.3915 14.95Z" fill="#FCFCFC"/>
</svg>
