<svg width="20" height="20" viewBox="0 0 20 20" fill="none" xmlns="http://www.w3.org/2000/svg">
<path d="M7.91667 7.29169H6.875V9.37502H7.91667C8.49167 9.37502 8.95833 8.90835 8.95833 8.33335C8.95833 7.75835 8.49167 7.29169 7.91667 7.29169Z" fill="#FCFCFC"/>
<path d="M13.4917 1.66669H6.51665C3.48332 1.66669 1.67499 3.47502 1.67499 6.50835V13.4833C1.67499 16.5167 3.48332 18.325 6.51665 18.325H13.4917C16.525 18.325 18.3333 16.5167 18.3333 13.4833V6.50835C18.3333 3.47502 16.525 1.66669 13.4917 1.66669ZM7.91665 10.625H6.87499V13.3334C6.87499 13.675 6.59165 13.9584 6.24999 13.9584C5.90832 13.9584 5.62499 13.675 5.62499 13.3334V6.66669C5.62499 6.32502 5.90832 6.04169 6.24999 6.04169H7.91665C9.18332 6.04169 10.2083 7.06669 10.2083 8.33335C10.2083 9.60002 9.18332 10.625 7.91665 10.625ZM12.7083 10.625C13.625 10.625 14.375 11.375 14.375 12.2917C14.375 13.2084 13.625 13.9584 12.7083 13.9584H11.6667C11.325 13.9584 11.0417 13.675 11.0417 13.3334C11.0417 12.9917 11.325 12.7084 11.6667 12.7084H12.7083C12.9417 12.7084 13.125 12.525 13.125 12.2917C13.125 12.0584 12.9417 11.875 12.7083 11.875C11.7917 11.875 11.0417 11.125 11.0417 10.2084C11.0417 9.29169 11.7917 8.54169 12.7083 8.54169H13.75C14.0917 8.54169 14.375 8.82502 14.375 9.16669C14.375 9.50835 14.0917 9.79169 13.75 9.79169H12.7083C12.475 9.79169 12.2917 9.97502 12.2917 10.2084C12.2917 10.4417 12.475 10.625 12.7083 10.625Z" fill="#FCFCFC"/>
</svg>
