<svg width="20" height="20" viewBox="0 0 20 20" fill="none" xmlns="http://www.w3.org/2000/svg">
<path d="M18.3333 10C18.3333 5.40835 14.5917 1.66669 9.99999 1.66669C5.40832 1.66669 1.66666 5.40835 1.66666 10C1.66666 12.4167 2.70832 14.5917 4.35832 16.1167C4.35832 16.125 4.35832 16.125 4.34999 16.1334C4.43332 16.2167 4.53332 16.2834 4.61666 16.3584C4.66666 16.4 4.70832 16.4417 4.75832 16.475C4.90832 16.6 5.07499 16.7167 5.23332 16.8334C5.29166 16.875 5.34166 16.9084 5.39999 16.95C5.55832 17.0584 5.72499 17.1584 5.89999 17.25C5.95832 17.2834 6.02499 17.325 6.08332 17.3584C6.24999 17.45 6.42499 17.5334 6.60832 17.6084C6.67499 17.6417 6.74166 17.675 6.80832 17.7C6.99166 17.775 7.17499 17.8417 7.35832 17.9C7.42499 17.925 7.49166 17.95 7.55832 17.9667C7.75832 18.025 7.95832 18.075 8.15832 18.125C8.21666 18.1417 8.27499 18.1584 8.34166 18.1667C8.57499 18.2167 8.80832 18.25 9.04999 18.275C9.08332 18.275 9.11666 18.2834 9.14999 18.2917C9.43332 18.3167 9.71666 18.3334 9.99999 18.3334C10.2833 18.3334 10.5667 18.3167 10.8417 18.2917C10.875 18.2917 10.9083 18.2834 10.9417 18.275C11.1833 18.25 11.4167 18.2167 11.65 18.1667C11.7083 18.1584 11.7667 18.1334 11.8333 18.125C12.0333 18.075 12.2417 18.0334 12.4333 17.9667C12.5 17.9417 12.5667 17.9167 12.6333 17.9C12.8167 17.8334 13.0083 17.775 13.1833 17.7C13.25 17.675 13.3167 17.6417 13.3833 17.6084C13.5583 17.5334 13.7333 17.45 13.9083 17.3584C13.975 17.325 14.0333 17.2834 14.0917 17.25C14.2583 17.15 14.425 17.0584 14.5917 16.95C14.65 16.9167 14.7 16.875 14.7583 16.8334C14.925 16.7167 15.0833 16.6 15.2333 16.475C15.2833 16.4334 15.325 16.3917 15.375 16.3584C15.4667 16.2834 15.5583 16.2084 15.6417 16.1334C15.6417 16.125 15.6417 16.125 15.6333 16.1167C17.2917 14.5917 18.3333 12.4167 18.3333 10ZM14.1167 14.1417C11.8583 12.625 8.15832 12.625 5.88332 14.1417C5.51666 14.3834 5.21666 14.6667 4.96666 14.975C3.69999 13.6917 2.91666 11.9334 2.91666 10C2.91666 6.09169 6.09166 2.91669 9.99999 2.91669C13.9083 2.91669 17.0833 6.09169 17.0833 10C17.0833 11.9334 16.3 13.6917 15.0333 14.975C14.7917 14.6667 14.4833 14.3834 14.1167 14.1417Z" fill="#FCFCFC"/>
<path d="M10 5.77502C8.275 5.77502 6.875 7.17502 6.875 8.90002C6.875 10.5917 8.2 11.9667 9.95833 12.0167C9.98333 12.0167 10.0167 12.0167 10.0333 12.0167C10.05 12.0167 10.075 12.0167 10.0917 12.0167C10.1 12.0167 10.1083 12.0167 10.1083 12.0167C11.7917 11.9584 13.1167 10.5917 13.125 8.90002C13.125 7.17502 11.725 5.77502 10 5.77502Z" fill="#FCFCFC"/>
</svg>
