<svg width="45" height="45" viewBox="0 0 45 45" fill="none" xmlns="http://www.w3.org/2000/svg">
<path d="M22.5 3.75C12.15 3.75 3.75 12.15 3.75 22.5C3.75 32.85 12.15 41.25 22.5 41.25C32.85 41.25 41.25 32.85 41.25 22.5C41.25 12.15 32.85 3.75 22.5 3.75ZM12.375 21.0562C12.6937 18.825 13.6875 16.8188 15.2438 15.2438C18.9938 11.5125 24.9 11.3063 28.9125 14.5688V12.7875C28.9125 12.0188 29.55 11.3813 30.3188 11.3813C31.0875 11.3813 31.725 12.0188 31.725 12.7875V17.7937C31.725 18.5625 31.0875 19.2 30.3188 19.2H25.3125C24.5438 19.2 23.9062 18.5625 23.9062 17.7937C23.9062 17.025 24.5438 16.3875 25.3125 16.3875H26.7188C23.8125 14.3625 19.8 14.6437 17.2125 17.2312C16.0875 18.3562 15.375 19.8187 15.1312 21.45C15.0375 22.1437 14.4375 22.65 13.7437 22.65C13.6687 22.65 13.6125 22.65 13.5375 22.6312C12.8062 22.5375 12.2625 21.825 12.375 21.0562ZM29.7563 29.7563C27.75 31.7625 25.125 32.7562 22.5 32.7562C20.2125 32.7562 17.9437 31.95 16.0687 30.4312V32.1938C16.0687 32.9625 15.4313 33.6 14.6625 33.6C13.8938 33.6 13.2563 32.9625 13.2563 32.1938V27.1875C13.2563 26.4188 13.8938 25.7812 14.6625 25.7812H19.6687C20.4375 25.7812 21.075 26.4188 21.075 27.1875C21.075 27.9562 20.4375 28.5938 19.6687 28.5938H18.2625C21.1687 30.6187 25.1813 30.3375 27.7688 27.75C28.8938 26.625 29.6063 25.1625 29.85 23.5312C29.9625 22.7625 30.6562 22.2188 31.4438 22.3312C32.2125 22.4438 32.7375 23.1562 32.6437 23.925C32.3062 26.1938 31.3125 28.2 29.7563 29.7563Z" fill="#FCFCFC"/>
</svg>
