<svg width="20" height="20" viewBox="0 0 20 20" fill="none" xmlns="http://www.w3.org/2000/svg">
<path d="M13.4917 1.6665H6.50833C3.475 1.6665 1.66666 3.47484 1.66666 6.50817V13.4832C1.66666 16.5248 3.475 18.3332 6.50833 18.3332H13.4833C16.5167 18.3332 18.325 16.5248 18.325 13.4915V6.50817C18.3333 3.47484 16.525 1.6665 13.4917 1.6665ZM5.39166 7.73317C5.15 7.4915 5.15 7.0915 5.39166 6.84984C6.46666 5.77484 8.225 5.77484 9.30833 6.84984C9.55 7.0915 9.55 7.4915 9.30833 7.73317C9.18333 7.85817 9.025 7.9165 8.86666 7.9165C8.70833 7.9165 8.55 7.85817 8.425 7.73317C7.83333 7.1415 6.86666 7.1415 6.275 7.73317C6.03333 7.98317 5.63333 7.98317 5.39166 7.73317ZM13 15.0665H7C6.41666 15.0665 5.94166 14.5915 5.94166 13.9998C5.94166 11.7582 7.76666 9.93317 10.0083 9.93317C12.25 9.93317 14.075 11.7582 14.075 13.9998C14.0667 14.5832 13.5833 15.0665 13 15.0665ZM14.6083 7.73317C14.3667 7.97484 13.9667 7.97484 13.725 7.73317C13.1333 7.1415 12.1667 7.1415 11.575 7.73317C11.45 7.85817 11.2917 7.9165 11.1333 7.9165C10.975 7.9165 10.8167 7.85817 10.6917 7.73317C10.45 7.4915 10.45 7.0915 10.6917 6.84984C11.7667 5.77484 13.525 5.77484 14.6083 6.84984C14.85 7.09984 14.85 7.4915 14.6083 7.73317Z" fill="#FCFCFC"/>
</svg>
