<svg width="45" height="45" viewBox="0 0 45 45" fill="none" xmlns="http://www.w3.org/2000/svg">
<path d="M21.5625 39.375C31.4001 39.375 39.375 31.4001 39.375 21.5625C39.375 11.7249 31.4001 3.75 21.5625 3.75C11.7249 3.75 3.75 11.7249 3.75 21.5625C3.75 31.4001 11.7249 39.375 21.5625 39.375Z" fill="#FCFCFC"/>
<path d="M39.9375 41.2498C39.6 41.2498 39.2625 41.1186 39.0188 40.8748L35.5313 37.3873C35.025 36.8811 35.025 36.0561 35.5313 35.5311C36.0375 35.0248 36.8625 35.0248 37.3875 35.5311L40.875 39.0186C41.3813 39.5248 41.3813 40.3498 40.875 40.8748C40.6125 41.1186 40.275 41.2498 39.9375 41.2498Z" fill="#FCFCFC"/>
</svg>
