<svg width="20" height="20" viewBox="0 0 20 20" fill="none" xmlns="http://www.w3.org/2000/svg">
<path d="M11.1913 12.5H3.6663C2.14963 12.5 1.18296 10.875 1.9163 9.54168L3.85796 6.00835L5.67463 2.70001C6.43296 1.32501 8.4163 1.32501 9.17463 2.70001L10.9996 6.00835L11.8746 7.60001L12.9413 9.54168C13.6746 10.875 12.708 12.5 11.1913 12.5Z" fill="#FCFCFC"/>
<path d="M18.875 13.3333C18.875 16.325 16.45 18.75 13.4583 18.75C10.9166 18.75 8.79164 17.0083 8.19997 14.6417C8.14164 14.3917 8.33331 14.1667 8.59164 14.1667H11.7333C12.8916 14.1667 13.9416 13.5667 14.5333 12.575C15.1166 11.575 15.1416 10.375 14.575 9.35834L14.1583 8.59167C14 8.30834 14.225 7.96667 14.5416 8.025C17.0083 8.525 18.875 10.7083 18.875 13.3333Z" fill="#FCFCFC"/>
</svg>
