<svg width="18" height="18" viewBox="0 0 18 18" fill="none" xmlns="http://www.w3.org/2000/svg">
<g clip-path="url(#clip0_848_4101)">
<mask id="mask0_848_4101" style="mask-type:luminance" maskUnits="userSpaceOnUse" x="0" y="0" width="18" height="18">
<path d="M0 0H18V18H0V0Z" fill="white"/>
</mask>
<g mask="url(#mask0_848_4101)">
<path fill-rule="evenodd" clip-rule="evenodd" d="M5.69788 1.37441C5.92438 1.14772 6.21304 0.99329 6.52732 0.93067C6.8416 0.868049 7.1674 0.900048 7.4635 1.02262C7.75959 1.14519 8.01268 1.35282 8.19075 1.61926C8.36882 1.88569 8.46387 2.19895 8.46388 2.51941V4.13941H6.84388C6.52354 4.13941 6.21039 4.04443 5.94402 3.86648C5.67764 3.68854 5.47001 3.43562 5.34735 3.13968C5.2247 2.84375 5.19254 2.5181 5.25493 2.2039C5.31732 1.88969 5.47146 1.60103 5.69788 1.37441ZM2.52088 5.22041H6.84088C7.27053 5.22041 7.68258 5.39109 7.98639 5.6949C8.2902 5.99871 8.46088 6.41076 8.46088 6.84041C8.46088 7.27006 8.2902 7.68212 7.98639 7.98593C7.68258 8.28974 7.27053 8.46041 6.84088 8.46041H2.52088C2.09123 8.46041 1.67917 8.28974 1.37537 7.98593C1.07156 7.68212 0.900879 7.27006 0.900879 6.84041C0.900879 6.41076 1.07156 5.99871 1.37537 5.6949C1.67917 5.39109 2.09123 5.22041 2.52088 5.22041ZM17.1009 6.84041C17.1009 6.41076 16.9302 5.99871 16.6264 5.6949C16.3226 5.39109 15.9105 5.22041 15.4809 5.22041C15.0512 5.22041 14.6392 5.39109 14.3354 5.6949C14.0316 5.99871 13.8609 6.41076 13.8609 6.84041V8.46041H15.4809C15.9105 8.46041 16.3226 8.28974 16.6264 7.98593C16.9302 7.68212 17.1009 7.27006 17.1009 6.84041ZM12.7819 2.52041V6.84041C12.7816 7.26989 12.6108 7.68169 12.307 7.98528C12.0033 8.28887 11.5914 8.45941 11.1619 8.45941C10.7322 8.45941 10.3202 8.28874 10.0164 7.98493C9.71256 7.68112 9.54188 7.26906 9.54188 6.83941V2.51941C9.54188 2.08976 9.71256 1.67771 10.0164 1.3739C10.3202 1.07009 10.7322 0.899414 11.1619 0.899414C11.5915 0.899414 12.0036 1.07009 12.3074 1.3739C12.6112 1.67771 12.7819 2.09076 12.7819 2.52041ZM11.1619 17.0994C11.5915 17.0994 12.0036 16.9287 12.3074 16.6249C12.6112 16.3211 12.7819 15.9091 12.7819 15.4794C12.7819 15.0498 12.6112 14.6377 12.3074 14.3339C12.0036 14.0301 11.5915 13.8594 11.1619 13.8594H9.54188V15.4794C9.54188 15.9091 9.71256 16.3211 10.0164 16.6249C10.3202 16.9287 10.7322 17.0994 11.1619 17.0994ZM15.4819 12.7774H11.1619C10.7322 12.7774 10.3202 12.6067 10.0164 12.3029C9.71256 11.9991 9.54188 11.5871 9.54188 11.1574C9.54188 10.7278 9.71256 10.3157 10.0164 10.0119C10.3202 9.70809 10.7322 9.53741 11.1619 9.53741H15.4819C15.9115 9.53741 16.3236 9.70809 16.6274 10.0119C16.9312 10.3157 17.1019 10.7278 17.1019 11.1574C17.1019 11.5871 16.9312 11.9991 16.6274 12.3029C16.3236 12.6067 15.9115 12.7774 15.4819 12.7774ZM0.901879 11.1574C0.901879 11.5871 1.07256 11.9991 1.37637 12.3029C1.68017 12.6067 2.09223 12.7774 2.52188 12.7774C2.95153 12.7774 3.36358 12.6067 3.66739 12.3029C3.9712 11.9991 4.14188 11.5871 4.14188 11.1574V9.53741H2.52188C2.30914 9.53741 2.09848 9.57932 1.90193 9.66073C1.70538 9.74214 1.5268 9.86147 1.37637 10.0119C1.22593 10.1623 1.10661 10.3409 1.02519 10.5375C0.943781 10.734 0.901879 10.9447 0.901879 11.1574ZM5.22388 15.4774V11.1574C5.22388 10.7278 5.39456 10.3157 5.69837 10.0119C6.00217 9.70809 6.41423 9.53741 6.84388 9.53741C7.27353 9.53741 7.68558 9.70809 7.98939 10.0119C8.2932 10.3157 8.46388 10.7278 8.46388 11.1574V15.4774C8.46388 15.9071 8.2932 16.3191 7.98939 16.6229C7.68558 16.9267 7.27353 17.0974 6.84388 17.0974C6.41423 17.0974 6.00217 16.9267 5.69837 16.6229C5.39456 16.3191 5.22388 15.9071 5.22388 15.4774Z" fill="#141313" fill-opacity="0.6"/>
</g>
</g>
<defs>
<clipPath id="clip0_848_4101">
<rect width="18" height="18" fill="white"/>
</clipPath>
</defs>
</svg>
