<svg width="45" height="45" viewBox="0 0 45 45" fill="none" xmlns="http://www.w3.org/2000/svg">
<path d="M18.75 1.875H7.5C4.3875 1.875 1.875 4.3875 1.875 7.5V18.75C1.875 21.8625 4.3875 24.375 7.5 24.375H15.9375C15.9375 19.725 19.725 15.9375 24.375 15.9375V7.5C24.375 4.3875 21.8625 1.875 18.75 1.875ZM7.06875 8.00625C8.5125 6.975 10.4812 6.95625 11.9625 7.96875C12.6 8.4 12.7688 9.28125 12.3375 9.91875C11.9062 10.5562 11.025 10.725 10.3875 10.2937C9.88125 9.9375 9.1875 9.9375 8.68125 10.3125C8.4375 10.4812 8.15625 10.5563 7.875 10.5563C7.44375 10.5563 6.99375 10.35 6.73125 9.975C6.28125 9.3375 6.43125 8.45625 7.06875 8.00625ZM17.3813 15.45C16.8938 16.0687 16.0125 16.1625 15.4125 15.675C14.7563 15.15 13.9688 14.8687 13.125 14.8687C11.25 14.8687 9.69375 16.2937 9.4875 18.1313H13.425C14.1937 18.1313 14.8312 18.7687 14.8312 19.5375C14.8312 20.3062 14.1937 20.9438 13.425 20.9438H9.075C7.74375 20.9438 6.65625 19.8563 6.65625 18.525C6.65625 14.9625 9.5625 12.0562 13.125 12.0562C14.5875 12.0562 16.0312 12.5625 17.175 13.4812C17.775 13.9688 17.8688 14.85 17.3813 15.45ZM19.8375 9.91875C19.4062 10.5562 18.525 10.725 17.8875 10.2937C17.3813 9.9375 16.6875 9.9375 16.1813 10.3125C15.9375 10.4812 15.6562 10.5563 15.375 10.5563C14.9437 10.5563 14.4938 10.35 14.2313 9.975C13.7812 9.3375 13.9312 8.45625 14.5688 8.00625C16.0125 6.975 17.9813 6.95625 19.4625 7.96875C20.1 8.4 20.2687 9.28125 19.8375 9.91875Z" fill="#FCFCFC"/>
<path d="M34.1625 31.2751C34.0312 31.1251 33.8437 31.05 33.6375 31.05H26.3625C26.1562 31.05 25.9687 31.1251 25.8375 31.2751C25.7062 31.4251 25.6312 31.6313 25.6687 31.8188C25.9125 34.0313 27.7687 35.7188 30 35.7188C32.2312 35.7188 34.0875 34.05 34.3312 31.8188C34.35 31.6125 34.2937 31.4251 34.1625 31.2751Z" fill="#FCFCFC"/>
<path d="M35.625 18.75H24.375C21.2812 18.75 18.75 21.2812 18.75 24.375V35.625C18.75 38.7188 21.2812 41.25 24.375 41.25H35.625C38.7188 41.25 41.25 38.7188 41.25 35.625V24.375C41.25 21.2812 38.7188 18.75 35.625 18.75ZM23.6063 24.6938C24.0563 24.0563 24.9375 23.9062 25.575 24.3562C26.0813 24.7125 26.7563 24.7125 27.2625 24.375C27.9 23.925 28.7812 24.0937 29.2125 24.75C29.6438 25.3875 29.4938 26.2687 28.8375 26.7C28.1062 27.1875 27.2625 27.45 26.4188 27.45C25.5375 27.45 24.675 27.1875 23.9438 26.6625C23.3063 26.1938 23.1563 25.3125 23.6063 24.6938ZM30 37.8188C26.4375 37.8188 23.5313 34.9125 23.5313 31.35C23.5313 30.0187 24.6188 28.9313 25.95 28.9313H34.05C35.3813 28.9313 36.4688 30.0187 36.4688 31.35C36.4688 34.9125 33.5625 37.8188 30 37.8188ZM36.3375 26.6812C35.6062 27.1687 34.7625 27.4313 33.9188 27.4313C33.0375 27.4313 32.175 27.1687 31.4438 26.6438C30.8063 26.1937 30.6562 25.3125 31.1063 24.675C31.5563 24.0375 32.4375 23.8875 33.075 24.3375C33.5812 24.6937 34.2563 24.6937 34.7625 24.3562C35.4 23.9062 36.2812 24.075 36.7125 24.7312C37.1437 25.3875 36.975 26.25 36.3375 26.6812Z" fill="#FCFCFC"/>
</svg>
