<svg width="20" height="20" viewBox="0 0 20 20" fill="none" xmlns="http://www.w3.org/2000/svg">
<path d="M17.292 13.75V6.25002C18.2837 5.83335 18.9587 4.85835 18.9587 3.75002C18.9587 2.25835 17.742 1.04169 16.2503 1.04169C15.1503 1.04169 14.167 1.71669 13.7503 2.70835H6.25033C5.83366 1.71669 4.85866 1.04169 3.75033 1.04169C2.25866 1.04169 1.04199 2.25835 1.04199 3.75002C1.04199 4.85002 1.71699 5.83335 2.70866 6.25002V13.75C1.71699 14.1667 1.04199 15.1417 1.04199 16.25C1.04199 17.7417 2.25866 18.9584 3.75033 18.9584C4.85033 18.9584 5.83366 18.2834 6.25033 17.2917H13.7503C14.167 18.2834 15.142 18.9584 16.2503 18.9584C17.742 18.9584 18.9587 17.7417 18.9587 16.25C18.9587 15.15 18.2837 14.1667 17.292 13.75ZM15.967 13.5584C15.8753 13.5667 15.792 13.5834 15.7003 13.6C15.4753 13.6417 15.2587 13.7167 15.0503 13.825C15.0003 13.85 14.9503 13.875 14.9003 13.9084C14.4837 14.1417 14.142 14.4834 13.9087 14.9C13.8753 14.95 13.8503 15 13.8253 15.05C13.717 15.2584 13.642 15.475 13.6003 15.7C13.5837 15.7917 13.567 15.875 13.5587 15.9667C13.5503 15.9917 13.5503 16.0167 13.5503 16.0417H6.45033C6.43366 15.8334 6.39199 15.6334 6.33366 15.4417C6.31699 15.375 6.29199 15.3 6.25866 15.2334C6.23366 15.175 6.20866 15.1167 6.17533 15.05C6.15033 15 6.12533 14.95 6.09199 14.9C5.85866 14.4834 5.51699 14.1417 5.10033 13.9084C5.05033 13.875 5.00033 13.85 4.95033 13.825C4.88366 13.7917 4.82533 13.7667 4.76699 13.7417C4.70033 13.7084 4.62533 13.6834 4.55866 13.6667C4.36699 13.6084 4.16699 13.5667 3.95866 13.55V6.45002C4.17533 6.43335 4.37533 6.39169 4.57533 6.32502C4.65033 6.30835 4.73366 6.27502 4.80866 6.24169C4.85033 6.22502 4.90033 6.20002 4.95033 6.17502C5.00033 6.15002 5.05033 6.12502 5.10033 6.09169C5.51699 5.85835 5.85866 5.51669 6.09199 5.10002C6.12533 5.05002 6.15033 5.00002 6.17533 4.95002C6.20033 4.90002 6.22533 4.85002 6.24199 4.80835C6.27533 4.73335 6.30866 4.65002 6.32533 4.57502C6.39199 4.37502 6.43366 4.17502 6.45033 3.95835H13.5503C13.567 4.18335 13.6087 4.39169 13.6837 4.60002C13.7003 4.66669 13.7253 4.74169 13.7587 4.80835C13.7753 4.85835 13.8003 4.90002 13.8253 4.95002C13.8503 5.00002 13.8753 5.05002 13.9087 5.10002C14.142 5.51669 14.4837 5.85835 14.9003 6.09169C14.9503 6.12502 15.0003 6.15002 15.0503 6.17502C15.1003 6.20002 15.142 6.22502 15.192 6.24169C15.2587 6.27502 15.3337 6.30002 15.4003 6.31669C15.6087 6.39169 15.817 6.43335 16.042 6.45002V13.55C16.017 13.55 15.992 13.55 15.967 13.5584Z" fill="#FCFCFC"/>
</svg>
