<svg width="45" height="45" viewBox="0 0 45 45" fill="none" xmlns="http://www.w3.org/2000/svg">
<path d="M30.3563 3.75H14.6438C7.81875 3.75 3.75 7.81875 3.75 14.6438V30.3563C3.75 37.1813 7.81875 41.25 14.6438 41.25H30.3563C37.1813 41.25 41.25 37.1813 41.25 30.3563V14.6438C41.25 7.81875 37.1813 3.75 30.3563 3.75ZM18.6938 27.9375L14.475 32.1562C14.1937 32.4375 13.8375 32.5688 13.4812 32.5688C13.125 32.5688 12.75 32.4375 12.4875 32.1562L11.0812 30.75C10.5187 30.2062 10.5187 29.3062 11.0812 28.7625C11.625 28.2188 12.5062 28.2188 13.0687 28.7625L13.4812 29.175L16.7062 25.95C17.25 25.4062 18.1313 25.4062 18.6938 25.95C19.2375 26.4937 19.2375 27.3937 18.6938 27.9375ZM18.6938 14.8125L14.475 19.0312C14.1937 19.3125 13.8375 19.4437 13.4812 19.4437C13.125 19.4437 12.75 19.3125 12.4875 19.0312L11.0812 17.625C10.5187 17.0812 10.5187 16.1813 11.0812 15.6375C11.625 15.0938 12.5062 15.0938 13.0687 15.6375L13.4812 16.05L16.7062 12.825C17.25 12.2812 18.1313 12.2812 18.6938 12.825C19.2375 13.3688 19.2375 14.2688 18.6938 14.8125ZM32.925 31.1625H23.0813C22.3125 31.1625 21.675 30.525 21.675 29.7563C21.675 28.9875 22.3125 28.35 23.0813 28.35H32.925C33.7125 28.35 34.3312 28.9875 34.3312 29.7563C34.3312 30.525 33.7125 31.1625 32.925 31.1625ZM32.925 18.0375H23.0813C22.3125 18.0375 21.675 17.4 21.675 16.6312C21.675 15.8625 22.3125 15.225 23.0813 15.225H32.925C33.7125 15.225 34.3312 15.8625 34.3312 16.6312C34.3312 17.4 33.7125 18.0375 32.925 18.0375Z" fill="#FCFCFC"/>
</svg>
