<svg width="20" height="20" viewBox="0 0 20 20" fill="none" xmlns="http://www.w3.org/2000/svg">
<path d="M17.4582 3.44163C17.2165 3.09163 16.9082 2.78329 16.5582 2.54163C15.7665 1.96663 14.7332 1.66663 13.4915 1.66663H6.50817C6.3415 1.66663 6.17484 1.67496 6.0165 1.69163C3.28317 1.86663 1.6665 3.64163 1.6665 6.50829V13.4916C1.6665 14.7333 1.9665 15.7666 2.5415 16.5583C2.78317 16.9083 3.0915 17.2166 3.4415 17.4583C4.12484 17.9583 4.9915 18.25 6.0165 18.3166C6.17484 18.325 6.3415 18.3333 6.50817 18.3333H13.4915C16.5248 18.3333 18.3332 16.525 18.3332 13.4916V6.50829C18.3332 5.26663 18.0332 4.23329 17.4582 3.44163ZM15.6248 7.41663C15.6248 7.75829 15.3415 8.04163 14.9998 8.04163C14.6582 8.04163 14.3748 7.75829 14.3748 7.41663V6.43329C14.3748 6.16663 14.1582 5.94996 13.8915 5.94996H10.6248V14.05H12.1082C12.4498 14.05 12.7332 14.3333 12.7332 14.675C12.7332 15.0166 12.4498 15.3 12.1082 15.3H7.8915C7.54984 15.3 7.2665 15.0166 7.2665 14.675C7.2665 14.3333 7.54984 14.05 7.8915 14.05H9.37484V5.94996H6.10817C5.8415 5.94996 5.62484 6.16663 5.62484 6.43329V7.41663C5.62484 7.75829 5.3415 8.04163 4.99984 8.04163C4.65817 8.04163 4.37484 7.75829 4.37484 7.41663V6.43329C4.37484 5.47496 5.14984 4.69996 6.10817 4.69996H13.8832C14.8415 4.69996 15.6165 5.47496 15.6165 6.43329V7.41663H15.6248Z" fill="#FCFCFC"/>
</svg>
