<svg width="20" height="20" viewBox="0 0 20 20" fill="none" xmlns="http://www.w3.org/2000/svg">
<path d="M8.75002 16.5834V3.41669C8.75002 2.16669 8.21669 1.66669 6.89169 1.66669H3.52502C2.20002 1.66669 1.66669 2.16669 1.66669 3.41669V16.5834C1.66669 17.8334 2.20002 18.3334 3.52502 18.3334H6.89169C8.21669 18.3334 8.75002 17.8334 8.75002 16.5834Z" fill="#FCFCFC" stroke="#FCFCFC" stroke-width="1.5" stroke-linecap="round" stroke-linejoin="round"/>
<path d="M18.3333 9.08335V3.41669C18.3333 2.16669 17.8 1.66669 16.475 1.66669H13.1083C11.7833 1.66669 11.25 2.16669 11.25 3.41669V9.08335C11.25 10.3334 11.7833 10.8334 13.1083 10.8334H16.475C17.8 10.8334 18.3333 10.3334 18.3333 9.08335Z" stroke="#FCFCFC" stroke-width="1.5" stroke-linecap="round" stroke-linejoin="round"/>
<path d="M18.3333 16.5833V15.0833C18.3333 13.8333 17.8 13.3333 16.475 13.3333H13.1083C11.7833 13.3333 11.25 13.8333 11.25 15.0833V16.5833C11.25 17.8333 11.7833 18.3333 13.1083 18.3333H16.475C17.8 18.3333 18.3333 17.8333 18.3333 16.5833Z" stroke="#FCFCFC" stroke-width="1.5" stroke-linecap="round" stroke-linejoin="round"/>
</svg>
