<svg width="45" height="45" viewBox="0 0 45 45" fill="none" xmlns="http://www.w3.org/2000/svg">
<path d="M33.75 3.75H11.25C8.1375 3.75 5.625 6.24375 5.625 9.31875V29.775C5.625 32.85 8.1375 35.3438 11.25 35.3438H12.675C14.175 35.3438 15.6 35.925 16.65 36.975L19.8563 40.1438C21.3188 41.5875 23.7 41.5875 25.1625 40.1438L28.3687 36.975C29.4188 35.925 30.8625 35.3438 32.3438 35.3438H33.75C36.8625 35.3438 39.375 32.85 39.375 29.775V9.31875C39.375 6.24375 36.8625 3.75 33.75 3.75ZM22.5 10.7813C24.9188 10.7813 26.8687 12.7313 26.8687 15.15C26.8687 17.5688 24.9188 19.5188 22.5 19.5188C20.0813 19.5188 18.1313 17.55 18.1313 15.15C18.1313 12.7313 20.0813 10.7813 22.5 10.7813ZM27.525 28.2375H17.475C15.9562 28.2375 15.075 26.55 15.9187 25.2938C17.1937 23.4 19.6687 22.125 22.5 22.125C25.3312 22.125 27.8062 23.4 29.0813 25.2938C29.925 26.55 29.025 28.2375 27.525 28.2375Z" fill="#FCFCFC"/>
</svg>
