<svg width="45" height="45" viewBox="0 0 45 45" fill="none" xmlns="http://www.w3.org/2000/svg">
<path d="M22.5 26.25C13.1063 26.25 5.45625 32.55 5.45625 40.3125C5.45625 40.8375 5.86875 41.25 6.39375 41.25H38.6063C39.1313 41.25 39.5438 40.8375 39.5438 40.3125C39.5438 32.55 31.8938 26.25 22.5 26.25Z" fill="#FCFCFC"/>
<path d="M22.5 3.75C20.2875 3.75 18.2625 4.51875 16.65 5.8125C14.4938 7.51875 13.125 10.1625 13.125 13.125C13.125 14.8875 13.6125 16.5375 14.4938 17.9437C16.1063 20.6625 19.0687 22.5 22.5 22.5C24.8625 22.5 27.0188 21.6375 28.6687 20.1562C29.4 19.5375 30.0375 18.7875 30.525 17.9437C31.3875 16.5375 31.875 14.8875 31.875 13.125C31.875 7.95 27.675 3.75 22.5 3.75ZM27.3563 12.1125L22.35 16.725C22.0125 17.0437 21.5812 17.1938 21.15 17.1938C20.7 17.1938 20.25 17.025 19.9125 16.6875L17.6063 14.3625C16.9125 13.6687 16.9125 12.5625 17.6063 11.8687C18.3 11.175 19.4063 11.175 20.1 11.8687L21.2063 12.975L24.975 9.50625C25.6875 8.85 26.7938 8.8875 27.45 9.6C28.1063 10.3312 28.0688 11.4563 27.3563 12.1125Z" fill="#FCFCFC"/>
</svg>
