<svg width="20" height="20" viewBox="0 0 20 20" fill="none" xmlns="http://www.w3.org/2000/svg">
<path d="M12.0832 15H2.9165C2.57484 15 2.2915 14.7166 2.2915 14.375C2.2915 14.0333 2.57484 13.75 2.9165 13.75H12.0832C14.9582 13.75 17.2915 11.4166 17.2915 8.54165C17.2915 5.66665 14.9582 3.33331 12.0832 3.33331H7.9165C7.57484 3.33331 7.2915 3.04998 7.2915 2.70831C7.2915 2.36665 7.57484 2.08331 7.9165 2.08331H12.0832C15.6415 2.08331 18.5415 4.98331 18.5415 8.54165C18.5415 12.1 15.6415 15 12.0832 15Z" fill="#FCFCFC"/>
<path d="M11.5083 12.4083H6.66662C6.32495 12.4083 6.04162 12.125 6.04162 11.7833C6.04162 11.4416 6.32495 11.1583 6.66662 11.1583H11.5083C12.8583 11.1583 13.9583 10.0583 13.9583 8.7083C13.9583 7.3583 12.8583 6.2583 11.5083 6.2583H2.6416C2.29993 6.2583 2.0166 5.97497 2.0166 5.6333C2.0166 5.29163 2.29993 5.0083 2.6416 5.0083H11.5083C13.5499 5.0083 15.2083 6.66664 15.2083 8.7083C15.2083 10.75 13.5499 12.4083 11.5083 12.4083Z" fill="#FCFCFC"/>
<path d="M7.0835 9.58331H4.5835C4.24183 9.58331 3.9585 9.29998 3.9585 8.95831C3.9585 8.61665 4.24183 8.33331 4.5835 8.33331H7.0835C7.42516 8.33331 7.7085 8.61665 7.7085 8.95831C7.7085 9.29998 7.42516 9.58331 7.0835 9.58331Z" fill="#FCFCFC"/>
<path d="M5.41683 17.9167H2.0835C1.74183 17.9167 1.4585 17.6334 1.4585 17.2917C1.4585 16.95 1.74183 16.6667 2.0835 16.6667H5.41683C5.7585 16.6667 6.04183 16.95 6.04183 17.2917C6.04183 17.6334 5.7585 17.9167 5.41683 17.9167Z" fill="#FCFCFC"/>
</svg>
