<svg width="30" height="30" viewBox="0 0 30 30" fill="none" xmlns="http://www.w3.org/2000/svg">
<path fill-rule="evenodd" clip-rule="evenodd" d="M26.099 15.1882C26.099 14.1012 26.8431 13.4705 27.7732 13.4705C28.4676 13.4705 29.0876 13.8328 29.3853 14.7319C29.2984 15.1882 28.7776 15.6982 28.5544 15.7787C28.3684 15.3493 28.1576 15.0943 27.9591 15.0943C27.7111 15.0943 27.6987 15.2822 27.6987 15.5237C27.6987 15.6948 27.744 15.9468 27.7985 16.25C27.8807 16.7079 27.984 17.2828 27.984 17.8722C27.984 18.9458 27.2895 19.7376 26.223 19.7376C25.2465 19.7376 24.7068 19.0448 24.4661 17.938C23.8282 19.1751 22.8953 19.7376 22.1804 19.7376C21.0626 19.7376 20.7995 18.8435 20.826 17.9367C20.3769 18.7956 19.5124 19.7376 18.6833 19.7376C17.8369 19.7376 17.538 18.9404 17.6065 18.0119C17.0994 19.0341 16.1822 19.7376 15.2979 19.7376C14.3383 19.7376 13.8633 18.9126 14.017 17.8901C13.3715 18.7488 12.1697 19.7376 10.9204 19.7376C9.49579 19.7376 8.87572 18.9063 8.80223 17.8646C8.11466 19.0571 7.1879 19.7778 6.08401 19.7778C4.49049 19.7778 3.92053 18.2444 3.83758 16.99C3.247 17.8458 2.58303 18.7338 1.76852 19.7241C1.68171 19.8181 1.6073 19.8718 1.5205 19.8718C1.23528 19.8718 0.652437 18.503 0.615234 17.993C0.859982 17.582 2.40276 15.7476 3.64486 14.2708C4.08148 13.7517 4.48094 13.2768 4.77379 12.9233C4.01311 13.1717 3.2288 13.6671 2.23975 14.4367C2.06614 14.5709 1.5825 13.3497 1.5949 12.4103C2.73578 11.4977 4.47191 10.9207 5.87321 10.9207C7.83255 10.9207 8.96101 12.1016 8.96101 13.7389C8.96101 15.1077 7.90694 16.6107 6.36924 16.6644C5.56967 16.6869 5.05722 16.2012 4.79515 15.6014C4.82645 16.529 5.27215 17.6709 6.46844 17.6709C7.77261 17.6709 8.39888 16.819 9.33285 15.5484C9.39354 15.4658 9.45552 15.3815 9.51905 15.2956C10.3127 14.2354 11.2304 13.296 12.5697 13.296C13.3881 13.296 13.9462 13.8462 13.9462 14.6783C13.9462 15.6848 12.8549 17.0804 11.3296 17.0804C11.0691 17.0804 10.8316 17.0433 10.6312 16.9699C10.6261 17.0122 10.6227 17.0538 10.6227 17.0939C10.6227 17.5635 10.7839 17.8454 11.4908 17.8454C12.5325 17.8454 13.5121 17.1744 14.7026 15.6042C15.8683 14.0609 16.7488 13.3899 17.6788 13.3899C18.3067 13.3899 18.7832 13.7582 18.9932 14.3783C20.2396 12.4301 21.2971 11.0497 22.1927 10.1289C23.0732 10.5315 23.7056 11.3233 23.532 11.4843C22.8748 12.1285 20.6799 14.7185 19.8118 16.2618C19.5886 16.6644 19.3778 17.1073 19.3778 17.322C19.3778 17.5233 19.4893 17.5904 19.6134 17.5904C20.2092 17.5904 21.4033 16.0681 22.4346 14.7534C22.8198 14.2622 23.1823 13.8001 23.4824 13.457C24.1769 13.7657 24.8837 14.4233 24.7101 14.6514C23.7925 15.8324 23.098 16.7986 23.098 17.3488C23.098 17.4964 23.1476 17.5904 23.3336 17.5904C23.6809 17.5904 24.0033 17.2549 24.5365 16.5436C24.6481 16.396 24.7845 16.396 24.8713 16.6242C25.1069 17.2415 25.4542 17.577 25.727 17.577C26.0494 17.577 26.2106 17.2683 26.2106 16.7986C26.2106 16.4776 26.1744 16.1044 26.1433 15.7831C26.1197 15.5401 26.099 15.3269 26.099 15.1882ZM6.09643 15.0138C6.75367 15.0138 7.47292 14.6246 7.47292 13.8328C7.47292 13.3523 7.19734 12.9093 6.4609 12.7744C6.42204 12.8401 6.38345 12.9054 6.34511 12.9703C5.97089 13.6034 5.61797 14.2005 5.2618 14.7842C5.4752 14.9139 5.7451 15.0138 6.09643 15.0138ZM12.7433 15.2553C12.7433 15.0406 12.6193 14.893 12.4209 14.893C11.9233 14.893 11.1729 15.6486 10.8198 16.3782C10.9501 16.4327 11.1032 16.4631 11.2676 16.4631C12.1481 16.4631 12.7433 15.7385 12.7433 15.2553ZM16.0047 17.2012C16.0047 17.4428 16.1287 17.6038 16.3891 17.6038C17.1952 17.6038 18.1997 16.0203 18.1997 15.3761C18.1997 15.1077 18.0633 14.9467 17.84 14.9467C17.1084 14.9467 16.0047 16.4497 16.0047 17.2012ZM26.3593 12.3567C26.0741 12.8666 25.64 13.4437 25.4788 13.6181C24.7348 13.2826 24.0403 12.6117 24.1395 12.4238C24.4123 11.9004 24.8588 11.3368 25.02 11.1623C25.764 11.4978 26.4585 12.1822 26.3593 12.3567Z" fill="#FCF7F7"/>
</svg>
