<svg width="30" height="30" viewBox="0 0 30 30" fill="none" xmlns="http://www.w3.org/2000/svg">
<path d="M10.3864 13.1643H13.1829C12.4827 12.7253 12.2212 12.1134 11.8711 10.9783L10.8207 7.08509C10.3421 5.33361 9.94762 4.50443 8.02417 4.50443H4.00443V5.55532H4.57615C5.75504 5.55532 5.88799 5.9943 6.23811 7.3068L7.15552 10.7211C7.63417 12.3794 8.38316 13.1643 10.3864 13.1643ZM16.8614 13.1643H19.6579C21.67 13.1643 22.3658 12.375 22.8489 10.7166L23.7663 7.30236C24.1164 5.98986 24.2893 5.55089 25.4283 5.55089H26V4.5H22.0201C20.0524 4.5 19.6579 5.28927 19.2192 7.08066L18.1688 10.9738C17.8231 12.1533 17.5572 12.7253 16.8614 13.1643ZM13.1873 16.8357H16.8614V13.1598H13.1873V16.8357ZM4.00443 25.5H8.02417C9.94762 25.5 10.3421 24.6664 10.8207 22.9193L11.8711 19.0262C12.2212 17.891 12.4827 17.2747 13.1829 16.8402H10.3864C8.3743 16.8402 7.62973 17.6294 7.15109 19.2878L6.23368 22.7021C5.88356 24.0146 5.75504 24.4535 4.57172 24.4535H4L4.00443 25.5ZM22.0157 25.5H25.9956V24.4491H25.4239C24.2893 24.4491 24.112 24.0101 23.7619 22.6976L22.8445 19.2834C22.3658 17.6206 21.6656 16.8357 19.6535 16.8357H16.8614C17.5616 17.2747 17.8143 17.8423 18.1644 19.0217L19.2147 22.9149C19.6535 24.7107 20.0479 25.5 22.0157 25.5Z" fill="#FCF7F7"/>
</svg>
