<svg width="30" height="30" viewBox="0 0 30 30" fill="none" xmlns="http://www.w3.org/2000/svg">
<path d="M19.5605 4.02832C19.7408 4.02774 19.9176 4.07975 20.0684 4.17871L25.5674 7.83691C25.5642 7.83485 25.5608 7.83308 25.5576 7.83105L25.5645 7.83594C25.6895 7.92022 25.7923 8.03394 25.8633 8.16699C25.9342 8.30004 25.9714 8.44884 25.9717 8.59961V21.3994C25.9718 21.5503 25.9352 21.6989 25.8643 21.832C25.7932 21.9652 25.6898 22.0792 25.5645 22.1631L25.5518 22.1709C25.5566 22.1678 25.5625 22.1663 25.5674 22.1631L20.082 25.8203C19.8955 25.9422 19.671 25.993 19.4502 25.9629C19.3942 25.9552 19.3392 25.9423 19.2861 25.9248C19.129 25.8736 18.9873 25.781 18.877 25.6553L13.0303 18.873L9.29785 22.4512L9.2334 22.5156C9.1505 22.5975 9.05226 22.6622 8.94434 22.7061C8.83607 22.7501 8.71938 22.7724 8.60254 22.7715L8.60059 22.7705L8.59961 22.7715C8.40198 22.771 8.21002 22.7063 8.05176 22.5879H8.05078L8.04688 22.585C8.04821 22.5862 8.04944 22.5876 8.05078 22.5889L4.39453 19.8457C4.28056 19.761 4.18756 19.6514 4.12402 19.5244C4.06053 19.3975 4.02778 19.2571 4.02832 19.1152V10.8867C4.02772 10.7447 4.06048 10.6036 4.12402 10.4766V10.4756C4.17158 10.3806 4.23566 10.2952 4.3125 10.2227L4.40527 10.1445L8.05176 7.41113C8.21003 7.29273 8.40196 7.22803 8.59961 7.22754C8.68783 7.2268 8.7761 7.23862 8.86035 7.26367C8.88871 7.27199 8.91685 7.28279 8.94434 7.29395C9.05227 7.33784 9.1505 7.4025 9.2334 7.48438L9.29785 7.54883L13.0293 11.125L18.8672 4.34863C18.9519 4.24837 19.0578 4.16756 19.1768 4.1123C19.296 4.05707 19.4262 4.02813 19.5576 4.02832H19.5605ZM20.4795 11.7314L17.0693 15L20.4844 18.2734H20.4854V11.7256L20.4795 11.7314ZM7.7998 17.1973L9.69727 14.9951L7.7998 12.7939V17.1973Z" fill="#FCF7F7"/>
</svg>
