<svg width="27" height="25" viewBox="0 0 27 25" fill="none" xmlns="http://www.w3.org/2000/svg">
<g clip-path="url(#clip0_428_3767)">
<path d="M18.1743 17.3907C19.1422 17.2905 19.8766 16.456 19.8432 15.4546C19.8098 14.4533 18.9754 13.6522 17.974 13.6522H17.9073C16.8725 13.6855 16.0715 14.5534 16.1048 15.5882C16.1382 16.0889 16.3385 16.5228 16.6389 16.8232C15.504 19.0596 13.7684 20.6952 11.1649 22.0638C9.39582 22.9984 7.56003 23.3322 5.72423 23.0985C4.22221 22.8982 3.05398 22.2307 2.31966 21.1291C1.25155 19.4936 1.15142 17.7244 2.05263 15.9553C2.68682 14.6869 3.68816 13.7523 4.32234 13.285C4.18883 12.8511 3.98856 12.1167 3.88843 11.5826C-0.951403 15.0875 -0.450731 19.8273 1.01791 22.0638C2.11939 23.7327 4.35572 24.7675 6.82571 24.7675C7.49327 24.7675 8.16083 24.7007 8.82839 24.5338C13.1008 23.6994 16.3385 21.1625 18.1743 17.3907ZM24.0488 13.2516C21.5121 10.2808 17.7737 8.64526 13.5013 8.64526H12.9673C12.6669 8.04443 12.0327 7.64388 11.3318 7.64388H11.265C10.2303 7.67725 9.4292 8.54512 9.46258 9.57988C9.49596 10.5813 10.3304 11.3824 11.3318 11.3824H11.3985C12.1328 11.349 12.767 10.8817 13.034 10.2475H13.6348C16.1716 10.2475 18.5748 10.9818 20.7444 12.4171C22.4133 13.5186 23.6149 14.954 24.2825 16.6897C24.8499 18.0916 24.8165 19.4602 24.2157 20.6284C23.2811 22.3976 21.7124 23.3656 19.6429 23.3656C18.3078 23.3656 17.0394 22.965 16.3719 22.6646C16.0047 22.9984 15.3371 23.5325 14.8698 23.8662C16.3051 24.5338 17.7737 24.901 19.1756 24.901C22.3799 24.901 24.7498 23.1319 25.651 21.3628C26.6189 19.4268 26.5522 16.0889 24.0488 13.2516ZM7.09273 17.9581C7.12611 18.9595 7.96056 19.7606 8.96191 19.7606H9.02866C10.0634 19.7272 10.8645 18.8593 10.8311 17.8246C10.7977 16.8232 9.96325 16.0221 8.96191 16.0221H8.89515C8.82839 16.0221 8.72826 16.0221 8.6615 16.0555C7.293 13.7857 6.72557 11.3156 6.92584 8.64526C7.05935 6.64249 7.72692 4.90677 8.89515 3.47145C9.86312 2.23642 11.7323 1.63559 13.0007 1.60221C16.5387 1.53545 18.0408 5.94153 18.1409 7.71063C18.5748 7.81077 19.3091 8.04443 19.8098 8.21132C19.4093 2.80387 16.0715 0 12.8672 0C9.86312 0 7.09273 2.16966 5.99125 5.37408C4.45586 9.64664 5.4572 13.7523 7.32638 16.9901C7.15949 17.2238 7.05935 17.5909 7.09273 17.9581Z" fill="#FCF7F7"/>
</g>
<defs>
<clipPath id="clip0_428_3767">
<rect width="26.2295" height="25" fill="white"/>
</clipPath>
</defs>
</svg>
