<svg width="30" height="30" viewBox="0 0 30 30" fill="none" xmlns="http://www.w3.org/2000/svg">
<path fill-rule="evenodd" clip-rule="evenodd" d="M15.5277 2.44043C15.5277 2.44043 21.2896 9.21678 22.7386 11.2275C24.1108 13.1288 25.0817 15.3809 24.9935 17.9082C24.8572 21.8089 22.5054 25.1071 19.1898 26.6396C17.8127 27.2754 16.2723 27.6103 14.6527 27.5537C13.6051 27.5171 12.6012 27.3202 11.6625 26.9883L11.264 26.8379L10.9115 26.6885C7.31027 25.0742 4.85998 21.3984 5.00621 17.2109C5.06474 15.5364 5.53408 13.973 6.31187 12.6104C7.04579 12.4037 7.82359 12.304 8.62633 12.332C9.18634 12.3516 9.731 12.4318 10.2523 12.5664C10.3483 11.069 10.6767 9.64051 11.1986 8.31055C12.1108 5.98725 13.6184 3.96996 15.5277 2.44043ZM12.8666 21.708C13.4257 22.4879 14.0622 23.2094 14.766 23.8604L14.4964 23.6035C13.899 23.0212 13.3534 22.3869 12.8666 21.708Z" fill="#FCF7F7"/>
</svg>
