<svg width="30" height="30" viewBox="0 0 30 30" fill="none" xmlns="http://www.w3.org/2000/svg">
<path fill-rule="evenodd" clip-rule="evenodd" d="M14.9893 6.54395C11.2379 6.54395 8.90097 8.42076 7.95801 12.1744C9.37246 10.2976 11.0124 9.59634 12.8983 10.0501C13.9643 10.3182 14.7433 11.1019 15.5837 11.9475C16.9572 13.3706 18.5561 14.9999 22.041 14.9999C25.7924 14.9999 28.1498 13.1231 29.0928 9.36947C27.6783 11.2463 26.0384 11.9475 24.1729 11.4731C23.107 11.205 22.328 10.4213 21.4875 9.57572C20.0936 8.17326 18.4946 6.54395 14.9893 6.54395ZM7.95801 14.9999C4.18614 14.9999 1.84922 16.8767 0.90625 20.6303C2.3207 18.7535 3.96064 18.0523 5.84658 18.506C6.91254 18.7741 7.69151 19.5579 8.53199 20.4035C9.90544 21.8265 11.5044 23.4559 14.9893 23.4559C18.7406 23.4559 21.098 21.5791 22.041 17.8254C20.6266 19.7022 18.9866 20.4035 17.1007 19.9291C16.0347 19.661 15.2558 18.8773 14.4153 18.0317C13.0418 16.6292 11.4429 14.9999 7.95801 14.9999Z" fill="#FCF7F7"/>
</svg>
