<svg width="30" height="30" viewBox="0 0 30 30" fill="none" xmlns="http://www.w3.org/2000/svg">
<path d="M6.30664 1.51855C6.51723 1.52849 6.71947 1.60522 6.88379 1.7373C7.048 1.86938 7.16575 2.05046 7.2207 2.25391L9.79492 10.1289H20.207L22.7793 2.25293C22.8353 2.05085 22.9536 1.8705 23.1172 1.73926C23.2825 1.60847 23.4848 1.53164 23.6953 1.52051C23.9055 1.50949 24.114 1.56434 24.292 1.67676C24.469 1.78936 24.6064 1.9553 24.6836 2.15039L28.4893 12.0811L28.5293 12.1826H28.5283C29.0784 13.6152 29.1488 15.1875 28.7275 16.6631C28.3062 18.139 27.4163 19.438 26.1924 20.3643L26.1758 20.376L20.3369 24.748C20.3343 24.7461 20.3317 24.7441 20.3291 24.7422L20.3193 24.75L17.4482 26.9229L15.7031 28.2441C15.4981 28.3989 15.2481 28.4834 14.9912 28.4834C14.7344 28.4833 14.4842 28.3989 14.2793 28.2441L12.5352 26.9229L9.66504 24.75L3.85938 20.4033L3.82617 20.377L3.8125 20.3672C2.81642 19.6144 2.04047 18.6147 1.55859 17.4736C1.44809 17.2122 1.35326 16.943 1.27441 16.668C0.851575 15.193 0.919444 13.6206 1.46777 12.1875L1.50684 12.0889H1.50879L5.31836 2.14844C5.39699 1.95368 5.53383 1.78771 5.71094 1.6748C5.88819 1.56187 6.09676 1.50749 6.30664 1.51855Z" fill="#FCF7F7"/>
</svg>
