<svg width="20" height="20" viewBox="0 0 20 20" fill="none" xmlns="http://www.w3.org/2000/svg">
<path d="M18.0469 0C19.1256 0 20 0.874444 20 1.95312V18.0469C20 19.1256 19.1256 20 18.0469 20H1.95312C0.874444 20 0 19.1256 0 18.0469V1.95312C0 0.874444 0.874444 0 1.95312 0H18.0469ZM15.7852 9.29688C15.3207 9.29691 14.8804 9.34652 14.4648 9.44629C14.0493 9.54606 13.6839 9.70236 13.3682 9.91406C13.0524 10.1259 12.8025 10.3958 12.6191 10.7236C12.4357 11.0516 12.3438 11.4441 12.3438 11.9004C12.3438 12.4829 12.5115 12.9802 12.8477 13.3916C13.1839 13.803 13.6952 14.1513 14.3799 14.4365C14.6487 14.5465 14.8997 14.6539 15.1318 14.7598C15.3639 14.8656 15.5644 14.9759 15.7334 15.0898C15.9025 15.2039 16.0359 15.3285 16.1338 15.4629C16.2316 15.5972 16.2812 15.7499 16.2812 15.9209C16.2812 16.0471 16.2505 16.1645 16.1895 16.2725C16.1283 16.3804 16.0354 16.4743 15.9111 16.5537C15.7868 16.6332 15.6317 16.6954 15.4463 16.7402C15.2608 16.7851 15.0435 16.8076 14.7949 16.8076C14.3712 16.8076 13.9517 16.7326 13.5361 16.584C13.1205 16.4354 12.7354 16.2123 12.3809 15.915V17.8701C12.6987 18.033 13.0748 18.1558 13.5088 18.2373C13.9427 18.3187 14.4001 18.3594 14.8809 18.3594C15.3496 18.3594 15.795 18.3143 16.2168 18.2246C16.6384 18.135 17.0084 17.9879 17.3262 17.7822C17.644 17.5766 17.8956 17.3075 18.0811 16.9756C18.2665 16.6436 18.3593 16.2329 18.3594 15.7441C18.3594 15.3897 18.3062 15.0784 18.2002 14.8115C18.0942 14.5449 17.9418 14.3073 17.7422 14.0996C17.5425 13.8919 17.3026 13.706 17.0234 13.541C16.7443 13.376 16.4296 13.2199 16.0791 13.0732C15.8225 12.9674 15.5924 12.8644 15.3887 12.7646C15.1849 12.6648 15.0108 12.5629 14.8682 12.459C14.7257 12.3552 14.6154 12.2449 14.5381 12.1289C14.4609 12.0129 14.4219 11.8817 14.4219 11.7354C14.4219 11.6009 14.4571 11.4791 14.5264 11.3711C14.5956 11.2634 14.6933 11.171 14.8193 11.0938C14.9457 11.0164 15.1008 10.9559 15.2842 10.9131C15.4676 10.8703 15.6714 10.8486 15.8955 10.8486C16.0585 10.8486 16.2308 10.8613 16.4121 10.8857C16.5934 10.9102 16.7757 10.9482 16.959 10.999C17.1423 11.05 17.3209 11.114 17.4941 11.1914C17.6673 11.2688 17.8279 11.3581 17.9746 11.46V9.63281C17.6771 9.51875 17.3516 9.43391 16.999 9.37891C16.6465 9.32393 16.2415 9.29688 15.7852 9.29688ZM4.60938 11.0967H7.10547V18.2422H9.09277V11.0967H11.6016V9.49219H4.60938V11.0967Z" fill="#FCF7F7"/>
</svg>
