<svg width="30" height="30" viewBox="0 0 30 30" fill="none" xmlns="http://www.w3.org/2000/svg">
<path d="M19.782 7.74023C17.9808 7.74023 16.5727 9.08958 15.2981 10.8037C13.5466 8.58547 12.0818 7.74023 10.3288 7.74023C6.7549 7.74023 4.0166 12.3663 4.0166 17.2627C4.0166 20.3268 5.50695 22.2593 8.00325 22.2593C9.79992 22.2593 11.0921 21.4168 13.3892 17.423C13.3892 17.423 14.3468 15.741 15.0056 14.5825C15.2364 14.9532 15.4795 15.3526 15.7349 15.7808L16.8121 17.5832C18.9105 21.0757 20.0796 22.2593 22.1981 22.2593C24.63 22.2593 25.9834 20.3003 25.9834 17.1726C25.9834 12.0459 23.1834 7.74023 19.782 7.74023ZM11.6375 16.3415C9.77509 19.2453 9.13078 19.8962 8.09385 19.8962C7.02672 19.8962 6.39248 18.9644 6.39248 17.3028C6.39248 13.7481 8.17439 10.1134 10.2986 10.1134C11.4489 10.1134 12.4102 10.7741 13.8826 12.8707C12.4845 15.0037 11.6375 16.3415 11.6375 16.3415ZM18.6667 15.976L17.3787 13.8395C17.0302 13.2757 16.6952 12.7568 16.3739 12.2826C17.5347 10.5006 18.4922 9.6127 19.6309 9.6127C21.9968 9.6127 23.8894 13.0772 23.8894 17.3328C23.8894 18.955 23.3552 19.8962 22.2484 19.8962C21.1876 19.8962 20.6809 19.1994 18.6667 15.976Z" fill="#FCF7F7"/>
</svg>
