<svg width="30" height="30" viewBox="0 0 30 30" fill="none" xmlns="http://www.w3.org/2000/svg">
<path d="M14.8462 23.171C14.7584 23.1705 14.6722 23.1473 14.5961 23.1035L13.7916 22.6274C13.6715 22.5599 13.7299 22.5365 13.7699 22.5224C13.8975 22.482 14.0195 22.426 14.1334 22.3556C14.1429 22.351 14.1534 22.349 14.1639 22.3498C14.1745 22.3505 14.1846 22.3539 14.1934 22.3598L14.8112 22.7266C14.8228 22.7325 14.8357 22.7355 14.8487 22.7355C14.8617 22.7355 14.8746 22.7325 14.8862 22.7266L17.2957 21.336C17.3069 21.3292 17.3162 21.3197 17.3226 21.3083C17.329 21.2969 17.3324 21.284 17.3324 21.2709V18.4913C17.3324 18.4779 17.329 18.4647 17.3224 18.453C17.3158 18.4413 17.3064 18.4315 17.2949 18.4246L14.8862 17.0348C14.875 17.0283 14.8622 17.0248 14.8491 17.0248C14.8361 17.0248 14.8233 17.0283 14.812 17.0348L12.4017 18.4246C12.3902 18.4313 12.3805 18.4409 12.3738 18.4524C12.3671 18.464 12.3635 18.4771 12.3634 18.4905V21.2709C12.3634 21.284 12.3669 21.2968 12.3735 21.3081C12.3801 21.3193 12.3896 21.3287 12.4009 21.3351L13.0604 21.7161C13.4189 21.8954 13.6373 21.6845 13.6373 21.4719V18.7281C13.6372 18.7189 13.6389 18.7098 13.6424 18.7013C13.6459 18.6928 13.6511 18.6851 13.6576 18.6786C13.6642 18.6721 13.6719 18.6671 13.6805 18.6637C13.689 18.6603 13.6982 18.6586 13.7073 18.6589H14.0125C14.0308 18.6589 14.0484 18.6662 14.0614 18.6791C14.0744 18.6921 14.0817 18.7097 14.0817 18.7281V21.4735C14.0944 21.5719 14.085 21.6719 14.0542 21.7662C14.0233 21.8605 13.9719 21.9467 13.9035 22.0186C13.8351 22.0905 13.7516 22.1462 13.6589 22.1817C13.5663 22.2172 13.4669 22.2316 13.368 22.2239C13.1724 22.2272 12.9798 22.1749 12.8128 22.073L12.1808 21.7086C12.1045 21.6635 12.0413 21.5992 11.9974 21.5222C11.9535 21.4451 11.9305 21.3579 11.9307 21.2693V18.4913C11.9302 18.4026 11.953 18.3153 11.9969 18.2381C12.0408 18.161 12.1042 18.0968 12.1808 18.0519L14.5928 16.6604C14.6705 16.618 14.7576 16.5957 14.8462 16.5957C14.9348 16.5957 15.0219 16.618 15.0997 16.6604L17.5083 18.0528C17.5847 18.0978 17.6479 18.1621 17.6918 18.2392C17.7357 18.3162 17.7587 18.4034 17.7584 18.4921V21.2726C17.7586 21.3613 17.7356 21.4485 17.6917 21.5255C17.6478 21.6026 17.5846 21.6668 17.5083 21.712L15.0997 23.1035C15.0236 23.1473 14.9374 23.1705 14.8495 23.171" fill="#FCF7F7"/>
<path d="M15.591 21.2562C14.5372 21.2562 14.3154 20.7726 14.3154 20.3666C14.3154 20.3574 14.3173 20.3484 14.3208 20.3399C14.3243 20.3315 14.3295 20.3238 14.336 20.3174C14.3425 20.3109 14.3502 20.3058 14.3587 20.3024C14.3672 20.299 14.3763 20.2973 14.3855 20.2974H14.6964C14.713 20.2976 14.7289 20.3036 14.7415 20.3145C14.754 20.3253 14.7622 20.3402 14.7648 20.3566C14.8115 20.6734 14.9516 20.8335 15.5894 20.8335C16.0971 20.8335 16.313 20.7184 16.313 20.4491C16.313 20.2941 16.2513 20.179 15.4626 20.1015C14.8032 20.0364 14.3955 19.8914 14.3955 19.3636C14.3955 18.8776 14.8057 18.5883 15.4927 18.5883C16.2638 18.5883 16.6465 18.8559 16.6949 19.4312C16.6957 19.4408 16.6945 19.4506 16.6913 19.4598C16.6882 19.4689 16.6831 19.4774 16.6765 19.4845C16.67 19.4915 16.6621 19.497 16.6534 19.5009C16.6447 19.5048 16.6352 19.5068 16.6257 19.507H16.313C16.2973 19.507 16.282 19.5016 16.2698 19.4918C16.2575 19.4819 16.2489 19.4682 16.2455 19.4528C16.1705 19.1193 15.9879 19.0126 15.4952 19.0126C14.9407 19.0126 14.8765 19.2052 14.8765 19.3503C14.8765 19.5262 14.9524 19.5771 15.7003 19.6763C16.4481 19.7755 16.7924 19.913 16.7924 20.4341C16.7924 20.9552 16.3547 21.2595 15.591 21.2595M18.5257 18.3106H18.6091C18.6193 18.312 18.6297 18.3111 18.6396 18.308C18.6494 18.3049 18.6584 18.2996 18.666 18.2926C18.6736 18.2856 18.6795 18.277 18.6833 18.2674C18.6872 18.2579 18.6889 18.2476 18.6883 18.2373C18.6883 18.1664 18.6391 18.1664 18.6125 18.1664H18.5291L18.5257 18.3106ZM18.4274 18.083H18.6066C18.6683 18.083 18.7884 18.083 18.7884 18.2206C18.7907 18.2503 18.7819 18.2797 18.7638 18.3033C18.7456 18.3269 18.7193 18.3429 18.69 18.3481C18.7617 18.3531 18.7667 18.3998 18.7734 18.4665C18.7761 18.5134 18.7854 18.5597 18.8009 18.6041H18.6908C18.6908 18.5799 18.6708 18.4474 18.6708 18.4374C18.6633 18.4082 18.6533 18.3932 18.6166 18.3932H18.5257V18.6016H18.4249L18.4274 18.083ZM18.2123 18.3423C18.2121 18.4194 18.2348 18.4948 18.2776 18.559C18.3204 18.6232 18.3812 18.6732 18.4524 18.7028C18.5237 18.7323 18.6021 18.7401 18.6777 18.725C18.7533 18.7099 18.8227 18.6727 18.8772 18.6182C18.9317 18.5636 18.9687 18.494 18.9836 18.4184C18.9985 18.3427 18.9906 18.2643 18.9609 18.1932C18.9312 18.122 18.8811 18.0613 18.8168 18.0187C18.7525 17.976 18.6771 17.9535 18.5999 17.9538C18.4972 17.9545 18.3988 17.9956 18.3262 18.0684C18.2537 18.1411 18.2127 18.2395 18.2123 18.3423ZM19.066 18.3423C19.066 18.4342 19.0388 18.5239 18.9877 18.6003C18.9367 18.6767 18.8642 18.7362 18.7793 18.7713C18.6945 18.8065 18.6011 18.8157 18.511 18.7978C18.4209 18.7798 18.3382 18.7356 18.2732 18.6707C18.2083 18.6057 18.1641 18.523 18.1462 18.4329C18.1282 18.3428 18.1374 18.2495 18.1726 18.1646C18.2077 18.0797 18.2673 18.0072 18.3436 17.9562C18.42 17.9052 18.5098 17.8779 18.6016 17.8779C18.7246 17.8784 18.8425 17.9274 18.9295 18.0144C19.0165 18.1014 19.0656 18.2193 19.066 18.3423Z" fill="#FCF7F7"/>
<path fill-rule="evenodd" clip-rule="evenodd" d="M7.38535 12.2923C7.38558 12.2379 7.37143 12.1844 7.34435 12.1373C7.31726 12.0901 7.27819 12.051 7.23111 12.0238L4.67657 10.5548C4.63391 10.5301 4.58578 10.5163 4.53651 10.5148H4.50983C4.4603 10.5164 4.41192 10.5301 4.36893 10.5548L1.8144 12.0246C1.76748 12.052 1.72855 12.0912 1.70149 12.1383C1.67443 12.1854 1.66018 12.2388 1.66016 12.2931L1.66599 16.2525C1.66572 16.2795 1.67269 16.3061 1.68618 16.3296C1.69967 16.353 1.71918 16.3725 1.7427 16.3858C1.76574 16.4001 1.7923 16.4076 1.8194 16.4076C1.84649 16.4076 1.87305 16.4001 1.8961 16.3858L3.41098 15.5154C3.45772 15.4881 3.49652 15.449 3.52357 15.4021C3.55061 15.3551 3.56497 15.302 3.56522 15.2478V13.3978C3.5652 13.3437 3.57944 13.2905 3.60652 13.2437C3.6336 13.1968 3.67256 13.158 3.71946 13.131L4.36559 12.7583C4.41242 12.731 4.46564 12.7167 4.51983 12.7166C4.57378 12.7165 4.62676 12.7309 4.67324 12.7583L5.31938 13.1302C5.36627 13.1571 5.40523 13.196 5.43231 13.2428C5.45939 13.2897 5.47364 13.3428 5.47361 13.3969V15.2461C5.47403 15.3004 5.48855 15.3536 5.51574 15.4005C5.54292 15.4474 5.58185 15.4864 5.62869 15.5138L7.14607 16.3825C7.1694 16.3964 7.19604 16.4037 7.22319 16.4037C7.25033 16.4037 7.27697 16.3964 7.30031 16.3825C7.32359 16.3689 7.34292 16.3494 7.35637 16.326C7.36982 16.3026 7.37694 16.2761 7.37701 16.2491L7.38535 12.2923ZM19.4393 14.3541C19.4394 14.3676 19.4359 14.3809 19.4291 14.3926C19.4224 14.4043 19.4127 14.414 19.401 14.4208L18.5239 14.9268C18.5122 14.9335 18.499 14.937 18.4856 14.937C18.4721 14.937 18.4589 14.9335 18.4472 14.9268L17.5693 14.4183C17.5576 14.4115 17.5479 14.4018 17.5412 14.3901C17.5344 14.3784 17.5309 14.3651 17.5309 14.3516V13.3411C17.531 13.3276 17.5345 13.3143 17.5413 13.3026C17.548 13.2909 17.5577 13.2812 17.5693 13.2744L18.4464 12.7675C18.4582 12.7607 18.4715 12.7571 18.4851 12.7571C18.4988 12.7571 18.5121 12.7607 18.5239 12.7675L19.4018 13.2744C19.4135 13.2811 19.4232 13.2909 19.43 13.3026C19.4367 13.3143 19.4402 13.3276 19.4402 13.3411L19.4393 14.3541ZM19.6761 6.85054C19.6526 6.83745 19.6261 6.83074 19.5992 6.83107C19.5723 6.83139 19.546 6.83875 19.5228 6.8524C19.4996 6.86605 19.4804 6.88553 19.4671 6.90889C19.4538 6.93226 19.4468 6.9587 19.4468 6.9856V10.9041C19.4474 10.9233 19.4428 10.9422 19.4335 10.959C19.4243 10.9758 19.4107 10.9898 19.3942 10.9996C19.3777 11.0094 19.3589 11.0146 19.3397 11.0147C19.3205 11.0147 19.3017 11.0097 19.2851 11L18.6448 10.6315C18.5979 10.6043 18.5447 10.59 18.4906 10.59C18.4364 10.59 18.3832 10.6043 18.3363 10.6315L15.7818 12.1055C15.7349 12.1325 15.6959 12.1714 15.6689 12.2182C15.6418 12.265 15.6275 12.3182 15.6276 12.3723V15.3229C15.6276 15.3769 15.6419 15.4301 15.669 15.4769C15.696 15.5237 15.7349 15.5626 15.7818 15.5896L18.3347 17.0653C18.3816 17.0922 18.4348 17.1064 18.4889 17.1064C18.543 17.1064 18.5962 17.0922 18.6431 17.0653L21.201 15.5855C21.2478 15.5584 21.2866 15.5195 21.3137 15.4727C21.3408 15.4258 21.3551 15.3728 21.3552 15.3187V7.9694C21.3551 7.91449 21.3404 7.86061 21.3125 7.81328C21.2847 7.76595 21.2448 7.72689 21.1968 7.7001L19.6761 6.85054ZM28.186 13.3144C28.2326 13.2873 28.2714 13.2483 28.2983 13.2015C28.3252 13.1547 28.3394 13.1016 28.3394 13.0476V12.3339C28.3394 12.2799 28.3252 12.2269 28.2983 12.1801C28.2714 12.1332 28.2326 12.0943 28.186 12.0672L25.6464 10.5915C25.5994 10.5642 25.5461 10.5499 25.4918 10.5499C25.4375 10.5499 25.3841 10.5642 25.3371 10.5915L22.7826 12.0663C22.7357 12.0933 22.6967 12.1322 22.6696 12.179C22.6426 12.2259 22.6283 12.279 22.6283 12.3331V15.282C22.6284 15.3365 22.6428 15.3901 22.6702 15.4372C22.6976 15.4843 22.7369 15.5234 22.7842 15.5505L25.3229 16.997C25.3691 17.0231 25.4212 17.0368 25.4743 17.0368C25.5273 17.0368 25.5794 17.0231 25.6256 16.997L27.1613 16.1432C27.1851 16.1298 27.2048 16.1103 27.2186 16.0867C27.2323 16.0631 27.2396 16.0363 27.2396 16.009C27.2396 15.9817 27.2323 15.9549 27.2186 15.9313C27.2048 15.9077 27.1851 15.8882 27.1613 15.8748L24.5876 14.4024C24.564 14.389 24.5445 14.3696 24.5308 14.3462C24.5172 14.3227 24.51 14.2961 24.5101 14.269V13.3444C24.51 13.3173 24.5172 13.2907 24.5308 13.2673C24.5445 13.2438 24.564 13.2244 24.5876 13.211L25.3871 12.75C25.4104 12.7364 25.4369 12.7293 25.4638 12.7293C25.4908 12.7293 25.5172 12.7364 25.5405 12.75L26.3409 13.211C26.3645 13.2244 26.3841 13.2438 26.3977 13.2673C26.4113 13.2907 26.4185 13.3173 26.4185 13.3444V14.0714C26.4184 14.0986 26.4256 14.1252 26.4392 14.1487C26.4527 14.1722 26.4722 14.1916 26.4958 14.2052C26.5193 14.2187 26.5459 14.2258 26.573 14.2257C26.6002 14.2257 26.6268 14.2185 26.6502 14.2048L28.186 13.3144Z" fill="#FCF7F7"/>
<path fill-rule="evenodd" clip-rule="evenodd" d="M25.4548 13.176C25.4638 13.1708 25.474 13.168 25.4844 13.168C25.4948 13.168 25.505 13.1708 25.514 13.176L26.0043 13.4587C26.0131 13.4639 26.0205 13.4713 26.0256 13.4802C26.0307 13.4891 26.0334 13.4992 26.0334 13.5095V14.0756C26.0334 14.0859 26.0307 14.096 26.0256 14.1049C26.0205 14.1138 26.0131 14.1213 26.0043 14.1265L25.514 14.4091C25.505 14.4144 25.4948 14.4172 25.4844 14.4172C25.474 14.4172 25.4638 14.4144 25.4548 14.4091L24.9646 14.1265C24.9556 14.1214 24.9481 14.114 24.9428 14.1051C24.9375 14.0961 24.9347 14.086 24.9346 14.0756V13.5095C24.9345 13.4992 24.9372 13.4891 24.9423 13.4802C24.9474 13.4712 24.9548 13.4638 24.9638 13.4587L25.4548 13.176Z" fill="#FCF7F7"/>
<mask id="mask0_432_3815" style="mask-type:luminance" maskUnits="userSpaceOnUse" x="8" y="10" width="7" height="8">
<path d="M11.3538 10.6055L8.81258 12.0721C8.7659 12.099 8.72715 12.1378 8.70022 12.1845C8.67329 12.2312 8.65914 12.2841 8.65918 12.338V15.2736C8.65914 15.3275 8.67329 15.3804 8.70022 15.4271C8.72715 15.4738 8.7659 15.5126 8.81258 15.5395L11.3538 17.0069C11.4004 17.0337 11.4533 17.0479 11.5072 17.0479C11.561 17.0479 11.6139 17.0337 11.6606 17.0069L14.201 15.5395C14.2476 15.5125 14.2863 15.4737 14.3132 15.4271C14.3401 15.3804 14.3543 15.3275 14.3543 15.2736V12.338C14.3544 12.2841 14.3402 12.2312 14.3133 12.1845C14.2864 12.1378 14.2476 12.099 14.201 12.0721L11.6606 10.6055C11.6138 10.5786 11.5608 10.5645 11.5068 10.5645C11.4528 10.5645 11.4006 10.5786 11.3538 10.6055Z" fill="white"/>
</mask>
<g mask="url(#mask0_432_3815)">
<path d="M16.9222 11.8236L9.76213 8.31445L6.09375 15.803L13.2529 19.313L16.9222 11.8236Z" fill="url(#paint0_linear_432_3815)"/>
</g>
<mask id="mask1_432_3815" style="mask-type:luminance" maskUnits="userSpaceOnUse" x="8" y="10" width="7" height="8">
<path d="M8.72363 15.4586C8.74799 15.4922 8.77891 15.5206 8.81452 15.542L10.9939 16.8009L11.3565 17.0093C11.4101 17.0401 11.4717 17.054 11.5333 17.0494C11.5536 17.0477 11.5737 17.0441 11.5933 17.0385L14.2729 12.1321C14.252 12.1096 14.2278 12.0905 14.2012 12.0753L12.5338 11.1149L11.6542 10.6088C11.628 10.5944 11.5999 10.5838 11.5708 10.5771L8.72363 15.4586Z" fill="white"/>
</mask>
<g mask="url(#mask1_432_3815)">
<path d="M5.62598 12.8607L10.6817 19.7031L17.3673 14.7633L12.3116 7.9209L5.62598 12.8607Z" fill="url(#paint1_linear_432_3815)"/>
</g>
<mask id="mask2_432_3815" style="mask-type:luminance" maskUnits="userSpaceOnUse" x="8" y="10" width="7" height="8">
<path d="M11.4766 10.5645C11.4334 10.5688 11.3917 10.5822 11.354 10.6036L8.82031 12.066L11.5524 17.0425C11.5909 17.0371 11.628 17.0244 11.6617 17.005L14.2028 15.5376C14.2412 15.5155 14.2743 15.4853 14.2999 15.4492C14.3255 15.4131 14.343 15.3719 14.3512 15.3284L11.5658 10.5703C11.5452 10.5663 11.5242 10.5643 11.5032 10.5645H11.4782" fill="white"/>
</mask>
<g mask="url(#mask2_432_3815)">
<path d="M8.82031 10.5645V17.0433H14.3496V10.5645H8.82031Z" fill="url(#paint2_linear_432_3815)"/>
</g>
<defs>
<linearGradient id="paint0_linear_432_3815" x1="-3.07792" y1="-3.058" x2="-2.98046" y2="-3.058" gradientUnits="userSpaceOnUse">
<stop offset="0.3" stop-color="#FCF7F7"/>
<stop offset="0.5" stop-color="#FCF7F7"/>
<stop offset="0.8" stop-color="#FCF7F7"/>
</linearGradient>
<linearGradient id="paint1_linear_432_3815" x1="-3.0861" y1="-3.06012" x2="-3.02739" y2="-3.06012" gradientUnits="userSpaceOnUse">
<stop offset="0.57" stop-color="#FCF7F7"/>
<stop offset="0.72" stop-color="#FCF7F7"/>
<stop offset="1" stop-color="#FCF7F7"/>
</linearGradient>
<linearGradient id="paint2_linear_432_3815" x1="-3.05653" y1="-3.06062" x2="-3.00123" y2="-3.06062" gradientUnits="userSpaceOnUse">
<stop offset="0.16" stop-color="#FCF7F7"/>
<stop offset="0.38" stop-color="#FCF7F7"/>
<stop offset="0.47" stop-color="#FCF7F7"/>
<stop offset="0.7" stop-color="#FCF7F7"/>
<stop offset="0.9" stop-color="#FCF7F7"/>
</linearGradient>
</defs>
</svg>
