<svg width="22" height="23" viewBox="0 0 22 23" fill="none" xmlns="http://www.w3.org/2000/svg">
<path d="M11.25 0.265625C13.82 0.307669 15.4683 1.62744 16.3984 2.72656C17.1997 3.67337 17.6344 4.62699 17.8076 5.1416C16.5054 5.00917 15.6191 5.2665 15.1699 5.9082C14.193 7.30471 15.7042 10.0155 16.4307 11.3184C16.5638 11.5569 16.6786 11.7638 16.7148 11.8516C16.9513 12.4246 17.2579 12.8076 17.4814 13.0869C17.5499 13.1724 17.6165 13.2557 17.667 13.3281C17.2725 13.4418 16.5636 13.7045 16.6279 15.0176C16.5758 15.6766 16.2057 18.7631 16.0176 19.8535C15.7692 21.2935 15.2391 21.8298 13.749 22.1494L13.4707 22.1982C12.1365 22.381 11.6348 21.6358 11.2969 20.791C11.0643 20.2088 10.9491 17.5846 11.0303 14.6875C11.0312 14.6492 11.0262 14.612 11.0156 14.5771C11.0061 14.508 10.9919 14.4391 10.9727 14.3721C10.852 13.9507 10.5576 13.5984 10.2051 13.4521C10.0649 13.3941 9.80705 13.2872 9.49805 13.3662C9.56397 13.0947 9.67882 12.788 9.80273 12.4561L9.85449 12.3164C9.91299 12.159 9.98685 11.9959 10.0645 11.8232C10.4842 10.8907 11.0585 9.61302 10.4346 6.72754C10.2008 5.64679 9.42038 5.11859 8.2373 5.24121C7.52822 5.31466 6.8793 5.60056 6.55566 5.76465C6.48618 5.79982 6.42267 5.8341 6.36328 5.86719C6.45367 4.77808 6.79473 2.74262 8.07129 1.45508C8.8751 0.644654 9.94586 0.244086 11.25 0.265625ZM9.41602 14.2305C9.64403 13.9752 9.74839 14.0182 9.9375 14.0967C10.091 14.1601 10.2411 14.3528 10.3018 14.5645C10.3304 14.6645 10.3621 14.8543 10.2568 15.002C9.36718 16.2475 8.07075 16.232 7.13965 15.999C6.948 15.9511 6.77507 15.8678 6.67383 15.7988C6.75839 15.7591 6.90897 15.7042 7.16992 15.6504C8.43269 15.3905 8.62779 15.2068 9.05371 14.666C9.15127 14.5421 9.26189 14.4015 9.41504 14.2305H9.41602ZM1.55371 1.04297C3.39106 -0.259833 6.41187 0.520442 7.62598 0.916016C7.60866 0.933126 7.59037 0.949395 7.57324 0.966797C5.58197 2.97799 5.62884 6.41405 5.63379 6.62598C5.63362 6.70698 5.64015 6.82197 5.64941 6.97949C5.68369 7.55759 5.74751 8.63341 5.57715 9.85156C5.41883 10.9837 5.76761 12.0925 6.53418 12.8926C6.61276 12.9744 6.69593 13.0523 6.78223 13.126C6.44096 13.4915 5.69969 14.3003 4.91016 15.25C4.35222 15.9209 3.9663 15.7934 3.83887 15.751C3.01223 15.4751 2.0527 13.7275 1.20703 10.957C0.475419 8.56012 0.0477494 6.14934 0.0136719 5.47266C-0.0931073 3.33469 0.424671 1.8437 1.55371 1.04297ZM18.1572 14.0107C18.7265 14.3865 19.7423 14.4267 21.1758 14.1309L21.1914 14.1279C20.998 14.3087 20.6672 14.5517 20.1982 14.7695C19.7948 14.9567 19.1197 15.0968 18.4785 15.127C17.7712 15.16 17.4107 15.0478 17.3252 14.9785C17.2855 14.1601 17.5897 14.0739 17.9121 13.9834C17.9627 13.9692 18.0119 13.9551 18.0596 13.9385C18.0891 13.9626 18.1217 13.9873 18.1572 14.0107ZM6.33398 6.72168C6.62508 6.4636 7.97387 5.74069 8.93555 5.96094C9.37432 6.0614 9.64173 6.3611 9.75293 6.875C10.3281 9.53565 9.82882 10.6449 9.42773 11.5361C9.34509 11.7197 9.26685 11.8937 9.2002 12.0732L9.14844 12.2119C9.01759 12.5628 8.89579 12.8894 8.82031 13.1992C8.16343 13.1972 7.52398 12.9163 7.03809 12.4092C6.42047 11.7643 6.14009 10.8673 6.26855 9.94824C6.44837 8.66159 6.38141 7.54079 6.3457 6.93848C6.34069 6.85429 6.33654 6.77987 6.33398 6.72168ZM16.2148 0.00195312C18.2348 0.0466217 19.8325 0.802498 20.9639 2.24805C21.8317 3.35703 20.8767 8.40354 18.1104 12.7568C18.0826 12.7215 18.0544 12.6855 18.0264 12.6504L17.9912 12.6064C18.7058 11.426 18.5668 10.2581 18.4424 9.22266C18.3913 8.7979 18.3422 8.39642 18.3545 8.01953C18.3672 7.62001 18.4206 7.27668 18.4717 6.94531C18.5344 6.537 18.5977 6.11424 18.5801 5.61621C18.5932 5.56398 18.5987 5.50191 18.5918 5.42871C18.5467 4.95078 18.0012 3.52052 16.8896 2.22656C16.2815 1.51883 15.3942 0.726541 14.1836 0.192383C14.7044 0.0844316 15.4174 -0.0157474 16.2148 0.00195312ZM15.7412 6.30859C15.9576 5.99954 16.5075 5.68146 17.8857 5.85254C17.88 6.19783 17.8316 6.51166 17.7812 6.83887C17.727 7.19081 17.6713 7.55539 17.6572 7.99707C17.6434 8.42675 17.6972 8.87362 17.749 9.30566C17.8539 10.1787 17.9616 11.078 17.5449 11.9648C17.4757 11.8422 17.4141 11.7151 17.3604 11.585C17.3085 11.4594 17.1957 11.2575 17.04 10.9785C16.434 9.89168 15.0151 7.34704 15.7412 6.30859ZM8.83008 6.32422C8.57629 6.2889 8.34578 6.32209 8.22949 6.41016C8.16442 6.45962 8.14415 6.51722 8.13867 6.55664C8.12439 6.661 8.19716 6.77628 8.24219 6.83594C8.36961 7.00483 8.556 7.12087 8.74023 7.14648C8.76694 7.15027 8.79389 7.15234 8.82031 7.15234C9.12751 7.15222 9.40703 6.91289 9.43164 6.73633C9.46232 6.51526 9.14137 6.36756 8.83008 6.32422ZM17.2373 6.33105C17.2128 6.1579 16.904 6.10872 16.6113 6.14941C16.319 6.19019 16.0359 6.32239 16.0596 6.49609C16.0789 6.63128 16.3228 6.86133 16.6113 6.86133C16.6356 6.86132 16.66 6.8599 16.6846 6.85645C16.8774 6.82974 17.0197 6.70727 17.0869 6.63672C17.1891 6.52919 17.2482 6.40894 17.2373 6.33105Z" fill="#FCF7F7"/>
</svg>
