<svg width="30" height="30" viewBox="0 0 30 30" fill="none" xmlns="http://www.w3.org/2000/svg">
<path d="M23.7525 12.6531C23.6267 11.7343 23.1238 10.9366 22.2162 10.2159L21.6914 9.8583L21.3415 10.392C20.8932 11.0797 20.6691 12.0369 20.7402 12.9557C20.773 13.2748 20.8768 13.858 21.1994 14.3586C20.8768 14.5402 20.2372 14.7822 19.3844 14.7657H3.09279L3.05998 14.9583C2.90691 15.8771 2.90691 18.7544 4.73834 20.9606C6.13242 22.6386 8.21534 23.4913 10.9379 23.4913C16.8422 23.4913 21.2049 20.724 23.255 15.6845C24.0586 15.701 25.7916 15.69 26.6828 13.957C26.7046 13.9185 26.7593 13.814 26.9124 13.4839L26.9998 13.3023L26.5024 12.9612C25.9557 12.6036 24.7147 12.4661 23.7525 12.6531ZM16.1206 6.50781H13.644V8.80199H16.1206V6.50781ZM16.1206 9.26412H13.644V11.5583H16.1206V9.26412ZM13.1903 9.26412H10.7137V11.5583H13.1903V9.26412ZM10.2655 9.26412H7.78891V11.5583H10.2655V9.26412ZM7.33516 12.0204H4.85862V14.3146H7.33516V12.0204ZM10.2655 12.0204H7.78891V14.3146H10.2655V12.0204ZM13.1903 12.0204H10.7137V14.3146H13.1903V12.0204ZM16.1206 12.0204H13.644V14.3146H16.1206V12.0204ZM19.0509 12.0204H16.5743V14.3146H19.0509V12.0204Z" fill="#FCF7F7"/>
</svg>
