<svg width="30" height="30" viewBox="0 0 30 30" fill="none" xmlns="http://www.w3.org/2000/svg">
<path d="M28.1289 10.4463C28.5834 10.2452 29.0888 10.5969 29.0889 11.0996V21.5059C29.0889 21.8075 28.9369 22.0586 28.6592 22.1592L16.8936 26.6836C16.4391 26.8847 15.9336 26.533 15.9336 26.0303V15.624C15.9336 15.3224 16.0856 15.0712 16.3633 14.9707L28.1289 10.4463ZM1.31445 10.5215C1.4912 10.4209 1.71905 10.3963 1.94629 10.4717L13.1318 14.8955C13.6868 15.0969 13.7368 15.9004 13.1562 16.1768L9.67188 17.835L9.67285 17.8359L9.31934 18.0127L1.97168 21.5312C1.51732 21.7574 0.911474 21.4309 0.911133 20.9033V11.125C0.911178 10.9301 1.00615 10.7825 1.12695 10.6592L1.11328 10.6475C1.18883 10.5973 1.264 10.5466 1.31445 10.5215ZM13.4854 3.55957C14.4448 3.15744 15.5308 3.15741 16.4902 3.55957L26.9932 7.88281C27.5991 8.13417 27.5739 8.9381 26.9932 9.18945L16.4395 13.3623C15.5052 13.7142 14.4948 13.7142 13.5605 13.3623L3.00684 9.18945C2.42615 8.93808 2.42614 8.13417 3.00684 7.88281L13.4854 3.55957Z" fill="#FCF7F7"/>
</svg>
