<svg width="30" height="30" viewBox="0 0 30 30" fill="none" xmlns="http://www.w3.org/2000/svg">
<path d="M25.5 9.61508C25.5 9.16893 25.2704 8.76893 24.8878 8.53816L15.6122 3.15355C15.2296 2.92278 14.7551 2.92278 14.3878 3.15355L5.11224 8.55355C4.72959 8.76893 4.5 9.18431 4.5 9.63047V20.3843C4.5 20.5997 4.56122 20.8151 4.66837 20.9997C4.77551 21.1843 4.92857 21.3382 5.12755 21.4459L14.4031 26.8305C14.7857 27.0612 15.2602 27.0612 15.6276 26.8305L24.9031 21.4459C25.2857 21.2305 25.5153 20.8151 25.5153 20.3689L25.5 9.61508ZM20.3571 10.9074V19.1382C20.3112 19.8305 19.7296 20.3535 19.0408 20.3074C19.0255 20.3074 19.0255 20.3074 19.0102 20.3074C18.3827 20.3228 17.801 20.0459 17.3878 19.5843L12.0306 13.1382V19.092C12.0306 19.7535 11.4949 20.292 10.8367 20.292C10.1786 20.292 9.64286 19.7535 9.64286 19.092V10.8612C9.68878 10.1689 10.2704 9.64585 10.9592 9.69201C10.9745 9.69201 10.9745 9.69201 10.9898 9.69201C11.6173 9.67662 12.199 9.95355 12.6122 10.4151L12.9796 10.8459L17.9694 16.8612V10.9074C17.9694 10.2459 18.5051 9.70739 19.1633 9.70739C19.8214 9.70739 20.3571 10.2459 20.3571 10.9074Z" fill="#FCF7F7"/>
</svg>
