<svg width="25" height="25" viewBox="0 0 25 25" fill="none" xmlns="http://www.w3.org/2000/svg">
<g clip-path="url(#clip0_428_3774)">
<path d="M2.69332 18.3973L3.5918 18.916L13.6012 1.57978L12.7027 1.06103L2.69332 18.3973Z" fill="#FCF7F7"/>
<path d="M22.5061 17.0127H2.4873V18.0502H22.5061V17.0127Z" fill="#FCF7F7"/>
<path d="M2.88336 17.5957L12.8965 23.377L13.4152 22.4785L3.40211 16.6972L2.88336 17.5957Z" fill="#FCF7F7"/>
<path d="M11.5826 2.52832L21.5957 8.30957L22.1145 7.4111L12.1013 1.62985L11.5826 2.52832Z" fill="#FCF7F7"/>
<path d="M2.88555 7.40719L3.4043 8.30566L13.4174 2.52441L12.8987 1.62594L2.88555 7.40719Z" fill="#FCF7F7"/>
<path d="M11.3998 1.57978L21.4092 18.916L22.3077 18.3973L12.2983 1.06103L11.3998 1.57978Z" fill="#FCF7F7"/>
<path d="M4.31875 6.71875H3.28125V18.2812H4.31875V6.71875Z" fill="#FCF7F7"/>
<path d="M21.7182 6.71875H20.6807V18.2812H21.7182V6.71875Z" fill="#FCF7F7"/>
<path d="M12.2666 22.1537L12.7197 22.9385L21.4284 17.9104L20.9753 17.1255L12.2666 22.1537Z" fill="#FCF7F7"/>
<path d="M23.093 18.6192C22.493 19.6629 21.1555 20.0192 20.1118 19.4192C19.068 18.8192 18.7118 17.4817 19.3118 16.4379C19.9118 15.3942 21.2493 15.0379 22.293 15.6379C23.343 16.2442 23.6993 17.5754 23.093 18.6192Z" fill="#FCF7F7"/>
<path d="M5.6809 8.56254C5.0809 9.60629 3.7434 9.96254 2.69965 9.36254C1.6559 8.76254 1.29965 7.42504 1.89965 6.38129C2.49965 5.33754 3.83715 4.98129 4.8809 5.58129C5.92465 6.18754 6.2809 7.51879 5.6809 8.56254Z" fill="#FCF7F7"/>
<path d="M1.90551 18.6192C1.30551 17.5754 1.66176 16.2442 2.70551 15.6379C3.74926 15.0379 5.08051 15.3942 5.68676 16.4379C6.28676 17.4817 5.93051 18.8129 4.88676 19.4192C3.83676 20.0192 2.50551 19.6629 1.90551 18.6192Z" fill="#FCF7F7"/>
<path d="M19.3186 8.56254C18.7186 7.51879 19.0748 6.18754 20.1186 5.58129C21.1623 4.98129 22.4936 5.33754 23.0998 6.38129C23.6998 7.42504 23.3436 8.75629 22.2998 9.36254C21.2561 9.96254 19.9186 9.60629 19.3186 8.56254Z" fill="#FCF7F7"/>
<path d="M12.4996 24.7375C11.2934 24.7375 10.3184 23.7625 10.3184 22.5562C10.3184 21.35 11.2934 20.375 12.4996 20.375C13.7059 20.375 14.6809 21.35 14.6809 22.5562C14.6809 23.7562 13.7059 24.7375 12.4996 24.7375Z" fill="#FCF7F7"/>
<path d="M12.4996 4.6252C11.2934 4.6252 10.3184 3.6502 10.3184 2.44395C10.3184 1.2377 11.2934 0.262695 12.4996 0.262695C13.7059 0.262695 14.6809 1.2377 14.6809 2.44395C14.6809 3.6502 13.7059 4.6252 12.4996 4.6252Z" fill="#FCF7F7"/>
</g>
<defs>
<clipPath id="clip0_428_3774">
<rect width="25" height="25" fill="white"/>
</clipPath>
</defs>
</svg>
