<svg width="30" height="30" viewBox="0 0 30 30" fill="none" xmlns="http://www.w3.org/2000/svg">
<path d="M24.2533 16.4536C23.3593 16.4583 22.5823 16.6758 21.9316 16.9973C21.6929 16.5198 21.4542 16.0943 21.4121 15.7822C21.3652 15.4181 21.3091 15.1959 21.3652 14.7609C21.4214 14.3259 21.6742 13.7066 21.6695 13.6593C21.6648 13.612 21.6133 13.3898 21.0984 13.385C20.5835 13.3803 20.1389 13.4843 20.0874 13.6215C20.0359 13.7586 19.9376 14.0706 19.872 14.3921C19.7831 14.865 18.8423 16.5529 18.304 17.4371C18.1308 17.0919 17.981 16.7893 17.9482 16.5482C17.9014 16.1841 17.8452 15.9619 17.9014 15.5269C17.9576 15.0919 18.2103 14.4725 18.2057 14.4252C18.201 14.378 18.1495 14.1557 17.6346 14.151C17.1197 14.1463 16.675 14.2503 16.6235 14.3874C16.572 14.5245 16.5159 14.846 16.4082 15.1581C16.3005 15.4702 15.0508 18.2881 14.7231 19.0163C14.5546 19.3898 14.4095 19.6877 14.3065 19.891C14.3065 19.891 14.3018 19.9052 14.2878 19.9288C14.1988 20.1037 14.1474 20.1983 14.1474 20.1983C14.1474 20.1983 14.1474 20.1983 14.1474 20.203C14.0771 20.3307 14.0022 20.4489 13.9648 20.4489C13.9367 20.4489 13.8852 20.1085 13.9742 19.6451C14.1614 18.6664 14.6061 17.1439 14.6014 17.0919C14.6014 17.0635 14.6857 16.7988 14.3112 16.6616C13.9461 16.5245 13.815 16.7515 13.7822 16.7515C13.7495 16.7515 13.7261 16.8319 13.7261 16.8319C13.7261 16.8319 14.1333 15.1203 12.9491 15.1203C12.2095 15.1203 11.189 15.9382 10.6835 16.6758C10.3652 16.8508 9.68649 17.2243 8.96096 17.6262C8.68479 17.7822 8.39926 17.9382 8.13245 18.0848C8.11372 18.0659 8.095 18.0423 8.07628 18.0234C6.64393 16.4773 3.99456 15.3851 4.1069 13.3094C4.14903 12.5529 4.40648 10.5671 9.195 8.15572C13.1363 6.19354 16.2725 6.73728 16.8154 7.94295C17.5925 9.664 15.135 12.8602 11.0627 13.3236C9.50862 13.4985 8.69415 12.8933 8.48819 12.6664C8.27287 12.43 8.24011 12.4158 8.16053 12.4631C8.02947 12.534 8.11372 12.7467 8.16053 12.8697C8.28223 13.1912 8.78309 13.7586 9.63032 14.0375C10.3793 14.2834 12.2001 14.4205 14.4048 13.56C16.8716 12.5954 18.8001 9.91459 18.2337 7.66872C17.6674 5.38976 13.9227 4.63798 10.3793 5.90985C8.27287 6.66635 5.98861 7.85785 4.34563 9.40868C2.39371 11.2527 2.08477 12.8555 2.21116 13.5269C2.6652 15.9099 5.9184 17.4607 7.21968 18.6096C7.15415 18.6475 7.09329 18.6806 7.0418 18.7089C6.39117 19.0352 3.91031 20.3449 3.29243 21.7302C2.5903 23.3 3.40477 24.4253 3.94307 24.5766C5.61414 25.0446 7.33202 24.203 8.25415 22.813C9.17628 21.4229 9.06394 19.6167 8.63798 18.7893C8.6333 18.7799 8.62862 18.7704 8.61925 18.7609C8.78777 18.6617 8.96096 18.5576 9.12947 18.4583C9.46181 18.2598 9.78947 18.0754 10.0703 17.9241C9.91117 18.3638 9.79415 18.8886 9.73798 19.6451C9.66777 20.534 10.0282 21.6877 10.501 22.1416C10.7116 22.3401 10.9597 22.3449 11.1188 22.3449C11.6712 22.3449 11.9193 21.8815 12.1954 21.3331C12.5325 20.6617 12.8367 19.8815 12.8367 19.8815C12.8367 19.8815 12.4576 21.9903 13.4874 21.9903C13.8618 21.9903 14.241 21.4985 14.4095 21.2479C14.4095 21.2527 14.4095 21.2527 14.4095 21.2527C14.4095 21.2527 14.4188 21.2385 14.4376 21.2054C14.475 21.1439 14.4984 21.1061 14.4984 21.1061C14.4984 21.1061 14.4984 21.1014 14.4984 21.0966C14.6482 20.8319 14.9852 20.2314 15.4861 19.2338C16.132 17.9477 16.7546 16.3401 16.7546 16.3401C16.7546 16.3401 16.8108 16.7326 17.0027 17.3851C17.115 17.768 17.3491 18.1888 17.5363 18.5955C17.3865 18.8082 17.2929 18.9264 17.2929 18.9264C17.2929 18.9264 17.2929 18.9264 17.2976 18.9312C17.1759 19.0919 17.0448 19.2669 16.8997 19.4371C16.3895 20.0517 15.781 20.7562 15.6967 20.9595C15.5984 21.2007 15.6218 21.3756 15.8091 21.5175C15.9448 21.6215 16.1882 21.6357 16.4363 21.6215C16.895 21.5884 17.218 21.4749 17.3771 21.404C17.6252 21.3141 17.9154 21.177 18.1869 20.9737C18.6878 20.6002 18.992 20.0659 18.964 19.3614C18.9499 18.9737 18.8235 18.586 18.6691 18.2219C18.7159 18.1557 18.758 18.0895 18.8048 18.0234C19.5959 16.8555 20.2091 15.5742 20.2091 15.5742C20.2091 15.5742 20.2652 15.9666 20.4572 16.6191C20.5508 16.9501 20.7427 17.3094 20.9112 17.6593C20.1669 18.2692 19.7082 18.9784 19.5444 19.4418C19.2495 20.3023 19.4789 20.69 19.9142 20.7799C20.1108 20.8224 20.3916 20.7279 20.5976 20.638C20.8597 20.5529 21.1686 20.4063 21.4635 20.1888C21.9644 19.8153 22.4465 19.2952 22.4184 18.5907C22.4044 18.2692 22.3201 17.9524 22.2031 17.6451C22.835 17.3803 23.6495 17.2338 24.6887 17.3567C26.9167 17.6215 27.3567 19.0257 27.2725 19.6167C27.1882 20.2078 26.7202 20.5293 26.5657 20.6286C26.4112 20.7279 26.3597 20.7609 26.3738 20.8319C26.3925 20.9359 26.4674 20.9312 26.5984 20.9122C26.781 20.8792 27.7687 20.4347 27.8108 19.3472C27.881 17.9572 26.5704 16.4394 24.2533 16.4536ZM7.06521 22.3071C6.32563 23.1203 5.29584 23.4276 4.85116 23.1676C4.37371 22.8886 4.56095 21.6877 5.46904 20.8271C6.02138 20.3023 6.73287 19.8153 7.20564 19.5174C7.31329 19.4513 7.47244 19.3567 7.66436 19.2385C7.69713 19.2196 7.71585 19.2101 7.71585 19.2101C7.7533 19.1865 7.79074 19.1628 7.82819 19.1392C8.16053 20.3685 7.84223 21.4513 7.06521 22.3071ZM12.4482 18.6096C12.1908 19.2432 11.6525 20.865 11.3248 20.7751C11.0439 20.6995 10.8708 19.4702 11.2686 18.255C11.4699 17.6451 11.8959 16.917 12.1439 16.6333C12.5465 16.1794 12.9912 16.0281 13.0988 16.2125C13.2346 16.4536 12.6073 18.2125 12.4482 18.6096ZM16.8903 20.7562C16.7827 20.813 16.6797 20.8508 16.6329 20.8224C16.6001 20.8035 16.6797 20.7279 16.6797 20.7279C16.6797 20.7279 17.2367 20.1226 17.4567 19.8484C17.5831 19.6877 17.7329 19.4985 17.892 19.2858C17.892 19.3047 17.892 19.3283 17.892 19.3472C17.892 20.0706 17.1993 20.5576 16.8903 20.7562ZM20.3167 19.9666C20.2372 19.9099 20.2512 19.7208 20.518 19.1297C20.621 18.8981 20.8644 18.5104 21.281 18.1368C21.3278 18.2881 21.3606 18.4347 21.3559 18.5718C21.3512 19.4843 20.7052 19.8248 20.3167 19.9666Z" fill="#FCF7F7"/>
</svg>
