<svg width="30" height="30" viewBox="0 0 30 30" fill="none" xmlns="http://www.w3.org/2000/svg">
<path d="M14.0381 22.2111V19.5983H11.3423C9.91375 19.5983 8.73931 20.7799 8.73928 22.2583C8.73928 23.7285 9.92882 24.9184 11.3654 24.9184C12.8275 24.9184 14.0381 23.7074 14.0381 22.2111ZM21.2597 14.9998C21.2597 13.5214 20.0851 12.3395 18.6565 12.3395L18.5651 12.3396H18.564C17.1354 12.3397 15.9609 13.5214 15.9609 14.9998L15.9617 15.0689C15.9976 16.5148 17.1578 17.66 18.564 17.66H18.6565C20.0851 17.66 21.2597 16.4782 21.2597 14.9998ZM8.73928 14.9998C8.73931 16.4782 9.91379 17.66 11.3423 17.66H14.0381V12.3395H11.3423C9.9138 12.3395 8.73928 13.5214 8.73928 14.9998ZM21.2597 7.74102C21.2597 6.26264 20.0851 5.08084 18.6565 5.08084H15.9609V10.4012H18.6565C20.0851 10.4012 21.2597 9.21941 21.2597 7.74102ZM8.73928 7.74102C8.73928 9.21939 9.91377 10.4012 11.3423 10.4012H14.0381V5.08084H11.3423C9.91377 5.08087 8.73928 6.26266 8.73928 7.74102ZM23.1826 7.74102C23.1826 9.21251 22.5001 10.5273 21.4359 11.3703C22.5002 12.2134 23.1826 13.5283 23.1826 14.9998C23.1826 17.5302 21.1652 19.5983 18.6565 19.5983H18.564C17.5931 19.5983 16.6962 19.2882 15.9609 18.7618V22.2111C15.9609 24.7757 13.8916 26.8567 11.3654 26.8567C8.86471 26.8567 6.81641 24.7968 6.81641 22.2583C6.81642 20.7869 7.49847 19.4719 8.56258 18.6289C7.49854 17.7859 6.81643 16.4711 6.81641 14.9998C6.81641 13.5284 7.49858 12.2134 8.56277 11.3703C7.49861 10.5273 6.81641 9.21243 6.81641 7.74102C6.81641 5.21059 8.83362 3.14261 11.3423 3.14258H18.6565C21.1652 3.14258 23.1826 5.21057 23.1826 7.74102Z" fill="#FCF7F7"/>
</svg>
