<svg width="30" height="30" viewBox="0 0 30 30" fill="none" xmlns="http://www.w3.org/2000/svg">
<path d="M4.78613 6.2549L6.70098 27.1717L14.9995 29.4248L23.298 27.1717L25.2134 6.2549H4.78613ZM21.1004 13.0339L14.9922 15.6672L14.9782 15.6734H20.8848L20.2091 23.5064L15.0019 25.039L14.9922 25.0359L9.76548 23.4782L9.42796 19.5334H12.0081L12.1775 21.5764L14.9641 22.2859L14.9684 22.2846L14.9733 22.2859L14.9922 22.2803L17.8727 21.4634L18.0701 18.1709L9.25859 18.1427V18.139L9.0618 15.6734H9.05266L15.3388 13.0339H8.82724L8.51775 10.508H21.3539L21.1004 13.0339ZM12.0916 3.18175V4.42502H8.93873V0.574219H12.0916V1.93665H10.29V3.18175H12.0916ZM15.3321 1.93665H16.5914V0.574219H13.4386V1.93665C13.8602 2.36172 14.0801 2.56565 14.6906 3.18053C14.3342 3.18053 13.4386 3.18175 13.4386 3.18175V4.4244H16.5914V3.18114L15.3321 1.93603V1.93665ZM19.8015 1.93665H21.0608V0.574219H17.9074V1.93665C18.329 2.36172 18.5495 2.56565 19.1594 3.18053C18.803 3.18053 17.9074 3.18175 17.9074 3.18175V4.4244H21.0608V3.18114L19.8015 1.93603V1.93665Z" fill="#FCF7F7"/>
</svg>
