<svg width="30" height="30" viewBox="0 0 30 30" fill="none" xmlns="http://www.w3.org/2000/svg">
<path d="M22.7402 3.37695C25.087 3.37716 26.9842 5.2644 26.9844 7.59863V22.4004C26.9844 24.7347 25.0871 26.6219 22.7402 26.6221H7.25977C4.91277 26.6221 3.01562 24.7349 3.01562 22.4004V7.59863C3.01575 5.26427 4.91285 3.37695 7.25977 3.37695H22.7402ZM20.2031 11.751C19.4941 11.751 18.9049 11.8602 18.4355 12.0986C18.0061 12.2973 17.6364 12.6153 17.3867 13.0127C17.1672 13.38 17.047 13.787 17.0469 14.2139C17.0369 14.5615 17.1166 14.9097 17.2764 15.2275C17.4661 15.5653 17.7265 15.8537 18.0361 16.0723C18.4755 16.3702 18.9449 16.6083 19.4541 16.7871C19.9433 16.9758 20.2727 17.1248 20.4326 17.2539C20.5924 17.383 20.6728 17.5123 20.6729 17.6514C20.6729 17.8302 20.5621 17.9988 20.4023 18.0684C20.2226 18.1577 19.9534 18.208 19.5742 18.208C19.1748 18.208 18.775 18.1579 18.3955 18.0586C17.9562 17.9593 17.5466 17.8007 17.1572 17.5723C17.1273 17.5524 17.0973 17.5426 17.0674 17.5625C17.0375 17.5823 17.0274 17.6216 17.0273 17.6514V19.3799C17.0174 19.4592 17.067 19.5286 17.1367 19.5684C17.4562 19.7173 17.8059 19.8271 18.1553 19.8867C18.6046 19.9761 19.0544 20.0156 19.5137 20.0156C20.2325 20.0156 20.832 19.9067 21.3213 19.6982C21.7707 19.5194 22.1608 19.2108 22.4404 18.8135C22.7 18.4261 22.8401 17.959 22.8301 17.4922C22.84 17.1347 22.7593 16.7875 22.5996 16.4697C22.4099 16.132 22.1401 15.8531 21.8105 15.6445C21.3314 15.3467 20.8124 15.0987 20.2734 14.9199C20.0337 14.8206 19.7932 14.711 19.5635 14.5918C19.4338 14.5223 19.3144 14.4324 19.2246 14.3232C19.1648 14.2438 19.1241 14.1548 19.124 14.0654C19.124 13.976 19.1542 13.8763 19.2041 13.7969C19.274 13.6976 19.384 13.6285 19.5137 13.5986C19.7034 13.549 19.9135 13.5194 20.1133 13.5293C20.4927 13.5293 20.862 13.5788 21.2314 13.6582C21.571 13.7277 21.8908 13.8372 22.1904 13.9961C22.2303 14.0159 22.2804 14.0159 22.3701 13.9961C22.4001 13.9762 22.4199 13.9362 22.4199 13.8965V12.2773C22.4199 12.2377 22.4104 12.1979 22.4004 12.1582C22.3805 12.1186 22.3406 12.0784 22.3008 12.0684C22.0311 11.9591 21.741 11.8796 21.4414 11.8398C21.032 11.7803 20.6125 11.751 20.2031 11.751ZM10.6953 9.29688C10.3857 9.30681 10.0958 9.30745 9.82617 9.31738C9.55661 9.32731 9.307 9.32698 9.06738 9.33691C8.83768 9.34685 8.67759 9.34668 8.50781 9.34668C8.43809 9.34678 8.4082 9.3866 8.4082 9.45605V19.6777C8.4082 19.7671 8.44842 19.8066 8.52832 19.8066H10.4658C10.5356 19.7966 10.5852 19.7374 10.5752 19.668V16.4795C10.765 16.4795 10.905 16.4793 11.0049 16.4893C11.1047 16.4992 11.2644 16.499 11.5039 16.499C12.3228 16.499 13.0719 16.4094 13.751 16.1611C14.4001 15.9227 14.9599 15.5055 15.3594 14.9492C15.7587 14.3931 15.9589 13.688 15.959 12.834C15.959 12.387 15.8783 11.9592 15.7285 11.542C15.5687 11.1149 15.3195 10.727 15 10.4092C14.6205 10.0417 14.1604 9.76359 13.6611 9.59473C13.102 9.38625 12.4231 9.28714 11.6045 9.28711C11.3049 9.28711 11.0049 9.28694 10.6953 9.29688ZM11.6738 11.2441C12.0833 11.2342 12.483 11.2934 12.8525 11.4424C13.1421 11.5516 13.382 11.7505 13.5518 12.0088C13.7116 12.277 13.7912 12.5856 13.7812 12.8936C13.7812 13.3303 13.6813 13.6678 13.4717 13.916C13.252 14.1644 12.9719 14.353 12.6523 14.4424C12.2829 14.5615 11.8933 14.6221 11.5039 14.6221H10.9746C10.8548 14.6221 10.7247 14.6115 10.585 14.6016V11.2637C10.6549 11.2537 10.7954 11.244 10.9951 11.2539C11.1848 11.244 11.4143 11.2441 11.6738 11.2441Z" fill="#FCF7F7"/>
</svg>
