<svg width="20" height="20" viewBox="0 0 20 20" fill="none" xmlns="http://www.w3.org/2000/svg">
<path d="M10 0C15.5228 0 20 4.47715 20 10C20 15.5228 15.5228 20 10 20C4.47715 20 0 15.5228 0 10C0 4.47715 4.47715 0 10 0ZM10.0205 4.00391C10.0023 4.25096 9.99335 4.34649 9.75977 4.5957C9.39805 4.87851 7.54166 6.43547 7.39062 9.60254C7.24986 12.5553 9.523 14.3155 9.83203 14.541L9.86719 14.5664L9.92578 15.0117C9.95835 15.2768 9.99862 15.6313 10.0322 15.9961H10.2734C10.33 15.4808 10.4148 14.969 10.5273 14.4629L10.5469 14.4502C10.6844 14.3516 10.8155 14.2441 10.9395 14.1289L10.9531 14.1162C11.607 13.5121 12.783 12.1145 12.7715 9.88672C12.769 9.51517 12.736 9.14446 12.6729 8.77832C12.0412 5.99062 10.5484 5.07383 10.3877 4.72363C10.2137 4.47901 10.0377 4.04568 10.0342 4.03711C10.0312 4.02969 10.026 4.0166 10.0205 4.00391ZM10.1436 8.73145C10.2501 8.73766 10.3875 14.0663 10.3877 14.0752C10.198 14.0512 10.0068 13.1951 10.0068 12.873C10.0068 12.827 10.0076 8.73067 10.1436 8.73145Z" fill="#FCF7F7"/>
</svg>
