<svg width="32" height="32" viewBox="0 0 32 32" fill="none" xmlns="http://www.w3.org/2000/svg">
<path d="M11.1213 15.0809C10.7578 14.6806 10.2125 14.717 9.95798 15.1901L4.06868 26.9808C3.85056 27.4539 4.17775 27.9998 4.6867 27.9998H12.8663C13.1208 27.9998 13.3752 27.8542 13.4843 27.5995C15.302 23.9604 14.2114 18.3925 11.1213 15.0809Z" fill="url(#paint0_linear_432_3882)"/>
<path d="M15.4471 4.38211C12.1752 9.58605 12.3934 15.3723 14.5382 19.7028C16.7194 24.0334 18.3554 27.3813 18.5008 27.5997C18.6098 27.8544 18.8643 28 19.1188 28H27.2984C27.8073 28 28.1709 27.4541 27.9164 26.981C27.9164 26.981 16.9012 4.92798 16.6104 4.38211C16.3923 3.87263 15.7379 3.87263 15.4471 4.38211Z" fill="#FCF7F7"/>
<defs>
<linearGradient id="paint0_linear_432_3882" x1="14.3387" y1="16.9048" x2="8.12239" y2="27.6607" gradientUnits="userSpaceOnUse">
<stop stop-color="#FCF7F7" stop-opacity="0.4"/>
<stop offset="0.9228" stop-color="#FCF7F7"/>
</linearGradient>
</defs>
</svg>
