<svg width="30" height="30" viewBox="0 0 30 30" fill="none" xmlns="http://www.w3.org/2000/svg">
<path fill-rule="evenodd" clip-rule="evenodd" d="M6.83536 2.14355L14.2564 8.88953V8.88799V2.15912H15.701V8.91972L23.1553 2.14355V9.83497H26.2158V20.9291H23.1647V27.7779L15.701 21.3082V27.8522H14.2564V21.4149L6.84377 27.8565V20.9291H3.7832V9.83497H6.83536V2.14355ZM13.1674 11.2428H5.22779V19.5212H6.84196V16.9099L13.1674 11.2428ZM8.28828 17.5346V24.7149L14.2564 19.5287V12.1863L8.28828 17.5346ZM15.7426 19.4601V12.1794L21.7125 17.528V20.9291H21.7201V24.6416L15.7426 19.4601ZM23.1647 19.5212H24.7712V11.2428H16.8908L23.1647 16.8513V19.5212ZM21.7107 9.83497V5.38194L16.812 9.83497H21.7107ZM13.1786 9.83497H8.27995V5.38194L13.1786 9.83497Z" fill="#FCF7F7"/>
</svg>
