<svg width="30" height="30" viewBox="0 0 30 30" fill="none" xmlns="http://www.w3.org/2000/svg">
<path d="M22.75 3.5C25.1 3.5 27 5.36791 27 7.67773V22.3223C27 24.6321 25.1 26.5 22.75 26.5H7.25C4.9 26.5 3 24.6321 3 22.3223V7.67773C3 5.36791 4.9 3.5 7.25 3.5H22.75ZM19.0098 11.8945C18.9198 11.8945 18.8799 11.9339 18.8799 12.0322V19.6006C18.88 19.6986 18.9296 19.7577 19.0293 19.7578H20.9893C21.0792 19.7578 21.12 19.7085 21.1201 19.6006V12.0322C21.1201 11.9438 21.0793 11.8945 20.9893 11.8945H19.0098ZM11.3994 9.34863C11.3495 9.35858 11.3094 9.40797 11.3193 9.45703C11.3193 9.67316 11.2997 9.8894 11.2598 10.0957C11.2198 10.2136 11.1892 10.3217 11.1592 10.4199L7.93945 19.5312C7.90945 19.6492 7.9398 19.708 8.0498 19.708H9.92969C10.0197 19.7178 10.1001 19.6588 10.1201 19.5703L10.8799 17.2607H14.5996L15.4199 19.6006C15.4401 19.6692 15.5102 19.7178 15.5801 19.708H17.6699C17.7697 19.7079 17.7995 19.6588 17.7695 19.5508L14.1201 9.42676C14.11 9.37782 14.0691 9.34863 13.9893 9.34863H11.3994ZM12.7197 11.167C12.7897 11.4029 12.8595 11.6584 12.9395 11.9336C13.0195 12.2186 13.11 12.5039 13.21 12.8086C13.3099 13.1132 13.4 13.4083 13.5 13.7129C13.5899 14.0075 13.6796 14.2924 13.7695 14.5576C13.8595 14.8132 13.94 15.0592 14 15.2656H11.46C11.6099 14.8529 11.7594 14.3908 11.8994 13.8896C12.0594 13.3982 12.2094 12.9064 12.3594 12.4346C12.4993 12.012 12.6092 11.5895 12.6992 11.167H12.7197ZM20.0195 8.60156C19.6897 8.60159 19.3698 8.71943 19.1299 8.94531C18.8899 9.17137 18.7595 9.48615 18.7695 9.82031C18.7595 10.1544 18.8795 10.4789 19.1094 10.7246C19.3494 10.9507 19.67 11.0782 20 11.0684C20.3398 11.0879 20.6793 10.9603 20.9092 10.7246C21.1492 10.4789 21.2698 10.1545 21.2598 9.82031C21.2697 9.49597 21.1497 9.1812 20.9297 8.94531C20.7097 8.71933 20.4095 8.60156 20.0195 8.60156Z" fill="#FCF7F7"/>
</svg>
