<svg width="30" height="30" viewBox="0 0 30 30" fill="none" xmlns="http://www.w3.org/2000/svg">
<path d="M11.5227 7.70344C8.1767 7.09444 5.5317 7.73244 4.4777 9.55744C3.6907 10.9204 3.9157 12.7264 5.0227 14.6574C5.0451 14.6968 5.07503 14.7314 5.11079 14.7593C5.14655 14.7871 5.18744 14.8076 5.23113 14.8196C5.27482 14.8317 5.32045 14.835 5.36542 14.8294C5.41039 14.8237 5.45381 14.8093 5.4932 14.7869C5.5326 14.7646 5.5672 14.7346 5.59503 14.6989C5.62286 14.6631 5.64337 14.6222 5.6554 14.5785C5.66742 14.5348 5.67073 14.4892 5.66512 14.4442C5.65951 14.3993 5.6451 14.3558 5.62271 14.3164C4.62271 12.5774 4.4307 11.0164 5.0767 9.90044C5.9527 8.38344 8.3117 7.81444 11.4047 8.37844C11.449 8.38652 11.4945 8.38579 11.5385 8.37629C11.5826 8.36679 11.6243 8.3487 11.6614 8.32307C11.6984 8.29744 11.7301 8.26477 11.7545 8.22691C11.7789 8.18906 11.7956 8.14676 11.8037 8.10244C11.8118 8.05812 11.811 8.01264 11.8015 7.9686C11.792 7.92457 11.774 7.88283 11.7483 7.84578C11.7227 7.80873 11.69 7.77709 11.6522 7.75267C11.6143 7.72825 11.572 7.71151 11.5277 7.70344H11.5227ZM6.7627 17.0034C8.25232 18.6019 9.97718 19.9635 11.8777 21.0414C16.7307 23.8414 21.8977 24.5924 24.4437 22.8564C24.4817 22.8314 24.5143 22.7991 24.5397 22.7614C24.5651 22.7236 24.5827 22.6812 24.5915 22.6366C24.6004 22.5919 24.6002 22.546 24.5911 22.5014C24.5821 22.4569 24.5642 22.4146 24.5386 22.377C24.513 22.3394 24.4802 22.3072 24.442 22.2824C24.4039 22.2576 24.3612 22.2407 24.3165 22.2325C24.2717 22.2244 24.2258 22.2252 24.1814 22.235C24.1369 22.2448 24.0949 22.2633 24.0577 22.2894C21.7787 23.8434 16.8707 23.1324 12.2217 20.4474C10.3827 19.4047 8.71349 18.0876 7.27171 16.5414C7.24137 16.5081 7.20476 16.481 7.16397 16.4618C7.12318 16.4426 7.079 16.4316 7.03397 16.4295C6.98893 16.4274 6.94392 16.4341 6.90149 16.4494C6.85906 16.4646 6.82006 16.4881 6.7867 16.5184C6.75335 16.5488 6.7263 16.5854 6.70709 16.6262C6.68788 16.667 6.67689 16.7111 6.67476 16.7562C6.67262 16.8012 6.67938 16.8462 6.69464 16.8887C6.7099 16.9311 6.73337 16.9701 6.76371 17.0034H6.7627Z" fill="#FCF7F7"/>
<path d="M23.6305 16.589C25.8215 14.001 26.5865 11.398 25.5305 9.57605C24.7565 8.23505 23.1195 7.52705 20.9445 7.49905C20.8535 7.49786 20.7658 7.53285 20.7006 7.59633C20.6355 7.65981 20.5982 7.74658 20.597 7.83755C20.5958 7.92852 20.6308 8.01624 20.6943 8.0814C20.7577 8.14657 20.8445 8.18386 20.9355 8.18505C22.8915 8.21005 24.3015 8.82005 24.9355 9.91905C25.8095 11.4331 25.1275 13.754 23.1025 16.146C23.0437 16.2155 23.015 16.3055 23.0226 16.3962C23.0302 16.4869 23.0735 16.5708 23.143 16.6296C23.2125 16.6883 23.3024 16.717 23.3931 16.7094C23.4838 16.7018 23.5677 16.6585 23.6265 16.589H23.6305ZM18.0005 7.81805C15.8503 8.30638 13.7883 9.12366 11.8875 10.241C6.87748 13.134 3.60948 17.399 4.06348 20.491C4.07004 20.5356 4.08533 20.5785 4.10845 20.6172C4.13158 20.6558 4.1621 20.6896 4.19827 20.7165C4.23444 20.7434 4.27555 20.7628 4.31925 20.7738C4.36295 20.7848 4.40839 20.7871 4.45298 20.7805C4.49756 20.774 4.54042 20.7587 4.57909 20.7356C4.61777 20.7124 4.65151 20.6819 4.6784 20.6458C4.70528 20.6096 4.72477 20.5685 4.73577 20.5248C4.74676 20.4811 4.74904 20.4356 4.74248 20.3911C4.34248 17.6451 7.43748 13.6021 12.2305 10.8351C14.0695 9.75377 16.0643 8.96247 18.1445 8.48905C18.2335 8.46996 18.3112 8.41629 18.3606 8.33987C18.41 8.26345 18.4271 8.17053 18.408 8.08155C18.3889 7.99257 18.3352 7.91482 18.2588 7.8654C18.1824 7.81599 18.0895 7.79896 18.0005 7.81805Z" fill="#FCF7F7"/>
<path d="M9.88345 22.6346C11.0295 25.8346 12.9025 27.8016 15.0105 27.8016C16.5475 27.8016 17.9685 26.7546 19.0775 24.9096C19.1007 24.871 19.1161 24.8282 19.1228 24.7836C19.1295 24.739 19.1274 24.6936 19.1165 24.6499C19.1056 24.6061 19.0863 24.565 19.0595 24.5287C19.0327 24.4925 18.9991 24.4618 18.9605 24.4386C18.9218 24.4153 18.879 24.3999 18.8345 24.3932C18.7899 24.3865 18.7445 24.3887 18.7007 24.3995C18.657 24.4104 18.6158 24.4298 18.5796 24.4566C18.5433 24.4833 18.5127 24.517 18.4895 24.5556C17.4895 26.2126 16.2685 27.1146 15.0105 27.1146C13.2605 27.1146 11.5885 25.3576 10.5305 22.4016C10.4998 22.3159 10.4364 22.2459 10.3542 22.207C10.2719 22.1681 10.1776 22.1635 10.092 22.1941C10.0063 22.2247 9.9363 22.2881 9.89739 22.3704C9.85847 22.4526 9.85382 22.5469 9.88445 22.6326L9.88345 22.6346ZM20.3495 22.0086C20.9692 19.9467 21.2763 17.8035 21.2605 15.6506C21.2605 9.96759 19.2715 5.06759 16.4375 3.80959C16.3961 3.79028 16.3514 3.77941 16.3058 3.77761C16.2602 3.77581 16.2147 3.78312 16.172 3.79911C16.1293 3.81511 16.0902 3.83946 16.057 3.87074C16.0238 3.90203 15.9972 3.93962 15.9787 3.98132C15.9602 4.02301 15.9502 4.06798 15.9493 4.11359C15.9484 4.15919 15.9566 4.20451 15.9735 4.24691C15.9903 4.2893 16.0154 4.32791 16.0474 4.36048C16.0793 4.39305 16.1174 4.41892 16.1595 4.43659C18.6865 5.55859 20.5745 10.2086 20.5745 15.6506C20.59 17.7343 20.2933 19.8087 19.6945 21.8046C19.6783 21.8484 19.6712 21.8951 19.6736 21.9417C19.6761 21.9884 19.6881 22.034 19.7088 22.0759C19.7296 22.1177 19.7587 22.1549 19.7943 22.1851C19.8299 22.2153 19.8713 22.2379 19.916 22.2516C19.9607 22.2652 20.0077 22.2696 20.0541 22.2644C20.1005 22.2593 20.1454 22.2447 20.186 22.2215C20.2266 22.1984 20.262 22.1672 20.2901 22.1299C20.3182 22.0926 20.3384 22.05 20.3495 22.0046V22.0086ZM26.8105 21.6726C26.8105 21.3478 26.7142 21.0304 26.5337 20.7603C26.3533 20.4903 26.0969 20.2799 25.7968 20.1556C25.4968 20.0313 25.1666 19.9988 24.8481 20.0621C24.5296 20.1255 24.237 20.2819 24.0074 20.5115C23.7777 20.7412 23.6214 21.0337 23.558 21.3522C23.4946 21.6708 23.5272 22.0009 23.6514 22.301C23.7757 22.601 23.9862 22.8574 24.2562 23.0379C24.5262 23.2183 24.8437 23.3146 25.1685 23.3146C25.6039 23.3146 26.0216 23.1416 26.3295 22.8337C26.6375 22.5257 26.8105 22.1081 26.8105 21.6726ZM26.1245 21.6726C26.1245 21.8617 26.0684 22.0465 25.9633 22.2037C25.8583 22.3609 25.709 22.4835 25.5343 22.5558C25.3596 22.6282 25.1674 22.6471 24.9819 22.6102C24.7965 22.5733 24.6262 22.4823 24.4925 22.3486C24.3588 22.2149 24.2677 22.0445 24.2308 21.8591C24.1939 21.6736 24.2129 21.4814 24.2852 21.3067C24.3576 21.1321 24.4801 20.9827 24.6373 20.8777C24.7945 20.7727 24.9794 20.7166 25.1685 20.7166C25.422 20.7166 25.6652 20.8173 25.8444 20.9966C26.0237 21.1759 26.1245 21.419 26.1245 21.6726ZM4.83145 23.3146C5.15625 23.3146 5.47376 23.2183 5.7438 23.0378C6.01385 22.8573 6.22431 22.6008 6.34856 22.3007C6.47281 22.0006 6.50527 21.6704 6.44183 21.3519C6.37839 21.0333 6.22191 20.7408 5.99217 20.5112C5.76243 20.2816 5.46976 20.1253 5.15118 20.062C4.8326 19.9988 4.50241 20.0314 4.20239 20.1559C3.90238 20.2803 3.646 20.4909 3.46569 20.7611C3.28539 21.0312 3.18926 21.3488 3.18945 21.6736C3.18945 22.1091 3.36245 22.5267 3.67038 22.8347C3.97832 23.1426 4.39597 23.3146 4.83145 23.3146ZM4.83145 22.6286C4.64237 22.6286 4.45754 22.5725 4.30033 22.4675C4.14311 22.3624 4.02058 22.2131 3.94822 22.0384C3.87587 21.8637 3.85694 21.6715 3.89382 21.4861C3.93071 21.3006 4.02176 21.1303 4.15546 20.9966C4.28916 20.8629 4.4595 20.7718 4.64495 20.735C4.83039 20.6981 5.02261 20.717 5.1973 20.7894C5.37198 20.8617 5.52129 20.9842 5.62634 21.1415C5.73139 21.2987 5.78745 21.4835 5.78745 21.6726C5.78745 21.9261 5.68673 22.1693 5.50745 22.3486C5.32816 22.5279 5.085 22.6286 4.83145 22.6286Z" fill="#FCF7F7"/>
<path d="M15.01 5.4842C15.3899 5.48423 15.7581 5.35254 16.0517 5.11156C16.3454 4.87059 16.5464 4.53524 16.6206 4.16266C16.6947 3.79008 16.6374 3.40332 16.4583 3.06827C16.2793 2.73323 15.9896 2.47063 15.6386 2.32523C15.2877 2.17983 14.8972 2.16062 14.5336 2.27087C14.1701 2.38112 13.856 2.61401 13.645 2.92986C13.4339 3.24571 13.3389 3.62498 13.3761 4.00304C13.4133 4.3811 13.5804 4.73456 13.849 5.0032C14.1569 5.31114 14.5746 5.48416 15.01 5.4842ZM15.01 4.7982C14.8049 4.79823 14.6052 4.7323 14.4405 4.61014C14.2757 4.48797 14.1546 4.31606 14.0951 4.11979C14.0355 3.92351 14.0406 3.71329 14.1097 3.52017C14.1788 3.32704 14.3082 3.16126 14.4787 3.04731C14.6493 2.93336 14.852 2.87728 15.0568 2.88735C15.2617 2.89742 15.4579 2.97312 15.6164 3.10325C15.7749 3.23339 15.8874 3.41106 15.9373 3.61003C15.9871 3.809 15.9716 4.01871 15.893 4.2082C15.8207 4.38282 15.6982 4.53207 15.541 4.63708C15.3838 4.7421 15.1991 4.79816 15.01 4.7982ZM15.261 16.8122C15.0314 16.8654 14.7912 16.8491 14.5709 16.7653C14.3506 16.6816 14.1602 16.5342 14.0239 16.3419C13.8875 16.1497 13.8115 15.9212 13.8054 15.6856C13.7993 15.45 13.8634 15.2179 13.9895 15.0189C14.1157 14.8198 14.2982 14.6628 14.5139 14.5677C14.7296 14.4727 14.9686 14.4439 15.2007 14.4851C15.4327 14.5263 15.6473 14.6356 15.817 14.7991C15.9868 14.9626 16.1041 15.1729 16.154 15.4032C16.2199 15.7083 16.1632 16.027 15.9961 16.2906C15.829 16.5542 15.565 16.7415 15.261 16.8122Z" fill="#FCF7F7"/>
</svg>
