<svg width="30" height="30" viewBox="0 0 30 30" fill="none" xmlns="http://www.w3.org/2000/svg">
<path d="M5.21693 23.7119H8.82663V14.7598L3.66992 10.7811V22.1267C3.66992 22.997 4.36759 23.7119 5.21693 23.7119Z" fill="#FCF7F7"/>
<path d="M21.1724 23.7119H24.7821C25.6314 23.7119 26.3291 22.997 26.3291 22.1267V10.7811L21.1724 14.7288" fill="#FCF7F7"/>
<path d="M21.1724 7.89037V14.7598L26.3291 10.8122V8.66746C26.3291 6.7092 24.1451 5.59019 22.6284 6.77136" fill="#FCF7F7"/>
<path d="M8.82663 14.7598V7.89037L15.0147 12.6462L21.1724 7.89037V14.7598L14.9843 19.4845" fill="#FCF7F7"/>
<path d="M3.66992 8.66746V10.7811L8.82663 14.7288V7.89037L7.37062 6.77136C5.85394 5.62127 3.66992 6.74028 3.66992 8.66746Z" fill="#FCF7F7"/>
</svg>
