<svg width="30" height="30" viewBox="0 0 30 30" fill="none" xmlns="http://www.w3.org/2000/svg">
<path fill-rule="evenodd" clip-rule="evenodd" d="M24.3935 13.7266C23.2263 13.7266 22.2455 12.9147 21.9675 11.8161H19.0964C18.4842 11.8161 17.9617 12.2662 17.8611 12.8804L17.758 13.5086C17.6603 14.105 17.3636 14.624 16.944 15.0003C17.3636 15.3766 17.6603 15.8956 17.758 16.492L17.8611 17.1203C17.9617 17.7344 18.4842 18.1846 19.0964 18.1846H19.4625C19.7406 17.0859 20.7214 16.274 21.8886 16.274C23.272 16.274 24.3935 17.4145 24.3935 18.8214C24.3935 20.2283 23.272 21.3688 21.8886 21.3688C20.7214 21.3688 19.7406 20.5569 19.4625 19.4582H19.0964C17.8719 19.4582 16.8269 18.558 16.6256 17.3297L16.5226 16.7014C16.422 16.0873 15.8995 15.6372 15.2872 15.6372H14.2949C14.0168 16.7358 13.036 17.5477 11.8688 17.5477C10.7016 17.5477 9.72085 16.7358 9.4428 15.6372H8.03253C7.75448 16.7358 6.77369 17.5477 5.6065 17.5477C4.22306 17.5477 3.10156 16.4072 3.10156 15.0003C3.10156 13.5934 4.22306 12.4529 5.6065 12.4529C6.77369 12.4529 7.75448 13.2648 8.03253 14.3635H9.4428C9.72085 13.2648 10.7016 12.4529 11.8688 12.4529C13.036 12.4529 14.0168 13.2648 14.2949 14.3635H15.2872C15.8995 14.3635 16.422 13.9133 16.5226 13.2992L16.6256 12.6709C16.8269 11.4427 17.8719 10.5424 19.0964 10.5424H21.9675C22.2455 9.44371 23.2263 8.63184 24.3935 8.63184C25.777 8.63184 26.8984 9.77232 26.8984 11.1792C26.8984 12.5861 25.777 13.7266 24.3935 13.7266ZM24.3935 12.4529C25.0852 12.4529 25.646 11.8826 25.646 11.1792C25.646 10.4758 25.0852 9.90553 24.3935 9.90553C23.7018 9.90553 23.141 10.4758 23.141 11.1792C23.141 11.8826 23.7018 12.4529 24.3935 12.4529ZM5.6065 16.274C6.29817 16.274 6.85896 15.7037 6.85896 15.0003C6.85896 14.2969 6.29817 13.7266 5.6065 13.7266C4.91478 13.7266 4.35403 14.2969 4.35403 15.0003C4.35403 15.7037 4.91478 16.274 5.6065 16.274ZM13.1213 15.0003C13.1213 15.7037 12.5605 16.274 11.8688 16.274C11.1772 16.274 10.6164 15.7037 10.6164 15.0003C10.6164 14.2969 11.1772 13.7266 11.8688 13.7266C12.5605 13.7266 13.1213 14.2969 13.1213 15.0003ZM23.141 18.8214C23.141 19.5248 22.5802 20.0951 21.8886 20.0951C21.1969 20.0951 20.6361 19.5248 20.6361 18.8214C20.6361 18.118 21.1969 17.5477 21.8886 17.5477C22.5802 17.5477 23.141 18.118 23.141 18.8214Z" fill="#FCF7F7"/>
</svg>
