<svg width="30" height="30" viewBox="0 0 30 30" fill="none" xmlns="http://www.w3.org/2000/svg">
<path d="M27.0431 6.08169L26.1734 20.4166L17.8578 1.62012L27.0431 6.08169ZM21.2834 24.6175L15.0001 28.3805L8.7167 24.6175L9.99467 21.3667H20.0055L21.2834 24.6175ZM15.0001 8.75497L18.2926 17.1566H11.7075L15.0001 8.75497ZM3.81786 20.4166L2.95703 6.08169L12.1424 1.62012L3.81786 20.4166Z" fill="#FCF7F7"/>
<path d="M27.0431 6.08169L26.1734 20.4166L17.8578 1.62012L27.0431 6.08169ZM21.2834 24.6175L15.0001 28.3805L8.7167 24.6175L9.99467 21.3667H20.0055L21.2834 24.6175ZM15.0001 8.75497L18.2926 17.1566H11.7075L15.0001 8.75497ZM3.81786 20.4166L2.95703 6.08169L12.1424 1.62012L3.81786 20.4166Z" fill="#FCF7F7"/>
</svg>
