<svg width="30" height="30" viewBox="0 0 30 30" fill="none" xmlns="http://www.w3.org/2000/svg">
<path d="M12.252 15.5586C13.4561 15.5587 14.4395 16.5429 14.4395 17.7471V23.2246C14.4395 24.4287 13.4561 25.413 12.252 25.4131C11.0477 25.4131 10.0635 24.4288 10.0635 23.2246V17.7471C10.0635 16.5429 11.0477 15.5586 12.252 15.5586ZM17.7471 21.0371C18.9511 21.0373 19.9346 22.0205 19.9346 23.2246C19.9346 24.4287 18.9511 25.4119 17.7471 25.4121C16.5429 25.4121 15.5586 24.4288 15.5586 23.2246V21.0371H17.7471ZM8.96191 17.7471C8.96173 18.9511 7.97754 19.9346 6.77344 19.9346C5.56953 19.9343 4.58612 18.951 4.58594 17.7471C4.58594 16.543 5.56942 15.5588 6.77344 15.5586H8.96191V17.7471ZM23.2246 15.5586C24.4288 15.5586 25.4131 16.5429 25.4131 17.7471C25.4129 18.9511 24.4287 19.9346 23.2246 19.9346H17.7471C16.543 19.9346 15.5588 18.9511 15.5586 17.7471C15.5586 16.5429 16.5429 15.5586 17.7471 15.5586H23.2246ZM12.252 10.0654C13.4562 10.0654 14.4404 11.0487 14.4404 12.2529C14.4404 13.4571 13.4562 14.4404 12.252 14.4404H6.77344C5.56944 14.4402 4.58596 13.457 4.58594 12.2529C4.58594 11.0489 5.56942 10.0657 6.77344 10.0654H12.252ZM17.7471 4.58594C18.951 4.58612 19.9343 5.56953 19.9346 6.77344V12.252C19.9346 13.4561 18.9511 14.4402 17.7471 14.4404C16.5429 14.4404 15.5586 13.4562 15.5586 12.252V6.77344C15.5588 5.56942 16.543 4.58594 17.7471 4.58594ZM23.2246 10.0645C24.4288 10.0645 25.4121 11.0487 25.4121 12.2529C25.4121 13.4571 24.4288 14.4404 23.2246 14.4404H21.0371V12.2529C21.0371 11.0487 22.0204 10.0645 23.2246 10.0645ZM12.252 4.58594C13.4561 4.58606 14.4395 5.57028 14.4395 6.77441V8.96191H12.252C11.0479 8.96191 10.0637 7.97841 10.0635 6.77441C10.0635 5.5702 11.0477 4.58594 12.252 4.58594Z" fill="#FCF7F7"/>
</svg>
