<svg width="30" height="30" viewBox="0 0 30 30" fill="none" xmlns="http://www.w3.org/2000/svg">
<path d="M15.3496 16.2754L13.958 17.9795H12.5977L14.6709 15.4434L15.3496 16.2754ZM15.7119 14.1719L17.46 12.0332L18.8164 12.0312L16.3906 15.002L18.8203 17.9746H17.46L12.6016 12.0264H13.958L15.7119 14.1719ZM6.12402 17.9268V12.0244H11.3496V12.9746H7.16113V14.5029H10.5293V15.4531H7.16113V17.0225H11.3496V17.9727L6.12402 17.9717H4.8584L1.03613 13.293V17.9697H0V12.0215H1.2959L6.12402 17.9268ZM25.1689 12.9746H23.0957V17.9727H22.0596V12.9746H19.9434V12.0244H25.1689V12.9746ZM29.0449 15.3965C29.2261 15.3965 29.3845 15.427 29.5215 15.4883C29.6582 15.5489 29.7659 15.6328 29.8438 15.7402C29.9217 15.8479 29.9627 15.9717 29.9648 16.1113H29.5195C29.5083 16.006 29.4593 15.9238 29.374 15.8652C29.2877 15.806 29.1759 15.7764 29.0391 15.7764C28.943 15.7764 28.8598 15.7905 28.791 15.8184C28.7222 15.847 28.6684 15.8852 28.6318 15.9336C28.5954 15.982 28.5776 16.0376 28.5762 16.0996C28.5762 16.1513 28.5887 16.196 28.6133 16.2334C28.6379 16.2716 28.671 16.3042 28.7139 16.3301C28.7557 16.3564 28.8026 16.3779 28.8535 16.3955C28.9054 16.4132 28.9579 16.4282 29.0098 16.4404L29.249 16.499C29.3453 16.5208 29.4392 16.5494 29.5283 16.5869C29.6173 16.6237 29.6978 16.6711 29.7686 16.7275C29.8395 16.7841 29.8961 16.8529 29.9375 16.9326C29.9788 17.0123 30 17.1054 30 17.2129C30 17.3579 29.9622 17.4854 29.8857 17.5957C29.8092 17.7054 29.6984 17.7915 29.5537 17.8535C29.4098 17.9148 29.2361 17.9463 29.0312 17.9463C28.8332 17.9463 28.66 17.9164 28.5146 17.8564C28.3688 17.7972 28.255 17.7101 28.1729 17.5957C28.0907 17.4812 28.0464 17.341 28.04 17.1768H28.4951C28.5014 17.2626 28.5294 17.3346 28.5771 17.3926C28.6256 17.4498 28.6894 17.4919 28.7666 17.5205C28.8444 17.5484 28.9313 17.5625 29.0273 17.5625C29.1278 17.5625 29.2164 17.5479 29.293 17.5186C29.3688 17.4893 29.4288 17.4486 29.4717 17.3955C29.5152 17.3431 29.5364 17.2807 29.5371 17.21C29.5364 17.1452 29.5164 17.0911 29.4785 17.0488C29.4399 17.0067 29.3864 16.971 29.3184 16.9424C29.2498 16.9139 29.1701 16.8877 29.0791 16.8652L28.7881 16.793C28.5781 16.7405 28.4116 16.6607 28.29 16.5537C28.168 16.4467 28.1074 16.3048 28.1074 16.127C28.1075 15.9812 28.1483 15.8528 28.2305 15.7432C28.3118 15.6336 28.4235 15.5489 28.5645 15.4883C28.7063 15.4269 28.8666 15.3965 29.0449 15.3965ZM27.6299 17.1729C27.6292 17.3328 27.594 17.4699 27.5254 17.585C27.4559 17.7002 27.3589 17.7886 27.2354 17.8506C27.1126 17.9118 26.9681 17.9434 26.8047 17.9434C26.6553 17.9433 26.5216 17.916 26.4023 17.8643C26.283 17.8125 26.1877 17.7351 26.1182 17.6328C26.0479 17.5306 26.0137 17.4027 26.0137 17.25H26.4736C26.4743 17.3168 26.4901 17.3754 26.5195 17.4238C26.549 17.472 26.5898 17.5083 26.6416 17.5342C26.6941 17.56 26.7544 17.5732 26.8223 17.5732C26.896 17.5732 26.9595 17.558 27.0107 17.5273C27.062 17.4974 27.1015 17.4525 27.1289 17.3926C27.1555 17.3334 27.1692 17.2599 27.1699 17.1729V15.4297H27.6299V17.1729ZM25.4014 17.4053C25.4744 17.4053 25.5387 17.4316 25.5928 17.4834C25.6474 17.5351 25.675 17.5969 25.6758 17.6689C25.675 17.718 25.662 17.7635 25.6367 17.8037C25.6108 17.8445 25.5775 17.8763 25.5361 17.8994C25.4954 17.9232 25.4504 17.9355 25.4014 17.9355C25.3256 17.9355 25.261 17.9092 25.207 17.8574C25.1531 17.8057 25.1263 17.7431 25.127 17.6689C25.1263 17.5968 25.1532 17.5351 25.207 17.4834C25.261 17.4317 25.3256 17.4053 25.4014 17.4053Z" fill="#FCF7F7"/>
</svg>
