<svg width="30" height="30" viewBox="0 0 30 30" fill="none" xmlns="http://www.w3.org/2000/svg">
<mask id="mask0_432_3837" style="mask-type:alpha" maskUnits="userSpaceOnUse" x="3" y="3" width="24" height="24">
<path d="M26.4521 15.538C26.454 14.6088 26.169 13.7017 25.6361 12.9404C25.1032 12.1792 24.3484 11.601 23.4746 11.2847C23.5533 10.8796 23.5919 10.4677 23.5897 10.055C23.5891 8.68717 23.1545 7.35481 22.3485 6.24965C21.5406 5.14356 20.4058 4.31914 19.1041 3.89275C17.802 3.47302 16.4002 3.4773 15.1006 3.90497C13.801 4.33265 12.6707 5.16167 11.8723 6.27267C11.2838 5.81316 10.5612 5.55881 9.81469 5.54844C9.25674 5.54165 8.70551 5.67077 8.20861 5.92465C7.71171 6.17853 7.28408 6.54954 6.96263 7.00564C6.64118 7.46175 6.43558 7.98925 6.36358 8.54258C6.29158 9.09592 6.35534 9.65846 6.54937 10.1816C5.67204 10.5028 4.91391 11.0845 4.37667 11.8488C3.83699 12.6121 3.54771 13.5242 3.54883 14.459C3.5508 15.3916 3.83543 16.3016 4.36516 17.0692C4.90304 17.8303 5.66135 18.4081 6.53785 18.7249C6.45916 19.13 6.4206 19.5419 6.42273 19.9546C6.42138 21.3221 6.8543 22.6548 7.65907 23.7604C8.46385 24.8661 9.5989 25.6876 10.9006 26.1067C12.2024 26.5257 13.6036 26.5206 14.9022 26.0921C16.2009 25.6636 17.3299 24.8338 18.1266 23.7223C18.7159 24.1819 19.4393 24.4364 20.1865 24.4468C20.9338 24.4572 21.664 24.2229 22.2658 23.7798C22.8671 23.3376 23.3103 22.7139 23.5301 22.0006C23.7491 21.2849 23.7248 20.5169 23.461 19.8164C24.3376 19.4967 25.0957 18.9169 25.6337 18.1545C26.1535 17.3821 26.4371 16.4752 26.45 15.5443" fill="white"/>
</mask>
<g mask="url(#mask0_432_3837)">
<path d="M12.5418 13.4132L17.5539 15.701L22.612 11.2635C22.6816 10.8957 22.7166 10.5222 22.7166 10.1479C22.7136 8.93953 22.3266 7.76341 21.6115 6.78941C20.8985 5.81602 19.8907 5.09849 18.7375 4.74335C17.5848 4.3885 16.3491 4.40866 15.2085 4.80092C14.069 5.19547 13.086 5.94484 12.4037 6.93907L11.5664 11.296L12.5418 13.4132Z" fill="#FCF7F7"/>
<path d="M7.34462 18.7232C7.27157 19.0946 7.23303 19.4719 7.22949 19.8504C7.23236 21.0618 7.6189 22.2412 8.33364 23.2193C8.87335 23.947 9.57931 24.535 10.3926 24.9343C11.2058 25.3335 12.1028 25.5324 13.0086 25.5144C13.9144 25.4964 14.8027 25.2619 15.5995 24.8306C16.3962 24.3993 17.0782 23.7837 17.5885 23.0351L18.4258 18.6897L17.3122 16.5652L12.2772 14.2627L7.34462 18.7232Z" fill="#FCF7F7"/>
<path d="M7.32145 10.0436L10.7595 10.8599L11.5067 6.95098C11.0412 6.59481 10.4717 6.40106 9.88557 6.39942C9.29911 6.3982 8.72739 6.58327 8.2529 6.92795C7.77953 7.27499 7.43241 7.76708 7.26429 8.32945C7.09617 8.89181 7.11623 9.4937 7.32145 10.0436Z" fill="#FCF7F7"/>
<path d="M7.02367 10.8604C6.46549 11.0458 5.95805 11.3584 5.54145 11.7736C5.12486 12.1888 4.81051 12.6952 4.62323 13.2528C4.43596 13.8103 4.38088 14.4038 4.46236 14.9863C4.54385 15.5688 4.75965 16.1244 5.09274 16.6092C5.53051 17.2396 6.14738 17.7241 6.86355 18.0001L11.6778 13.6432L10.7924 11.7457L7.02367 10.8604Z" fill="#FCF7F7"/>
<path d="M18.4736 23.0469C18.939 23.4016 19.5069 23.5956 20.092 23.5998C20.6771 23.6039 21.2477 23.418 21.718 23.0699C22.1899 22.7215 22.5365 22.2299 22.7062 21.6684C22.8759 21.107 22.8597 20.5057 22.6599 19.9542L19.2219 19.1494L18.4736 23.0469Z" fill="#FCF7F7"/>
<path d="M19.1744 18.2524L22.9568 19.1378C23.5149 18.9524 24.0224 18.6397 24.439 18.2245C24.8556 17.8093 25.1699 17.3029 25.3572 16.7453C25.5445 16.1878 25.5995 15.5943 25.5181 15.0118C25.4366 14.4293 25.2208 13.8737 24.8877 13.3889C24.45 12.7585 23.8331 12.274 23.1169 11.998L18.1729 16.3319L19.1744 18.2524Z" fill="#FCF7F7"/>
</g>
</svg>
