<svg width="30" height="30" viewBox="0 0 30 30" fill="none" xmlns="http://www.w3.org/2000/svg">
<path d="M15 12.2275C16.5307 12.2275 17.7714 13.4684 17.7715 14.9991C17.7713 16.5296 16.5306 17.7706 15 17.7706C13.4695 17.7705 12.2287 16.5296 12.2285 14.9991C12.2286 13.4684 13.4694 12.2277 15 12.2275Z" fill="#FCF7F7"/>
<path fill-rule="evenodd" clip-rule="evenodd" d="M18.8022 4.05308C19.6639 3.77434 20.5245 3.75525 21.25 4.17409C21.9753 4.59297 22.3896 5.34792 22.579 6.23336C22.7683 7.11886 22.7491 8.19602 22.5599 9.37747C22.4866 9.83483 22.3854 10.3125 22.2605 10.8062C22.751 10.945 23.2147 11.0983 23.6479 11.2637C24.7659 11.6906 25.709 12.212 26.3812 12.8188C27.0532 13.4255 27.4999 14.1616 27.5 14.9991C27.4998 15.8364 27.0531 16.5727 26.3812 17.1794C25.7089 17.7861 24.7659 18.3086 23.6479 18.7355C23.2149 18.9008 22.7508 19.0521 22.2605 19.1909C22.3855 19.6849 22.4865 20.163 22.5599 20.6207C22.7491 21.8023 22.7684 22.8803 22.579 23.7658C22.3895 24.6511 21.9752 25.4064 21.25 25.8251C20.5247 26.2437 19.6636 26.2247 18.8022 25.9461C17.9407 25.6674 17.0177 25.1118 16.0891 24.3571C15.7294 24.0648 15.3653 23.7389 15 23.3837C14.6346 23.739 14.2706 24.0648 13.9109 24.3571C12.9823 25.1118 12.0594 25.6674 11.1978 25.9461C10.3364 26.2248 9.47531 26.2436 8.75 25.8251C8.02478 25.4064 7.61053 24.6511 7.42103 23.7658C7.23162 22.8803 7.25086 21.8023 7.44013 20.6207C7.51346 20.163 7.61344 19.6849 7.73841 19.1909C7.24849 19.0522 6.7848 18.9007 6.35211 18.7355C5.23412 18.3086 4.29106 17.7861 3.6188 17.1794C2.94686 16.5727 2.50018 15.8364 2.5 14.9991C2.50011 14.1616 2.9468 13.4255 3.6188 12.8188C4.29105 12.212 5.23407 11.6906 6.35211 11.2637C6.78498 11.0985 7.24826 10.945 7.73841 10.8062C7.61357 10.3126 7.51341 9.83475 7.44013 9.37747C7.25085 8.19598 7.23173 7.11888 7.42103 6.23336C7.61042 5.34788 8.02468 4.59296 8.75 4.17409C9.47544 3.75529 10.3362 3.77434 11.1978 4.05308C12.0594 4.33189 12.9822 4.88735 13.9109 5.64212C14.2705 5.93436 14.6348 6.25933 15 6.61444C15.3652 6.25933 15.7295 5.93436 16.0891 5.64212C17.0178 4.8873 17.9406 4.33187 18.8022 4.05308ZM21.2065 19.4584C20.1784 19.691 19.0579 19.8658 17.8734 19.9753C17.1861 20.9468 16.4737 21.8303 15.7579 22.6046C16.1008 22.9379 16.4409 23.2419 16.7748 23.5132C17.6432 24.2189 18.4474 24.6893 19.1366 24.9122C19.8258 25.1352 20.3403 25.0949 20.7065 24.8836C21.0727 24.6721 21.3638 24.2459 21.5154 23.5376C21.6668 22.8293 21.6626 21.8973 21.4856 20.7926C21.4176 20.368 21.3237 19.9218 21.2065 19.4584ZM8.79246 19.4584C8.67525 19.9218 8.58134 20.368 8.51329 20.7926C8.33636 21.8973 8.33217 22.8293 8.48357 23.5376C8.63515 24.2459 8.92726 24.6721 9.29348 24.8836C9.65973 25.0948 10.1743 25.1341 10.8634 24.9112C11.5526 24.6881 12.357 24.2188 13.2252 23.5132C13.5589 23.242 13.8983 22.9378 14.241 22.6046C13.5253 21.8303 12.8128 20.9468 12.1255 19.9753C10.941 19.8658 9.82051 19.691 8.79246 19.4584ZM16.4542 20.074C15.9769 20.0957 15.4916 20.108 15 20.108C14.5077 20.108 14.0217 20.0958 13.5436 20.074C14.0243 20.7084 14.5134 21.2929 15 21.8223C15.4863 21.2932 15.9739 20.708 16.4542 20.074ZM15 10.9771C14.2207 10.9771 13.4605 11.006 12.7263 11.061C12.3116 11.6693 11.9069 12.3138 11.5173 12.9886C11.1278 13.6633 10.772 14.3359 10.4526 14.9991C10.7721 15.6624 11.1277 16.3358 11.5173 17.0106C11.9066 17.6848 12.312 18.3282 12.7263 18.9361C13.4606 18.9911 14.2207 19.021 15 19.021C15.7789 19.021 16.5387 18.991 17.2726 18.9361C17.6871 18.3281 18.0933 17.685 18.4827 17.0106C18.8722 16.3361 19.2259 15.6621 19.5453 14.9991C19.226 14.3362 18.8721 13.663 18.4827 12.9886C18.093 12.3137 17.6874 11.6694 17.2726 11.061C16.5387 11.0061 15.7789 10.9771 15 10.9771ZM20.1216 16.275C19.9016 16.6997 19.6703 17.1279 19.4243 17.5541C19.1782 17.9802 18.923 18.3942 18.6653 18.7971C19.4553 18.698 20.2062 18.5674 20.9082 18.4107C20.693 17.7244 20.4308 17.0086 20.1216 16.275ZM9.87729 16.275C9.56815 17.0085 9.30594 17.7244 9.09074 18.4107C9.79209 18.5673 10.5423 18.6969 11.3315 18.796C11.0743 18.3938 10.8214 17.9794 10.5757 17.5541C10.3296 17.1277 10.0974 16.6998 9.87729 16.275ZM8.03456 11.8528C7.57452 11.9831 7.14143 12.1251 6.73955 12.2785C5.69406 12.6777 4.88474 13.1401 4.34698 13.6255C3.80944 14.1108 3.58706 14.5763 3.58696 14.9991C3.58713 15.4218 3.80956 15.8874 4.34698 16.3726C4.88476 16.858 5.69414 17.3205 6.73955 17.7196C7.14143 17.8731 7.57451 18.0151 8.03456 18.1453C8.34713 17.1386 8.75466 16.0797 9.25208 14.9991C8.75466 13.9185 8.34713 12.8596 8.03456 11.8528ZM21.9644 11.8528C21.6517 12.8597 21.2433 13.9183 20.7458 14.9991C21.2433 16.0798 21.6517 17.1384 21.9644 18.1453C22.4248 18.015 22.8583 17.8732 23.2604 17.7196C24.3059 17.3205 25.1152 16.858 25.653 16.3726C26.1904 15.8874 26.4129 15.4218 26.413 14.9991C26.4129 14.5763 26.1906 14.1108 25.653 13.6255C25.1153 13.1401 24.3059 12.6777 23.2604 12.2785C22.8583 12.125 22.4248 11.9831 21.9644 11.8528ZM11.3326 11.2011C10.543 11.3001 9.79237 11.4297 9.09074 11.5864C9.30591 12.2727 9.56817 12.9885 9.87729 13.7221C10.0972 13.2977 10.3299 12.871 10.5757 12.4452C10.8217 12.0191 11.0749 11.6039 11.3326 11.2011ZM18.6664 11.2011C18.9241 11.604 19.1782 12.0189 19.4243 12.4452C19.67 12.8709 19.9018 13.2979 20.1216 13.7221C20.4308 12.9885 20.693 12.2727 20.9082 11.5864C20.2065 11.4298 19.4559 11.3001 18.6664 11.2011ZM10.8634 5.08696C10.174 4.86394 9.65978 4.90414 9.29348 5.11562C8.92729 5.32715 8.63509 5.75213 8.48357 6.46052C8.33214 7.1689 8.3363 8.10072 8.51329 9.20551C8.58133 9.63012 8.67527 10.0764 8.79246 10.5398C9.82084 10.3071 10.9417 10.1313 12.1266 10.0218C12.8138 9.05058 13.5265 8.16769 14.2421 7.39356C13.8993 7.06027 13.559 6.75625 13.2252 6.48493C12.357 5.77934 11.5526 5.31 10.8634 5.08696ZM20.7065 5.11562C20.3402 4.90414 19.826 4.86394 19.1366 5.08696C18.4474 5.30996 17.6431 5.77932 16.7748 6.48493C16.4408 6.75637 16.0998 7.0601 15.7568 7.39356C16.4725 8.16768 17.1851 9.05056 17.8724 10.0218C19.0573 10.1313 20.1781 10.3071 21.2065 10.5398C21.3237 10.0764 21.4176 9.63018 21.4856 9.20551C21.6627 8.10065 21.6668 7.16893 21.5154 6.46052C21.3639 5.75232 21.0726 5.32718 20.7065 5.11562ZM15 8.17587C14.5134 8.70525 14.0243 9.28977 13.5436 9.92413C14.0217 9.90235 14.5077 9.89017 15 9.89017C15.4916 9.89017 15.9769 9.90242 16.4542 9.92413C15.9739 9.29017 15.4863 8.70497 15 8.17587Z" fill="#FCF7F7"/>
</svg>
