<svg width="30" height="30" viewBox="0 0 30 30" fill="none" xmlns="http://www.w3.org/2000/svg">
<path d="M15.0172 5.69336C12.7474 5.6923 10.5517 6.50116 8.82494 7.97446C7.09823 9.44777 5.95385 11.4888 5.59764 13.7305C5.24143 15.9723 5.69675 18.2675 6.88173 20.2035C8.0667 22.1395 9.90356 23.5891 12.0619 24.2917H12.2918C12.4043 24.2987 12.517 24.2817 12.6224 24.2417C12.7278 24.2018 12.8235 24.1399 12.9031 24.0602C12.9828 23.9804 13.0446 23.8847 13.0843 23.7792C13.1241 23.6737 13.141 23.561 13.1339 23.4485V22.4158C13.1174 22.311 13.0604 22.217 12.975 22.1541C12.9287 22.1171 12.8747 22.0908 12.8171 22.0771C12.7594 22.0634 12.6994 22.0625 12.6413 22.0747C10.5122 22.5355 10.0599 21.2008 10.0282 21.1139C9.76046 20.4083 9.28374 19.8011 8.66173 19.3736C8.62394 19.3415 8.58394 19.3121 8.54203 19.2857C8.63435 19.236 8.74 19.2167 8.84392 19.2306C9.04377 19.258 9.23308 19.3369 9.39332 19.4594C9.55356 19.582 9.67924 19.744 9.75805 19.9297C10.0654 20.4648 10.5683 20.8599 11.161 21.0318C11.7536 21.2036 12.3899 21.1389 12.9358 20.8513C12.994 20.8252 13.0453 20.7857 13.0852 20.736C13.1252 20.6862 13.1528 20.6277 13.1657 20.5653C13.196 20.1976 13.3533 19.8519 13.6106 19.5876C13.6675 19.5369 13.7086 19.4709 13.729 19.3974C13.7495 19.324 13.7483 19.2462 13.7258 19.1734C13.7032 19.1006 13.6602 19.0358 13.6018 18.9868C13.5434 18.9378 13.4722 18.9066 13.3966 18.8969C11.5132 18.683 9.59069 18.0231 9.59069 14.7733C9.57497 13.9572 9.87385 13.1664 10.4254 12.5647C10.4754 12.5083 10.5086 12.439 10.5211 12.3646C10.5337 12.2903 10.5251 12.2139 10.4964 12.1442C10.2757 11.5273 10.2787 10.8525 10.5048 10.2376C11.2389 10.3678 11.9274 10.6824 12.5068 11.1506C12.5547 11.1843 12.6095 11.2068 12.6673 11.2166C12.725 11.2263 12.7842 11.2229 12.8405 11.2068C13.5502 11.0146 14.2819 10.9156 15.0172 10.9123C15.7555 10.9134 16.4896 11.0119 17.2014 11.2068C17.2566 11.2218 17.3144 11.2245 17.3708 11.2148C17.4271 11.2051 17.4807 11.1832 17.5277 11.1506C18.108 10.6834 18.7964 10.3695 19.5297 10.2376C19.7457 10.8493 19.7457 11.5166 19.5297 12.1283C19.4996 12.1978 19.4903 12.2745 19.5029 12.3491C19.5155 12.4237 19.5495 12.4931 19.6006 12.5488C20.1466 13.1446 20.4451 13.926 20.4353 14.7341C20.4353 17.9839 18.5043 18.6353 16.6135 18.8493C16.5358 18.857 16.462 18.8875 16.4015 18.937C16.3411 18.9865 16.2966 19.0528 16.2737 19.1276C16.2509 19.2023 16.2506 19.2821 16.273 19.357C16.2954 19.4319 16.3394 19.4985 16.3996 19.5484C16.5754 19.7301 16.7098 19.9477 16.7934 20.1864C16.877 20.425 16.9078 20.679 16.8836 20.9307V23.457C16.88 23.5813 16.9037 23.7048 16.9532 23.8188C17.0026 23.9329 17.0765 24.0346 17.1696 24.1169C17.2886 24.2059 17.4267 24.2658 17.5729 24.2919C17.7191 24.318 17.8694 24.3096 18.0117 24.2673C20.1551 23.5503 21.974 22.0951 23.1439 20.1613C24.3138 18.2276 24.7586 15.9411 24.399 13.7097C24.0394 11.4784 22.8988 9.44743 21.1806 7.97913C19.4624 6.51083 17.2784 5.70073 15.0183 5.69336" fill="#FCF7F7"/>
</svg>
