<svg width="30" height="30" viewBox="0 0 30 30" fill="none" xmlns="http://www.w3.org/2000/svg">
<path d="M6.89007 0.575195H8.15928V1.85994H9.32016V0.575195H10.5894V4.4655H9.32016V3.16272H8.15928V4.4655H6.89007V0.575195ZM12.2578 1.86558H11.1404V0.575195H14.6445V1.86558H13.527V4.46607H12.2578V1.86558ZM15.201 0.575195H16.5241L17.338 1.94221L18.1513 0.575195H19.475V4.4655H18.2113V2.53725L17.338 3.92061H17.316L16.4422 2.53725V4.4655H15.2004V0.575195H15.201ZM20.1068 0.575195H21.376V3.17963H23.1605V4.4655H20.1063V0.575195H20.1068ZM5 6.17061L6.82078 27.1002L14.9953 29.4257L23.177 27.1019L25 6.17061H5ZM21.0499 13.0158H11.4632L11.6925 15.6445H20.8228L20.1343 23.5249L14.9964 24.9854L9.86513 23.5249L9.50549 19.4041H12.0197L12.2067 21.5414L14.997 22.3151L17.7928 21.5408L18.0842 18.2112H9.401L8.7257 10.4486H21.2743L21.0499 13.0158Z" fill="#FCF7F7"/>
</svg>
