<svg width="30" height="30" viewBox="0 0 30 30" fill="none" xmlns="http://www.w3.org/2000/svg">
<path d="M15.9609 9.4248C18.7527 9.4248 21.0878 11.3793 21.6699 13.9932C21.6745 14.0138 21.6756 14.0348 21.6758 14.0557C21.676 14.0944 21.6694 14.1335 21.6553 14.1699L21.1436 15.5068C20.7396 16.5601 19.5859 17.4247 18.5205 17.4736L9.53711 17.5869C9.44666 17.5909 9.35941 17.6575 9.33008 17.7451C9.31125 17.8013 9.31876 17.8598 9.34961 17.9053C9.38005 17.9496 9.4295 17.9762 9.48926 17.9795L18.3896 18.0928C18.8593 18.1149 19.2463 18.3064 19.4785 18.6309C19.7309 18.9833 19.7871 19.4635 19.6367 19.9824L19.5107 20.4189C19.4841 20.5095 19.4012 20.5712 19.3076 20.5732C19.306 20.5733 19.3043 20.5742 19.3027 20.5742L2.87109 20.5723C2.7848 20.5722 2.71308 20.5082 2.7002 20.4229C2.6744 20.2464 2.66016 20.0654 2.66016 19.8818C2.66029 17.8536 4.27707 16.2032 6.29297 16.1445C6.21927 15.8544 6.19247 15.5454 6.22461 15.2256C6.34731 13.9928 7.33927 13.0005 8.57324 12.8779C9.2684 12.8086 9.91537 13.0097 10.4209 13.3887C11.2042 11.0832 13.3886 9.42482 15.9609 9.4248ZM22.4746 14.2676C25.1611 14.2676 27.3395 16.443 27.3398 19.127C27.3398 19.5832 27.277 20.0248 27.1592 20.4434C27.1374 20.521 27.0652 20.5741 26.9844 20.5742H20.2002C20.1985 20.5742 20.197 20.5733 20.1953 20.5732C20.1241 20.5698 20.0756 20.4979 20.1016 20.4307L20.2441 20.0596C20.6482 19.0062 21.8018 18.1419 22.8721 18.0928L24.8438 17.9795C24.9338 17.9754 25.0201 17.9088 25.0498 17.8213C25.0687 17.7651 25.0619 17.7061 25.0303 17.6602C25.0001 17.6166 24.9505 17.5897 24.8945 17.5869L22.9971 17.4727C22.5273 17.4504 22.1403 17.2596 21.9082 16.9346C21.656 16.5822 21.5997 16.1027 21.75 15.584L22.1006 14.377C22.1135 14.332 22.1477 14.2972 22.1904 14.2822C22.2026 14.278 22.2152 14.2742 22.2285 14.2734C22.3101 14.2695 22.3922 14.2676 22.4746 14.2676Z" fill="#FCF7F7"/>
</svg>
