<svg width="30" height="30" viewBox="0 0 30 30" fill="none" xmlns="http://www.w3.org/2000/svg">
<path d="M15.0005 3.28125L4.96484 9.13954V20.861L15.0005 26.7193L25.0361 20.861V9.13954L15.0005 3.28125ZM15.3337 4.92626L23.4453 9.66387L20.5711 11.3833L20.5295 11.3599L15.3337 8.40482V4.92626ZM14.6367 4.92626V8.40482L9.43698 11.3558L9.39542 11.3793L6.52115 9.66387L14.6367 4.92626ZM6.18402 10.2885L9.07789 12.012V18.2264L6.18402 19.9507V10.2885ZM14.6367 25.0742L6.72579 20.4548L9.7059 18.6803L14.6367 21.4784V25.0742ZM14.6367 20.6619L9.77411 17.8986V12.4304L14.6367 15.3263V20.6619ZM14.9856 14.7049L10.1003 11.7976L14.9856 9.02626L19.867 11.7976L14.9856 14.7049ZM20.1963 12.4304V17.9027L15.3337 20.6619V15.3263L20.1963 12.4304ZM15.3337 25.0783V21.4824L20.2645 18.6803L23.2446 20.4548L15.3337 25.0783ZM23.7864 19.9507L20.8933 18.2264V12.012L23.7864 10.2885V19.9507Z" fill="#FCF7F7"/>
</svg>
