<svg width="30" height="30" viewBox="0 0 30 30" fill="none" xmlns="http://www.w3.org/2000/svg">
<path d="M2.73242 13.8281C2.73262 13.3727 3.2834 13.1447 3.60547 13.4668L11.0605 20.9219C11.0903 20.9516 11.1142 20.9846 11.1348 21.0176C11.1462 21.0358 11.1563 21.0543 11.165 21.0732C11.1728 21.0901 11.1808 21.1067 11.1865 21.124C11.2896 21.4331 11.0701 21.7958 10.7002 21.7959H7.84473V21.7949L7.69922 21.6494C7.69775 21.648 7.69579 21.647 7.69434 21.6455L2.88184 16.833C2.78612 16.7372 2.73245 16.6071 2.73242 16.4717V13.8281ZM2.73242 8.7168C2.73242 8.26133 3.28332 8.03262 3.60547 8.35449L16.1729 20.9219C16.4949 21.2439 16.2668 21.7946 15.8115 21.7949H13.168C13.0942 21.7949 13.0229 21.7771 12.957 21.7471V21.7959L7.99414 16.833L2.88184 11.7217C2.78594 11.6258 2.73242 11.495 2.73242 11.3594V8.7168ZM18.791 14.5518C18.7911 14.0962 19.3419 13.8683 19.6641 14.1904L24.4766 19.0029C25.0956 19.6219 25.8995 20.015 26.7588 20.127C27.0388 20.1634 27.2684 20.3886 27.2686 20.6709V21.2842C27.2686 21.5665 27.0402 21.7958 26.7578 21.7959H19.3018C19.0195 21.7957 18.791 21.5665 18.791 21.2842V14.5518ZM2.73242 18.9404C2.73242 18.4849 3.28334 18.257 3.60547 18.5791L5.94922 20.9219C6.27123 21.2439 6.04312 21.7945 5.58789 21.7949H3.24414L3.14062 21.7852C2.90772 21.7375 2.73257 21.5311 2.73242 21.2842V18.9404ZM7.84473 8.7168C7.84473 8.26145 8.3946 8.03299 8.7168 8.35449L17.918 17.5557C18.0138 17.6515 18.0684 17.7824 18.0684 17.918V20.5605C18.0684 21.0161 17.5175 21.244 17.1953 20.9219L12.957 16.6836V16.6846L7.99512 11.7227C7.94719 11.6747 7.90925 11.6181 7.88379 11.5566C7.85799 11.4948 7.84473 11.4276 7.84473 11.3594V8.7168ZM21.2441 18.5244C20.7928 18.5246 20.4268 18.8905 20.4268 19.3418C20.4268 19.7932 20.7928 20.16 21.2441 20.1602C21.6957 20.1602 22.0625 19.7933 22.0625 19.3418C22.0624 18.8904 21.6956 18.5244 21.2441 18.5244ZM12.9561 8.7168C12.9561 8.26134 13.5069 8.03265 13.8291 8.35449L17.918 12.4443C18.0138 12.5402 18.0683 12.6701 18.0684 12.8057V15.4492C18.0681 15.9045 17.5174 16.1323 17.1953 15.8105L13.1055 11.7217C13.0096 11.6258 12.9561 11.495 12.9561 11.3594V8.7168Z" fill="#FCF7F7"/>
</svg>
