<svg width="20" height="20" viewBox="0 0 20 20" fill="none" xmlns="http://www.w3.org/2000/svg">
<g clip-path="url(#clip0_428_3734)">
<path d="M20 0V20H0V0H20ZM15.2227 9.07617C13.5442 9.07617 12.4707 10.1491 12.4707 11.5586C12.4708 13.0886 13.3714 13.8119 14.7275 14.3896L15.1973 14.5918C16.0542 14.9666 16.5652 15.1948 16.5654 15.8389C16.5654 16.3766 16.0678 16.7666 15.2891 16.7666C14.3623 16.7665 13.8384 16.2827 13.4355 15.625L11.9082 16.5127C12.46 17.6027 13.5878 18.4346 15.333 18.4346C17.1179 18.4345 18.4471 17.5072 18.4473 15.8154C18.4473 14.2459 17.5451 13.5471 15.9482 12.8623L15.4785 12.6611C14.6726 12.3121 14.3234 12.084 14.3232 11.5205C14.3232 11.0643 14.6722 10.7148 15.2227 10.7148C15.7623 10.7149 16.1094 10.9428 16.4316 11.5205L17.8955 10.5801C17.2765 9.4915 16.4174 9.07619 15.2227 9.07617ZM9.0127 9.18262V15.5732C9.0127 16.5126 8.62327 16.7549 8.00586 16.7549C7.36016 16.7549 7.09113 16.3119 6.7959 15.7881L5.2666 16.7139C5.70978 17.6518 6.58118 18.4307 8.08594 18.4307C9.75124 18.4306 10.8926 17.5446 10.8926 15.5986V9.18262H9.0127Z" fill="#FCF7F7"/>
</g>
<defs>
<clipPath id="clip0_428_3734">
<rect width="20" height="20" fill="white"/>
</clipPath>
</defs>
</svg>
