<svg width="30" height="30" viewBox="0 0 30 30" fill="none" xmlns="http://www.w3.org/2000/svg">
<path d="M9.54524 12.9549C9.54524 13.2626 9.5785 13.512 9.63671 13.6949C9.70322 13.8778 9.78637 14.0774 9.90278 14.2936C9.94435 14.3601 9.96098 14.4266 9.96098 14.4848C9.96098 14.568 9.91109 14.6511 9.803 14.7343L9.27917 15.0835C9.20434 15.1334 9.12951 15.1583 9.06299 15.1583C8.97984 15.1583 8.89669 15.1167 8.81355 15.0419C8.69714 14.9172 8.59736 14.7842 8.51422 14.6511C8.43107 14.5098 8.34792 14.3518 8.25646 14.1606C7.60791 14.9255 6.79307 15.308 5.81193 15.308C5.11349 15.308 4.5564 15.1084 4.14898 14.7093C3.74156 14.3102 3.53369 13.7781 3.53369 13.1129C3.53369 12.4061 3.78313 11.8324 4.29033 11.4001C4.79753 10.9677 5.47102 10.7515 6.32744 10.7515C6.61014 10.7515 6.90116 10.7765 7.2088 10.818C7.51645 10.8596 7.83241 10.9261 8.165 11.001V10.394C8.165 9.76205 8.03196 9.32137 7.7742 9.06362C7.50813 8.80586 7.05914 8.68114 6.4189 8.68114C6.12789 8.68114 5.82856 8.7144 5.52091 8.78923C5.21327 8.86406 4.91394 8.95553 4.62292 9.07193C4.48988 9.13013 4.39011 9.16339 4.3319 9.18002C4.2737 9.19665 4.23213 9.20497 4.19887 9.20497C4.08246 9.20497 4.02426 9.12182 4.02426 8.94721V8.53979C4.02426 8.40675 4.04089 8.30698 4.08246 8.24877C4.12404 8.19057 4.19887 8.13237 4.31527 8.07416C4.60629 7.9245 4.95551 7.79978 5.36293 7.7C5.77035 7.59191 6.20272 7.54202 6.66003 7.54202C7.64948 7.54202 8.37287 7.76652 8.83849 8.21551C9.2958 8.66451 9.52861 9.34632 9.52861 10.2609V12.9549H9.54524ZM6.16946 14.2188C6.44385 14.2188 6.72655 14.1689 7.02588 14.0691C7.32521 13.9693 7.59128 13.7864 7.81578 13.5369C7.94881 13.379 8.04859 13.2044 8.09848 13.0048C8.14837 12.8052 8.18163 12.5641 8.18163 12.2814V11.9322C7.9405 11.874 7.68274 11.8241 7.41667 11.7909C7.1506 11.7576 6.89284 11.741 6.63509 11.741C6.078 11.741 5.67058 11.8491 5.39619 12.0736C5.1218 12.298 4.98877 12.614 4.98877 13.0297C4.98877 13.4205 5.08854 13.7116 5.29641 13.9111C5.49597 14.119 5.78698 14.2188 6.16946 14.2188ZM12.8462 15.1167C12.6965 15.1167 12.5968 15.0918 12.5302 15.0336C12.4637 14.9837 12.4055 14.8673 12.3556 14.7093L10.4017 8.28203C10.3518 8.11574 10.3268 8.00765 10.3268 7.94944C10.3268 7.81641 10.3933 7.74157 10.5264 7.74157H11.3412C11.4992 7.74157 11.6073 7.76652 11.6655 7.82472C11.732 7.87461 11.7819 7.99102 11.8318 8.149L13.2287 13.6534L14.5258 8.149C14.5673 7.9827 14.6172 7.87461 14.6838 7.82472C14.7503 7.77483 14.8667 7.74157 15.0163 7.74157H15.6815C15.8395 7.74157 15.9476 7.76652 16.0141 7.82472C16.0806 7.87461 16.1388 7.99102 16.1721 8.149L17.4858 13.7199L18.9243 8.149C18.9742 7.9827 19.0324 7.87461 19.0906 7.82472C19.1571 7.77483 19.2652 7.74157 19.4148 7.74157H20.1881C20.3211 7.74157 20.396 7.80809 20.396 7.94944C20.396 7.99102 20.3877 8.03259 20.3793 8.08248C20.371 8.13237 20.3544 8.19888 20.3211 8.29035L18.3173 14.7176C18.2674 14.8839 18.2092 14.992 18.1427 15.0419C18.0762 15.0918 17.9681 15.1251 17.8267 15.1251H17.1117C16.9537 15.1251 16.8456 15.1001 16.7791 15.0419C16.7125 14.9837 16.6543 14.8756 16.6211 14.7093L15.3323 9.34632L14.0518 14.701C14.0103 14.8673 13.9604 14.9754 13.8939 15.0336C13.8273 15.0918 13.7109 15.1167 13.5613 15.1167H12.8462ZM23.5306 15.3412C23.0983 15.3412 22.6659 15.2914 22.2502 15.1916C21.8344 15.0918 21.5101 14.9837 21.294 14.859C21.1609 14.7842 21.0695 14.701 21.0362 14.6262C21.003 14.5513 20.9863 14.4682 20.9863 14.3934V13.9693C20.9863 13.7947 21.0528 13.7116 21.1776 13.7116C21.2274 13.7116 21.2773 13.7199 21.3272 13.7365C21.3771 13.7531 21.4519 13.7864 21.5351 13.8196C21.8178 13.9444 22.1254 14.0441 22.4497 14.1107C22.7823 14.1772 23.1066 14.2104 23.4392 14.2104C23.963 14.2104 24.3704 14.119 24.6531 13.9361C24.9358 13.7531 25.0855 13.4871 25.0855 13.1462C25.0855 12.9133 25.0107 12.7221 24.861 12.5641C24.7113 12.4061 24.4286 12.2648 24.0212 12.1318L22.8156 11.7576C22.2086 11.5664 21.7596 11.2837 21.4852 10.9095C21.2108 10.5436 21.0695 10.1362 21.0695 9.70385C21.0695 9.35463 21.1443 9.04699 21.294 8.78092C21.4436 8.51484 21.6432 8.28203 21.8926 8.09911C22.1421 7.90787 22.4248 7.76652 22.7574 7.66674C23.0899 7.56696 23.4392 7.52539 23.805 7.52539C23.9879 7.52539 24.1792 7.53371 24.3621 7.55865C24.5533 7.58359 24.728 7.61685 24.9026 7.65011C25.0689 7.69169 25.2268 7.73326 25.3765 7.78315C25.5262 7.83304 25.6426 7.88292 25.7257 7.93281C25.8421 7.99933 25.9253 8.06585 25.9752 8.14068C26.025 8.2072 26.05 8.29866 26.05 8.41507V8.80586C26.05 8.98047 25.9835 9.07193 25.8588 9.07193C25.7922 9.07193 25.6841 9.03867 25.5428 8.97215C25.0689 8.75597 24.5367 8.64788 23.9464 8.64788C23.4724 8.64788 23.0983 8.72271 22.8405 8.88069C22.5828 9.03867 22.4497 9.2798 22.4497 9.6207C22.4497 9.85352 22.5329 10.0531 22.6992 10.2111C22.8655 10.369 23.1731 10.527 23.6138 10.6684L24.7945 11.0425C25.3931 11.2338 25.8255 11.4998 26.0833 11.8407C26.341 12.1816 26.4657 12.5724 26.4657 13.0048C26.4657 13.3623 26.3909 13.6866 26.2495 13.9693C26.0999 14.252 25.9003 14.5015 25.6426 14.701C25.3848 14.9089 25.0772 15.0585 24.7196 15.1666C24.3455 15.283 23.9547 15.3412 23.5306 15.3412Z" fill="#FCF7F7"/>
<path fill-rule="evenodd" clip-rule="evenodd" d="M25.1021 19.3822C22.3666 21.4027 18.3921 22.4753 14.9748 22.4753C10.1855 22.4753 5.87013 20.7042 2.61075 17.7608C2.353 17.528 2.58581 17.2121 2.89345 17.395C6.4189 19.4404 10.7675 20.6793 15.2658 20.6793C18.3007 20.6793 21.6349 20.0474 24.703 18.7503C25.1603 18.5424 25.5511 19.0496 25.1021 19.3822Z" fill="#FCF7F7"/>
<path fill-rule="evenodd" clip-rule="evenodd" d="M26.2412 18.0851C25.892 17.6361 23.9297 17.8689 23.0401 17.977C22.774 18.0103 22.7324 17.7775 22.9735 17.6029C24.5367 16.5053 27.106 16.8213 27.4053 17.1871C27.7046 17.5613 27.3222 20.1305 25.8588 21.3611C25.6343 21.5524 25.4181 21.4526 25.5179 21.2031C25.8504 20.38 26.5905 18.5258 26.2412 18.0851Z" fill="#FCF7F7"/>
</svg>
