<svg width="476" height="517" viewBox="0 0 476 517" fill="none" xmlns="http://www.w3.org/2000/svg">
<path d="M401.581 82.4576C391.907 90.4922 391.525 91.5079 359.346 98.5469C348.838 100.85 340.14 114.687 330.184 119.664C324.151 122.681 320.712 124.39 310.073 126.703C297.855 129.368 278.377 131.319 272.866 134.748C246.55 151.129 251.749 154.859 240.688 167.932C243.624 169.109 247.576 166.444 251.749 162.904C251.749 171.954 247.325 178.611 242.699 185.027C254.323 178.531 265.093 170.547 266.833 158.882C263.494 159.726 260.548 163.095 257.783 167.932C257.994 151.169 279.111 140.54 292.978 141.787C292.988 163.266 289.106 181.618 267.838 186.032C274.335 206.094 277.19 233.164 278.9 262.457C273.781 277.138 266.109 288.109 256.777 296.646C267.235 292.111 276.356 285.897 282.922 276.535C299.927 290.11 348.928 295.048 354.751 295.58C364.173 276.605 369.493 255.086 369.493 232.289C369.493 203.037 360.744 175.906 345.801 153.532C365.36 177.837 377.065 208.718 377.065 242.345C377.065 292.805 350.708 337.111 311.008 362.23C310.023 362.854 309.037 363.467 308.042 364.061C294.235 372.336 278.91 378.32 262.569 381.497C265.063 375.645 268.12 369.812 271.831 364.332C277.482 355.996 284.642 348.494 293.652 343.044C293.662 343.034 293.682 343.024 293.692 343.024C294.808 342.229 295.914 341.515 297 340.892C262.127 352.848 241.07 381.598 236.786 399.729C236.746 399.819 236.706 399.91 236.665 400C231.235 394.66 226.067 389.17 221.27 383.448C149.542 376.419 93.4908 315.923 93.4908 242.345C93.4908 208.698 105.206 177.787 124.795 153.482C109.842 175.866 101.073 203.017 101.073 232.289C101.073 300.055 148.034 356.468 210.138 368.626C201.078 354.99 194.391 339.977 191.414 322.792C188.398 324.803 189.403 334.858 189.403 338.881C157.225 277.54 215.548 249.384 197.448 235.306C217.871 242.425 236.746 242.516 247.727 223.239C226.831 241.812 210.229 232.953 184.375 230.278C176.642 229.474 167.954 233.064 158.23 233.295C154.429 233.295 150.638 229.775 149.371 224.235C149.24 223.621 148.828 223.098 148.275 222.797C143.056 219.89 141.598 212.801 141.839 207.753C141.91 206.194 142.905 204.837 144.353 204.254C157.898 198.753 168.286 193.645 180.242 180.271C180.826 179.607 180.745 178.571 180.041 178.018C171.826 171.612 167.944 161.949 168.286 150.837C178.422 151.682 188.428 153.653 195.437 165.167C196.03 166.142 197.277 166.514 198.303 166.001L201.209 164.543C202.094 164.101 202.918 162.964 202.355 162.14C178.342 126.703 149.18 147.82 120.018 118.659C119.596 118.236 114.839 112.525 104.934 111.619C93.8729 110.614 80.2674 108.281 73.7613 103.575C58.0139 92.1816 59.6832 73.4074 62.6999 64.3572C64.691 86.3694 72.5848 98.9592 89.8506 96.5358C72.2027 69.3549 82.8417 53.5975 92.8674 40.2232C85.2752 65.4432 85.3255 89.557 117.001 102.569C108.394 74.7549 113.371 37.7998 145.158 14.0781C134.277 31.1529 123.96 50.3796 125.046 63.3516C130.345 57.4086 142.945 52.6723 155.213 50.2791C121.949 67.8667 112.215 101.403 144.152 118.659C142.714 101.312 151.161 88.109 163.258 76.4242C149.451 107.919 149.934 127.759 172.308 129.72C172.66 106.059 179.709 87.3749 194.431 74.413C186.386 92.5135 168.889 136.96 200.465 136.759C201.158 131.701 200.012 126.311 197.448 120.67C209.012 127.98 209.434 154.648 217.559 157.876C253.76 157.876 208.509 122.681 222.587 95.5302C230.793 158.077 290.967 136.759 254.766 56.3125C270.192 70.3706 280.901 89.3559 278.9 121.675C294.868 119.785 298.197 104.671 289.961 77.4297C299.675 85.2431 303.436 97.5212 302.028 117.653C331.19 114.636 347.279 70.3907 298.006 43.24C310.113 46.4277 319.948 49.545 331.19 59.3293C333.201 37.2065 324.151 11.0614 316.106 0C334.891 14.9429 352.066 41.269 344.263 88.4911C354.882 82.0655 366.325 75.9113 368.397 56.3125C371.876 64.9304 371.544 70.4912 371.433 71.3862C371.433 71.3862 371.427 71.3895 371.413 71.3963C371.403 71.4465 371.403 71.4868 371.403 71.5069C371.413 71.4968 371.423 71.4566 371.433 71.3862C383.48 61.3103 385.119 38.0411 375.436 16.0893C387.905 28.6188 396.322 43.5316 381.469 79.4409C400.213 81.0901 409.625 64.3572 408.62 38.2121C412.944 44.5774 416.222 70.3002 401.581 82.4576Z" fill="#FDC45D"/>
<path d="M62.2324 457.842L57.7891 486.064C55.6732 488.636 53.0365 490.654 49.8789 492.119C46.7539 493.551 43.4499 494.561 39.9668 495.146C36.4837 495.732 33.1634 495.993 30.0059 495.928C25.1556 495.863 21.0215 494.886 17.6035 492.998C14.2181 491.077 11.5163 488.506 9.49805 485.283C7.51237 482.061 6.17773 478.431 5.49414 474.395C4.81055 470.326 4.74544 466.094 5.29883 461.699L5.93359 457.256C6.55208 452.699 7.74023 448.353 9.49805 444.219C11.2559 440.052 13.5508 436.357 16.3828 433.135C19.2148 429.88 22.6003 427.34 26.5391 425.518C30.4779 423.662 34.9538 422.783 39.9668 422.881C44.9798 422.979 49.2441 423.955 52.7598 425.811C56.2754 427.666 59.0098 430.335 60.9629 433.818C62.9486 437.269 64.1042 441.468 64.4297 446.416L50.6602 446.367C50.4974 444.023 50.0254 441.956 49.2441 440.166C48.4629 438.376 47.291 436.976 45.7285 435.967C44.166 434.958 42.1152 434.404 39.5762 434.307C36.4512 434.176 33.7656 434.795 31.5195 436.162C29.2734 437.529 27.3854 439.368 25.8555 441.68C24.3581 443.958 23.1699 446.465 22.291 449.199C21.4121 451.901 20.7936 454.554 20.4355 457.158L19.8008 461.748C19.5078 464.124 19.3613 466.631 19.3613 469.268C19.3939 471.872 19.7682 474.329 20.4844 476.641C21.2331 478.919 22.4701 480.791 24.1953 482.256C25.9206 483.688 28.3294 484.437 31.4219 484.502C32.9193 484.535 34.3841 484.437 35.8164 484.209C37.2487 483.981 38.6322 483.607 39.9668 483.086C41.3014 482.533 42.5547 481.816 43.7266 480.938L46.168 468.291H33.1797L34.9863 457.842H62.2324ZM98.9512 481.621L105.787 442.168H119.557L110.377 495H97.4863L98.9512 481.621ZM102.076 471.465L106.031 471.367C105.673 474.46 104.99 477.487 103.98 480.449C102.971 483.411 101.588 486.081 99.8301 488.457C98.0723 490.833 95.8913 492.705 93.2871 494.072C90.6829 495.439 87.6068 496.09 84.0586 496.025C81.1615 495.96 78.7201 495.407 76.7344 494.365C74.7487 493.291 73.1699 491.859 71.998 490.068C70.8262 488.245 70.0286 486.162 69.6055 483.818C69.2148 481.475 69.1497 478.968 69.4102 476.299L75.123 442.168H88.8438L83.082 476.494C82.9844 477.601 82.9844 478.659 83.082 479.668C83.1797 480.645 83.4401 481.523 83.8633 482.305C84.2865 483.086 84.8887 483.721 85.6699 484.209C86.4512 484.665 87.4928 484.909 88.7949 484.941C91.5618 485.039 93.8568 484.486 95.6797 483.281C97.5026 482.044 98.9186 480.384 99.9277 478.301C100.969 476.217 101.686 473.939 102.076 471.465ZM137.086 488.311L158.473 442.168H173.609L142.652 503.008C141.741 504.928 140.699 506.702 139.527 508.33C138.388 509.99 137.086 511.423 135.621 512.627C134.189 513.864 132.545 514.808 130.689 515.459C128.867 516.143 126.816 516.484 124.537 516.484C123.398 516.484 122.291 516.387 121.217 516.191C120.143 515.996 119.068 515.768 117.994 515.508L118.971 505.107C119.329 505.14 119.687 505.173 120.045 505.205C120.37 505.238 120.696 505.254 121.021 505.254C122.649 505.286 124.081 505.091 125.318 504.668C126.588 504.277 127.695 503.626 128.639 502.715C129.583 501.836 130.429 500.68 131.178 499.248L137.086 488.311ZM139.283 442.168L143.873 481.182L143.238 495.391L134.059 496.465L125.025 442.168H139.283ZM213.648 423.906L201.344 495H187.037L199.391 423.906H213.648ZM234.84 423.906L232.838 435.381H176.539L178.541 423.906H234.84ZM252.174 483.086L255.885 459.404C256.048 457.972 255.982 456.637 255.689 455.4C255.396 454.163 254.794 453.187 253.883 452.471C253.004 451.722 251.751 451.315 250.123 451.25C248.658 451.217 247.34 451.478 246.168 452.031C245.029 452.552 244.085 453.317 243.336 454.326C242.587 455.303 242.066 456.475 241.773 457.842L228.004 457.939C228.167 455.01 228.98 452.487 230.445 450.371C231.943 448.223 233.831 446.465 236.109 445.098C238.388 443.73 240.862 442.721 243.531 442.07C246.233 441.419 248.87 441.126 251.441 441.191C255.12 441.257 258.391 442.021 261.256 443.486C264.153 444.951 266.367 447.051 267.896 449.785C269.459 452.487 270.045 455.775 269.654 459.648L265.992 482.305C265.699 484.193 265.471 486.178 265.309 488.262C265.146 490.312 265.439 492.266 266.188 494.121L266.09 495L252.613 495.049C251.995 493.128 251.686 491.159 251.686 489.141C251.718 487.09 251.881 485.072 252.174 483.086ZM257.447 462.822L256.129 470.781L249.146 470.732C247.747 470.765 246.347 470.96 244.947 471.318C243.58 471.644 242.311 472.165 241.139 472.881C239.967 473.564 238.99 474.46 238.209 475.566C237.46 476.673 236.988 478.024 236.793 479.619C236.63 480.758 236.744 481.784 237.135 482.695C237.525 483.574 238.128 484.274 238.941 484.795C239.788 485.316 240.797 485.592 241.969 485.625C243.629 485.658 245.257 485.348 246.852 484.697C248.447 484.014 249.83 483.053 251.002 481.816C252.174 480.579 252.988 479.147 253.443 477.52L256.373 483.623C255.592 485.446 254.599 487.122 253.395 488.652C252.223 490.182 250.872 491.517 249.342 492.656C247.812 493.763 246.135 494.609 244.312 495.195C242.49 495.814 240.536 496.107 238.453 496.074C235.556 496.009 232.887 495.326 230.445 494.023C228.036 492.689 226.116 490.882 224.684 488.604C223.284 486.292 222.649 483.607 222.779 480.547C222.91 477.096 223.772 474.232 225.367 471.953C226.962 469.642 229.013 467.819 231.52 466.484C234.059 465.15 236.809 464.206 239.771 463.652C242.766 463.066 245.729 462.773 248.658 462.773L257.447 462.822ZM315.748 442.168H328.346L319.605 493.193C318.954 498.044 317.343 502.178 314.771 505.596C312.2 509.014 308.928 511.602 304.957 513.359C301.018 515.117 296.64 515.947 291.822 515.85C289.479 515.785 287.167 515.426 284.889 514.775C282.61 514.124 280.478 513.164 278.492 511.895C276.507 510.658 274.781 509.111 273.316 507.256L280.104 499.15C281.536 501.038 283.229 502.503 285.182 503.545C287.135 504.619 289.299 505.189 291.676 505.254C294.215 505.319 296.461 504.863 298.414 503.887C300.367 502.91 301.979 501.527 303.248 499.736C304.518 497.946 305.364 495.814 305.787 493.34L312.525 453.691L315.748 442.168ZM276.734 469.561L276.881 468.535C277.271 465.215 278.053 461.927 279.225 458.672C280.396 455.384 281.975 452.406 283.961 449.736C285.947 447.067 288.372 444.951 291.236 443.389C294.101 441.826 297.438 441.094 301.246 441.191C304.762 441.289 307.61 442.168 309.791 443.828C311.972 445.456 313.632 447.588 314.771 450.225C315.911 452.829 316.66 455.661 317.018 458.721C317.408 461.781 317.538 464.759 317.408 467.656L317.164 469.951C316.643 472.881 315.781 475.892 314.576 478.984C313.372 482.077 311.809 484.941 309.889 487.578C307.968 490.182 305.657 492.266 302.955 493.828C300.286 495.391 297.242 496.123 293.824 496.025C290.276 495.928 287.33 495.065 284.986 493.438C282.675 491.81 280.852 489.71 279.518 487.139C278.215 484.535 277.353 481.702 276.93 478.643C276.507 475.55 276.441 472.523 276.734 469.561ZM290.65 468.486L290.504 469.561C290.341 471.025 290.276 472.637 290.309 474.395C290.374 476.12 290.634 477.78 291.09 479.375C291.578 480.97 292.376 482.288 293.482 483.33C294.589 484.339 296.119 484.876 298.072 484.941C300.644 485.072 302.841 484.535 304.664 483.33C306.52 482.126 308.001 480.531 309.107 478.545C310.214 476.527 310.979 474.395 311.402 472.148L312.33 465.654C312.46 464.092 312.444 462.529 312.281 460.967C312.118 459.404 311.728 457.972 311.109 456.67C310.523 455.368 309.645 454.31 308.473 453.496C307.333 452.682 305.82 452.259 303.932 452.227C301.751 452.129 299.863 452.585 298.268 453.594C296.705 454.603 295.403 455.938 294.361 457.598C293.32 459.225 292.49 460.999 291.871 462.92C291.253 464.84 290.846 466.696 290.65 468.486ZM371.217 442.168H383.814L375.074 493.193C374.423 498.044 372.812 502.178 370.24 505.596C367.669 509.014 364.397 511.602 360.426 513.359C356.487 515.117 352.109 515.947 347.291 515.85C344.947 515.785 342.636 515.426 340.357 514.775C338.079 514.124 335.947 513.164 333.961 511.895C331.975 510.658 330.25 509.111 328.785 507.256L335.572 499.15C337.005 501.038 338.697 502.503 340.65 503.545C342.604 504.619 344.768 505.189 347.145 505.254C349.684 505.319 351.93 504.863 353.883 503.887C355.836 502.91 357.447 501.527 358.717 499.736C359.986 497.946 360.833 495.814 361.256 493.34L367.994 453.691L371.217 442.168ZM332.203 469.561L332.35 468.535C332.74 465.215 333.521 461.927 334.693 458.672C335.865 455.384 337.444 452.406 339.43 449.736C341.415 447.067 343.84 444.951 346.705 443.389C349.57 441.826 352.906 441.094 356.715 441.191C360.23 441.289 363.079 442.168 365.26 443.828C367.441 445.456 369.101 447.588 370.24 450.225C371.38 452.829 372.128 455.661 372.486 458.721C372.877 461.781 373.007 464.759 372.877 467.656L372.633 469.951C372.112 472.881 371.249 475.892 370.045 478.984C368.84 482.077 367.278 484.941 365.357 487.578C363.437 490.182 361.126 492.266 358.424 493.828C355.755 495.391 352.711 496.123 349.293 496.025C345.745 495.928 342.799 495.065 340.455 493.438C338.144 491.81 336.321 489.71 334.986 487.139C333.684 484.535 332.822 481.702 332.398 478.643C331.975 475.55 331.91 472.523 332.203 469.561ZM346.119 468.486L345.973 469.561C345.81 471.025 345.745 472.637 345.777 474.395C345.842 476.12 346.103 477.78 346.559 479.375C347.047 480.97 347.844 482.288 348.951 483.33C350.058 484.339 351.588 484.876 353.541 484.941C356.113 485.072 358.31 484.535 360.133 483.33C361.988 482.126 363.469 480.531 364.576 478.545C365.683 476.527 366.448 474.395 366.871 472.148L367.799 465.654C367.929 464.092 367.913 462.529 367.75 460.967C367.587 459.404 367.197 457.972 366.578 456.67C365.992 455.368 365.113 454.31 363.941 453.496C362.802 452.682 361.288 452.259 359.4 452.227C357.219 452.129 355.331 452.585 353.736 453.594C352.174 454.603 350.872 455.938 349.83 457.598C348.788 459.225 347.958 460.999 347.34 462.92C346.721 464.84 346.314 466.696 346.119 468.486ZM409.986 495.977C406.373 495.911 403.118 495.228 400.221 493.926C397.324 492.591 394.898 490.768 392.945 488.457C391.025 486.146 389.609 483.46 388.697 480.4C387.786 477.34 387.46 474.053 387.721 470.537L387.916 468.535C388.307 464.857 389.202 461.357 390.602 458.037C392.001 454.717 393.873 451.787 396.217 449.248C398.561 446.676 401.327 444.674 404.518 443.242C407.74 441.777 411.321 441.094 415.26 441.191C418.938 441.257 422.079 442.005 424.684 443.438C427.288 444.87 429.387 446.79 430.982 449.199C432.577 451.608 433.668 454.359 434.254 457.451C434.84 460.511 434.954 463.717 434.596 467.07L433.814 472.93H392.994L394.508 463.555L421.461 463.604L421.705 462.383C421.965 460.592 421.884 458.932 421.461 457.402C421.038 455.84 420.24 454.587 419.068 453.643C417.896 452.699 416.334 452.194 414.381 452.129C412.135 452.064 410.247 452.536 408.717 453.545C407.187 454.554 405.934 455.889 404.957 457.549C403.98 459.209 403.232 461.016 402.711 462.969C402.19 464.889 401.816 466.745 401.588 468.535L401.393 470.488C401.23 472.214 401.279 473.939 401.539 475.664C401.799 477.357 402.304 478.887 403.053 480.254C403.834 481.621 404.892 482.728 406.227 483.574C407.594 484.421 409.303 484.876 411.354 484.941C413.958 485.007 416.35 484.502 418.531 483.428C420.745 482.321 422.73 480.856 424.488 479.033L430.641 486.455C429.176 488.669 427.304 490.492 425.025 491.924C422.779 493.324 420.354 494.349 417.75 495C415.146 495.684 412.558 496.009 409.986 495.977ZM458.375 454.424L451.344 495H437.623L446.803 442.168H459.693L458.375 454.424ZM475.611 441.729L473.902 454.863C473.121 454.733 472.324 454.619 471.51 454.521C470.729 454.424 469.931 454.359 469.117 454.326C467.229 454.294 465.52 454.538 463.99 455.059C462.46 455.579 461.126 456.344 459.986 457.354C458.88 458.33 457.936 459.535 457.154 460.967C456.406 462.399 455.836 464.01 455.445 465.801L452.76 464.922C453.085 462.415 453.622 459.779 454.371 457.012C455.152 454.212 456.227 451.608 457.594 449.199C458.993 446.758 460.768 444.788 462.916 443.291C465.097 441.761 467.75 441.012 470.875 441.045C471.689 441.045 472.47 441.11 473.219 441.24C474 441.37 474.798 441.533 475.611 441.729Z" fill="#FDC45D"/>
</svg>
