<svg width="119" height="112" viewBox="0 0 119 112" fill="none" xmlns="http://www.w3.org/2000/svg">
<g clip-path="url(#clip0_1_21597)">
<path d="M84.8498 77.7702C83.6017 76.574 82.6048 75.1394 81.5948 73.7426C80.6792 72.4761 78.7242 73.8896 79.6399 75.156C80.7825 76.7364 81.9319 78.3039 83.3434 79.6535C84.4714 80.7339 85.9721 78.8427 84.8524 77.7683L84.8498 77.7702Z" fill="black"/>
<path d="M81.0112 80.9019C81.045 79.0908 81.1351 77.2795 81.2199 75.472C81.2908 73.9298 78.9042 73.5243 78.833 75.0829C78.7384 77.1 78.6419 79.1145 78.6082 81.1322C78.5808 82.6956 80.9875 82.4424 81.0131 80.9046L81.0112 80.9019Z" fill="black"/>
<path d="M49.1098 79.1968C55.4724 71.5944 41.374 71.8171 38.165 70.6369C34.6212 69.334 31.7304 66.6636 27.933 65.9695C19.6563 64.4584 25.312 71.1259 28.7892 73.2629C26.5854 74.2931 19.8614 72.9155 18.8259 75.6453C16.915 80.7015 25.239 79.6503 27.2156 80.2752C24.8684 82.2397 16.9558 85.4892 24.0769 87.4104C29.0568 88.7525 33.0427 86.8228 37.7296 85.4275C41.7717 84.2228 46.3565 82.4799 49.1052 79.1961L49.1098 79.1968Z" fill="#FFC718"/>
<path d="M68.3456 43.7956C71.6827 45.6328 76.1068 46.8867 77.8191 42.521C79.2955 38.7552 76.113 35.8096 75.2196 32.3312C74.2485 28.5443 73.7499 24.3956 74.1289 20.4955C74.3507 18.2081 76.1615 13.1027 71.9993 14.2808C69.4137 15.0117 68.3198 19.6191 67.4099 21.7638C65.227 19.5256 67.7743 13.118 65.6568 12.5381C62.2442 11.6063 60.7242 18.9161 60.1837 20.8019C59.5513 19.598 60.4314 15.1412 59.7203 14.5371C57.7598 12.8633 56.2146 17.4769 55.8891 18.5833C54.6154 22.9196 55.1771 28.8013 56.8069 33.064C58.8088 38.2934 63.6409 41.2051 68.341 43.7949L68.3456 43.7956Z" fill="#FFC718"/>
<path d="M53.0118 34.7387C62.4398 20.346 85.1791 23.6277 90.9283 39.3959C96.1693 53.7693 89.1562 74.5148 74.8594 81.2417C65.074 85.8453 40.0414 84.5579 41.1479 69.0998C41.4226 65.2508 46.923 57.4656 47.9961 52.6788C49.384 46.4976 49.4143 40.2406 53.0118 34.7387Z" fill="#F16743"/>
<path d="M93.0637 20.7021C94.6354 26.2345 91.3091 30.3653 90.6531 35.9688C93.7717 38.681 95.1093 39.9787 100.936 42.3578C94.0029 44.2062 88.2147 45.5065 83.5246 41.3293C78.0516 36.4543 89.5526 24.209 93.0657 20.7048L93.0637 20.7021Z" fill="#FFC718"/>
<path d="M57.6678 45.0501C60.1775 50.1838 67.4552 50.051 71.1076 46.2597C75.3111 41.8917 71.2965 33.9567 65.7335 33.3034C61.5335 32.8113 57.7756 35.4189 57.0615 39.6422C56.6934 41.8166 56.9682 43.6194 57.6678 45.0501Z" fill="white"/>
<path d="M69.1827 41.0029C71.4652 37.4201 67.9308 33.1286 63.9719 34.7107C60.4512 36.1177 60.3688 41.5049 64.1898 42.5831C66.1068 43.1255 68.0425 42.7956 69.182 41.0075L69.1827 41.0029Z" fill="black"/>
<path d="M67.2986 37.8395C68.5882 37.2799 68.4183 35.2149 66.9991 34.9202C65.8613 34.6855 64.7046 35.5461 65.111 36.6661C65.449 37.5967 66.2958 38.2769 67.3005 37.8422L67.2986 37.8395Z" fill="white"/>
<path d="M53.16 65.7792C56.9428 65.4265 61.2939 63.9741 60.2571 59.3879C59.3619 55.4327 55.0838 54.7823 52.3936 52.4004C49.465 49.806 46.7272 46.6442 44.851 43.1957C43.7479 41.1734 42.3763 35.9178 39.6074 39.2405C37.8847 41.3044 39.5669 45.7399 40.0247 48.0302C36.9696 47.4031 35.471 40.6551 33.4024 41.3647C30.0639 42.5104 32.9141 49.4318 33.5284 51.2969C32.3307 50.6557 30.5538 46.4629 29.6293 46.3615C27.0712 46.076 28.3878 50.7758 28.7416 51.8733C30.1263 56.1876 33.8897 60.7511 37.6268 63.3646C42.2145 66.5745 47.8328 66.2722 53.1634 65.7727L53.16 65.7792Z" fill="#FFC718"/>
<path d="M63.6972 80.2088C61.9988 80.2699 60.3031 80.3291 58.6021 80.303C57.9421 80.294 57.4588 81.0203 57.5183 81.6214C57.5885 82.3323 58.1821 82.7013 58.8394 82.7122C60.5377 82.7402 62.2361 82.6791 63.9345 82.618C65.4959 82.5627 65.2449 80.1512 63.6972 80.2088Z" fill="black"/>
<path d="M63.8893 81.5119C62.4825 83.003 61.5045 84.808 60.3321 86.4781C59.4442 87.744 61.3244 89.2733 62.2209 87.9971C63.3907 86.3289 64.3714 84.5219 65.7781 83.0308C66.844 81.8996 64.9518 80.3871 63.8893 81.5119Z" fill="black"/>
</g>
<defs>
<clipPath id="clip0_1_21597">
<rect width="96.3698" height="68.5038" fill="white" transform="translate(0 56.464) rotate(-35.8673)"/>
</clipPath>
</defs>
</svg>
