<svg width="258" height="318" viewBox="0 0 258 318" fill="none" xmlns="http://www.w3.org/2000/svg">
<path d="M179.594 95.8172C180.88 96.2419 235.933 122.668 235.933 122.668C208.94 173.724 186.191 225.231 168.636 277.291L103.14 247.129C132.589 199.519 158.11 149.107 179.594 95.8172Z" fill="url(#paint0_linear_180_3993)"/>
<path d="M201.792 87.229L227.568 99.7202L235.932 122.666L179.593 95.8159L201.792 87.229Z" fill="#E07D00"/>
<path d="M208.566 66.7158L201.791 87.2296L227.568 99.7208L236.134 79.8052L208.566 66.7158Z" fill="white"/>
<path opacity="0.2" d="M207.324 70.4774L233.771 85.2961L236.134 79.8052L208.566 66.7158L207.324 70.4774Z" fill="black"/>
<path opacity="0.2" d="M206.495 72.9849L232.833 87.4866L230.638 92.5715L204.767 78.2173L206.495 72.9849Z" fill="black"/>
<path opacity="0.2" d="M204.089 80.2793L229.88 94.3466L227.57 99.7209L201.793 87.2298L204.089 80.2793Z" fill="black"/>
<path d="M177.554 125.282C193.835 125.351 205.081 132.555 212.069 145.781C199.554 181.22 185.352 215.159 169.14 247.318C151.375 250.343 136.622 246.36 126.514 231.535C144.618 189.064 162.839 145.815 177.554 125.282Z" fill="url(#paint1_linear_180_3993)"/>
<path d="M212.487 68.5782L232.595 78.121C237.636 68.3532 251.56 64.9959 243.834 52.0813C241.629 60.5796 225.245 43.7959 212.481 68.5762L212.487 68.5782Z" fill="white"/>
<path d="M220.556 71.8133L225.873 74.9332C233.524 63.5872 247.718 65.4336 244.276 52.8444C245.487 61.8488 228.219 61.5475 220.556 71.8133Z" fill="#FA8284"/>
<path d="M173.599 159.231C177.64 160.566 181.996 158.376 183.329 154.341C184.662 150.306 182.466 145.953 178.425 144.619C174.384 143.284 170.028 145.473 168.695 149.508C167.363 153.543 169.558 157.896 173.599 159.231Z" fill="url(#paint2_radial_180_3993)"/>
<path d="M192.168 165.082C196.208 166.417 200.565 164.227 201.897 160.192C203.23 156.157 201.034 151.804 196.994 150.47C192.953 149.135 188.596 151.324 187.264 155.359C185.931 159.394 188.127 163.747 192.168 165.082Z" fill="url(#paint3_radial_180_3993)"/>
<path d="M174.197 158.713C178.095 160 182.297 157.888 183.582 153.997C184.867 150.105 182.75 145.906 178.852 144.619C174.955 143.332 170.753 145.443 169.468 149.335C168.182 153.227 170.3 157.425 174.197 158.713Z" fill="white"/>
<path d="M174.068 159.105C169.963 157.749 167.726 153.313 169.079 149.214C170.433 145.115 174.873 142.884 178.978 144.24C183.083 145.595 185.32 150.032 183.966 154.131C182.613 158.23 178.173 160.461 174.068 159.105ZM178.725 145.005C175.042 143.789 171.061 145.79 169.846 149.467C168.632 153.144 170.638 157.123 174.321 158.339C178.004 159.556 181.985 157.555 183.2 153.878C184.414 150.2 182.407 146.221 178.725 145.005Z" fill="black"/>
<path d="M176.539 156.793C179.517 157.776 182.726 156.163 183.708 153.19C184.69 150.217 183.072 147.01 180.095 146.027C177.118 145.043 173.908 146.656 172.926 149.629C171.944 152.602 173.562 155.809 176.539 156.793Z" fill="black"/>
<path d="M175.277 148.981C175.914 149.191 176.601 148.846 176.811 148.21C177.021 147.575 176.675 146.889 176.038 146.678C175.401 146.468 174.715 146.813 174.504 147.449C174.294 148.085 174.64 148.771 175.277 148.981Z" fill="white"/>
<path d="M174.478 152.696C175.328 152.976 176.245 152.516 176.525 151.667C176.806 150.818 176.344 149.902 175.494 149.621C174.643 149.34 173.727 149.801 173.446 150.65C173.166 151.499 173.628 152.415 174.478 152.696Z" fill="white"/>
<path d="M178.947 147.351C179.301 147.468 179.682 147.276 179.798 146.923C179.915 146.571 179.723 146.19 179.369 146.073C179.016 145.956 178.635 146.148 178.518 146.501C178.402 146.854 178.594 147.234 178.947 147.351Z" fill="white"/>
<path d="M182.282 152.439C182.328 152.728 182.306 153.035 182.209 153.33C181.896 154.277 180.937 154.809 180.068 154.522C179.724 154.408 179.444 154.182 179.252 153.891C179.35 154.505 179.746 155.031 180.344 155.228C181.213 155.515 182.172 154.983 182.485 154.036C182.674 153.464 182.581 152.872 182.284 152.432L182.282 152.439Z" fill="white"/>
<path d="M192.171 164.648C196.069 165.935 200.27 163.824 201.556 159.932C202.841 156.04 200.723 151.842 196.826 150.554C192.928 149.267 188.727 151.379 187.441 155.271C186.156 159.162 188.273 163.361 192.171 164.648Z" fill="white"/>
<path d="M192.042 165.041C187.937 163.685 185.699 159.249 187.053 155.15C188.407 151.05 192.846 148.819 196.951 150.175C201.057 151.531 203.294 155.967 201.94 160.066C200.586 164.165 196.147 166.396 192.042 165.041ZM196.699 150.941C193.016 149.725 189.034 151.726 187.82 155.403C186.605 159.08 188.612 163.059 192.295 164.275C195.977 165.491 199.959 163.49 201.173 159.813C202.388 156.136 200.381 152.157 196.699 150.941Z" fill="black"/>
<path d="M194.513 162.728C197.49 163.712 200.7 162.099 201.682 159.126C202.664 156.153 201.046 152.945 198.069 151.962C195.091 150.979 191.882 152.592 190.9 155.565C189.918 158.538 191.536 161.745 194.513 162.728Z" fill="black"/>
<path d="M193.504 155C194.141 155.21 194.827 154.865 195.037 154.229C195.247 153.594 194.901 152.908 194.264 152.697C193.628 152.487 192.941 152.832 192.731 153.468C192.521 154.104 192.867 154.79 193.504 155Z" fill="white"/>
<path d="M192.705 158.715C193.555 158.995 194.471 158.535 194.752 157.686C195.032 156.837 194.57 155.921 193.72 155.64C192.87 155.359 191.953 155.82 191.673 156.669C191.393 157.518 191.855 158.434 192.705 158.715Z" fill="white"/>
<path d="M196.92 153.287C197.273 153.403 197.654 153.212 197.771 152.859C197.887 152.506 197.695 152.125 197.342 152.009C196.989 151.892 196.608 152.083 196.491 152.436C196.375 152.789 196.567 153.17 196.92 153.287Z" fill="white"/>
<path d="M200.328 158.398C200.374 158.687 200.352 158.994 200.255 159.289C199.942 160.236 198.983 160.768 198.114 160.481C197.77 160.367 197.49 160.141 197.298 159.85C197.396 160.464 197.792 160.99 198.389 161.187C199.259 161.474 200.218 160.942 200.53 159.995C200.72 159.423 200.627 158.831 200.33 158.391L200.328 158.398Z" fill="white"/>
<path d="M166.353 150.439C167.653 150.334 168.996 150.483 170.312 150.918C174.617 152.34 177.309 156.391 177.188 160.69" fill="#FFC221"/>
<path d="M177.014 161.2C176.79 161.127 176.639 160.916 176.646 160.671C176.761 156.531 174.088 152.726 170.14 151.422C168.92 151.019 167.663 150.872 166.397 150.975C166.102 150.998 165.84 150.777 165.811 150.48C165.782 150.183 166.008 149.924 166.305 149.895C167.716 149.779 169.12 149.949 170.478 150.397C174.873 151.849 177.853 156.082 177.728 160.701C177.716 160.998 177.472 161.231 177.172 161.226C177.12 161.222 177.068 161.218 177.02 161.202L177.014 161.2Z" fill="black"/>
<path d="M202.733 162.454C201.751 161.594 200.583 160.915 199.267 160.48C194.963 159.058 190.387 160.709 187.923 164.235" fill="#FFC221"/>
<path d="M187.755 164.748C187.707 164.732 187.66 164.71 187.618 164.676C187.372 164.508 187.311 164.166 187.485 163.923C190.134 160.138 195.05 158.512 199.445 159.964C200.803 160.413 202.032 161.112 203.096 162.046C203.32 162.24 203.341 162.581 203.145 162.81C202.949 163.04 202.609 163.055 202.379 162.858C201.424 162.021 200.32 161.389 199.107 160.989C195.164 159.687 190.751 161.151 188.372 164.543C188.231 164.745 187.978 164.821 187.761 164.75L187.755 164.748Z" fill="black"/>
<path d="M181.15 158.734C182.156 160.451 183.694 161.126 186.059 160.209L181.15 158.734Z" fill="#FFC221"/>
<path d="M182.975 160.848C182.106 160.561 181.378 159.926 180.8 158.939C180.689 158.749 180.753 158.496 180.943 158.385C181.134 158.274 181.387 158.338 181.497 158.534C182.477 160.209 183.873 160.623 185.913 159.839C186.12 159.76 186.353 159.864 186.439 160.073C186.518 160.279 186.414 160.513 186.205 160.597C184.97 161.072 183.889 161.163 182.971 160.86L182.975 160.848Z" fill="black"/>
<path d="M182.324 160.2C182.8 160.825 182.291 162.489 182.724 162.92C183.898 164.09 185.881 162.525 184.229 160.756L182.324 160.2Z" fill="url(#paint4_radial_180_3993)"/>
<path d="M183.178 163.517C182.954 163.443 182.731 163.309 182.529 163.109C182.237 162.818 182.247 162.28 182.263 161.664C182.274 161.166 182.292 160.604 182.104 160.361L181.61 159.71L184.37 160.514L184.419 160.571C185.383 161.604 185.241 162.621 184.67 163.174C184.306 163.528 183.731 163.706 183.17 163.521L183.178 163.517ZM182.766 160.607C182.826 160.934 182.815 161.311 182.808 161.677C182.801 162.062 182.787 162.592 182.912 162.72C183.38 163.189 183.97 163.104 184.305 162.779C184.65 162.445 184.788 161.782 184.08 160.987L182.768 160.601L182.766 160.607Z" fill="black"/>
<path d="M176.36 160.603C178.464 157.354 168.331 149.762 166.352 151.435C163.385 153.951 173.951 164.327 176.36 160.603Z" fill="#FFC221"/>
<path d="M202.587 164.15C201.629 160.404 188.7 162.492 188.587 165.082C188.423 168.966 203.691 168.452 202.587 164.15Z" fill="#FFC221"/>
<path d="M81.7972 67.6148L96.7052 121.184C81.6073 137.745 94.1973 156.672 129.307 177.253C135.725 181.011 140.404 187.136 142.311 194.318L164.988 279.869C166.195 284.426 167.344 289.907 165.305 294.154C160.67 303.809 149.004 315.453 143.459 306.314C133.545 289.989 141.598 222.102 116.879 186.4C107.682 173.113 82.0366 156.313 73.0573 140.684C46.9605 95.2272 57.9835 76.7114 69.1735 70.2182C75.6103 66.4807 81.7972 67.6148 81.7972 67.6148Z" fill="url(#paint5_linear_180_3993)"/>
<path d="M81.7968 67.6147L102.652 54.9671L108.599 63.9846L106.184 67.4658L109.019 67.0917L120.021 94.6399L114.8 97.1879L120.875 101.013L121.664 106.876L119.463 108.917L122.337 111.932L123.558 121.027L96.7048 121.203C90.5354 103.555 85.5875 85.6945 81.7969 67.6348L81.7968 67.6147Z" fill="#FFFEFC"/>
<path opacity="0.2" d="M81.797 67.6151L97.8219 58.0788L102.482 65.1737L95.2601 73.5391L105.541 71.8668L113.79 94.227L100.944 102.105L114.889 102.412L115.664 108.177L108.623 110.966L117.511 115.032L117.978 120.835L96.709 121.192C90.5396 103.543 85.5917 85.6828 81.8011 67.6231L81.797 67.6151Z" fill="black"/>
<path d="M157.139 281.663C158.265 286.019 157.732 293.004 158.236 294.48C160.214 300.248 166.511 298.029 162.781 279.989C158.281 258.239 153.032 265.798 157.137 281.669L157.139 281.663Z" fill="#FFFEFC"/>
<path d="M71.4387 73.3137C80.4799 69.3333 79.4337 75.3392 73.2227 77.3996C67.0118 79.46 62.3975 77.2941 71.4387 73.3137Z" fill="#FFFEFC"/>
<mask id="mask0_180_3993" style="mask-type:luminance" maskUnits="userSpaceOnUse" x="57" y="67" width="110" height="243">
<path d="M81.7963 67.6139L96.7042 121.183C81.6064 137.744 94.1964 156.671 129.306 177.252C135.724 181.01 140.404 187.135 142.31 194.317L164.987 279.868C166.194 284.425 167.343 289.906 165.304 294.153C160.669 303.808 149.003 315.452 143.458 306.313C133.544 289.988 141.597 222.101 116.878 186.399C107.681 173.112 82.0356 156.312 73.0564 140.683C46.9595 95.2262 57.9825 76.7104 69.1726 70.2172C75.6093 66.4797 81.7963 67.6139 81.7963 67.6139Z" fill="white"/>
</mask>
<g mask="url(#mask0_180_3993)">
<path opacity="0.2" d="M61.666 76.4629C62.5604 122.328 68.4966 127.404 86.296 147.262C97.9162 160.226 128.11 181.297 133.038 200.922C146.969 256.475 149.463 297.7 151.042 300.682C153.94 306.158 157.841 305.334 157.841 305.334L115.79 338.493L34.2264 80.725L61.664 76.4689L61.666 76.4629Z" fill="black"/>
</g>
<defs>
<linearGradient id="paint0_linear_180_3993" x1="163.027" y1="199.944" x2="218.421" y2="132.924" gradientUnits="userSpaceOnUse">
<stop stop-color="#CF7F00"/>
<stop offset="0.65" stop-color="#ED9300"/>
</linearGradient>
<linearGradient id="paint1_linear_180_3993" x1="177.359" y1="181.645" x2="212.753" y2="140.502" gradientUnits="userSpaceOnUse">
<stop offset="0.35" stop-color="#FFC221"/>
<stop offset="0.93" stop-color="#ED9300"/>
</linearGradient>
<radialGradient id="paint2_radial_180_3993" cx="0" cy="0" r="1" gradientUnits="userSpaceOnUse" gradientTransform="translate(176.012 151.925) rotate(18.2769) scale(7.7055 7.69428)">
<stop offset="0.93" stop-color="#EB8B11"/>
<stop offset="1" stop-color="#FFC31D"/>
</radialGradient>
<radialGradient id="paint3_radial_180_3993" cx="0" cy="0" r="1" gradientUnits="userSpaceOnUse" gradientTransform="translate(193.7 154.644) rotate(18.2769) scale(7.65464 7.64348)">
<stop offset="0.93" stop-color="#EB8B11"/>
<stop offset="1" stop-color="#FFC31D"/>
</radialGradient>
<radialGradient id="paint4_radial_180_3993" cx="0" cy="0" r="1" gradientUnits="userSpaceOnUse" gradientTransform="translate(183.381 161.886) rotate(18.2769) scale(1.44319 1.44108)">
<stop offset="0.01" stop-color="#F92524"/>
<stop offset="0.93" stop-color="#8B0C0B"/>
</radialGradient>
<linearGradient id="paint5_linear_180_3993" x1="70.03" y1="194.332" x2="152.478" y2="183.279" gradientUnits="userSpaceOnUse">
<stop stop-color="#FD6B80"/>
<stop offset="0.59" stop-color="#F7303F"/>
</linearGradient>
</defs>
</svg>
