<svg width="138" height="235" viewBox="0 0 138 235" fill="none" xmlns="http://www.w3.org/2000/svg">
<path style="mix-blend-mode:screen" d="M105.246 96.4296C122.998 78.6781 122.998 49.8972 105.246 32.1456C87.4947 14.3941 58.7138 14.3941 40.9623 32.1456C23.2108 49.8972 23.2108 78.678 40.9623 96.4296C58.7138 114.181 87.4947 114.181 105.246 96.4296Z" fill="url(#paint0_radial_178_10190)"/>
<path style="mix-blend-mode:screen" d="M105.246 96.4293C122.998 78.6778 122.998 49.8969 105.246 32.1454C87.4947 14.3939 58.7138 14.3939 40.9623 32.1454C23.2108 49.8969 23.2108 78.6778 40.9623 96.4293C58.7138 114.181 87.4947 114.181 105.246 96.4293Z" fill="url(#paint1_radial_178_10190)"/>
<path style="mix-blend-mode:screen" d="M105.246 96.4315C122.999 78.6789 122.999 49.8963 105.246 32.1437C87.4935 14.3912 58.7109 14.3912 40.9583 32.1437C23.2057 49.8963 23.2057 78.6789 40.9583 96.4315C58.7109 114.184 87.4935 114.184 105.246 96.4315Z" fill="url(#paint2_radial_178_10190)"/>
<path style="mix-blend-mode:screen" d="M105.246 96.4315C122.999 78.6789 122.999 49.8963 105.246 32.1437C87.4935 14.3912 58.7109 14.3912 40.9583 32.1437C23.2057 49.8963 23.2057 78.6789 40.9583 96.4315C58.7109 114.184 87.4935 114.184 105.246 96.4315Z" fill="url(#paint3_radial_178_10190)"/>
<path style="mix-blend-mode:screen" d="M73.0972 109.745C98.2016 109.745 118.553 89.394 118.553 64.2896C118.553 39.1852 98.2016 18.834 73.0972 18.834C47.9928 18.834 27.6416 39.1852 27.6416 64.2896C27.6416 89.394 47.9928 109.745 73.0972 109.745Z" fill="url(#paint4_radial_178_10190)"/>
<path style="mix-blend-mode:screen" d="M105.246 96.4315C122.999 78.6789 122.999 49.8963 105.246 32.1437C87.4935 14.3912 58.7109 14.3912 40.9583 32.1437C23.2057 49.8963 23.2057 78.6789 40.9583 96.4315C58.7109 114.184 87.4935 114.184 105.246 96.4315Z" fill="url(#paint5_radial_178_10190)"/>
<path style="mix-blend-mode:screen" d="M42.9306 30.2856C61.7105 13.623 90.4392 15.341 107.102 34.1209C123.762 52.9008 122.046 81.6322 103.267 98.2921C84.4866 114.955 55.7579 113.237 39.0953 94.4568C22.4354 75.6769 24.1507 46.9455 42.9306 30.2856Z" fill="url(#paint6_radial_178_10190)"/>
<path style="mix-blend-mode:multiply" opacity="0.52" d="M105.252 96.4315C123.004 78.6789 123.004 49.8963 105.252 32.1437C87.4993 14.3912 58.7167 14.3912 40.9642 32.1437C23.2116 49.8963 23.2116 78.6789 40.9642 96.4315C58.7167 114.184 87.4993 114.184 105.252 96.4315Z" fill="url(#paint7_linear_178_10190)"/>
<path style="mix-blend-mode:screen" d="M107.767 51.9239L88.7995 54.5183C88.7995 54.5183 84.8356 41.5302 69.1164 39.6836C70.5718 33.0877 68.6152 25.7146 68.6152 25.7146C68.6152 25.7146 95.3633 21.7506 107.767 51.9239Z" fill="url(#paint8_radial_178_10190)"/>
<path style="mix-blend-mode:screen" opacity="0.2" d="M39.6768 77.0477L58.4325 73.2043C58.4325 73.2043 63.2461 85.903 79.0538 86.7043C78.0353 93.3806 80.4769 100.612 80.4769 100.612C80.4769 100.612 54.0505 106.334 39.6794 77.0477H39.6768Z" fill="url(#paint9_radial_178_10190)"/>
<path style="mix-blend-mode:multiply" opacity="0.3" d="M80.534 22.4484C80.1346 22.3761 79.738 22.3064 79.3413 22.2447C73.2332 21.2906 76.9506 40.9657 80.7136 45.8704C87.5185 54.7444 98.5179 57.8346 95.0631 72.1869C92.2409 83.918 84.8196 93.1324 75.6346 99.5166C70.6334 102.99 60.079 105.038 66.0906 106C66.1495 106.011 66.2085 106.019 66.2701 106.029C90.0298 109.733 112.262 92.9261 114.945 68.767C117.381 46.8406 102.227 26.4553 80.534 22.4484Z" fill="url(#paint10_radial_178_10190)"/>
<path style="mix-blend-mode:screen" d="M57.5831 45.5831C58.9473 51.7287 55.0718 57.8181 48.9262 59.1823C42.7806 60.5465 36.6912 56.6709 35.327 50.5253C33.9628 44.3797 37.8383 38.2904 43.984 36.9262C50.1296 35.562 56.2189 39.4375 57.5831 45.5831Z" fill="url(#paint11_radial_178_10190)"/>
<path style="mix-blend-mode:screen" d="M106.009 80.4578C106.859 84.2851 104.446 88.0775 100.619 88.9271C96.7919 89.7768 92.9994 87.3646 92.1498 83.5373C91.3002 79.7101 93.7124 75.9176 97.5396 75.068C101.367 74.2184 105.159 76.6305 106.009 80.4578Z" fill="url(#paint12_radial_178_10190)"/>
<path style="mix-blend-mode:screen" d="M48.2153 181.714C57.091 172.838 57.091 158.448 48.2153 149.573C39.3397 140.697 24.9494 140.697 16.0737 149.573C7.19807 158.448 7.19807 172.838 16.0737 181.714C24.9494 190.59 39.3397 190.59 48.2153 181.714Z" fill="url(#paint13_radial_178_10190)"/>
<path style="mix-blend-mode:screen" d="M48.2153 181.714C57.091 172.838 57.091 158.448 48.2153 149.573C39.3397 140.697 24.9494 140.697 16.0737 149.573C7.19807 158.448 7.19807 172.838 16.0737 181.714C24.9494 190.59 39.3397 190.59 48.2153 181.714Z" fill="url(#paint14_radial_178_10190)"/>
<path style="mix-blend-mode:screen" d="M48.2152 181.715C57.0914 172.839 57.0914 158.448 48.2152 149.572C39.3391 140.695 24.9479 140.695 16.0717 149.572C7.19557 158.448 7.19557 172.839 16.0718 181.715C24.9479 190.591 39.3391 190.591 48.2152 181.715Z" fill="url(#paint15_radial_178_10190)"/>
<path style="mix-blend-mode:screen" d="M48.2152 181.715C57.0914 172.839 57.0914 158.448 48.2152 149.572C39.3391 140.695 24.9479 140.695 16.0717 149.572C7.19557 158.448 7.19557 172.839 16.0718 181.715C24.9479 190.591 39.3391 190.591 48.2152 181.715Z" fill="url(#paint16_radial_178_10190)"/>
<path style="mix-blend-mode:screen" d="M32.1406 188.372C44.6927 188.372 54.8682 178.196 54.8682 165.644C54.8682 153.092 44.6927 142.917 32.1406 142.917C19.5886 142.917 9.41309 153.092 9.41309 165.644C9.41309 178.196 19.5886 188.372 32.1406 188.372Z" fill="url(#paint17_radial_178_10190)"/>
<path style="mix-blend-mode:screen" d="M48.2152 181.715C57.0914 172.839 57.0914 158.448 48.2152 149.572C39.3391 140.695 24.9479 140.695 16.0717 149.572C7.19557 158.448 7.19557 172.839 16.0718 181.715C24.9479 190.591 39.3391 190.591 48.2152 181.715Z" fill="url(#paint18_radial_178_10190)"/>
<path style="mix-blend-mode:screen" d="M17.0575 148.643C26.4474 140.311 40.8115 141.17 49.1427 150.56C57.4726 159.95 56.615 174.316 47.2251 182.645C37.8353 190.977 23.4711 190.118 15.1399 180.728C6.81001 171.338 7.66766 156.972 17.0575 148.643Z" fill="url(#paint19_radial_178_10190)"/>
<path style="mix-blend-mode:multiply" opacity="0.52" d="M48.2182 181.715C57.0944 172.839 57.0944 158.448 48.2182 149.572C39.342 140.695 24.9509 140.695 16.0747 149.572C7.1985 158.448 7.1985 172.839 16.0747 181.715C24.9509 190.591 39.342 190.591 48.2182 181.715Z" fill="url(#paint20_linear_178_10190)"/>
<path style="mix-blend-mode:screen" d="M49.4761 159.462L39.9924 160.759C39.9924 160.759 38.0105 154.265 30.151 153.341C30.8786 150.044 29.9004 146.357 29.9004 146.357C29.9004 146.357 43.2743 144.375 49.4761 159.462Z" fill="url(#paint21_radial_178_10190)"/>
<path style="mix-blend-mode:screen" opacity="0.2" d="M15.4307 172.023L24.8085 170.102C24.8085 170.102 27.2152 176.451 35.1189 176.852C34.6097 180.19 35.8305 183.805 35.8305 183.805C35.8305 183.805 22.6174 186.666 15.432 172.023H15.4307Z" fill="url(#paint22_radial_178_10190)"/>
<path style="mix-blend-mode:multiply" opacity="0.3" d="M35.8592 144.724C35.6595 144.688 35.4612 144.653 35.2629 144.622C32.2088 144.145 34.0675 153.983 35.949 156.435C39.3514 160.872 44.851 162.417 43.1237 169.593C41.7126 175.459 38.0019 180.066 33.4095 183.258C30.909 184.994 25.6318 186.018 28.6376 186.499C28.667 186.505 28.6965 186.509 28.7273 186.514C40.607 188.366 51.7229 179.963 53.0643 167.883C54.2824 156.92 46.7057 146.727 35.8592 144.724Z" fill="url(#paint23_radial_178_10190)"/>
<path style="mix-blend-mode:screen" d="M24.3837 156.291C25.0658 159.364 23.1281 162.409 20.0553 163.091C16.9825 163.773 13.9379 161.835 13.2558 158.762C12.5737 155.69 14.5114 152.645 17.5842 151.963C20.657 151.281 23.7016 153.218 24.3837 156.291Z" fill="url(#paint24_radial_178_10190)"/>
<path style="mix-blend-mode:screen" d="M48.5967 173.728C49.0215 175.642 47.8154 177.538 45.9018 177.963C43.9882 178.388 42.092 177.182 41.6672 175.268C41.2424 173.354 42.4485 171.458 44.3621 171.033C46.2757 170.609 48.1719 171.815 48.5967 173.728Z" fill="url(#paint25_radial_178_10190)"/>
<path style="mix-blend-mode:screen" d="M81.6178 224.139C87.339 218.418 87.339 209.142 81.6178 203.421C75.8965 197.7 66.6205 197.7 60.8993 203.421C55.178 209.142 55.178 218.418 60.8993 224.139C66.6205 229.861 75.8965 229.861 81.6178 224.139Z" fill="url(#paint26_radial_178_10190)"/>
<path style="mix-blend-mode:screen" d="M81.6178 224.139C87.339 218.418 87.339 209.142 81.6178 203.421C75.8965 197.7 66.6205 197.7 60.8993 203.421C55.178 209.142 55.178 218.418 60.8993 224.139C66.6205 229.861 75.8965 229.861 81.6178 224.139Z" fill="url(#paint27_radial_178_10190)"/>
<path style="mix-blend-mode:screen" d="M81.6177 224.14C87.3393 218.418 87.3393 209.142 81.6177 203.42C75.8961 197.699 66.6195 197.699 60.8979 203.42C55.1764 209.142 55.1764 218.418 60.8979 224.14C66.6195 229.861 75.8961 229.861 81.6177 224.14Z" fill="url(#paint28_radial_178_10190)"/>
<path style="mix-blend-mode:screen" d="M81.6177 224.14C87.3393 218.418 87.3393 209.142 81.6177 203.42C75.8961 197.699 66.6195 197.699 60.8979 203.42C55.1764 209.142 55.1764 218.418 60.8979 224.14C66.6195 229.861 75.8961 229.861 81.6177 224.14Z" fill="url(#paint29_radial_178_10190)"/>
<path style="mix-blend-mode:screen" d="M71.2557 228.431C79.3467 228.431 85.9058 221.872 85.9058 213.781C85.9058 205.69 79.3467 199.131 71.2557 199.131C63.1646 199.131 56.6055 205.69 56.6055 213.781C56.6055 221.872 63.1646 228.431 71.2557 228.431Z" fill="url(#paint30_radial_178_10190)"/>
<path style="mix-blend-mode:screen" d="M81.6177 224.14C87.3393 218.418 87.3393 209.142 81.6177 203.42C75.8961 197.699 66.6195 197.699 60.8979 203.42C55.1764 209.142 55.1764 218.418 60.8979 224.14C66.6195 229.861 75.8961 229.861 81.6177 224.14Z" fill="url(#paint31_radial_178_10190)"/>
<path style="mix-blend-mode:screen" d="M61.5331 202.821C67.5858 197.451 76.8449 198.005 82.2152 204.058C87.5847 210.11 87.0318 219.37 80.9791 224.74C74.9264 230.11 65.6673 229.556 60.297 223.504C54.9275 217.451 55.4804 208.191 61.5331 202.821Z" fill="url(#paint32_radial_178_10190)"/>
<path style="mix-blend-mode:multiply" opacity="0.52" d="M81.6196 224.14C87.3412 218.418 87.3412 209.142 81.6196 203.42C75.898 197.699 66.6215 197.699 60.8999 203.42C55.1783 209.142 55.1783 218.418 60.8999 224.14C66.6215 229.861 75.898 229.861 81.6196 224.14Z" fill="url(#paint33_linear_178_10190)"/>
<path style="mix-blend-mode:screen" d="M82.43 209.795L76.3169 210.631C76.3169 210.631 75.0393 206.445 69.9731 205.85C70.4421 203.724 69.8115 201.348 69.8115 201.348C69.8115 201.348 78.4323 200.07 82.43 209.795Z" fill="url(#paint34_radial_178_10190)"/>
<path style="mix-blend-mode:screen" opacity="0.2" d="M60.4844 217.893L66.5293 216.654C66.5293 216.654 68.0807 220.747 73.1755 221.005C72.8472 223.157 73.6341 225.487 73.6341 225.487C73.6341 225.487 65.117 227.332 60.4852 217.893H60.4844Z" fill="url(#paint35_radial_178_10190)"/>
<path style="mix-blend-mode:multiply" opacity="0.3" d="M73.6533 200.295C73.5246 200.272 73.3968 200.25 73.2689 200.23C71.3003 199.922 72.4984 206.264 73.7112 207.844C75.9044 210.704 79.4495 211.7 78.336 216.326C77.4264 220.107 75.0346 223.077 72.0743 225.134C70.4624 226.254 67.0607 226.914 68.9983 227.224C69.0173 227.227 69.0363 227.23 69.0562 227.233C76.7138 228.427 83.8791 223.01 84.7438 215.224C85.529 208.157 80.645 201.587 73.6533 200.295Z" fill="url(#paint36_radial_178_10190)"/>
<path style="mix-blend-mode:screen" d="M66.2563 207.752C66.6959 209.732 65.4469 211.695 63.4662 212.135C61.4855 212.574 59.5229 211.325 59.0832 209.345C58.6435 207.364 59.8926 205.401 61.8733 204.962C63.854 204.522 65.8166 205.771 66.2563 207.752Z" fill="url(#paint37_radial_178_10190)"/>
<path style="mix-blend-mode:screen" d="M81.8634 218.992C82.1373 220.225 81.3598 221.448 80.1263 221.721C78.8928 221.995 77.6705 221.218 77.3967 219.984C77.1229 218.751 77.9003 217.528 79.1338 217.255C80.3673 216.981 81.5896 217.758 81.8634 218.992Z" fill="url(#paint38_radial_178_10190)"/>
<defs>
<radialGradient id="paint0_radial_178_10190" cx="0" cy="0" r="1" gradientUnits="userSpaceOnUse" gradientTransform="translate(69.3186 62.5416) rotate(-16.97) scale(57.3662 57.3663)">
<stop offset="0.59"/>
<stop offset="0.63" stop-color="#070707"/>
<stop offset="0.68" stop-color="#1B1B1B"/>
<stop offset="0.74" stop-color="#3C3C3C"/>
<stop offset="0.81" stop-color="#696969"/>
<stop offset="0.89" stop-color="#A4A4A4"/>
<stop offset="0.98" stop-color="#EAEAEA"/>
<stop offset="1" stop-color="white"/>
</radialGradient>
<radialGradient id="paint1_radial_178_10190" cx="0" cy="0" r="1" gradientUnits="userSpaceOnUse" gradientTransform="translate(38.3698 37.3759) rotate(-16.97) scale(58.6956 58.6956)">
<stop offset="0.3" stop-color="#FFE496"/>
<stop offset="0.34" stop-color="#EAD18A"/>
<stop offset="0.48" stop-color="#A49360"/>
<stop offset="0.62" stop-color="#695E3E"/>
<stop offset="0.74" stop-color="#3C3523"/>
<stop offset="0.85" stop-color="#1B1810"/>
<stop offset="0.94" stop-color="#070604"/>
<stop offset="1"/>
</radialGradient>
<radialGradient id="paint2_radial_178_10190" cx="0" cy="0" r="1" gradientUnits="userSpaceOnUse" gradientTransform="translate(107.81 91.2296) rotate(163.03) scale(23.0735 23.0735)">
<stop stop-color="white"/>
<stop offset="0.06" stop-color="#EAEAEA"/>
<stop offset="0.26" stop-color="#A4A4A4"/>
<stop offset="0.45" stop-color="#696969"/>
<stop offset="0.63" stop-color="#3C3C3C"/>
<stop offset="0.78" stop-color="#1B1B1B"/>
<stop offset="0.91" stop-color="#070707"/>
<stop offset="1"/>
</radialGradient>
<radialGradient id="paint3_radial_178_10190" cx="0" cy="0" r="1" gradientUnits="userSpaceOnUse" gradientTransform="translate(75.3997 65.5351) rotate(163.03) scale(48.7576 48.7576)">
<stop/>
<stop offset="0.82"/>
<stop offset="0.84" stop-color="#070305"/>
<stop offset="0.86" stop-color="#1B0D15"/>
<stop offset="0.89" stop-color="#3C1D2F"/>
<stop offset="0.92" stop-color="#693353"/>
<stop offset="0.95" stop-color="#A44F81"/>
<stop offset="0.99" stop-color="#EA72B8"/>
<stop offset="1" stop-color="#FF7CC9"/>
</radialGradient>
<radialGradient id="paint4_radial_178_10190" cx="0" cy="0" r="1" gradientUnits="userSpaceOnUse" gradientTransform="translate(81.1223 34.8199) rotate(55.51) scale(28.9699 28.9699)">
<stop stop-color="white"/>
<stop offset="0.02" stop-color="#FFF6D3"/>
<stop offset="0.04" stop-color="#FFEFA9"/>
<stop offset="0.06" stop-color="#FFE98B"/>
<stop offset="0.08" stop-color="#FFE678"/>
<stop offset="0.09" stop-color="#FFE572"/>
<stop offset="0.13" stop-color="#E2CB65"/>
<stop offset="0.22" stop-color="#A7964A"/>
<stop offset="0.32" stop-color="#746833"/>
<stop offset="0.41" stop-color="#4A4221"/>
<stop offset="0.49" stop-color="#2A2512"/>
<stop offset="0.58" stop-color="#121008"/>
<stop offset="0.66" stop-color="#040402"/>
<stop offset="0.73"/>
</radialGradient>
<radialGradient id="paint5_radial_178_10190" cx="0" cy="0" r="1" gradientUnits="userSpaceOnUse" gradientTransform="translate(34.0101 40.8187) rotate(-16.97) scale(28.9699 28.9699)">
<stop stop-color="white"/>
<stop offset="0.02" stop-color="#F6F6F6"/>
<stop offset="0.15" stop-color="#ACACAC"/>
<stop offset="0.27" stop-color="#6F6F6F"/>
<stop offset="0.39" stop-color="#3F3F3F"/>
<stop offset="0.49" stop-color="#1C1C1C"/>
<stop offset="0.57" stop-color="#070707"/>
<stop offset="0.62"/>
</radialGradient>
<radialGradient id="paint6_radial_178_10190" cx="0" cy="0" r="1" gradientUnits="userSpaceOnUse" gradientTransform="translate(60.2145 91.8847) rotate(48.42) scale(24.8532 24.8532)">
<stop stop-color="white"/>
<stop offset="0.03" stop-color="#FFF6FF"/>
<stop offset="0.07" stop-color="#FFF3FF"/>
<stop offset="0.1" stop-color="#EFE3EF"/>
<stop offset="0.2" stop-color="#B7AFB7"/>
<stop offset="0.31" stop-color="#868086"/>
<stop offset="0.42" stop-color="#5D585D"/>
<stop offset="0.53" stop-color="#3B383B"/>
<stop offset="0.64" stop-color="#211F21"/>
<stop offset="0.75" stop-color="#0E0E0E"/>
<stop offset="0.87" stop-color="#030303"/>
<stop offset="1"/>
</radialGradient>
<linearGradient id="paint7_linear_178_10190" x1="62.8608" y1="108.603" x2="83.3638" y2="20.0154" gradientUnits="userSpaceOnUse">
<stop stop-color="#E8ABFF"/>
<stop offset="0.03" stop-color="#EAB4FF"/>
<stop offset="0.16" stop-color="#F3D4FF"/>
<stop offset="0.28" stop-color="#F9ECFF"/>
<stop offset="0.4" stop-color="#FDFAFF"/>
<stop offset="0.5" stop-color="white"/>
<stop offset="1" stop-color="white"/>
</linearGradient>
<radialGradient id="paint8_radial_178_10190" cx="0" cy="0" r="1" gradientUnits="userSpaceOnUse" gradientTransform="translate(88.2572 29.7054) rotate(-16.97) scale(26.1584 26.1584)">
<stop offset="0.29" stop-color="white"/>
<stop offset="0.35" stop-color="#D4D4D4"/>
<stop offset="0.42" stop-color="#9C9C9C"/>
<stop offset="0.5" stop-color="#6C6C6C"/>
<stop offset="0.57" stop-color="#454545"/>
<stop offset="0.65" stop-color="#272727"/>
<stop offset="0.72" stop-color="#111111"/>
<stop offset="0.79" stop-color="#040404"/>
<stop offset="0.85"/>
</radialGradient>
<radialGradient id="paint9_radial_178_10190" cx="0" cy="0" r="1" gradientUnits="userSpaceOnUse" gradientTransform="translate(53.2512 96.4138) rotate(159.24) scale(23.5586 23.5587)">
<stop stop-color="white"/>
<stop offset="0.09" stop-color="#EDEDED"/>
<stop offset="0.26" stop-color="#BFBFBF"/>
<stop offset="0.5" stop-color="#767676"/>
<stop offset="0.8" stop-color="#121212"/>
<stop offset="0.85"/>
</radialGradient>
<radialGradient id="paint10_radial_178_10190" cx="0" cy="0" r="1" gradientUnits="userSpaceOnUse" gradientTransform="translate(129.118 59.757) rotate(-81.14) scale(31.7385 31.7385)">
<stop stop-color="#C08CFF"/>
<stop offset="0.15" stop-color="#CDA5FF"/>
<stop offset="0.4" stop-color="#E3CCFF"/>
<stop offset="0.64" stop-color="#F2E8FF"/>
<stop offset="0.85" stop-color="#FBF8FF"/>
<stop offset="1" stop-color="white"/>
</radialGradient>
<radialGradient id="paint11_radial_178_10190" cx="0" cy="0" r="1" gradientUnits="userSpaceOnUse" gradientTransform="translate(46.4535 48.074) rotate(-12.52) scale(11.3987 11.3987)">
<stop offset="0.25" stop-color="white"/>
<stop offset="0.26" stop-color="#FAFAFA"/>
<stop offset="0.3" stop-color="#C6C6C6"/>
<stop offset="0.35" stop-color="#979797"/>
<stop offset="0.41" stop-color="#6E6E6E"/>
<stop offset="0.46" stop-color="#4C4C4C"/>
<stop offset="0.52" stop-color="#303030"/>
<stop offset="0.58" stop-color="#1A1A1A"/>
<stop offset="0.65" stop-color="#0B0B0B"/>
<stop offset="0.73" stop-color="#020202"/>
<stop offset="0.85"/>
</radialGradient>
<radialGradient id="paint12_radial_178_10190" cx="0" cy="0" r="1" gradientUnits="userSpaceOnUse" gradientTransform="translate(99.0754 82.0181) rotate(-12.52) scale(7.09977 7.09976)">
<stop offset="0.14" stop-color="white"/>
<stop offset="0.16" stop-color="#E7E7E7"/>
<stop offset="0.21" stop-color="#B7B7B7"/>
<stop offset="0.26" stop-color="#8B8B8B"/>
<stop offset="0.31" stop-color="#666666"/>
<stop offset="0.37" stop-color="#464646"/>
<stop offset="0.44" stop-color="#2C2C2C"/>
<stop offset="0.5" stop-color="#181818"/>
<stop offset="0.58" stop-color="#0A0A0A"/>
<stop offset="0.68" stop-color="#020202"/>
<stop offset="0.85"/>
</radialGradient>
<radialGradient id="paint13_radial_178_10190" cx="0" cy="0" r="1" gradientUnits="userSpaceOnUse" gradientTransform="translate(30.2517 164.77) rotate(-16.97) scale(28.6828 28.6828)">
<stop offset="0.59"/>
<stop offset="0.63" stop-color="#070707"/>
<stop offset="0.68" stop-color="#1B1B1B"/>
<stop offset="0.74" stop-color="#3C3C3C"/>
<stop offset="0.81" stop-color="#696969"/>
<stop offset="0.89" stop-color="#A4A4A4"/>
<stop offset="0.98" stop-color="#EAEAEA"/>
<stop offset="1" stop-color="white"/>
</radialGradient>
<radialGradient id="paint14_radial_178_10190" cx="0" cy="0" r="1" gradientUnits="userSpaceOnUse" gradientTransform="translate(14.7775 152.188) rotate(-16.97) scale(29.3475 29.3475)">
<stop offset="0.3" stop-color="#FFE496"/>
<stop offset="0.34" stop-color="#EAD18A"/>
<stop offset="0.48" stop-color="#A49360"/>
<stop offset="0.62" stop-color="#695E3E"/>
<stop offset="0.74" stop-color="#3C3523"/>
<stop offset="0.85" stop-color="#1B1810"/>
<stop offset="0.94" stop-color="#070604"/>
<stop offset="1"/>
</radialGradient>
<radialGradient id="paint15_radial_178_10190" cx="0" cy="0" r="1" gradientUnits="userSpaceOnUse" gradientTransform="translate(49.4973 179.114) rotate(163.03) scale(11.5366)">
<stop stop-color="white"/>
<stop offset="0.06" stop-color="#EAEAEA"/>
<stop offset="0.26" stop-color="#A4A4A4"/>
<stop offset="0.45" stop-color="#696969"/>
<stop offset="0.63" stop-color="#3C3C3C"/>
<stop offset="0.78" stop-color="#1B1B1B"/>
<stop offset="0.91" stop-color="#070707"/>
<stop offset="1"/>
</radialGradient>
<radialGradient id="paint16_radial_178_10190" cx="0" cy="0" r="1" gradientUnits="userSpaceOnUse" gradientTransform="translate(33.2923 166.267) rotate(163.03) scale(24.3785 24.3785)">
<stop/>
<stop offset="0.82"/>
<stop offset="0.84" stop-color="#070305"/>
<stop offset="0.86" stop-color="#1B0D15"/>
<stop offset="0.89" stop-color="#3C1D2F"/>
<stop offset="0.92" stop-color="#693353"/>
<stop offset="0.95" stop-color="#A44F81"/>
<stop offset="0.99" stop-color="#EA72B8"/>
<stop offset="1" stop-color="#FF7CC9"/>
</radialGradient>
<radialGradient id="paint17_radial_178_10190" cx="0" cy="0" r="1" gradientUnits="userSpaceOnUse" gradientTransform="translate(36.1531 150.91) rotate(55.51) scale(14.4848 14.4848)">
<stop stop-color="white"/>
<stop offset="0.02" stop-color="#FFF6D3"/>
<stop offset="0.04" stop-color="#FFEFA9"/>
<stop offset="0.06" stop-color="#FFE98B"/>
<stop offset="0.08" stop-color="#FFE678"/>
<stop offset="0.09" stop-color="#FFE572"/>
<stop offset="0.13" stop-color="#E2CB65"/>
<stop offset="0.22" stop-color="#A7964A"/>
<stop offset="0.32" stop-color="#746833"/>
<stop offset="0.41" stop-color="#4A4221"/>
<stop offset="0.49" stop-color="#2A2512"/>
<stop offset="0.58" stop-color="#121008"/>
<stop offset="0.66" stop-color="#040402"/>
<stop offset="0.73"/>
</radialGradient>
<radialGradient id="paint18_radial_178_10190" cx="0" cy="0" r="1" gradientUnits="userSpaceOnUse" gradientTransform="translate(12.5977 153.909) rotate(-16.97) scale(14.4848)">
<stop stop-color="white"/>
<stop offset="0.02" stop-color="#F6F6F6"/>
<stop offset="0.15" stop-color="#ACACAC"/>
<stop offset="0.27" stop-color="#6F6F6F"/>
<stop offset="0.39" stop-color="#3F3F3F"/>
<stop offset="0.49" stop-color="#1C1C1C"/>
<stop offset="0.57" stop-color="#070707"/>
<stop offset="0.62"/>
</radialGradient>
<radialGradient id="paint19_radial_178_10190" cx="0" cy="0" r="1" gradientUnits="userSpaceOnUse" gradientTransform="translate(25.6994 179.442) rotate(48.42) scale(12.4264)">
<stop stop-color="white"/>
<stop offset="0.03" stop-color="#FFF6FF"/>
<stop offset="0.07" stop-color="#FFF3FF"/>
<stop offset="0.1" stop-color="#EFE3EF"/>
<stop offset="0.2" stop-color="#B7AFB7"/>
<stop offset="0.31" stop-color="#868086"/>
<stop offset="0.42" stop-color="#5D585D"/>
<stop offset="0.53" stop-color="#3B383B"/>
<stop offset="0.64" stop-color="#211F21"/>
<stop offset="0.75" stop-color="#0E0E0E"/>
<stop offset="0.87" stop-color="#030303"/>
<stop offset="1"/>
</radialGradient>
<linearGradient id="paint20_linear_178_10190" x1="27.0229" y1="187.801" x2="37.2742" y2="143.507" gradientUnits="userSpaceOnUse">
<stop stop-color="#E8ABFF"/>
<stop offset="0.03" stop-color="#EAB4FF"/>
<stop offset="0.16" stop-color="#F3D4FF"/>
<stop offset="0.28" stop-color="#F9ECFF"/>
<stop offset="0.4" stop-color="#FDFAFF"/>
<stop offset="0.5" stop-color="white"/>
<stop offset="1" stop-color="white"/>
</linearGradient>
<radialGradient id="paint21_radial_178_10190" cx="0" cy="0" r="1" gradientUnits="userSpaceOnUse" gradientTransform="translate(39.7213 148.352) rotate(-16.97) scale(13.0791 13.0791)">
<stop offset="0.29" stop-color="white"/>
<stop offset="0.35" stop-color="#D4D4D4"/>
<stop offset="0.42" stop-color="#9C9C9C"/>
<stop offset="0.5" stop-color="#6C6C6C"/>
<stop offset="0.57" stop-color="#454545"/>
<stop offset="0.65" stop-color="#272727"/>
<stop offset="0.72" stop-color="#111111"/>
<stop offset="0.79" stop-color="#040404"/>
<stop offset="0.85"/>
</radialGradient>
<radialGradient id="paint22_radial_178_10190" cx="0" cy="0" r="1" gradientUnits="userSpaceOnUse" gradientTransform="translate(22.2178 181.706) rotate(159.24) scale(11.7792 11.7792)">
<stop stop-color="white"/>
<stop offset="0.09" stop-color="#EDEDED"/>
<stop offset="0.26" stop-color="#BFBFBF"/>
<stop offset="0.5" stop-color="#767676"/>
<stop offset="0.8" stop-color="#121212"/>
<stop offset="0.85"/>
</radialGradient>
<radialGradient id="paint23_radial_178_10190" cx="0" cy="0" r="1" gradientUnits="userSpaceOnUse" gradientTransform="translate(60.151 163.378) rotate(-81.14) scale(15.8691 15.8691)">
<stop stop-color="#C08CFF"/>
<stop offset="0.15" stop-color="#CDA5FF"/>
<stop offset="0.4" stop-color="#E3CCFF"/>
<stop offset="0.64" stop-color="#F2E8FF"/>
<stop offset="0.85" stop-color="#FBF8FF"/>
<stop offset="1" stop-color="white"/>
</radialGradient>
<radialGradient id="paint24_radial_178_10190" cx="0" cy="0" r="1" gradientUnits="userSpaceOnUse" gradientTransform="translate(18.819 157.537) rotate(-12.52) scale(5.6993 5.69931)">
<stop offset="0.25" stop-color="white"/>
<stop offset="0.26" stop-color="#FAFAFA"/>
<stop offset="0.3" stop-color="#C6C6C6"/>
<stop offset="0.35" stop-color="#979797"/>
<stop offset="0.41" stop-color="#6E6E6E"/>
<stop offset="0.46" stop-color="#4C4C4C"/>
<stop offset="0.52" stop-color="#303030"/>
<stop offset="0.58" stop-color="#1A1A1A"/>
<stop offset="0.65" stop-color="#0B0B0B"/>
<stop offset="0.73" stop-color="#020202"/>
<stop offset="0.85"/>
</radialGradient>
<radialGradient id="paint25_radial_178_10190" cx="0" cy="0" r="1" gradientUnits="userSpaceOnUse" gradientTransform="translate(45.1299 174.508) rotate(-12.52) scale(3.54984 3.54984)">
<stop offset="0.14" stop-color="white"/>
<stop offset="0.16" stop-color="#E7E7E7"/>
<stop offset="0.21" stop-color="#B7B7B7"/>
<stop offset="0.26" stop-color="#8B8B8B"/>
<stop offset="0.31" stop-color="#666666"/>
<stop offset="0.37" stop-color="#464646"/>
<stop offset="0.44" stop-color="#2C2C2C"/>
<stop offset="0.5" stop-color="#181818"/>
<stop offset="0.58" stop-color="#0A0A0A"/>
<stop offset="0.68" stop-color="#020202"/>
<stop offset="0.85"/>
</radialGradient>
<radialGradient id="paint26_radial_178_10190" cx="0" cy="0" r="1" gradientUnits="userSpaceOnUse" gradientTransform="translate(70.0384 213.217) rotate(-16.97) scale(18.489 18.489)">
<stop offset="0.59"/>
<stop offset="0.63" stop-color="#070707"/>
<stop offset="0.68" stop-color="#1B1B1B"/>
<stop offset="0.74" stop-color="#3C3C3C"/>
<stop offset="0.81" stop-color="#696969"/>
<stop offset="0.89" stop-color="#A4A4A4"/>
<stop offset="0.98" stop-color="#EAEAEA"/>
<stop offset="1" stop-color="white"/>
</radialGradient>
<radialGradient id="paint27_radial_178_10190" cx="0" cy="0" r="1" gradientUnits="userSpaceOnUse" gradientTransform="translate(60.0638 205.107) rotate(-16.97) scale(18.9174 18.9174)">
<stop offset="0.3" stop-color="#FFE496"/>
<stop offset="0.34" stop-color="#EAD18A"/>
<stop offset="0.48" stop-color="#A49360"/>
<stop offset="0.62" stop-color="#695E3E"/>
<stop offset="0.74" stop-color="#3C3523"/>
<stop offset="0.85" stop-color="#1B1810"/>
<stop offset="0.94" stop-color="#070604"/>
<stop offset="1"/>
</radialGradient>
<radialGradient id="paint28_radial_178_10190" cx="0" cy="0" r="1" gradientUnits="userSpaceOnUse" gradientTransform="translate(82.4441 222.463) rotate(163.03) scale(7.43653)">
<stop stop-color="white"/>
<stop offset="0.06" stop-color="#EAEAEA"/>
<stop offset="0.26" stop-color="#A4A4A4"/>
<stop offset="0.45" stop-color="#696969"/>
<stop offset="0.63" stop-color="#3C3C3C"/>
<stop offset="0.78" stop-color="#1B1B1B"/>
<stop offset="0.91" stop-color="#070707"/>
<stop offset="1"/>
</radialGradient>
<radialGradient id="paint29_radial_178_10190" cx="0" cy="0" r="1" gradientUnits="userSpaceOnUse" gradientTransform="translate(71.9983 214.182) rotate(163.03) scale(15.7144)">
<stop/>
<stop offset="0.82"/>
<stop offset="0.84" stop-color="#070305"/>
<stop offset="0.86" stop-color="#1B0D15"/>
<stop offset="0.89" stop-color="#3C1D2F"/>
<stop offset="0.92" stop-color="#693353"/>
<stop offset="0.95" stop-color="#A44F81"/>
<stop offset="0.99" stop-color="#EA72B8"/>
<stop offset="1" stop-color="#FF7CC9"/>
</radialGradient>
<radialGradient id="paint30_radial_178_10190" cx="0" cy="0" r="1" gradientUnits="userSpaceOnUse" gradientTransform="translate(73.8421 204.283) rotate(55.51) scale(9.33691)">
<stop stop-color="white"/>
<stop offset="0.02" stop-color="#FFF6D3"/>
<stop offset="0.04" stop-color="#FFEFA9"/>
<stop offset="0.06" stop-color="#FFE98B"/>
<stop offset="0.08" stop-color="#FFE678"/>
<stop offset="0.09" stop-color="#FFE572"/>
<stop offset="0.13" stop-color="#E2CB65"/>
<stop offset="0.22" stop-color="#A7964A"/>
<stop offset="0.32" stop-color="#746833"/>
<stop offset="0.41" stop-color="#4A4221"/>
<stop offset="0.49" stop-color="#2A2512"/>
<stop offset="0.58" stop-color="#121008"/>
<stop offset="0.66" stop-color="#040402"/>
<stop offset="0.73"/>
</radialGradient>
<radialGradient id="paint31_radial_178_10190" cx="0" cy="0" r="1" gradientUnits="userSpaceOnUse" gradientTransform="translate(58.6586 206.216) rotate(-16.97) scale(9.33691)">
<stop stop-color="white"/>
<stop offset="0.02" stop-color="#F6F6F6"/>
<stop offset="0.15" stop-color="#ACACAC"/>
<stop offset="0.27" stop-color="#6F6F6F"/>
<stop offset="0.39" stop-color="#3F3F3F"/>
<stop offset="0.49" stop-color="#1C1C1C"/>
<stop offset="0.57" stop-color="#070707"/>
<stop offset="0.62"/>
</radialGradient>
<radialGradient id="paint32_radial_178_10190" cx="0" cy="0" r="1" gradientUnits="userSpaceOnUse" gradientTransform="translate(67.1036 222.675) rotate(48.42) scale(8.0101)">
<stop stop-color="white"/>
<stop offset="0.03" stop-color="#FFF6FF"/>
<stop offset="0.07" stop-color="#FFF3FF"/>
<stop offset="0.1" stop-color="#EFE3EF"/>
<stop offset="0.2" stop-color="#B7AFB7"/>
<stop offset="0.31" stop-color="#868086"/>
<stop offset="0.42" stop-color="#5D585D"/>
<stop offset="0.53" stop-color="#3B383B"/>
<stop offset="0.64" stop-color="#211F21"/>
<stop offset="0.75" stop-color="#0E0E0E"/>
<stop offset="0.87" stop-color="#030303"/>
<stop offset="1"/>
</radialGradient>
<linearGradient id="paint33_linear_178_10190" x1="67.9571" y1="228.063" x2="74.5652" y2="199.511" gradientUnits="userSpaceOnUse">
<stop stop-color="#E8ABFF"/>
<stop offset="0.03" stop-color="#EAB4FF"/>
<stop offset="0.16" stop-color="#F3D4FF"/>
<stop offset="0.28" stop-color="#F9ECFF"/>
<stop offset="0.4" stop-color="#FDFAFF"/>
<stop offset="0.5" stop-color="white"/>
<stop offset="1" stop-color="white"/>
</linearGradient>
<radialGradient id="paint34_radial_178_10190" cx="0" cy="0" r="1" gradientUnits="userSpaceOnUse" gradientTransform="translate(76.1421 202.634) rotate(-16.97) scale(8.43077 8.43077)">
<stop offset="0.29" stop-color="white"/>
<stop offset="0.35" stop-color="#D4D4D4"/>
<stop offset="0.42" stop-color="#9C9C9C"/>
<stop offset="0.5" stop-color="#6C6C6C"/>
<stop offset="0.57" stop-color="#454545"/>
<stop offset="0.65" stop-color="#272727"/>
<stop offset="0.72" stop-color="#111111"/>
<stop offset="0.79" stop-color="#040404"/>
<stop offset="0.85"/>
</radialGradient>
<radialGradient id="paint35_radial_178_10190" cx="0" cy="0" r="1" gradientUnits="userSpaceOnUse" gradientTransform="translate(64.8594 224.134) rotate(159.24) scale(7.59288)">
<stop stop-color="white"/>
<stop offset="0.09" stop-color="#EDEDED"/>
<stop offset="0.26" stop-color="#BFBFBF"/>
<stop offset="0.5" stop-color="#767676"/>
<stop offset="0.8" stop-color="#121212"/>
<stop offset="0.85"/>
</radialGradient>
<radialGradient id="paint36_radial_178_10190" cx="0" cy="0" r="1" gradientUnits="userSpaceOnUse" gradientTransform="translate(89.3119 212.32) rotate(-81.14) scale(10.2292 10.2292)">
<stop stop-color="#C08CFF"/>
<stop offset="0.15" stop-color="#CDA5FF"/>
<stop offset="0.4" stop-color="#E3CCFF"/>
<stop offset="0.64" stop-color="#F2E8FF"/>
<stop offset="0.85" stop-color="#FBF8FF"/>
<stop offset="1" stop-color="white"/>
</radialGradient>
<radialGradient id="paint37_radial_178_10190" cx="0" cy="0" r="1" gradientUnits="userSpaceOnUse" gradientTransform="translate(62.6692 208.555) rotate(-12.52) scale(3.67377 3.67378)">
<stop offset="0.25" stop-color="white"/>
<stop offset="0.26" stop-color="#FAFAFA"/>
<stop offset="0.3" stop-color="#C6C6C6"/>
<stop offset="0.35" stop-color="#979797"/>
<stop offset="0.41" stop-color="#6E6E6E"/>
<stop offset="0.46" stop-color="#4C4C4C"/>
<stop offset="0.52" stop-color="#303030"/>
<stop offset="0.58" stop-color="#1A1A1A"/>
<stop offset="0.65" stop-color="#0B0B0B"/>
<stop offset="0.73" stop-color="#020202"/>
<stop offset="0.85"/>
</radialGradient>
<radialGradient id="paint38_radial_178_10190" cx="0" cy="0" r="1" gradientUnits="userSpaceOnUse" gradientTransform="translate(79.6288 219.495) rotate(-12.52) scale(2.28823 2.28823)">
<stop offset="0.14" stop-color="white"/>
<stop offset="0.16" stop-color="#E7E7E7"/>
<stop offset="0.21" stop-color="#B7B7B7"/>
<stop offset="0.26" stop-color="#8B8B8B"/>
<stop offset="0.31" stop-color="#666666"/>
<stop offset="0.37" stop-color="#464646"/>
<stop offset="0.44" stop-color="#2C2C2C"/>
<stop offset="0.5" stop-color="#181818"/>
<stop offset="0.58" stop-color="#0A0A0A"/>
<stop offset="0.68" stop-color="#020202"/>
<stop offset="0.85"/>
</radialGradient>
</defs>
</svg>
