<svg width="1840" height="2188" viewBox="0 0 1840 2188" fill="none" xmlns="http://www.w3.org/2000/svg">
<path opacity="0.5" d="M136.942 1132.28L138.889 1132.74L136.942 1132.28ZM611.771 882.678L610.224 881.41L611.771 882.678ZM1240.94 892.928L1242.55 894.113L1240.94 892.928ZM1086.63 394.552L1087.62 392.815L1086.63 394.552ZM166.069 2.45795C166.322 1.38266 165.655 0.306159 164.58 0.0535091C163.504 -0.199141 162.428 0.467739 162.175 1.54303L164.122 2.00049L166.069 2.45795ZM310.639 1274.68L312.601 1275.06L310.639 1274.68ZM1766.15 1420.67L1765.47 1422.55L1766.15 1420.67ZM965.537 2131.25L966.35 2133.08L966.35 2133.08L965.537 2131.25ZM1.47363 2131.25L2.94697 2132.6C6.40728 2128.83 9.88998 2125.24 13.3953 2121.82L11.998 2120.39L10.6008 2118.96C7.04187 2122.43 3.50846 2126.08 0.000294125 2129.9L1.47363 2131.25ZM34.3754 2101.02L35.5859 2102.61C43.6328 2096.49 51.7964 2091.16 60.0791 2086.56L59.108 2084.81L58.1368 2083.06C49.6827 2087.76 41.3596 2093.19 33.1649 2099.42L34.3754 2101.02ZM85.9778 2072.49L86.668 2074.36C95.9307 2070.96 105.344 2068.32 114.914 2066.39L114.517 2064.43L114.12 2062.47C104.359 2064.44 94.7487 2067.13 85.2875 2070.61L85.9778 2072.49ZM143.891 2060.6L144.018 2062.59C153.673 2061.98 163.483 2061.96 173.454 2062.45L173.553 2060.45L173.653 2058.46C163.546 2057.96 153.584 2057.98 143.765 2058.6L143.891 2060.6ZM203.132 2063.3L202.857 2065.28C212.41 2066.61 222.104 2068.32 231.94 2070.37L232.346 2068.41L232.753 2066.45C222.842 2064.39 213.06 2062.66 203.408 2061.32L203.132 2063.3ZM261.204 2075.18L260.702 2077.12C270.081 2079.55 279.582 2082.21 289.209 2085.07L289.777 2083.15L290.345 2081.23C280.682 2078.37 271.136 2075.69 261.706 2073.25L261.204 2075.18ZM318.125 2091.93L317.513 2093.83C326.791 2096.81 336.18 2099.91 345.683 2103.1L346.319 2101.21L346.956 2099.31C337.442 2096.12 328.036 2093.01 318.737 2090.02L318.125 2091.93ZM374.433 2110.74L373.787 2112.64C383.051 2115.8 392.422 2119 401.894 2122.22L402.537 2120.32L403.179 2118.43C393.711 2115.22 384.347 2112.01 375.079 2108.85L374.433 2110.74ZM430.691 2129.76L430.063 2131.66C439.392 2134.74 448.819 2137.8 458.346 2140.81L458.948 2138.9L459.549 2136.99C450.043 2133.99 440.633 2130.94 431.318 2127.86L430.691 2129.76ZM487.332 2147.57L486.766 2149.49C496.197 2152.27 505.724 2154.98 515.346 2157.58L515.868 2155.65L516.389 2153.72C506.799 2151.13 497.303 2148.43 487.898 2145.66L487.332 2147.57ZM544.606 2162.99L544.138 2164.93C553.715 2167.24 563.385 2169.41 573.149 2171.43L573.555 2169.48L573.96 2167.52C564.241 2165.5 554.612 2163.34 545.073 2161.04L544.606 2162.99ZM602.712 2174.98L602.376 2176.95C612.095 2178.61 621.905 2180.09 631.806 2181.37L632.063 2179.39L632.321 2177.41C622.475 2176.13 612.717 2174.65 603.047 2173.01L602.712 2174.98ZM661.587 2182.6L661.414 2184.59C671.237 2185.44 681.147 2186.09 691.146 2186.51L691.229 2184.51L691.312 2182.51C681.375 2182.1 671.525 2181.45 661.76 2180.6L661.587 2182.6ZM720.846 2185.04L720.858 2187.04C730.681 2186.98 740.587 2186.69 750.576 2186.14L750.467 2184.14L750.357 2182.15C740.434 2182.69 730.594 2182.98 720.835 2183.04L720.846 2185.04ZM780.038 2181.78L780.247 2183.77C790.029 2182.74 799.89 2181.45 809.829 2179.89L809.518 2177.91L809.208 2175.94C799.337 2177.49 789.544 2178.76 779.828 2179.79L780.038 2181.78ZM838.707 2172.57L839.117 2174.53C848.671 2172.53 858.297 2170.27 867.994 2167.74L867.488 2165.8L866.982 2163.87C857.349 2166.39 847.788 2168.63 838.298 2170.61L838.707 2172.57ZM896.005 2157.6L896.604 2159.51C905.994 2156.56 915.449 2153.35 924.97 2149.86L924.281 2147.98L923.593 2146.1C914.131 2149.57 904.735 2152.76 895.406 2155.69L896.005 2157.6ZM951.694 2137.22L952.465 2139.07C957.078 2137.14 961.706 2135.14 966.35 2133.08L965.537 2131.25L964.725 2129.42C960.109 2131.48 955.508 2133.46 950.922 2135.38L951.694 2137.22ZM965.537 2131.25L966.35 2133.08C971.053 2130.99 975.739 2128.9 980.41 2126.81L979.593 2124.98L978.775 2123.16C974.108 2125.25 969.425 2127.34 964.725 2129.42L965.537 2131.25ZM1007.41 2112.43L1008.24 2114.25C1017.5 2110.04 1026.7 2105.83 1035.83 2101.62L1034.99 2099.8L1034.15 2097.98C1025.03 2102.19 1015.84 2106.4 1006.58 2110.61L1007.41 2112.43ZM1062.76 2086.89L1063.61 2088.7C1072.8 2084.39 1081.92 2080.09 1090.96 2075.78L1090.1 2073.97L1089.24 2072.17C1080.2 2076.47 1071.09 2080.77 1061.91 2085.08L1062.76 2086.89ZM1117.78 2060.7L1118.65 2062.5C1127.81 2058.07 1136.89 2053.64 1145.9 2049.21L1145.02 2047.42L1144.14 2045.62C1135.14 2050.04 1126.06 2054.47 1116.91 2058.9L1117.78 2060.7ZM1172.46 2033.82L1173.35 2035.61C1182.47 2031.05 1191.51 2026.5 1200.47 2021.94L1199.56 2020.16L1198.66 2018.38C1189.71 2022.93 1180.68 2027.48 1171.56 2032.03L1172.46 2033.82ZM1226.77 2006.21L1227.69 2007.99C1236.76 2003.3 1245.74 1998.62 1254.64 1993.94L1253.7 1992.17L1252.77 1990.4C1243.89 1995.07 1234.92 1999.75 1225.85 2004.44L1226.77 2006.21ZM1280.69 1977.83L1281.64 1979.59C1290.64 1974.77 1299.55 1969.95 1308.36 1965.14L1307.4 1963.38L1306.45 1961.63C1297.64 1966.43 1288.75 1971.25 1279.75 1976.07L1280.69 1977.83ZM1334.18 1948.61L1335.15 1950.36C1344.07 1945.39 1352.89 1940.44 1361.6 1935.49L1360.61 1933.75L1359.62 1932.01C1350.92 1936.95 1342.12 1941.91 1333.21 1946.87L1334.18 1948.61ZM1387.17 1918.5L1388.18 1920.23C1396.99 1915.12 1405.68 1910.02 1414.26 1904.93L1413.24 1903.21L1412.22 1901.49C1403.65 1906.57 1394.97 1911.66 1386.17 1916.77L1387.17 1918.5ZM1439.58 1887.41L1440.62 1889.12C1449.37 1883.81 1457.99 1878.52 1466.47 1873.25L1465.42 1871.55L1464.36 1869.85C1455.89 1875.11 1447.28 1880.4 1438.55 1885.7L1439.58 1887.41ZM1491.3 1855.26L1492.37 1856.95C1501.06 1851.41 1509.61 1845.89 1518 1840.4L1516.9 1838.72L1515.81 1837.05C1507.43 1842.54 1498.9 1848.05 1490.22 1853.58L1491.3 1855.26ZM1542.13 1821.98L1543.25 1823.63C1551.87 1817.82 1560.32 1812.04 1568.6 1806.29L1567.46 1804.65L1566.32 1803.01C1558.06 1808.75 1549.62 1814.52 1541.01 1820.32L1542.13 1821.98ZM1592.3 1787.11L1593.46 1788.73C1601.83 1782.73 1609.99 1776.76 1617.96 1770.83L1616.76 1769.22L1615.57 1767.62C1607.62 1773.53 1599.48 1779.49 1591.13 1785.48L1592.3 1787.11ZM1641.19 1750.67L1642.41 1752.26C1650.63 1745.88 1658.61 1739.56 1666.35 1733.3L1665.09 1731.74L1663.83 1730.19C1656.12 1736.44 1648.16 1742.74 1639.96 1749.09L1641.19 1750.67ZM1688.44 1712.35L1689.74 1713.87C1697.65 1707.13 1705.25 1700.47 1712.56 1693.87L1711.22 1692.39L1709.88 1690.9C1702.6 1697.47 1695.02 1704.11 1687.15 1710.82L1688.44 1712.35ZM1733.6 1671.52L1734.99 1672.96C1742.58 1665.62 1749.77 1658.39 1756.57 1651.26L1755.12 1649.88L1753.67 1648.5C1746.92 1655.59 1739.76 1662.78 1732.21 1670.08L1733.6 1671.52ZM1775.59 1627.32L1777.11 1628.62C1784.05 1620.54 1790.44 1612.62 1796.26 1604.85L1794.66 1603.66L1793.06 1602.46C1787.29 1610.14 1780.96 1618 1774.07 1626.01L1775.59 1627.32ZM1811.86 1578.51L1813.57 1579.56C1819.33 1570.2 1824.17 1561.11 1828.07 1552.31L1826.24 1551.5L1824.41 1550.69C1820.59 1559.31 1815.84 1568.24 1810.16 1577.46L1811.86 1578.51ZM1835.77 1522.82L1837.73 1523.23C1840.03 1512.35 1840.59 1502 1839.34 1492.25L1837.36 1492.51L1835.37 1492.76C1836.56 1502 1836.04 1511.89 1833.82 1522.41L1835.77 1522.82ZM1827.22 1464.03L1828.91 1462.97C1823.72 1454.68 1816.71 1447.12 1807.86 1440.33L1806.64 1441.92L1805.42 1443.5C1813.94 1450.04 1820.62 1457.26 1825.52 1465.09L1827.22 1464.03ZM1780.51 1426.52L1781.34 1424.7C1776.78 1422.61 1771.94 1420.64 1766.84 1418.79L1766.15 1420.67L1765.47 1422.55C1770.48 1424.37 1775.22 1426.3 1779.68 1428.34L1780.51 1426.52ZM1766.15 1420.67L1766.84 1418.79C1762.56 1417.24 1757.92 1415.97 1752.93 1414.96L1752.54 1416.92L1752.14 1418.88C1756.96 1419.86 1761.41 1421.07 1765.47 1422.55L1766.15 1420.67ZM1723.22 1414L1723.26 1412C1714.07 1411.82 1704.16 1412.14 1693.58 1412.93L1693.73 1414.93L1693.88 1416.92C1704.36 1416.14 1714.14 1415.82 1723.18 1416L1723.22 1414ZM1664.13 1418.09L1663.87 1416.11C1654.44 1417.38 1644.6 1418.93 1634.38 1420.72L1634.73 1422.69L1635.07 1424.66C1645.25 1422.88 1655.03 1421.34 1664.4 1420.07L1664.13 1418.09ZM1606.13 1428.16L1605.73 1426.2C1596.25 1428.14 1586.5 1430.26 1576.5 1432.53L1576.94 1434.48L1577.38 1436.43C1587.36 1434.16 1597.08 1432.05 1606.53 1430.12L1606.13 1428.16ZM1548.42 1441.21L1547.94 1439.27C1538.54 1441.56 1528.95 1443.97 1519.18 1446.48L1519.68 1448.42L1520.18 1450.36C1529.93 1447.85 1539.51 1445.44 1548.89 1443.15L1548.42 1441.21ZM1491.14 1455.91L1490.62 1453.98C1481.25 1456.49 1471.73 1459.08 1462.09 1461.73L1462.62 1463.66L1463.15 1465.59C1472.79 1462.93 1482.29 1460.35 1491.65 1457.85L1491.14 1455.91ZM1434.18 1471.59L1433.64 1469.66C1424.26 1472.3 1414.77 1475 1405.17 1477.75L1405.72 1479.67L1406.27 1481.6C1415.86 1478.85 1425.35 1476.15 1434.73 1473.51L1434.18 1471.59ZM1377.42 1487.82L1376.86 1485.9C1367.44 1488.63 1357.94 1491.39 1348.36 1494.19L1348.92 1496.11L1349.48 1498.03C1359.06 1495.23 1368.56 1492.47 1377.97 1489.75L1377.42 1487.82ZM1320.71 1504.35L1320.15 1502.43C1310.7 1505.2 1301.18 1507.99 1291.6 1510.79L1292.16 1512.71L1292.72 1514.63C1302.3 1511.82 1311.82 1509.04 1321.28 1506.27L1320.71 1504.35ZM1264 1520.95L1263.44 1519.03C1254.01 1521.79 1244.52 1524.55 1234.99 1527.32L1235.55 1529.24L1236.11 1531.16C1245.64 1528.39 1255.13 1525.63 1264.57 1522.87L1264 1520.95ZM1207.24 1537.44L1206.69 1535.52C1197.26 1538.23 1187.79 1540.95 1178.3 1543.66L1178.85 1545.58L1179.4 1547.51C1188.89 1544.8 1198.36 1542.08 1207.79 1539.36L1207.24 1537.44ZM1150.4 1553.65L1149.86 1551.72C1140.41 1554.38 1130.94 1557.03 1121.46 1559.65L1121.99 1561.58L1122.52 1563.51C1132.01 1560.88 1141.49 1558.23 1150.94 1555.57L1150.4 1553.65ZM1093.48 1569.41L1092.96 1567.48C1083.46 1570.06 1073.96 1572.61 1064.45 1575.14L1064.96 1577.07L1065.48 1579C1074.99 1576.48 1084.51 1573.92 1094.01 1571.34L1093.48 1569.41ZM1036.42 1584.56L1035.92 1582.63C1026.37 1585.1 1016.82 1587.54 1007.29 1589.93L1007.77 1591.87L1008.26 1593.81C1017.81 1591.41 1027.37 1588.97 1036.92 1586.5L1036.42 1584.56ZM979.111 1598.96L978.639 1597.01C969.062 1599.34 959.501 1601.62 949.961 1603.84L950.416 1605.79L950.87 1607.74C960.422 1605.51 969.995 1603.23 979.583 1600.9L979.111 1598.96ZM921.551 1612.38L921.116 1610.43C911.528 1612.56 901.968 1614.64 892.444 1616.65L892.857 1618.61L893.271 1620.57C902.81 1618.55 912.384 1616.47 921.986 1614.33L921.551 1612.38ZM863.74 1624.58L863.35 1622.62C853.686 1624.54 844.066 1626.38 834.497 1628.14L834.86 1630.11L835.222 1632.08C844.81 1630.31 854.448 1628.46 864.129 1626.54L863.74 1624.58ZM805.664 1635.26L805.332 1633.29C795.575 1634.93 785.88 1636.48 776.254 1637.93L776.553 1639.91L776.851 1641.89C786.5 1640.43 796.218 1638.88 805.996 1637.23L805.664 1635.26ZM747.302 1644.04L747.041 1642.06C737.183 1643.35 727.41 1644.53 717.728 1645.59L717.945 1647.57L718.162 1649.56C727.874 1648.5 737.676 1647.32 747.562 1646.02L747.302 1644.04ZM688.633 1650.42L688.465 1648.42C678.515 1649.26 668.677 1649.96 658.961 1650.51L659.073 1652.5L659.185 1654.5C668.941 1653.95 678.816 1653.25 688.801 1652.41L688.633 1650.42ZM629.678 1653.69L629.63 1651.69C619.628 1651.93 609.775 1651.99 600.08 1651.86L600.054 1653.86L600.027 1655.86C609.774 1655.99 619.678 1655.93 629.726 1655.69L629.678 1653.69ZM570.589 1652.85L570.702 1650.85C560.74 1650.28 550.975 1649.49 541.418 1648.46L541.204 1650.45L540.989 1652.44C550.617 1653.48 560.451 1654.27 570.475 1654.84L570.589 1652.85ZM511.841 1646.4L512.176 1644.43C502.437 1642.78 492.956 1640.83 483.751 1638.59L483.277 1640.53L482.803 1642.48C492.107 1644.74 501.681 1646.7 511.506 1648.37L511.841 1646.4ZM454.611 1632.25L455.252 1630.35C445.841 1627.17 436.782 1623.6 428.097 1619.64L427.266 1621.46L426.435 1623.28C435.253 1627.3 444.439 1630.92 453.97 1634.14L454.611 1632.25ZM401.307 1607.72L402.349 1606.01C393.917 1600.86 385.936 1595.23 378.433 1589.1L377.167 1590.65L375.901 1592.19C383.552 1598.45 391.683 1604.19 400.265 1609.43L401.307 1607.72ZM355.862 1570.45L357.342 1569.11C350.831 1561.94 344.821 1554.25 339.338 1546L337.672 1547.1L336.006 1548.21C341.601 1556.63 347.736 1564.48 354.382 1571.8L355.862 1570.45ZM323.275 1521.64L325.08 1520.78C321.027 1512.28 317.432 1503.29 314.317 1493.79L312.416 1494.41L310.516 1495.04C313.682 1504.69 317.34 1513.84 321.469 1522.5L323.275 1521.64ZM304.735 1465.45L306.693 1465.04C304.821 1456.02 303.32 1446.6 302.205 1436.79L300.218 1437.01L298.23 1437.24C299.359 1447.17 300.878 1456.71 302.777 1465.86L304.735 1465.45ZM298.05 1406.78L300.049 1406.72C299.751 1397.55 299.752 1388.08 300.059 1378.29L298.06 1378.23L296.061 1378.17C295.751 1388.04 295.75 1397.6 296.051 1406.85L298.05 1406.78ZM299.918 1347.8L301.91 1347.98C302.727 1338.83 303.786 1329.43 305.095 1319.78L303.113 1319.51L301.131 1319.25C299.814 1328.95 298.748 1338.41 297.926 1347.62L299.918 1347.8ZM307.755 1290L309.724 1290.35C310.62 1285.32 311.579 1280.22 312.601 1275.06L310.639 1274.68L308.677 1274.29C307.65 1279.47 306.687 1284.59 305.786 1289.65L307.755 1290ZM310.639 1274.68L312.601 1275.06C313.629 1269.87 314.64 1264.73 315.633 1259.63L313.67 1259.25L311.707 1258.87C310.715 1263.96 309.705 1269.1 308.677 1274.29L310.639 1274.68ZM319.42 1229.27L321.386 1229.65C323.248 1219.77 325.041 1210.09 326.765 1200.6L324.797 1200.24L322.83 1199.88C321.107 1209.36 319.316 1219.04 317.455 1228.9L319.42 1229.27ZM330.228 1169.7L332.198 1170.04C333.928 1160.08 335.578 1150.36 337.149 1140.85L335.176 1140.52L333.203 1140.2C331.633 1149.69 329.985 1159.41 328.257 1169.36L330.228 1169.7ZM340.07 1110.02L342.046 1110.32C343.605 1100.29 345.07 1090.52 346.442 1081.02L344.463 1080.74L342.483 1080.45C341.113 1089.93 339.651 1099.69 338.094 1109.71L340.07 1110.02ZM348.688 1050.13L350.671 1050.39C352.007 1040.21 353.227 1030.37 354.334 1020.86L352.347 1020.63L350.361 1020.4C349.257 1029.89 348.039 1039.71 346.705 1049.87L348.688 1050.13ZM355.62 990.196L357.61 990.391C358.646 979.821 359.523 969.721 360.249 960.079L358.254 959.929L356.26 959.779C355.537 969.389 354.662 979.458 353.629 990.001L355.62 990.196ZM360.094 930.004L362.092 930.096C362.587 919.422 362.862 909.42 362.928 900.066L360.928 900.052L358.929 900.038C358.862 909.334 358.589 919.283 358.096 929.911L360.094 930.004ZM360.318 869.776L362.315 869.672C361.718 858.158 360.702 847.961 359.302 839.009L357.326 839.318L355.35 839.627C356.725 848.417 357.729 858.473 358.321 869.879L360.318 869.776ZM349.912 810.483L351.764 809.726C346.505 796.858 339.391 789.269 330.577 786.958L330.07 788.893L329.563 790.828C336.64 792.683 343.03 798.926 348.061 811.239L349.912 810.483ZM302.051 797.004L300.901 795.368C293.681 800.446 286.13 807.508 278.393 816.209L279.888 817.538L281.382 818.867C288.991 810.31 296.314 803.484 303.202 798.64L302.051 797.004ZM261.073 841.359L259.445 840.196C253.892 847.968 248.285 856.434 242.675 865.493L244.375 866.546L246.075 867.599C251.646 858.605 257.204 850.213 262.7 842.522L261.073 841.359ZM229.04 892.758L227.291 891.789C222.511 900.408 217.76 909.398 213.068 918.696L214.853 919.597L216.639 920.498C221.309 911.244 226.036 902.3 230.789 893.728L229.04 892.758ZM201.694 946.811L199.88 945.97C195.69 955.012 191.573 964.264 187.555 973.678L189.394 974.463L191.234 975.248C195.236 965.871 199.336 956.656 203.509 947.652L201.694 946.811ZM177.916 1002.48L176.055 1001.75C172.372 1011.13 168.804 1020.61 165.371 1030.16L167.253 1030.83L169.135 1031.51C172.555 1022 176.11 1012.55 179.778 1003.22L177.916 1002.48ZM157.424 1059.49L155.523 1058.87C152.37 1068.53 149.375 1078.21 146.56 1087.87L148.48 1088.43L150.4 1088.99C153.203 1079.37 156.185 1069.73 159.326 1060.11L157.424 1059.49ZM140.505 1117.66L138.567 1117.17C137.321 1122.07 136.13 1126.96 134.994 1131.83L136.942 1132.28L138.889 1132.74C140.019 1127.9 141.205 1123.03 142.444 1118.15L140.505 1117.66ZM136.942 1132.28L134.994 1131.83C133.757 1137.13 132.658 1142.23 131.694 1147.14L133.657 1147.53L135.619 1147.91C136.574 1143.05 137.663 1137.99 138.889 1132.74L136.942 1132.28ZM129.227 1177.19L127.236 1177.01C126.138 1188.71 126.08 1198.95 127.004 1207.81L128.993 1207.6L130.983 1207.39C130.093 1198.86 130.138 1188.89 131.219 1177.38L129.227 1177.19ZM138.101 1235.93L136.453 1237.06C142.785 1246.27 151.889 1251.29 163.117 1252.69L163.364 1250.7L163.611 1248.72C153.385 1247.45 145.361 1242.95 139.748 1234.8L138.101 1235.93ZM193.27 1247.51L193.805 1249.44C202.712 1246.97 212.314 1243.29 222.498 1238.54L221.652 1236.72L220.806 1234.91C210.77 1239.59 201.379 1243.19 192.735 1245.59L193.27 1247.51ZM248.255 1222.69L249.261 1224.42C257.623 1219.55 266.277 1214.14 275.176 1208.22L274.069 1206.56L272.962 1204.89C264.12 1210.77 255.534 1216.14 247.25 1220.96L248.255 1222.69ZM298.843 1189.28L300.02 1190.9C307.945 1185.13 316.021 1179.04 324.218 1172.65L322.988 1171.07L321.758 1169.49C313.593 1175.86 305.553 1181.93 297.666 1187.67L298.843 1189.28ZM346.616 1152.13L347.887 1153.67C355.547 1147.36 363.287 1140.83 371.085 1134.11L369.78 1132.6L368.474 1131.08C360.697 1137.79 352.98 1144.29 345.344 1150.58L346.616 1152.13ZM392.529 1112.59L393.864 1114.08C401.302 1107.41 408.775 1100.59 416.263 1093.63L414.902 1092.17L413.541 1090.7C406.069 1097.64 398.614 1104.45 391.193 1111.1L392.529 1112.59ZM436.931 1071.38L438.316 1072.82C445.565 1065.87 452.814 1058.81 460.045 1051.67L458.64 1050.25L457.234 1048.83C450.017 1055.95 442.783 1062.99 435.547 1069.93L436.931 1071.38ZM480.042 1028.81L481.467 1030.22C488.547 1023.03 495.594 1015.77 502.593 1008.47L501.149 1007.08L499.705 1005.7C492.718 1012.99 485.684 1020.23 478.617 1027.41L480.042 1028.81ZM521.963 985.073L523.425 986.438C530.34 979.027 537.191 971.587 543.963 964.133L542.483 962.788L541.002 961.443C534.242 968.884 527.403 976.311 520.501 983.709L521.963 985.073ZM562.702 940.23L564.2 941.555C570.947 933.924 577.594 926.299 584.125 918.698L582.608 917.395L581.091 916.091C574.573 923.677 567.938 931.288 561.204 938.905L562.702 940.23ZM602.181 894.273L603.718 895.554C606.953 891.672 610.154 887.802 613.317 883.947L611.771 882.678L610.224 881.41C607.068 885.257 603.874 889.119 600.645 892.993L602.181 894.273ZM611.771 882.678L613.317 883.947C616.552 880.003 619.804 876.256 623.071 872.698L621.598 871.345L620.125 869.992C616.805 873.607 613.505 877.411 610.224 881.41L611.771 882.678ZM642.67 851.114L643.954 852.648C651.704 846.16 659.531 840.621 667.426 835.948L666.407 834.227L665.388 832.506C657.298 837.295 649.294 842.96 641.386 849.58L642.67 851.114ZM692.857 821.738L693.533 823.62C702.778 820.303 712.111 818.006 721.521 816.611L721.228 814.632L720.934 812.654C711.272 814.087 701.683 816.446 692.182 819.855L692.857 821.738ZM750.434 813.019L750.369 815.018C759.896 815.324 769.492 816.405 779.146 818.144L779.501 816.175L779.856 814.207C770.031 812.437 760.24 811.333 750.498 811.02L750.434 813.019ZM808.002 823.051L807.431 824.968C816.581 827.695 825.766 830.901 834.977 834.488L835.703 832.624L836.428 830.76C827.131 827.14 817.842 823.897 808.574 821.134L808.002 823.051ZM862.652 844.081L861.82 845.9C870.591 849.914 879.372 854.182 888.153 858.622L889.056 856.837L889.958 855.053C881.141 850.595 872.312 846.302 863.485 842.263L862.652 844.081ZM915.059 870.406L914.115 872.169C922.714 876.77 931.3 881.453 939.868 886.139L940.828 884.385L941.788 882.63C933.218 877.943 924.618 873.252 916.002 868.642L915.059 870.406ZM966.576 898.431L965.624 900.19C974.302 904.885 982.951 909.501 991.56 913.949L992.478 912.172L993.396 910.396C984.818 905.963 976.193 901.361 967.528 896.672L966.576 898.431ZM1018.71 925.181L1017.85 926.99C1026.9 931.258 1035.9 935.242 1044.83 938.836L1045.57 936.981L1046.32 935.125C1037.48 931.566 1028.55 927.615 1019.56 923.372L1018.71 925.181ZM1073.2 946.804L1072.62 948.718C1082.27 951.65 1091.84 953.982 1101.3 955.574L1101.63 953.602L1101.96 951.63C1092.7 950.07 1083.3 947.781 1073.78 944.891L1073.2 946.804ZM1130.83 955.976L1130.86 957.976C1140.82 957.839 1150.63 956.665 1160.28 954.275L1159.8 952.334L1159.32 950.393C1149.99 952.703 1140.48 953.843 1130.81 953.976L1130.83 955.976ZM1187.06 941.881L1187.99 943.647C1196.33 939.22 1204.5 933.68 1212.48 926.91L1211.19 925.385L1209.89 923.86C1202.12 930.454 1194.19 935.829 1186.12 940.114L1187.06 941.881ZM1231.67 904.703L1233.19 905.994C1236.35 902.264 1239.46 898.306 1242.55 894.113L1240.94 892.928L1239.33 891.743C1236.29 895.867 1233.23 899.754 1230.14 903.412L1231.67 904.703ZM1240.94 892.928L1242.55 894.113C1245.66 889.887 1248.68 885.67 1251.63 881.464L1249.99 880.317L1248.35 879.17C1245.42 883.35 1242.42 887.541 1239.33 891.743L1240.94 892.928ZM1267.06 854.533L1268.76 855.591C1274.36 846.61 1279.57 837.672 1284.37 828.776L1282.61 827.827L1280.85 826.878C1276.09 835.695 1270.93 844.56 1265.37 853.474L1267.06 854.533ZM1296.3 800.064L1298.12 800.878C1302.44 791.191 1306.24 781.552 1309.52 771.959L1307.63 771.313L1305.74 770.666C1302.5 780.138 1298.74 789.665 1294.47 799.25L1296.3 800.064ZM1316.09 741.601L1318.04 742.044C1320.38 731.748 1322.07 721.504 1323.1 711.311L1321.11 711.111L1319.12 710.911C1318.11 720.933 1316.44 731.015 1314.14 741.159L1316.09 741.601ZM1322.13 680.221L1324.13 680.149C1323.76 669.757 1322.65 659.42 1320.79 649.135L1318.82 649.491L1316.86 649.847C1318.68 659.942 1319.77 670.089 1320.13 680.293L1322.13 680.221ZM1311.18 619.551L1313.08 618.923C1309.88 609.255 1305.98 599.637 1301.36 590.067L1299.56 590.936L1297.76 591.806C1302.31 601.224 1306.14 610.681 1309.29 620.18L1311.18 619.551ZM1284.53 563.963L1286.21 562.893C1280.82 554.382 1274.84 545.909 1268.25 537.472L1266.67 538.704L1265.09 539.935C1271.61 548.274 1277.52 556.64 1282.84 565.034L1284.53 563.963ZM1246.61 515.18L1248.08 513.822C1241.26 506.458 1233.97 499.12 1226.19 491.807L1224.82 493.264L1223.45 494.722C1231.17 501.974 1238.39 509.246 1245.14 516.538L1246.61 515.18ZM1201.67 472.796L1202.95 471.261C1195.21 464.805 1187.08 458.368 1178.55 451.948L1177.34 453.546L1176.14 455.144C1184.62 461.526 1192.7 467.921 1200.39 474.332L1201.67 472.796ZM1152.28 435.532L1153.41 433.884C1145.13 428.187 1136.52 422.504 1127.58 416.833L1126.51 418.522L1125.44 420.21C1134.33 425.856 1142.9 431.512 1151.15 437.18L1152.28 435.532ZM1100.14 402.392L1101.16 400.67C1096.72 398.049 1092.21 395.43 1087.62 392.815L1086.63 394.552L1085.64 396.289C1090.21 398.895 1094.7 401.503 1099.12 404.114L1100.14 402.392ZM1086.63 394.552L1087.62 392.815C1083.3 390.349 1078.87 387.912 1074.34 385.503L1073.4 387.269L1072.46 389.035C1076.96 391.426 1081.36 393.844 1085.64 396.289L1086.63 394.552ZM1045.96 373.584L1046.81 371.773C1037.76 367.524 1028.38 363.361 1018.72 359.278L1017.94 361.12L1017.16 362.963C1026.78 367.027 1036.11 371.169 1045.11 375.394L1045.96 373.584ZM989.484 349.635L990.205 347.769C980.808 344.139 971.188 340.571 961.369 337.059L960.696 338.942L960.022 340.826C969.812 344.327 979.4 347.883 988.764 351.5L989.484 349.635ZM931.646 328.901L932.28 327.005C922.717 323.805 912.997 320.652 903.141 317.539L902.539 319.446L901.937 321.354C911.773 324.46 921.471 327.607 931.011 330.798L931.646 328.901ZM873.281 310.439L873.856 308.523C864.146 305.605 854.326 302.722 844.414 299.868L843.861 301.79L843.307 303.712C853.206 306.562 863.011 309.441 872.705 312.354L873.281 310.439ZM814.318 293.441L814.853 291.514C805.047 288.791 795.169 286.092 785.236 283.416L784.715 285.347L784.195 287.278C794.12 289.952 803.987 292.648 813.783 295.368L814.318 293.441ZM755.122 277.471L755.631 275.537C745.77 272.943 735.871 270.366 725.947 267.803L725.447 269.739L724.947 271.676C734.865 274.238 744.759 276.813 754.613 279.405L755.122 277.471ZM695.733 262.118L696.227 260.18C686.326 257.655 676.416 255.141 666.512 252.634L666.021 254.573L665.53 256.512C675.433 259.019 685.341 261.532 695.239 264.056L695.733 262.118ZM636.284 247.056L636.774 245.117C626.836 242.606 616.918 240.098 607.036 237.591L606.544 239.53L606.053 241.468C615.937 243.976 625.856 246.484 635.794 248.995L636.284 247.056ZM576.845 231.962L577.341 230.024C567.402 227.478 557.516 224.929 547.696 222.373L547.193 224.309L546.689 226.244C556.514 228.801 566.406 231.352 576.349 233.899L576.845 231.962ZM517.487 216.494L518.002 214.561C508.034 211.908 498.156 209.244 488.383 206.566L487.855 208.495L487.326 210.424C497.109 213.105 506.997 215.771 516.973 218.427L517.487 216.494ZM458.331 200.259L458.878 198.335C448.951 195.513 439.158 192.671 429.518 189.804L428.948 191.721L428.378 193.639C438.035 196.51 447.843 199.357 457.784 202.183L458.331 200.259ZM399.663 182.781L400.262 180.873C390.324 177.753 380.583 174.6 371.064 171.409L370.428 173.306L369.793 175.202C379.339 178.401 389.104 181.562 399.064 184.689L399.663 182.781ZM341.429 163.207L342.11 161.327C332.264 157.757 322.711 154.137 313.481 150.459L312.74 152.316L312 154.174C321.273 157.87 330.866 161.505 340.747 165.087L341.429 163.207ZM284.483 140.405L285.3 138.579C275.656 134.265 266.47 129.868 257.785 125.379L256.867 127.156L255.949 128.933C264.708 133.46 273.963 137.889 283.667 142.23L284.483 140.405ZM230.283 112.129L231.34 110.431C222.188 104.731 213.851 98.886 206.403 92.8798L205.147 94.4366L203.892 95.9935C211.486 102.118 219.959 108.055 229.226 113.826L230.283 112.129ZM183.119 73.1474L184.653 71.8645C177.803 63.6718 172.568 55.2045 169.079 46.4278L167.22 47.1668L165.362 47.9057C169.033 57.1402 174.509 65.9681 181.585 74.4302L183.119 73.1474ZM162.018 17.2702L164.016 17.3461C164.201 12.4952 164.876 7.53468 166.069 2.45795L164.122 2.00049L162.175 1.54303C160.926 6.85845 160.214 12.0745 160.019 17.1943L162.018 17.2702Z" fill="#F5F5F5"/>
</svg>
