<svg width="215" height="80" viewBox="0 0 215 80" fill="none" xmlns="http://www.w3.org/2000/svg">
<path d="M0.169106 19.3169H0.233092C0.329072 19.3169 0.402201 19.4037 0.402201 19.5058V20.7061C0.402201 20.8134 0.479901 20.8951 0.571311 20.8951H0.936947C1.03293 20.8951 1.10606 20.9819 1.10606 21.0841V24.3172C1.10606 24.4244 1.15633 24.5062 1.27516 24.5062H1.61795C1.74135 24.5062 1.78706 24.4193 1.78706 24.3172V21.0841C1.78706 20.9768 1.86476 20.8951 1.95617 20.8951H2.3218C2.41778 20.8951 2.49091 20.8083 2.49091 20.7061V19.5058C2.49091 19.3986 2.56861 19.3169 2.66002 19.3169H2.72401C2.81999 19.3169 2.89312 19.23 2.89312 19.1279V8.94848C2.89312 8.84122 2.81541 8.7595 2.72401 8.7595H2.30809C2.21211 8.7595 2.13898 8.67268 2.13898 8.57052V4.43338C2.13898 4.33123 2.07043 4.25462 1.97902 4.2444V3.81026C2.09328 3.79493 2.18012 3.68766 2.18012 3.55998C2.18012 3.43229 2.09328 3.32503 1.97902 3.30971V2.87046C2.09328 2.85514 2.18012 2.74787 2.18012 2.62018V2.11454C2.18012 1.98174 2.09328 1.87959 1.97902 1.86427V1.3484C2.09328 1.33308 2.18012 1.22582 2.18012 1.09813V0.592481C2.18012 0.449469 2.075 0.337102 1.9516 0.337102H1.94246C1.86933 0.137907 1.69565 0 1.49455 0C1.29345 0 1.1152 0.137907 1.04664 0.337102H1.01922C0.891243 0.337102 0.790692 0.454576 0.790692 0.592481V1.09813C0.790692 1.23604 0.891244 1.34841 1.01008 1.35351V1.85916C0.886674 1.86427 0.790692 1.97663 0.790692 2.11454V2.62018C0.790692 2.75809 0.891244 2.87045 1.01008 2.87556V3.3046C0.886674 3.3097 0.790692 3.42207 0.790692 3.55998C0.790692 3.69788 0.891244 3.81025 1.01008 3.81535V4.2444H0.923236C0.827256 4.2444 0.754127 4.33123 0.754127 4.43338V8.57052C0.754127 8.67778 0.676431 8.7595 0.585022 8.7595H0.169106C0.0731255 8.7595 0 8.84633 0 8.94848V19.1279C0 19.2351 0.077696 19.3169 0.169106 19.3169Z" fill="#F48046"/>
<path d="M162.389 79.9899C162.362 79.9899 162.334 79.9899 162.307 79.9899C160.086 79.9899 158.01 78.7487 156.767 76.6649L147.992 61.955C146.781 59.9222 146.136 57.5574 146.136 55.116V48.3331C146.136 45.8406 147.951 43.8129 150.181 43.8129C154.647 43.8129 158.276 39.7575 158.276 34.7674C158.276 29.7773 154.647 25.7219 150.181 25.7219H144.112C142.617 25.7219 142.087 26.9375 142.087 27.9845C142.087 29.0316 142.617 30.2472 144.112 30.2472H150.181C152.796 30.2472 154.162 32.52 154.162 34.7674C154.162 37.0147 152.796 39.2876 150.181 39.2876H144.112C142.996 39.2876 142.087 40.304 142.087 41.5502V51.7246C142.087 54.6921 140.053 56.2448 138.042 56.2448C136.031 56.2448 133.997 54.6921 133.997 51.7246V27.9794C133.997 26.3092 132.909 25.7168 131.972 25.7168C131.035 25.7168 129.948 26.3092 129.948 27.9794V75.4697C129.948 77.9622 128.133 79.9899 125.903 79.9899C123.672 79.9899 121.584 78.7487 120.341 76.6649L111.565 61.955C110.354 59.9222 109.71 57.5574 109.71 55.116V48.3331C109.71 45.8406 111.524 43.8129 113.754 43.8129C118.22 43.8129 121.849 39.7575 121.849 34.7674C121.849 29.7773 118.22 25.7219 113.754 25.7219H107.685C106.19 25.7219 105.66 26.9375 105.66 27.9845C105.66 29.0316 106.19 30.2472 107.685 30.2472H113.754C116.369 30.2472 117.735 32.52 117.735 34.7674C117.735 35.9268 117.383 37.0198 116.744 37.8422C116.008 38.7922 114.975 39.2927 113.754 39.2927H107.685C106.57 39.2927 105.66 40.3091 105.66 41.5554V51.7297C105.66 54.6972 103.626 56.2499 101.615 56.2499C99.6043 56.2499 97.5704 54.6972 97.5704 51.7297V27.9845C97.5704 26.3143 96.4826 25.7219 95.5457 25.7219C94.6087 25.7219 93.521 26.3143 93.521 27.9845V75.4748C93.521 77.9264 91.7385 79.9235 89.5446 79.9337L71.2398 80.0001C69.0186 80.0001 67.2178 77.9826 67.2178 75.5054V55.0956C67.2178 52.6184 69.0231 50.6009 71.2398 50.6009H83.4065C84.901 50.6009 85.4312 49.3853 85.4312 48.3382C85.4312 47.2912 84.901 46.0756 83.4065 46.0756H71.2398C69.0231 46.0756 67.2178 44.0581 67.2178 41.5809V34.7214C67.2178 32.2545 69.014 30.2421 71.2261 30.2421H83.4065C84.901 30.2421 85.4312 29.0265 85.4312 27.9794C85.4312 26.9324 84.901 25.7168 83.4065 25.7168H65.1702C64.0687 25.7168 63.1684 26.7178 63.1684 27.9539V75.4697C63.1684 78.4372 61.1345 79.9899 59.1235 79.9899C57.1125 79.9899 55.0786 78.4372 55.0786 75.4697V27.9794C55.0786 26.3092 53.9908 25.7168 53.0539 25.7168C52.1169 25.7168 51.0291 26.3092 51.0291 27.9794V75.4697C51.0291 78.4372 48.9953 79.9899 46.9843 79.9899C44.9733 79.9899 42.9394 78.4372 42.9394 75.4697V27.9539C42.9394 26.7229 42.0436 25.7168 40.9375 25.7168H34.8999C33.7527 25.7168 32.8203 26.7587 32.8203 28.0407V75.4697C32.8203 78.4372 30.7865 79.9899 28.7754 79.9899C26.7644 79.9899 24.7306 78.4372 24.7306 75.4697V27.9794C24.7306 26.3092 23.6428 25.7168 22.7058 25.7168C21.7689 25.7168 20.6811 26.3092 20.6811 27.9794V48.3331C20.6811 51.3006 18.6472 52.8533 16.6362 52.8533C14.6252 52.8533 12.5914 51.3006 12.5914 48.3331V27.9794C12.5914 26.3092 11.5036 25.7168 10.5666 25.7168C9.62968 25.7168 8.54191 26.3092 8.54191 27.9794V48.3331C8.54191 51.3006 6.50804 52.8533 4.49703 52.8533C2.48601 52.8533 0.452148 51.3006 0.452148 48.3331V24.588C0.452148 23.9649 0.904626 23.4592 1.46223 23.4592C2.01982 23.4592 2.4723 23.9649 2.4723 24.588V48.3331C2.4723 50.0033 3.56008 50.5958 4.49703 50.5958C5.43398 50.5958 6.52175 50.0033 6.52175 48.3331V27.9794C6.52175 25.0119 8.55562 23.4592 10.5666 23.4592C12.5776 23.4592 14.6115 25.0119 14.6115 27.9794V48.3331C14.6115 50.0033 15.6993 50.5958 16.6362 50.5958C17.5732 50.5958 18.661 50.0033 18.661 48.3331V27.9794C18.661 25.0119 20.6948 23.4592 22.7058 23.4592C24.7169 23.4592 26.7507 25.0119 26.7507 27.9794V75.4697C26.7507 77.1399 27.8385 77.7323 28.7754 77.7323C29.7124 77.7323 30.8002 77.1399 30.8002 75.4697V28.0407C30.8002 25.5125 32.6421 23.4541 34.9045 23.4541H40.9421C43.1588 23.4541 44.9641 25.4716 44.9641 27.9488V75.4646C44.9641 77.1348 46.0519 77.7272 46.9888 77.7272C47.9258 77.7272 49.0136 77.1348 49.0136 75.4646V27.9743C49.0136 25.0068 51.0474 23.4541 53.0584 23.4541C55.0695 23.4541 57.1033 25.0068 57.1033 27.9743V75.4646C57.1033 77.1348 58.1911 77.7272 59.128 77.7272C60.065 77.7272 61.1528 77.1348 61.1528 75.4646V27.9488C61.1528 25.4716 62.9581 23.4541 65.1748 23.4541H83.411C86.0665 23.4541 87.4559 25.727 87.4559 27.9743C87.4559 30.2216 86.0665 32.4945 83.411 32.4945H71.2307C70.1384 32.4945 69.2471 33.4905 69.2471 34.7112V41.5707C69.2471 42.8016 70.1429 43.8027 71.2444 43.8027H83.411C86.0665 43.8027 87.4559 46.0756 87.4559 48.3229C87.4559 50.5702 86.0665 52.8431 83.411 52.8431H71.2444C70.1429 52.8431 69.2425 53.8442 69.2425 55.0802V75.4901C69.2425 76.721 70.1383 77.7221 71.2398 77.7221L89.5446 77.6557C90.6233 77.6557 91.5054 76.6649 91.5054 75.4595V27.9692C91.5054 25.0017 93.5392 23.449 95.5502 23.449C97.5613 23.449 99.5951 25.0017 99.5951 27.9692V51.7143C99.5951 53.3845 100.683 53.977 101.62 53.977C102.557 53.977 103.645 53.3845 103.645 51.7143V41.54C103.645 39.0475 105.459 37.0198 107.689 37.0198H113.759C115.203 37.0198 115.715 35.8042 115.715 34.7572C115.715 33.7101 115.203 32.4945 113.759 32.4945H107.689C105.034 32.4945 103.645 30.2216 103.645 27.9743C103.645 26.8098 104.006 25.7116 104.659 24.8893C105.18 24.2304 106.131 23.449 107.694 23.449H113.764C119.344 23.449 123.883 28.5208 123.883 34.7572C123.883 40.9935 119.344 46.0653 113.764 46.0653C112.648 46.0653 111.739 47.0818 111.739 48.328V55.1109C111.739 57.1079 112.26 59.0386 113.252 60.6986L122.027 75.4084C122.891 76.8589 124.344 77.7272 125.903 77.7272C127.018 77.7272 127.928 76.7108 127.928 75.4646V27.9743C127.928 25.0068 129.961 23.4541 131.972 23.4541C133.983 23.4541 136.017 25.0068 136.017 27.9743V51.7194C136.017 53.3896 137.105 53.9821 138.042 53.9821C138.979 53.9821 140.067 53.3896 140.067 51.7194V41.5451C140.067 39.0527 141.881 37.0249 144.112 37.0249H150.181C151.626 37.0249 152.137 35.8093 152.137 34.7623C152.137 33.7152 151.626 32.4996 150.181 32.4996H144.112C141.456 32.4996 140.067 30.2268 140.067 27.9794C140.067 25.7321 141.456 23.4592 144.112 23.4592H150.181C155.762 23.4592 160.3 28.531 160.3 34.7674C160.3 41.0037 155.762 46.0756 150.181 46.0756C149.066 46.0756 148.157 47.092 148.157 48.3382V55.1211C148.157 57.1182 148.678 59.0488 149.669 60.7088L158.445 75.4186C159.309 76.8692 160.762 77.7374 162.32 77.7374C162.874 77.7528 163.376 77.528 163.756 77.1092C164.135 76.6955 164.345 76.1388 164.345 75.5412V38.1588C164.345 35.1913 166.379 33.6386 168.39 33.6386C170.401 33.6386 172.435 35.1913 172.435 38.1588V68.6868C172.435 70.3468 173.523 70.9341 174.46 70.9341C175.397 70.9341 176.484 70.3468 176.484 68.6868V27.913C176.484 24.9455 178.518 23.3928 180.529 23.3928C182.54 23.3928 184.574 24.9455 184.574 27.913V75.4135C184.574 76.6546 185.479 77.6608 186.585 77.6608H189.629C202.463 77.6608 212.902 65.9951 212.902 51.653C212.902 37.311 202.463 25.6453 189.629 25.6453C189.072 25.6453 188.619 25.1396 188.619 24.5165C188.619 23.8934 189.072 23.3877 189.629 23.3877C203.578 23.3877 214.922 36.0698 214.922 51.653C214.922 67.2363 203.574 79.9184 189.629 79.9184H186.585C184.359 79.9184 182.549 77.8958 182.549 75.4084V27.9079C182.549 26.2377 181.462 25.6453 180.525 25.6453C179.588 25.6453 178.5 26.2377 178.5 27.9079V68.6817C178.5 71.6441 176.466 73.1917 174.455 73.1917C172.444 73.1917 170.41 71.6441 170.41 68.6817V38.1537C170.41 36.4835 169.322 35.8911 168.385 35.8911C167.449 35.8911 166.361 36.4835 166.361 38.1537V75.5361C166.361 76.7415 165.936 77.8754 165.163 78.7181C164.414 79.5404 163.427 79.9899 162.375 79.9899H162.389Z" fill="url(#paint0_linear_236_2733)"/>
<defs>
<linearGradient id="paint0_linear_236_2733" x1="0.438437" y1="51.6837" x2="214.94" y2="51.6837" gradientUnits="userSpaceOnUse">
<stop stop-color="#F58047"/>
<stop offset="1" stop-color="#FDC45D"/>
</linearGradient>
</defs>
</svg>
