<svg width="200" height="55" viewBox="0 0 200 55" fill="none" xmlns="http://www.w3.org/2000/svg">
<g clip-path="url(#clip0_178_1250)">
<path d="M6.37161 37.768H14.5681V42.4691H0V13.9691H6.37161V37.768Z" fill="#F5F5F5"/>
<path d="M26.043 20.2938H32.1826V42.4845H25.9502V40.2887C25.5017 41.7577 24.3264 42.4845 22.4087 42.4845H21.3262C17.8311 42.4845 16.0835 40.8299 16.0835 37.5051V25.2732C16.0835 21.9639 17.8311 20.2938 21.3262 20.2938H22.4087C24.4037 20.2938 25.6254 21.1289 26.043 22.799V20.2938ZM23.5841 37.768H24.6202C25.5172 37.768 25.9657 37.2887 25.9657 36.3299V26.4175C25.9657 25.4588 25.5172 24.9794 24.6202 24.9794H23.5841C22.7799 24.9794 22.3778 25.3505 22.3778 26.0928V36.6237C22.3778 37.366 22.7799 37.7371 23.5841 37.7371V37.768Z" fill="#F5F5F5"/>
<path d="M45.6683 20.2938H46.7818C50.2769 20.2938 52.0244 21.9484 52.0244 25.2732V42.4845H45.7456V26.1237C45.7456 25.3814 45.3435 25.0103 44.5393 25.0103H43.4568C42.5907 25.0103 42.1577 25.4897 42.1577 26.4484V42.5H35.9253V20.3093H42.0649V22.8144C42.4825 21.1443 43.6733 20.3093 45.6528 20.3093L45.6683 20.2938Z" fill="#F5F5F5"/>
<path d="M65.0772 12.5H71.3096V42.4845H65.17V39.9794C64.7524 41.6495 63.5461 42.4845 61.5357 42.4845H60.4531C56.958 42.4845 55.2104 40.8299 55.2104 37.5052V25.2268C55.2104 21.9485 56.958 20.2938 60.4531 20.2938H61.5357C63.4533 20.2938 64.6287 21.0206 65.0772 22.4897V12.5ZM62.6955 37.7835H63.7317C64.6287 37.7835 65.0772 37.3041 65.0772 36.3454V26.433C65.0772 25.4742 64.6287 24.9948 63.7317 24.9948H62.6955C62.2471 24.9948 61.9378 25.0722 61.7522 25.2423C61.5666 25.4124 61.4893 25.6907 61.4893 26.1237V36.6546C61.4893 37.3969 61.8914 37.768 62.6955 37.768V37.7835Z" fill="#F5F5F5"/>
<path d="M80.4184 20.2938H85.4754C89.2644 20.2938 91.1666 21.9484 91.1666 25.2732V33.1134H80.7277V36.9175C80.7277 37.3041 80.8204 37.5825 80.9906 37.7526C81.1761 37.9227 81.4854 38 81.9339 38H83.9444C84.3619 38 84.6558 37.9072 84.8414 37.7371C85.0269 37.567 85.1043 37.2577 85.1043 36.8402V35.3557H91.1047V37.5051C91.1047 40.8299 89.2025 42.4845 85.4136 42.4845H80.3874C76.6294 42.4845 74.7427 40.8299 74.7427 37.5051V25.2732C74.7427 21.9639 76.6294 20.2938 80.3874 20.2938H80.4184ZM80.7277 29.433H85.1661V25.8454C85.1661 25.4588 85.0733 25.1804 84.9032 25.0103C84.7176 24.8402 84.4238 24.7629 84.0063 24.7629H81.9494C81.5009 24.7629 81.1916 24.8402 81.006 25.0103C80.8204 25.1804 80.7431 25.4588 80.7431 25.8454V29.433H80.7277Z" fill="#F5F5F5"/>
<path d="M104.791 20.1546H105.549V25.5825H103.353C101.466 25.5825 100.523 26.634 100.523 28.7217V42.4845H94.2905V20.2938H100.43V23.4794C100.662 22.4897 101.157 21.701 101.915 21.0825C102.657 20.4639 103.616 20.1701 104.776 20.1701L104.791 20.1546Z" fill="#F5F5F5"/>
<path d="M117.549 13.7456L131.306 27.4912L117.549 41.2369H131.306L145.045 27.4912L131.306 13.7456H117.549Z" fill="url(#paint0_linear_178_1250)"/>
<path d="M152.349 20.9317L158.784 13.7457L145.045 0H131.306L152.349 20.9317Z" fill="url(#paint1_linear_178_1250)"/>
<path d="M186.262 0L158.784 27.4913L186.262 55H200.001L172.523 27.4913L200.001 0H186.262Z" fill="url(#paint2_linear_178_1250)"/>
<path d="M151.914 34.364L131.306 54.9998H145.045L158.784 41.2368L151.914 34.364Z" fill="url(#paint3_linear_178_1250)"/>
</g>
<defs>
<linearGradient id="paint0_linear_178_1250" x1="117.549" y1="27.4912" x2="145.045" y2="27.4912" gradientUnits="userSpaceOnUse">
<stop stop-color="#5178DF"/>
<stop offset="1" stop-color="#3C5AAA"/>
</linearGradient>
<linearGradient id="paint1_linear_178_1250" x1="131.306" y1="10.4658" x2="158.784" y2="10.4658" gradientUnits="userSpaceOnUse">
<stop stop-color="#5178DF"/>
<stop offset="1" stop-color="#3C5AAA"/>
</linearGradient>
<linearGradient id="paint2_linear_178_1250" x1="158.784" y1="27.5" x2="200.001" y2="27.5" gradientUnits="userSpaceOnUse">
<stop stop-color="#5178DF"/>
<stop offset="1" stop-color="#3C5AAA"/>
</linearGradient>
<linearGradient id="paint3_linear_178_1250" x1="131.306" y1="44.6819" x2="158.784" y2="44.6819" gradientUnits="userSpaceOnUse">
<stop stop-color="#5178DF"/>
<stop offset="1" stop-color="#3C5AAA"/>
</linearGradient>
<clipPath id="clip0_178_1250">
<rect width="200.001" height="55" fill="white"/>
</clipPath>
</defs>
</svg>
