<svg width="539" height="326" viewBox="0 0 539 326" fill="none" xmlns="http://www.w3.org/2000/svg">
<g filter="url(#filter0_d_236_2746)">
<path d="M212.305 121.047L212.569 120.802C212.966 120.435 213.565 120.477 213.915 120.854L218.026 125.294C218.393 125.691 218.994 125.696 219.372 125.347L220.882 123.948C221.279 123.581 221.878 123.622 222.228 124L233.301 135.96C233.668 136.356 234.155 136.466 234.646 136.012L236.063 134.701C236.572 134.229 236.464 133.733 236.114 133.355L225.041 121.395C224.674 120.999 224.715 120.399 225.093 120.05L226.603 118.651C227 118.284 227.005 117.683 226.655 117.305L222.544 112.865C222.177 112.468 222.218 111.869 222.596 111.519L222.86 111.275C223.256 110.907 223.261 110.307 222.911 109.929L188.049 72.2743C187.682 71.8775 187.081 71.8725 186.703 72.2221L184.985 73.813C184.589 74.1801 183.989 74.1386 183.639 73.7607L169.471 58.4572C169.121 58.0793 168.575 58.0581 168.162 58.37L166.676 56.764C167.095 56.2703 167.087 55.5413 166.649 55.069C166.212 54.5967 165.486 54.5321 164.961 54.9125L163.457 53.2877C163.877 52.7939 163.868 52.065 163.431 51.5926L161.699 49.7222C161.244 49.231 160.536 49.1853 160.011 49.5657L158.244 47.6574C158.664 47.1637 158.655 46.4348 158.218 45.9625L156.486 44.092C155.996 43.563 155.177 43.5494 154.668 44.0215L154.63 44.0564C153.645 43.5993 152.456 43.7535 151.625 44.5227C150.794 45.2919 150.53 46.4838 150.929 47.4829L150.816 47.5878C150.287 48.0773 150.274 48.8964 150.746 49.4065L152.478 51.277C152.95 51.7871 153.75 51.8181 154.259 51.3825L155.991 53.2529C155.498 53.7438 155.487 54.5266 155.959 55.0367L157.691 56.9071C158.163 57.4173 158.963 57.4483 159.471 57.0127L160.941 58.5997C160.448 59.0906 160.437 59.8734 160.909 60.3835C161.381 60.8936 162.182 60.9247 162.69 60.489L164.159 62.0761L163.801 62.4083C163.404 62.7754 163.399 63.3763 163.749 63.7542L177.918 79.0578C178.285 79.4545 178.244 80.054 177.867 80.4036L176.148 81.9945C175.752 82.3616 175.747 82.9625 176.097 83.3404L210.959 120.995C211.326 121.391 211.927 121.397 212.305 121.047Z" fill="#FDC45D"/>
<path d="M232.83 132.426C292.992 200.358 50.5316 335.841 46.5727 273.771C42.6137 211.701 180.384 215.003 206.276 257.469C232.168 299.935 92.1396 303.558 103.491 372.411C114.842 441.264 404.066 611.928 440.818 521.321C477.571 430.713 106.733 486.115 186.106 537.916C265.479 589.718 414.846 660.025 414.846 703.128C414.845 746.231 354.435 877.751 416.327 942.406" stroke="#FDC45D" stroke-width="3"/>
</g>
<defs>
<filter id="filter0_d_236_2746" x="33.9885" y="32.6807" width="421.9" height="921.763" filterUnits="userSpaceOnUse" color-interpolation-filters="sRGB">
<feFlood flood-opacity="0" result="BackgroundImageFix"/>
<feColorMatrix in="SourceAlpha" type="matrix" values="0 0 0 0 0 0 0 0 0 0 0 0 0 0 0 0 0 0 127 0" result="hardAlpha"/>
<feOffset/>
<feGaussianBlur stdDeviation="5.5"/>
<feComposite in2="hardAlpha" operator="out"/>
<feColorMatrix type="matrix" values="0 0 0 0 0 0 0 0 0 0 0 0 0 0 0 0 0 0 0.5 0"/>
<feBlend mode="normal" in2="BackgroundImageFix" result="effect1_dropShadow_236_2746"/>
<feBlend mode="normal" in="SourceGraphic" in2="effect1_dropShadow_236_2746" result="shape"/>
</filter>
</defs>
</svg>
