<svg width="15" height="114" viewBox="0 0 15 114" fill="none" xmlns="http://www.w3.org/2000/svg">
<path d="M0.876765 89.6739H1.20852C1.70615 89.6739 2.0853 90.077 2.0853 90.5512L2.0853 96.1233C2.0853 96.6212 2.48815 97.0006 2.96208 97.0006H4.85781C5.35544 97.0006 5.73459 97.4037 5.73459 97.8779L5.73459 112.887C5.73459 113.385 5.99524 113.764 6.61136 113.764H8.38861C9.02842 113.764 9.26539 113.361 9.26539 112.887L9.26539 97.8779C9.26539 97.38 9.66824 97.0006 10.1422 97.0006H12.0379C12.5355 97.0006 12.9147 96.5975 12.9147 96.1233V90.5512C12.9147 90.0533 13.3175 89.6739 13.7914 89.6739H14.1232C14.6208 89.6739 15 89.2709 15 88.7967L15 41.5412C15 41.0433 14.5971 40.6639 14.1232 40.6639H11.9668C11.4692 40.6639 11.09 40.2608 11.09 39.7866V20.5809C11.09 20.1067 10.7346 19.7511 10.2606 19.7036V17.6882C10.8531 17.6171 11.3033 17.1191 11.3033 16.5263C11.3033 15.9336 10.8531 15.4357 10.2606 15.3645V13.3255C10.8531 13.2543 11.3033 12.7563 11.3033 12.1636V9.81624C11.3033 9.19976 10.8531 8.72557 10.2606 8.65444V6.25963C10.8531 6.1885 11.3033 5.6906 11.3033 5.09783V2.75045C11.3033 2.08655 10.7583 1.56492 10.1185 1.56492H10.0711C9.69194 0.640198 8.79146 0 7.74881 0C6.70615 0 5.78197 0.640198 5.42652 1.56492H5.28435C4.62084 1.56492 4.09951 2.11026 4.09951 2.75045V5.09783C4.09951 5.73802 4.62085 6.25965 5.23696 6.28336L5.23696 8.6307C4.59715 8.65441 4.09951 9.17605 4.09951 9.81624V12.1636C4.09951 12.8038 4.62085 13.3254 5.23696 13.3491V15.3408C4.59715 15.3645 4.09951 15.8862 4.09951 16.5263C4.09951 17.1665 4.62085 17.6882 5.23696 17.7119V19.7036H4.78672C4.28909 19.7036 3.90994 20.1067 3.90994 20.5809L3.90994 39.7866C3.90994 40.2846 3.50711 40.6639 3.03317 40.6639H0.876765C0.379135 40.6639 0 41.067 0 41.5412L0 88.7967C0 89.2946 0.402832 89.6739 0.876765 89.6739Z" fill="#FDC45D"/>
</svg>
