<svg width="313" height="143" viewBox="0 0 313 143" fill="none" xmlns="http://www.w3.org/2000/svg">
<path d="M236.608 142.977C236.568 142.977 236.528 142.977 236.489 142.977C233.27 142.977 230.264 141.053 228.463 137.823L215.749 115.018C213.994 111.866 213.06 108.2 213.06 104.415V93.8997C213.06 90.0355 215.689 86.892 218.921 86.892C225.39 86.892 230.648 80.6048 230.648 72.8686C230.648 65.1324 225.39 58.8452 218.921 58.8452H210.127C207.962 58.8452 207.193 60.7298 207.193 62.3531C207.193 63.9763 207.962 65.8609 210.127 65.8609H218.921C222.709 65.8609 224.688 69.3845 224.688 72.8686C224.688 76.3527 222.709 79.8763 218.921 79.8763H210.127C208.511 79.8763 207.193 81.4521 207.193 83.3841V99.1575C207.193 103.758 204.247 106.165 201.333 106.165C198.419 106.165 195.473 103.758 195.473 99.1575V62.3452C195.473 59.7559 193.897 58.8373 192.539 58.8373C191.182 58.8373 189.606 59.7559 189.606 62.3452V135.97C189.606 139.834 186.977 142.977 183.745 142.977C180.514 142.977 177.488 141.053 175.686 137.823L162.972 115.018C161.218 111.866 160.284 108.2 160.284 104.415V93.8997C160.284 90.0355 162.913 86.892 166.144 86.892C172.614 86.892 177.872 80.6048 177.872 72.8686C177.872 65.1324 172.614 58.8452 166.144 58.8452H157.35C155.185 58.8452 154.417 60.7298 154.417 62.3531C154.417 63.9763 155.185 65.8609 157.35 65.8609H166.144C169.932 65.8609 171.912 69.3845 171.912 72.8686C171.912 74.6661 171.402 76.3606 170.475 77.6355C169.409 79.1083 167.912 79.8843 166.144 79.8843H157.35C155.735 79.8843 154.417 81.46 154.417 83.3921V99.1654C154.417 103.766 151.47 106.173 148.557 106.173C145.643 106.173 142.696 103.766 142.696 99.1654V62.3531C142.696 59.7638 141.12 58.8452 139.763 58.8452C138.405 58.8452 136.829 59.7638 136.829 62.3531V135.978C136.829 139.778 134.247 142.875 131.068 142.89L104.547 142.993C101.329 142.993 98.7202 139.866 98.7202 136.025V104.384C98.7202 100.543 101.336 97.4154 104.547 97.4154H122.175C124.34 97.4154 125.108 95.5309 125.108 93.9076C125.108 92.2844 124.34 90.3998 122.175 90.3998H104.547C101.336 90.3998 98.7202 87.272 98.7202 83.4316V72.7973C98.7202 68.9728 101.323 65.853 104.528 65.853H122.175C124.34 65.853 125.108 63.9684 125.108 62.3452C125.108 60.7219 124.34 58.8373 122.175 58.8373H95.7536C94.1577 58.8373 92.8532 60.3893 92.8532 62.3056V135.97C92.8532 140.57 89.9064 142.977 86.9928 142.977C84.0792 142.977 81.1324 140.57 81.1324 135.97V62.3452C81.1324 59.7559 79.5564 58.8373 78.1989 58.8373C76.8414 58.8373 75.2654 59.7559 75.2654 62.3452V135.97C75.2654 140.57 72.3187 142.977 69.4051 142.977C66.4914 142.977 63.5447 140.57 63.5447 135.97V62.3056C63.5447 60.3972 62.2468 58.8373 60.6443 58.8373H51.8968C50.2347 58.8373 48.8838 60.4527 48.8838 62.4402V135.97C48.8838 140.57 45.9371 142.977 43.0234 142.977C40.1098 142.977 37.163 140.57 37.163 135.97V62.3452C37.163 59.7559 35.587 58.8373 34.2295 58.8373C32.8721 58.8373 31.2961 59.7559 31.2961 62.3452V93.8997C31.2961 98.5002 28.3493 100.907 25.4357 100.907C22.522 100.907 19.5753 98.5002 19.5753 93.8997V62.3452C19.5753 59.7559 17.9993 58.8373 16.6418 58.8373C15.2843 58.8373 13.7083 59.7559 13.7083 62.3452V93.8997C13.7083 98.5002 10.7616 100.907 7.84792 100.907C4.93429 100.907 1.98755 98.5002 1.98755 93.8997V57.0874C1.98755 56.1213 2.64312 55.3374 3.45099 55.3374C4.25886 55.3374 4.91442 56.1213 4.91442 57.0874V93.8997C4.91442 96.489 6.49044 97.4075 7.84792 97.4075C9.20541 97.4075 10.7814 96.489 10.7814 93.8997V62.3452C10.7814 57.7446 13.7282 55.3374 16.6418 55.3374C19.5554 55.3374 22.5022 57.7446 22.5022 62.3452V93.8997C22.5022 96.489 24.0782 97.4075 25.4357 97.4075C26.7932 97.4075 28.3692 96.489 28.3692 93.8997V62.3452C28.3692 57.7446 31.3159 55.3374 34.2295 55.3374C37.1432 55.3374 40.0899 57.7446 40.0899 62.3452V135.97C40.0899 138.559 41.6659 139.478 43.0234 139.478C44.3809 139.478 45.9569 138.559 45.9569 135.97V62.4402C45.9569 58.5206 48.6255 55.3295 51.9034 55.3295H60.6509C63.8625 55.3295 66.4782 58.4572 66.4782 62.2976V135.962C66.4782 138.551 68.0542 139.47 69.4117 139.47C70.7692 139.47 72.3452 138.551 72.3452 135.962V62.3372C72.3452 57.7367 75.2919 55.3295 78.2055 55.3295C81.1192 55.3295 84.0659 57.7367 84.0659 62.3372V135.962C84.0659 138.551 85.6419 139.47 86.9994 139.47C88.3569 139.47 89.9329 138.551 89.9329 135.962V62.2976C89.9329 58.4572 92.5486 55.3295 95.7602 55.3295H122.182C126.029 55.3295 128.042 58.8532 128.042 62.3372C128.042 65.8213 126.029 69.345 122.182 69.345H104.534C102.952 69.345 101.66 70.889 101.66 72.7815V83.4158C101.66 85.3241 102.958 86.8761 104.554 86.8761H122.182C126.029 86.8761 128.042 90.3998 128.042 93.8839C128.042 97.3679 126.029 100.892 122.182 100.892H104.554C102.958 100.892 101.654 102.444 101.654 104.36V136.001C101.654 137.91 102.952 139.462 104.547 139.462L131.068 139.359C132.631 139.359 133.909 137.823 133.909 135.954V62.3293C133.909 57.7288 136.856 55.3216 139.769 55.3216C142.683 55.3216 145.63 57.7288 145.63 62.3293V99.1416C145.63 101.731 147.206 102.649 148.563 102.649C149.921 102.649 151.497 101.731 151.497 99.1416V83.3683C151.497 79.5042 154.126 76.3606 157.357 76.3606H166.151C168.243 76.3606 168.985 74.476 168.985 72.8528C168.985 71.2295 168.243 69.345 166.151 69.345H157.357C153.51 69.345 151.497 65.8213 151.497 62.3372C151.497 60.5319 152.02 58.8294 152.967 57.5546C153.722 56.5331 155.099 55.3216 157.364 55.3216H166.158C174.243 55.3216 180.818 63.1845 180.818 72.8528C180.818 82.5211 174.243 90.3839 166.158 90.3839C164.542 90.3839 163.224 91.9597 163.224 93.8918V104.407C163.224 107.503 163.979 110.497 165.416 113.07L178.13 135.875C179.381 138.124 181.487 139.47 183.745 139.47C185.361 139.47 186.679 137.894 186.679 135.962V62.3372C186.679 57.7367 189.626 55.3295 192.539 55.3295C195.453 55.3295 198.4 57.7367 198.4 62.3372V99.1495C198.4 101.739 199.976 102.657 201.333 102.657C202.691 102.657 204.267 101.739 204.267 99.1495V83.3762C204.267 79.5121 206.895 76.3685 210.127 76.3685H218.921C221.013 76.3685 221.755 74.484 221.755 72.8607C221.755 71.2374 221.013 69.3529 218.921 69.3529H210.127C206.28 69.3529 204.267 65.8292 204.267 62.3452C204.267 58.8611 206.28 55.3374 210.127 55.3374H218.921C227.006 55.3374 233.582 63.2003 233.582 72.8686C233.582 82.5369 227.006 90.3998 218.921 90.3998C217.305 90.3998 215.987 91.9755 215.987 93.9076V104.423C215.987 107.519 216.742 110.512 218.179 113.086L230.893 135.891C232.145 138.139 234.25 139.486 236.509 139.486C237.31 139.509 238.038 139.161 238.588 138.512C239.137 137.87 239.442 137.007 239.442 136.081V78.1264C239.442 73.5258 242.389 71.1187 245.302 71.1187C248.216 71.1187 251.163 73.5258 251.163 78.1264V125.454C251.163 128.028 252.739 128.938 254.096 128.938C255.454 128.938 257.03 128.028 257.03 125.454V62.2422C257.03 57.6417 259.977 55.2345 262.89 55.2345C265.804 55.2345 268.751 57.6417 268.751 62.2422V135.883C268.751 137.807 270.062 139.367 271.664 139.367H276.074C294.669 139.367 309.793 121.281 309.793 99.0466C309.793 76.8119 294.669 58.7265 276.074 58.7265C275.266 58.7265 274.611 57.9426 274.611 56.9765C274.611 56.0105 275.266 55.2266 276.074 55.2266C296.284 55.2266 312.72 74.8878 312.72 99.0466C312.72 123.205 296.278 142.867 276.074 142.867H271.664C268.439 142.867 265.817 139.731 265.817 135.875V62.2343C265.817 59.645 264.241 58.7265 262.884 58.7265C261.526 58.7265 259.95 59.645 259.95 62.2343V125.446C259.95 130.039 257.003 132.438 254.09 132.438C251.176 132.438 248.229 130.039 248.229 125.446V78.1185C248.229 75.5292 246.653 74.6106 245.296 74.6106C243.938 74.6106 242.362 75.5292 242.362 78.1185V136.073C242.362 137.941 241.746 139.699 240.627 141.006C239.541 142.281 238.111 142.977 236.588 142.977H236.608Z" fill="url(#paint0_linear_542_6569)"/>
<path d="M0.395747 48.372H0.54549C0.770106 48.372 0.941245 48.5894 0.941245 48.8452V51.8509C0.941245 52.1195 1.12308 52.3241 1.337 52.3241H2.19267C2.41729 52.3241 2.58843 52.5416 2.58843 52.7974V60.8935C2.58843 61.1621 2.70608 61.3667 2.98418 61.3667H3.78637C4.07517 61.3667 4.18213 61.1493 4.18213 60.8935V52.7974C4.18213 52.5288 4.36396 52.3241 4.57788 52.3241H5.43356C5.65817 52.3241 5.82931 52.1067 5.82931 51.8509V48.8452C5.82931 48.5766 6.01114 48.372 6.22506 48.372H6.3748C6.59942 48.372 6.77057 48.1546 6.77057 47.8988V22.4082C6.77057 22.1396 6.58872 21.935 6.3748 21.935H5.40147C5.17686 21.935 5.00572 21.7175 5.00572 21.4617V11.1018C5.00572 10.846 4.84528 10.6541 4.63136 10.6286V9.54139C4.89876 9.50302 5.10199 9.23441 5.10199 8.91465C5.10199 8.5949 4.89876 8.32632 4.63136 8.28795V7.18803C4.89876 7.14966 5.10199 6.88104 5.10199 6.56129V5.29508C5.10199 4.96254 4.89876 4.70675 4.63136 4.66838V3.37658C4.89876 3.3382 5.10199 3.06963 5.10199 2.74987V1.48365C5.10199 1.12553 4.85598 0.844149 4.56719 0.844149H4.5458C4.37466 0.345336 3.96821 0 3.49759 0C3.02696 0 2.60982 0.345336 2.44938 0.844149H2.3852C2.08571 0.844149 1.8504 1.13832 1.8504 1.48365V2.74987C1.8504 3.09521 2.08572 3.37659 2.36381 3.38938V4.65558C2.07502 4.66837 1.8504 4.94975 1.8504 5.29508V6.56129C1.8504 6.90662 2.08572 7.188 2.36381 7.20079V8.27515C2.07502 8.28794 1.8504 8.56932 1.8504 8.91465C1.8504 9.25999 2.08572 9.54137 2.36381 9.55416V10.6286H2.16059C1.93597 10.6286 1.76483 10.846 1.76483 11.1018V21.4617C1.76483 21.7303 1.58301 21.935 1.36909 21.935H0.395747C0.171131 21.935 0 22.1524 0 22.4082V47.8988C0 48.1674 0.181827 48.372 0.395747 48.372Z" fill="#F48046"/>
<defs>
<linearGradient id="paint0_linear_542_6569" x1="1.96768" y1="99.0941" x2="312.746" y2="99.0941" gradientUnits="userSpaceOnUse">
<stop stop-color="#F58047"/>
<stop offset="1" stop-color="#FDC45D"/>
</linearGradient>
</defs>
</svg>
